<?xml version="1.0" standalone="no"?>
<!DOCTYPE svg PUBLIC "-//W3C//DTD SVG 1.1//EN" "http://www.w3.org/Graphics/SVG/1.1/DTD/svg11.dtd" >
<svg>
<metadata>
Created by FontForge 20090914 at Tue Oct  5 08:45:07 2021
 By www-data
Copyright 2019 CoType Foundry. All Rights Reserved
</metadata>
<defs>
<font id="Ambit-Black" horiz-adv-x="290" >
  <font-face 
    font-family="Ambit Black"
    font-weight="900"
    font-stretch="normal"
    units-per-em="1000"
    panose-1="0 0 10 0 0 0 0 0 0 0"
    ascent="750"
    descent="-250"
    x-height="501"
    cap-height="695"
    bbox="-399 -235.001 1474 911"
    underline-thickness="120"
    underline-position="-170"
    unicode-range="U+000D-U+FB03"
  />
<missing-glyph horiz-adv-x="620" 
d="M60 720h500v-829h-500v829zM217 632c-27.333 0 -48.333 -8 -63 -24s-22 -38 -22 -66s7.33301 -50 22 -66s35.667 -24 63 -24c21.333 0 38.666 6.16699 51.999 18.5s20.666 28.5 21.999 48.5h-46c-4.66699 -19.333 -14.667 -29 -30 -29c-23.333 0 -35 17.333 -35 52
s11.667 52 35 52c15.333 0 25.333 -10 30 -30h46c-1.33301 20.667 -8.66602 37.167 -21.999 49.5s-30.666 18.5 -51.999 18.5zM394 632c-26.667 0 -47.834 -8.5 -63.501 -25.5s-23.5 -38.5 -23.5 -64.5c0 -26.667 7.83301 -48.334 23.5 -65.001s36.834 -25 63.501 -25
c26 0 47 8.33301 63 25s24 38.334 24 65.001c0 26 -8 47.5 -24 64.5s-37 25.5 -63 25.5zM394 490c-26 0 -39 17.333 -39 52s13 52 39 52s39 -17.333 39 -52s-13 -52 -39 -52zM142 400v-40h49v-138h47v138h50v40h-146zM417 288l64 112h-52l-35 -65l-33 65h-55l64 -112v-66h47
v66zM231 46c20 0 36.167 5.5 48.5 16.5s18.5 25.833 18.5 44.5s-6.16699 33.667 -18.5 45s-28.5 17 -48.5 17h-74v-178h46v55h28zM463 -9v40h-78v31h60v37h-60v30h75v40h-122v-178h125zM227 131c16 0 24 -8 24 -24c0 -15.333 -8 -23 -24 -23h-24v47h24z" />
    <glyph glyph-name="f_f" unicode="ff" horiz-adv-x="698" 
d="M548 544c0 -16.667 7.66602 -30.667 22.999 -42h119v-152h-101v-350h-190v350h-127v-350h-190v350h-77v152h70c-9.33301 22 -14 45 -14 69c0 39.333 18 71.833 54 97.5s79.667 38.5 131 38.5c30 0 57.167 -3.66699 81.5 -11s41.5 -16 51.5 -26l-63 -117
c-13.333 15.333 -29 23 -47 23c-11.333 0 -20.5 -3 -27.5 -9s-10.5 -13.667 -10.5 -23c0 -16.667 7.66699 -30.667 23 -42h138c-9.33301 22 -14 45 -14 69c0 39.333 18 71.833 54 97.5s79.667 38.5 131 38.5c80 0 135.667 -21 167 -63l-98 -95
c-11.333 18 -27.666 27 -48.999 27c-11.333 0 -20 -3 -26 -9s-9 -13.667 -9 -23z" />
    <glyph glyph-name="fi" unicode="fi" horiz-adv-x="639" 
d="M495 530c-28 0 -51.5 9 -70.5 27s-28.5 41 -28.5 69s9.5 51 28.5 69s42.5 27 70.5 27s51.5 -9 70.5 -27s28.5 -41 28.5 -69s-9.5 -51 -28.5 -69s-42.5 -27 -70.5 -27zM82 0v350h-77v152h70c-9.33301 22 -14 45 -14 69c0 39.333 18 71.833 54 97.5s79.667 38.5 131 38.5
c30 0 57.167 -3.66699 81.5 -11s41.5 -16 51.5 -26l-63 -117c-13.333 15.333 -29 23 -47 23c-11.333 0 -20.5 -3 -27.5 -9s-10.5 -13.667 -10.5 -23c0 -16.667 7.66699 -30.667 23 -42h99v-152h-81v-350h-190zM399 0v502h190v-502h-190z" />
    <glyph glyph-name="fl" unicode="fl" horiz-adv-x="639" 
d="M82 0v350h-77v152h70c-9.33301 22 -14 45 -14 69c0 39.333 18 71.833 54 97.5s79.667 38.5 131 38.5c30 0 57.167 -3.66699 81.5 -11s41.5 -16 51.5 -26l-63 -117c-13.333 15.333 -29 23 -47 23c-11.333 0 -20.5 -3 -27.5 -9s-10.5 -13.667 -10.5 -23
c0 -16.667 7.66699 -30.667 23 -42h99v-152h-81v-350h-190zM399 0v695h190v-695h-190z" />
    <glyph glyph-name="f_f_i" unicode="ffi" horiz-adv-x="956" 
d="M812 530c-28 0 -51.5 9 -70.5 27s-28.5 41 -28.5 69s9.5 51 28.5 69s42.5 27 70.5 27s51.5 -9 70.5 -27s28.5 -41 28.5 -69s-9.5 -51 -28.5 -69s-42.5 -27 -70.5 -27zM586 576c-11.333 0 -20.5 -3 -27.5 -9s-10.5 -13.667 -10.5 -23c0 -16.667 7.66699 -30.667 23 -42h99
v-152h-81v-350h-190v350h-127v-350h-190v350h-77v152h70c-9.33301 22 -14 45 -14 69c0 39.333 18 71.833 54 97.5s79.667 38.5 131 38.5c30 0 57.167 -3.66699 81.5 -11s41.5 -16 51.5 -26l-63 -117c-13.333 15.333 -29 23 -47 23c-11.333 0 -20.5 -3 -27.5 -9
s-10.5 -13.667 -10.5 -23c0 -16.667 7.66699 -30.667 23 -42h138c-9.33301 22 -14 45 -14 69c0 39.333 18 71.833 54 97.5s79.667 38.5 131 38.5c30 0 57.167 -3.66699 81.5 -11s41.5 -16 51.5 -26l-63 -117c-13.333 15.333 -29 23 -47 23zM716 0v502h190v-502h-190z" />
    <glyph glyph-name="f_f_l" unicode="ffl" horiz-adv-x="956" 
d="M586 576c-11.333 0 -20.5 -3 -27.5 -9s-10.5 -13.667 -10.5 -23c0 -16.667 7.66699 -30.667 23 -42h99v-152h-81v-350h-190v350h-127v-350h-190v350h-77v152h70c-9.33301 22 -14 45 -14 69c0 39.333 18 71.833 54 97.5s79.667 38.5 131 38.5
c30 0 57.167 -3.66699 81.5 -11s41.5 -16 51.5 -26l-63 -117c-13.333 15.333 -29 23 -47 23c-11.333 0 -20.5 -3 -27.5 -9s-10.5 -13.667 -10.5 -23c0 -16.667 7.66699 -30.667 23 -42h138c-9.33301 22 -14 45 -14 69c0 39.333 18 71.833 54 97.5s79.667 38.5 131 38.5
c30 0 57.167 -3.66699 81.5 -11s41.5 -16 51.5 -26l-63 -117c-13.333 15.333 -29 23 -47 23zM716 695h190v-695h-190v695z" />
    <glyph glyph-name=".notdef" horiz-adv-x="620" 
d="M60 720h500v-829h-500v829zM217 632c-27.333 0 -48.333 -8 -63 -24s-22 -38 -22 -66s7.33301 -50 22 -66s35.667 -24 63 -24c21.333 0 38.666 6.16699 51.999 18.5s20.666 28.5 21.999 48.5h-46c-4.66699 -19.333 -14.667 -29 -30 -29c-23.333 0 -35 17.333 -35 52
s11.667 52 35 52c15.333 0 25.333 -10 30 -30h46c-1.33301 20.667 -8.66602 37.167 -21.999 49.5s-30.666 18.5 -51.999 18.5zM394 632c-26.667 0 -47.834 -8.5 -63.501 -25.5s-23.5 -38.5 -23.5 -64.5c0 -26.667 7.83301 -48.334 23.5 -65.001s36.834 -25 63.501 -25
c26 0 47 8.33301 63 25s24 38.334 24 65.001c0 26 -8 47.5 -24 64.5s-37 25.5 -63 25.5zM394 490c-26 0 -39 17.333 -39 52s13 52 39 52s39 -17.333 39 -52s-13 -52 -39 -52zM142 400v-40h49v-138h47v138h50v40h-146zM417 288l64 112h-52l-35 -65l-33 65h-55l64 -112v-66h47
v66zM231 46c20 0 36.167 5.5 48.5 16.5s18.5 25.833 18.5 44.5s-6.16699 33.667 -18.5 45s-28.5 17 -48.5 17h-74v-178h46v55h28zM463 -9v40h-78v31h60v37h-60v30h75v40h-122v-178h125zM227 131c16 0 24 -8 24 -24c0 -15.333 -8 -23 -24 -23h-24v47h24z" />
    <glyph glyph-name="uni0000" horiz-adv-x="600" 
 />
    <glyph glyph-name="uni0000" horiz-adv-x="600" 
 />
    <glyph glyph-name="nonmarkingreturn" unicode="&#xd;" horiz-adv-x="600" 
 />
    <glyph glyph-name="space" unicode=" " horiz-adv-x="230" 
 />
    <glyph glyph-name="exclam" unicode="!" horiz-adv-x="310" 
d="M65 250l-12 445h204l-12 -445h-180zM155 -14c-31.333 0 -58.333 10.833 -81 32.5s-34 48.5 -34 80.5s11.333 58.833 34 80.5s49.667 32.5 81 32.5c32.667 0 60 -10.667 82 -32s33 -48.333 33 -81s-11 -59.667 -33 -81s-49.333 -32 -82 -32z" />
    <glyph glyph-name="quotedbl" unicode="&#x22;" horiz-adv-x="502" 
d="M56 427l-16 268h196l-16 -268h-164zM282 427l-16 268h196l-16 -268h-164z" />
    <glyph glyph-name="numbersign" unicode="#" horiz-adv-x="718" 
d="M679 415h-109l-20 -135h110l-19 -140h-110l-20 -140h-152l20 140h-98l-20 -140h-152l20 140h-109l19 140h109l20 135h-110l19 140h110l20 140h152l-20 -140h98l20 140h152l-20 -140h109zM398 280l20 135h-98l-20 -135h98z" />
    <glyph glyph-name="dollar" unicode="$" horiz-adv-x="672" 
d="M645 225c0 -64.667 -23.167 -118.668 -69.5 -162.001s-110.5 -68.333 -192.5 -75v-97h-96v98c-82 7.33301 -145.833 30.5 -191.5 69.5s-68.5 87.167 -68.5 144.5c0 30 4.33301 57 13 81l183 -38c-5.33301 -12 -8 -23.667 -8 -35c0 -34.667 24 -58.667 72 -72v135
c-84.667 12.667 -147 36.667 -187 72s-60 83 -60 143c0 56.667 21.667 105.667 65 147s104 65 182 71v97h96v-98c80.667 -7.33301 142.5 -31.166 185.5 -71.499s66.833 -94.5 71.5 -162.5l-183 -23c-5.33301 52 -30 86.667 -74 104v-120l29 -5
c81.333 -12.667 140.5 -35.5 177.5 -68.5s55.5 -77.833 55.5 -134.5zM225 499.999c0 -25.333 20.667 -42.667 62 -52v112c-41.333 -8 -62 -28 -62 -60zM383 134.998c24.667 4 43.667 12.166 57 24.499s20 27.5 20 45.5c0 28.667 -22 46.334 -66 53.001l-11 2v-125z" />
    <glyph glyph-name="percent" unicode="%" horiz-adv-x="1039" 
d="M230 315c-63.333 0 -114 17.833 -152 53.5s-57 83.167 -57 142.5s19 106.833 57 142.5s88.667 53.5 152 53.5s114 -17.833 152 -53.5s57 -83.167 57 -142.5s-19 -106.833 -57 -142.5s-88.667 -53.5 -152 -53.5zM221 0l454 695h152l-454 -695h-152zM230 430
c20 0 36.167 7.5 48.5 22.5s18.5 34.5 18.5 58.5s-6.16699 43.5 -18.5 58.5s-28.5 22.5 -48.5 22.5s-36.167 -7.5 -48.5 -22.5s-18.5 -34.5 -18.5 -58.5s6.16699 -43.5 18.5 -58.5s28.5 -22.5 48.5 -22.5zM809 -12c-63.333 0 -114 17.833 -152 53.5s-57 83.167 -57 142.5
s19 106.833 57 142.5s88.667 53.5 152 53.5s114 -17.833 152 -53.5s57 -83.167 57 -142.5s-19 -106.833 -57 -142.5s-88.667 -53.5 -152 -53.5zM809 103c20 0 36.167 7.5 48.5 22.5s18.5 34.5 18.5 58.5s-6.16699 43.5 -18.5 58.5s-28.5 22.5 -48.5 22.5
s-36.167 -7.5 -48.5 -22.5s-18.5 -34.5 -18.5 -58.5s6.16699 -43.5 18.5 -58.5s28.5 -22.5 48.5 -22.5z" />
    <glyph glyph-name="ampersand" unicode="&#x26;" horiz-adv-x="760" 
d="M760 26c-22 -17.333 -51.002 -25.999 -87.002 -25.999c-28 0 -53.667 4.16699 -77 12.5s-50.666 23.5 -81.999 45.5c-65.333 -48 -139 -72 -221 -72c-84 0 -152 18 -204 54s-78 83 -78 141c0 75.333 45.333 136.666 136 183.999c-44 46.667 -66 94.334 -66 143.001
c0 59.333 22.5 107.666 67.5 144.999s103.833 56 176.5 56c70.667 0 126.5 -16.5 167.5 -49.5s61.5 -78.5 61.5 -136.5c0 -68.667 -41.667 -126.667 -125 -174l82 -69c18 32 31.333 71.333 40 118l165 -27c-9.33301 -72.667 -34.666 -135.667 -75.999 -189
c17.333 -10 33.333 -15 48 -15c17.333 0 30 3.66699 38 11zM320.998 565.001c-18 0 -32.167 -4.66699 -42.5 -14s-15.5 -22.333 -15.5 -39c0 -11.333 4.16699 -21.833 12.5 -31.5s23.833 -24.167 46.5 -43.5c20.667 13.333 35 25.833 43 37.5s12 24.834 12 39.501
c0 15.333 -5.16699 27.666 -15.5 36.999s-23.833 14 -40.5 14zM210.998 206.001c0 -21.333 8.33301 -38.332 25 -50.999s38 -19 64 -19c33.333 0 63 7.33301 89 22l-111 90l-32 26c-23.333 -18.667 -35 -41.334 -35 -68.001z" />
    <glyph glyph-name="quotesingle" unicode="'" horiz-adv-x="276" 
d="M56 427l-16 268h196l-16 -268h-164z" />
    <glyph glyph-name="parenleft" unicode="(" horiz-adv-x="387" 
d="M313 -144c-81.333 30 -146.333 82 -195 156s-73 167.333 -73 280s24.333 206 73 280s113.667 126.667 195 158l59 -118c-114.667 -54 -172 -160.333 -172 -319c0 -160.667 57.333 -267 172 -319z" />
    <glyph glyph-name="parenright" unicode=")" horiz-adv-x="387" 
d="M74 -144l-59 118c114.667 54 172 160.333 172 319c0 160.667 -57.333 267 -172 319l59 118c81.333 -30 146.333 -82 195 -156s73 -167.333 73 -280s-24.333 -206 -73 -280s-113.667 -126.667 -195 -158z" />
    <glyph glyph-name="asterisk" unicode="*" horiz-adv-x="482" 
d="M181 287l-125 90l61 79l-92 28l47 146l95 -33l-2 98h154l-2 -97l93 32l47 -146l-92 -28l61 -79l-125 -90l-60 87z" />
    <glyph glyph-name="plus" unicode="+" horiz-adv-x="514" 
d="M481 380v-150h-146v-153h-162v153h-140v150h140v153h162v-153h146z" />
    <glyph glyph-name="comma" unicode="," horiz-adv-x="280" 
d="M135 208c35.333 0 64.167 -12.3311 86.5 -36.998s33.5 -57.334 33.5 -98.001c0 -76.667 -36 -149.334 -108 -218.001l-85 59c32 26 51 56.667 57 92c-26.667 2 -49 12 -67 30s-27 40.667 -27 68c0 31.333 10.5 56.5 31.5 75.5s47.167 28.5 78.5 28.5z" />
    <glyph glyph-name="hyphen" unicode="-" horiz-adv-x="356" 
d="M35 210v155h286v-155h-286z" />
    <glyph glyph-name="period" unicode="." horiz-adv-x="280" 
d="M140 -14c-31.333 0 -58.333 10.833 -81 32.5s-34 48.5 -34 80.5s11.333 58.833 34 80.5s49.667 32.5 81 32.5c32.667 0 60 -10.667 82 -32s33 -48.333 33 -81s-11 -59.667 -33 -81s-49.333 -32 -82 -32z" />
    <glyph glyph-name="slash" unicode="/" horiz-adv-x="477" 
d="M0 -100l317 830h150l-317 -830h-150z" />
    <glyph glyph-name="zero" unicode="0" horiz-adv-x="707" 
d="M354 -14c-98.667 0 -176.5 32.833 -233.5 98.5s-85.5 153.167 -85.5 262.5s28.5 197 85.5 263s134.833 99 233.5 99s176.334 -33 233.001 -99s85 -153.667 85 -263s-28.333 -196.833 -85 -262.5s-134.334 -98.5 -233.001 -98.5zM354 161c36.667 0 65 17.167 85 51.5
s30 79.166 30 134.499s-10 100.333 -30 135s-48.333 52 -85 52c-37.333 0 -66 -17.333 -86 -52s-30 -79.667 -30 -135s10 -100.166 30 -134.499s48.667 -51.5 86 -51.5z" />
    <glyph glyph-name="one" unicode="1" horiz-adv-x="405" 
d="M142 0v466c-31.333 -21.333 -75.333 -32 -132 -32v180c45.333 -2.66699 81.5 2.83301 108.5 16.5s40.5 35.167 40.5 64.5h178v-695h-195z" />
    <glyph glyph-name="two" unicode="2" horiz-adv-x="626" 
d="M30 0l-0.000976562 50c0 58.667 16.5 112.334 49.5 161.001s88.833 94.667 167.5 138l69 38c28.667 16 48.334 30.833 59.001 44.5s16 29.5 16 47.5c0 18.667 -7 34 -21 46s-32.667 18 -56 18c-28 0 -48.833 -7.66699 -62.5 -23s-20.5 -34.333 -20.5 -57
c0 -16 2.66699 -32.667 8 -50l-183 -43c-10.667 28.667 -16 60 -16 94c0 29.333 5.33301 58 16 86s26.667 54.167 48 78.5s51 43.833 89 58.5s81.667 22 131 22c78.667 0 142.167 -19.5 190.5 -58.5s72.5 -88.833 72.5 -149.5c0 -54.667 -12.833 -99.5 -38.5 -134.5
s-68.167 -67.5 -127.5 -97.5l-73 -37c-41.333 -20.667 -67.333 -39.334 -78 -56.001h321l-3 -176h-558z" />
    <glyph glyph-name="three" unicode="3" horiz-adv-x="626" 
d="M316 -14c-101.333 0 -175.167 22.667 -221.5 68s-69.5 101.333 -69.5 168c0 33.333 5.33301 66.666 16 99.999l182 -44c-5.33301 -17.333 -8 -34.333 -8 -51c0 -54 32.667 -81 98 -81c26 0 46.5 6.16699 61.5 18.5s22.5 28.5 22.5 48.5
c0 18.667 -7.83301 33.334 -23.5 44.001s-38.167 16 -67.5 16h-29v153h19c58.667 0 88 22 88 66c0 16.667 -6.5 30.334 -19.5 41.001s-30.833 16 -53.5 16c-29.333 0 -52 -10.667 -68 -32s-26 -49.333 -30 -84l-188 29c4.66699 32 13.5 62 26.5 90s31 54.167 54 78.5
s53.167 43.5 90.5 57.5s80 21 128 21c81.333 0 144.5 -17.333 189.5 -52s67.5 -82.334 67.5 -143.001c0 -42 -13.5 -76.667 -40.5 -104s-59.833 -44.333 -98.5 -51c102.667 -19.333 154 -73 154 -161c0 -66 -24.667 -117.833 -74 -155.5s-118 -56.5 -206 -56.5z" />
    <glyph glyph-name="four" unicode="4" horiz-adv-x="596" 
d="M328 0v130h-308v204c128 109.333 201.667 229.666 221 360.999h200c-12 -82 -41.667 -158.667 -89 -230s-100 -124.666 -158 -159.999h134v91h185v-91h62v-175h-62v-130h-185z" />
    <glyph glyph-name="five" unicode="5" horiz-adv-x="601" 
d="M292 -14c-80 0 -144.333 16.998 -193 50.998s-76.334 81.333 -83.001 142l182 40c10 -50 38.667 -75 86 -75c26.667 0 48 7.5 64 22.5s24 36.167 24 63.5c0 26.667 -8 47.834 -24 63.501s-37 23.5 -63 23.5c-20.667 0 -37.834 -3.66699 -51.501 -11
s-29.5 -19.666 -47.5 -36.999l-145 42c17.333 92 29.333 220 36 384h450v-174h-291c-2 -44 -7.33301 -88 -16 -132c33.333 44 83.333 66 150 66c60.667 0 109.334 -21.5 146.001 -64.5s55 -96.5 55 -160.5c0 -71.333 -25.667 -129.833 -77 -175.5
s-118.666 -68.5 -201.999 -68.5z" />
    <glyph glyph-name="six" unicode="6" horiz-adv-x="647" 
d="M335 -14c-92.667 0 -165.834 30.167 -219.501 90.5s-80.5 142.833 -80.5 247.5c0 116.667 28.167 210 84.5 280s131.5 105 225.5 105c160.667 0 251.334 -68 272.001 -204l-182 -32c-14 50.667 -44.333 76 -91 76c-35.333 0 -63.833 -17.667 -85.5 -53
s-32.5 -83.333 -32.5 -144c28.667 63.333 83.667 95 165 95c68 0 123.667 -19.333 167 -58s64.333 -92.667 63 -162c0 -73.333 -26.167 -131.833 -78.5 -175.5s-121.5 -65.5 -207.5 -65.5zM335 134c26.667 0 48.5 7.66797 65.5 23.001s25.5 35.333 25.5 60
s-8.5 44.667 -25.5 60s-38.833 23 -65.5 23s-48.667 -7.83301 -66 -23.5s-26 -35.834 -26 -60.501c0 -24 8.66699 -43.667 26 -59s39.333 -23 66 -23z" />
    <glyph glyph-name="seven" unicode="7" horiz-adv-x="537" 
d="M113 0c3.33301 109.333 22.668 205.832 58.001 289.499s89.666 162.167 162.999 235.5h-332v170h512v-173c-68 -88 -118.667 -173.667 -152 -257s-51.333 -171.666 -54 -264.999h-195z" />
    <glyph glyph-name="eight" unicode="8" horiz-adv-x="673" 
d="M336 -14c-91.333 0 -164.33 20.333 -218.997 61s-82 96 -82 166c0 73.333 38.333 126.333 115 159c-24.667 12.667 -45.334 31.5 -62.001 56.5s-25 53.833 -25 86.5c0 59.333 26.167 106.5 78.5 141.5s117.166 52.5 194.499 52.5c78 0 143.167 -17.5 195.5 -52.5
s78.5 -82.167 78.5 -141.5c0 -32.667 -8.33301 -61.5 -25 -86.5s-37.334 -43.833 -62.001 -56.5c38.667 -15.333 67.5 -37 86.5 -65s28.5 -59.333 28.5 -94c0 -70 -27.5 -125.333 -82.5 -166s-128.167 -61 -219.5 -61zM336.003 440c22.667 0 41.334 5.83301 56.001 17.5
s22 27.167 22 46.5c0 18.667 -7.33301 33.834 -22 45.501s-33.334 17.5 -56.001 17.5s-41.334 -5.83301 -56.001 -17.5s-22 -26.834 -22 -45.501c0 -19.333 7.33301 -34.833 22 -46.5s33.334 -17.5 56.001 -17.5zM336.003 129c29.333 0 53.835 7.5 73.502 22.5
s29.5 35.167 29.5 60.5c0 24.667 -9.83301 45 -29.5 61s-44.167 24 -73.5 24c-28.667 0 -52.834 -8 -72.501 -24s-29.5 -36.333 -29.5 -61s9.66699 -44.667 29 -60s43.666 -23 72.999 -23z" />
    <glyph glyph-name="nine" unicode="9" horiz-adv-x="653" 
d="M304 -14c-163.333 0 -255.333 71 -276 213l182 32c15.333 -56.667 47 -85 95 -85c36.667 0 66.167 17.667 88.5 53s33.5 83.333 33.5 144c-31.333 -63.333 -84 -95 -158 -95c-68.667 0 -125.334 19.333 -170.001 58s-67 92.667 -67 162
c0 73.333 26.167 131.833 78.5 175.5s121.5 65.5 207.5 65.5c92.667 0 165.834 -30.167 219.501 -90.5s80.5 -142.833 80.5 -247.5c0 -116.667 -28.5 -210 -85.5 -280s-133.167 -105 -228.5 -105zM318 395c26.667 0 48.667 7.83203 66 23.499s26 35.834 26 60.501
c0 24 -8.66699 43.667 -26 59s-39.333 23 -66 23s-48.5 -7.66699 -65.5 -23s-25.5 -35.333 -25.5 -60s8.5 -44.667 25.5 -60s38.833 -23 65.5 -23z" />
    <glyph glyph-name="colon" unicode=":" horiz-adv-x="300" 
d="M150 287c-31.333 0 -58.333 10.833 -81 32.5s-34 48.5 -34 80.5s11.333 58.833 34 80.5s49.667 32.5 81 32.5c32.667 0 60 -10.667 82 -32s33 -48.333 33 -81s-11 -59.667 -33 -81s-49.333 -32 -82 -32zM150 -14c-31.333 0 -58.333 10.833 -81 32.5s-34 48.5 -34 80.5
s11.333 58.833 34 80.5s49.667 32.5 81 32.5c32.667 0 60 -10.667 82 -32s33 -48.333 33 -81s-11 -59.667 -33 -81s-49.333 -32 -82 -32z" />
    <glyph glyph-name="semicolon" unicode=";" horiz-adv-x="300" 
d="M150 287c-31.333 0 -58.333 10.833 -81 32.5s-34 48.5 -34 80.5s11.333 58.833 34 80.5s49.667 32.5 81 32.5c32.667 0 60 -10.667 82 -32s33 -48.333 33 -81s-11 -59.667 -33 -81s-49.333 -32 -82 -32zM145 208c35.333 0 64.167 -12.3311 86.5 -36.998
s33.5 -57.334 33.5 -98.001c0 -76.667 -36 -149.334 -108 -218.001l-85 59c32 26 51 56.667 57 92c-26.667 2 -49 12 -67 30s-27 40.667 -27 68c0 31.333 10.5 56.5 31.5 75.5s47.167 28.5 78.5 28.5z" />
    <glyph glyph-name="less" unicode="&#x3c;" horiz-adv-x="514" 
d="M454 76l-398 150v166l398 150v-163l-227 -70l227 -70v-163z" />
    <glyph glyph-name="equal" unicode="=" horiz-adv-x="514" 
d="M50 337v150h414v-150h-414zM50 122v150h414v-150h-414z" />
    <glyph glyph-name="greater" unicode="&#x3e;" horiz-adv-x="514" 
d="M58 76v163l227 70l-227 70v163l398 -150v-166z" />
    <glyph glyph-name="question" unicode="?" horiz-adv-x="588" 
d="M202 240c0 32.667 6.16895 60.667 18.502 84s34.166 44 65.499 62c33.333 19.333 55.333 35 66 47s16 26.667 16 44c0 19.333 -6.33301 35.166 -19 47.499s-29.667 18.5 -51 18.5c-29.333 0 -51.166 -7.66699 -65.499 -23s-21.5 -34.333 -21.5 -57
c0 -16 2.66699 -32.667 8 -50l-183 -43c-10.667 28.667 -16 60 -16 94c0 30 5 58.667 15 86s25.667 53.333 47 78s51.666 44.334 90.999 59.001s85.333 22 138 22c80.667 0 143.667 -19.667 189 -59s68 -93.666 68 -162.999c0 -40.667 -11.5 -77.167 -34.5 -109.5
s-56.167 -58.5 -99.5 -78.5c-16 -7.33301 -26.833 -15.333 -32.5 -24s-8.83398 -20.334 -9.50098 -35.001h-190zM292.002 -14c-31.333 0 -58.333 10.833 -81 32.5s-34 48.5 -34 80.5s11.333 58.833 34 80.5s49.667 32.5 81 32.5c32.667 0 60 -10.667 82 -32
s33 -48.333 33 -81s-11 -59.667 -33 -81s-49.333 -32 -82 -32z" />
    <glyph glyph-name="at" unicode="@" horiz-adv-x="971" 
d="M470 -200c-127.333 0 -232.5 38.335 -315.5 115.002s-124.5 173.334 -124.5 290.001c0 118.667 44.833 216.667 134.5 294s202.5 116 338.5 116c129.333 0 235.5 -35.833 318.5 -107.5s124.5 -162.834 124.5 -273.501c0 -84 -21.167 -146.333 -63.5 -187
s-95.833 -61 -160.5 -61c-77.333 0 -124.333 23.333 -141 70c-28.667 -46 -72.334 -69 -131.001 -69c-56.667 0 -103.667 21.167 -141 63.5s-56 94.166 -56 155.499s18.667 113.166 56 155.499s84.333 63.5 141 63.5c54.667 0 95.334 -19 122.001 -57v45h127v-250
c0 -32.667 11.667 -49 35 -49c18.667 0 33.334 11.167 44.001 33.5s16 52.5 16 90.5c0 74 -27.5 134.5 -82.5 181.5s-124.833 70.5 -209.5 70.5c-92.667 0 -169.167 -26.5 -229.5 -79.5s-90.5 -121.5 -90.5 -205.5c0 -80.667 27.333 -147.5 82 -200.5
s123.667 -79.5 207 -79.5c73.333 0 139.666 17.333 198.999 52l30 -124c-60 -35.333 -136.667 -53 -230 -53zM491 114.002c25.333 0 45.333 9.5 60 28.5s22 40.167 22 63.5s-7.33301 44.5 -22 63.5s-34.667 28.5 -60 28.5c-26.667 0 -47 -8.66699 -61 -26
s-21 -39.333 -21 -66c0 -27.333 7 -49.5 21 -66.5s34.333 -25.5 61 -25.5z" />
    <glyph glyph-name="A" unicode="A" horiz-adv-x="701" 
d="M506 0l-45 144h-223l-43 -144h-205l233 695h255l233 -695h-205zM282 293h132l-68 218z" />
    <glyph glyph-name="B" unicode="B" horiz-adv-x="678" 
d="M63 0v695h314c78 0 137.667 -15.5 179 -46.5s62 -74.833 62 -131.5c0 -38.667 -11.833 -71.5 -35.5 -98.5s-53.167 -45.167 -88.5 -54.5c99.333 -23.333 149 -78.333 149 -165c0 -64 -21.167 -113.167 -63.5 -147.5s-102.833 -51.5 -181.5 -51.5h-335zM259 423h85
c54.667 0 82 23.333 82 70c0 43.333 -27.333 65 -82 65h-85v-135zM259 137h90c61.333 0 92 23.667 92 71c0 48 -31.667 72 -95 72h-87v-143z" />
    <glyph glyph-name="C" unicode="C" horiz-adv-x="742" 
d="M378 -14c-102.667 0 -186.333 33 -251 99s-97 153.333 -97 262c0 104.667 33.667 191.167 101 259.5s152.666 102.5 255.999 102.5c86 0 157.833 -24.667 215.5 -74s96.167 -119 115.5 -209l-196 -48c-23.333 100 -71.666 150 -144.999 150
c-41.333 0 -75.333 -16.667 -102 -50s-40 -77 -40 -131s13.667 -97.5 41 -130.5s63 -49.5 107 -49.5c69.333 0 114 36.333 134 109l205 -30c-45.333 -173.333 -160 -260 -344 -260z" />
    <glyph glyph-name="D" unicode="D" horiz-adv-x="747" 
d="M63 0v695h292c63.333 0 121.833 -12.833 175.5 -38.5s98.167 -65.5 133.5 -119.5s53 -117.333 53 -190c0 -54.667 -10.167 -104.334 -30.5 -149.001s-47.5 -81.167 -81.5 -109.5s-72.5 -50.166 -115.5 -65.499s-87.833 -23 -134.5 -23h-292zM259 181h80
c48.667 0 89.667 13.5 123 40.5s50 69.167 50 126.5c0 56.667 -16.667 98.5 -50 125.5s-74.333 40.5 -123 40.5h-80v-333z" />
    <glyph glyph-name="E" unicode="E" horiz-adv-x="621" 
d="M63 0v695h520v-169h-324v-92h268v-169h-268v-96h332v-169h-528z" />
    <glyph glyph-name="F" unicode="F" horiz-adv-x="592" 
d="M63 0v695h504v-181h-308v-99h251v-181h-251v-234h-196z" />
    <glyph glyph-name="G" unicode="G" horiz-adv-x="805" 
d="M363 -14c-96.667 0 -176.335 32.999 -239.002 98.999s-94 153.333 -94 262c0 104.667 34.667 191.167 104 259.5s157 102.5 263 102.5c86 0 157.5 -20 214.5 -60s93.5 -97 109.5 -171l-201 -48c-8 34 -23.667 59.833 -47 77.5s-51.333 26.5 -84 26.5
c-44 0 -80.667 -17.333 -110 -52s-44 -79.667 -44 -135c0 -58.667 16.333 -104.667 49 -138s73.667 -50 123 -50c40 0 72.833 7.16699 98.5 21.5s43.167 32.833 52.5 55.5h-166v151h355v-387h-175v97c-19.333 -39.333 -45.666 -67.666 -78.999 -84.999
s-76.666 -26 -129.999 -26z" />
    <glyph glyph-name="H" unicode="H" horiz-adv-x="761" 
d="M63 0v695h196v-254h243v254h196v-695h-196v260h-243v-260h-196z" />
    <glyph glyph-name="I" unicode="I" horiz-adv-x="322" 
d="M63 0v695h196v-695h-196z" />
    <glyph glyph-name="J" unicode="J" horiz-adv-x="605" 
d="M279 -14c-84 0 -149.166 23.1689 -195.499 69.502s-69.5 109.166 -69.5 188.499c0 30.667 4.33301 66 13 106l189 -35c-4 -22 -6 -42.333 -6 -61c0 -61.333 23.333 -92 70 -92c27.333 0 46.833 10.167 58.5 30.5s17.5 51.166 17.5 92.499v410h196v-461
c0 -78.667 -23.833 -139.667 -71.5 -183s-114.834 -65 -201.501 -65z" />
    <glyph glyph-name="K" unicode="K" horiz-adv-x="699" 
d="M508 294c32 -45.333 57.334 -75.333 76.001 -90s39.667 -22 63 -22c9.33301 0 18.666 0.666992 27.999 2v-181c-14 -5.33301 -30 -8 -48 -8c-60 0 -111.333 14.667 -154 44s-90 83.333 -142 162l-36 54l-36 -48v-207h-196v695h196v-290l200 290h225l-237 -315z" />
    <glyph glyph-name="L" unicode="L" horiz-adv-x="540" 
d="M63 0v695h196v-514h271v-181h-467z" />
    <glyph glyph-name="M" unicode="M" horiz-adv-x="926" 
d="M63 0v695h272l130 -329l125 329h273v-695h-196v458l-120 -304h-168l-120 304v-458h-196z" />
    <glyph glyph-name="N" unicode="N" horiz-adv-x="771" 
d="M63 0v695h192l263 -397v397h190v-695h-192l-263 395v-395h-190z" />
    <glyph glyph-name="O" unicode="O" horiz-adv-x="788" 
d="M394 -14c-105.333 0 -192.333 34 -261 102s-103 154.333 -103 259s34.333 191.167 103 259.5s155.667 102.5 261 102.5s192.333 -34.167 261 -102.5s103 -154.833 103 -259.5s-34.333 -191 -103 -259s-155.667 -102 -261 -102zM394 167c47.333 0 85.666 16 114.999 48
s44 76 44 132s-14.667 100.167 -44 132.5s-67.666 48.5 -114.999 48.5s-85.666 -16.167 -114.999 -48.5s-44 -76.5 -44 -132.5s14.667 -100 44 -132s67.666 -48 114.999 -48z" />
    <glyph glyph-name="P" unicode="P" horiz-adv-x="666" 
d="M63 0v695h317c76.667 0 140.167 -21.833 190.5 -65.5s75.5 -102.5 75.5 -176.5s-25.167 -132.833 -75.5 -176.5s-113.833 -65.5 -190.5 -65.5h-121v-211h-196zM259 379h92c60 0 90 24.667 90 74s-31 74 -93 74h-89v-148z" />
    <glyph glyph-name="Q" unicode="Q" horiz-adv-x="788" 
d="M667 44l122.999 -59.999c-12 -52 -33.333 -90 -64 -114s-66.667 -36 -108 -36c-45.333 0 -84.666 13.667 -117.999 41s-58.333 64.666 -75 111.999c-6.66699 -0.666992 -17 -1 -31 -1c-105.333 0 -192.333 34 -261 102s-103 154.333 -103 259s34.333 191.167 103 259.5
s155.667 102.5 261 102.5s192.333 -34.167 261 -102.5s103 -154.833 103 -259.5c0 -74 -18.167 -140 -54.5 -198s-85.5 -101 -147.5 -129c13.333 -23.333 33 -35 59 -35c26.667 0 44 19.667 52 59zM234.999 347.001c0 -56 14.667 -100 44 -132s67.666 -48 114.999 -48
s85.666 16 114.999 48s44 76 44 132s-14.667 100.167 -44 132.5s-67.666 48.5 -114.999 48.5s-85.666 -16.167 -114.999 -48.5s-44 -76.5 -44 -132.5z" />
    <glyph glyph-name="R" unicode="R" horiz-adv-x="701" 
d="M638 182c8.66699 0 18.333 0.666992 29 2v-181c-17.333 -5.33301 -36.666 -8 -57.999 -8c-68 0 -124.833 14 -170.5 42s-84.167 82.667 -115.5 164l-8 20h-56v-221h-196v695h331c77.333 0 141.166 -21.5 191.499 -64.5s75.5 -101.5 75.5 -175.5
c0 -50.667 -12.667 -92.5 -38 -125.5s-61 -56.5 -107 -70.5c14 -22 28.333 -39 43 -51s27.5 -19.333 38.5 -22s24.5 -4 40.5 -4zM258.999 527v-139h107c60 0 90 23.333 90 70c0 46 -31 69 -93 69h-104z" />
    <glyph glyph-name="S" unicode="S" horiz-adv-x="672" 
d="M343 -14c-98.667 0 -175.997 20.167 -231.997 60.5s-84 92.5 -84 156.5c0 30 4.33301 57 13 81l190 -38c-5.33301 -12 -8 -23.667 -8 -35c0 -21.333 11.167 -38.166 33.5 -50.499s52.166 -18.5 89.499 -18.5c33.333 0 59.166 5.66699 77.499 17s27.5 26.666 27.5 45.999
c0 15.333 -6.33301 27.666 -19 36.999s-28.334 15.333 -47.001 18l-92 13c-86.667 12.667 -150.334 36.667 -191.001 72s-61 83.333 -61 144c0 61.333 25.333 113.333 76 156s121 64 211 64c191.333 0 292.333 -78.333 303 -235l-193 -23
c-4 32.667 -14.667 57.834 -32 75.501s-45.666 26.5 -84.999 26.5c-24 0 -44.167 -5 -60.5 -15s-24.5 -22.667 -24.5 -38c0 -30.667 28 -50 84 -58l93 -14c81.333 -12 140.5 -34.667 177.5 -68s55.5 -78.333 55.5 -135c0 -70 -26.833 -127.333 -80.5 -172
s-127.5 -67 -221.5 -67z" />
    <glyph glyph-name="T" unicode="T" horiz-adv-x="624" 
d="M214 0v514h-194v181h584v-181h-194v-514h-196z" />
    <glyph glyph-name="U" unicode="U" horiz-adv-x="740" 
d="M370 -14c-102 0 -180.333 26 -235 78s-82 126.667 -82 224v407h196v-377c0 -48.667 10.333 -86 31 -112s50.667 -39 90 -39s69.333 13 90 39s31 63.333 31 112v377h196v-407c0 -97.333 -27.333 -172 -82 -224s-133 -78 -235 -78z" />
    <glyph glyph-name="V" unicode="V" horiz-adv-x="675" 
d="M210 0l-220 695h205l147 -498l138 498h205l-220 -695h-255z" />
    <glyph glyph-name="W" unicode="W" horiz-adv-x="983" 
d="M159 0l-159 695h201l83 -439l102 439h212l108 -439l76 439h201l-159 -695h-213l-119 430l-120 -430h-213z" />
    <glyph glyph-name="X" unicode="X" horiz-adv-x="703" 
d="M0 0l227 356l-213 339h228l121 -207l114 207h224l-219 -345l221 -350h-229l-129 219l-122 -219h-223z" />
    <glyph glyph-name="Y" unicode="Y" horiz-adv-x="664" 
d="M234 0v253l-244 442h221l124 -245l118 245h221l-244 -442v-253h-196z" />
    <glyph glyph-name="Z" unicode="Z" horiz-adv-x="622" 
d="M20 0v161l316 353h-301v181h552v-161l-316 -353h331v-181h-582z" />
    <glyph glyph-name="bracketleft" unicode="[" horiz-adv-x="383" 
d="M363 600h-118v-614h118v-130h-268v874h268v-130z" />
    <glyph glyph-name="backslash" unicode="\" horiz-adv-x="481" 
d="M327 -100l-317 830h154l317 -830h-154z" />
    <glyph glyph-name="bracketright" unicode="]" horiz-adv-x="383" 
d="M288 730v-874h-268v130h118v614h-118v130h268z" />
    <glyph glyph-name="asciicircum" unicode="^" horiz-adv-x="514" 
d="M35 414l143 280h160l142 -280h-167l-57 118l-54 -118h-167z" />
    <glyph glyph-name="underscore" unicode="_" horiz-adv-x="469" 
d="M10 -172v150h449v-150h-449z" />
    <glyph glyph-name="grave" unicode="`" horiz-adv-x="400" 
d="M132 549l-125 146h182l76 -146h-133z" />
    <glyph glyph-name="a" unicode="a" horiz-adv-x="588" 
d="M218 -12c-58 0 -104.834 14.001 -140.501 42.001s-53.5 66 -53.5 114c0 43.333 19 80.166 57 110.499s86 45.5 144 45.5c53.333 0 95.666 -13.333 126.999 -40v45c0 45.333 -23 68 -69 68c-16 0 -31 -5.33301 -45 -16s-23.667 -25 -29 -43l-178 23
c16.667 54 47.834 97 93.501 129s103.834 48 174.501 48c80 0 140.667 -17.5 182 -52.5s62 -91.5 62 -169.5v-292h-176v58c-16 -21.333 -37.833 -38.333 -65.5 -51s-55.5 -19 -83.5 -19zM274.999 104.001c28.667 0 54.334 15.667 77.001 47v4
c-22.667 24 -48.334 36 -77.001 36c-18.667 0 -33.5 -4 -44.5 -12s-16.5 -18.667 -16.5 -32c0 -12.667 5.66699 -23 17 -31s26 -12 44 -12z" />
    <glyph glyph-name="b" unicode="b" horiz-adv-x="630" 
d="M373 -12c-35.333 0 -66 8.33301 -92 25s-44.333 39 -55 67v-80h-176v695h190v-267c25.333 57.333 71.333 86 138 86c66 0 121 -24.333 165 -73s66 -112 66 -190c0 -78.667 -22.333 -142.167 -67 -190.5s-101 -72.5 -169 -72.5zM327 129c27.333 0 48.666 10.667 63.999 32
s23 51.333 23 90s-7.66699 68.667 -23 90s-36.666 32 -63.999 32c-24.667 0 -45.334 -11.667 -62.001 -35s-25 -52.333 -25 -87s8.33301 -63.667 25 -87s37.334 -35 62.001 -35z" />
    <glyph glyph-name="c" unicode="c" horiz-adv-x="557" 
d="M293 -12c-82 0 -147.83 22.167 -197.497 66.5s-74.5 109.833 -74.5 196.5c0 75.333 24.333 138 73 188s110 75 184 75c69.333 0 127.666 -18.167 174.999 -54.5s77.333 -92.833 90 -169.5l-182 -29c-2 34 -9.5 61.167 -22.5 81.5s-30.167 30.5 -51.5 30.5
c-22 0 -39.333 -11 -52 -33s-19 -51.667 -19 -89s7.16699 -67 21.5 -89s33.833 -33 58.5 -33c18.667 0 35.167 8.16699 49.5 24.5s24.166 37.833 29.499 64.5l169 -60c-27.333 -56.667 -60.333 -99.167 -99 -127.5s-89.334 -42.5 -152.001 -42.5z" />
    <glyph glyph-name="d" unicode="d" horiz-adv-x="630" 
d="M257 -12c-68 0 -124.332 24.166 -168.999 72.499s-67 111.833 -67 190.5c0 78 22 141.333 66 190s99 73 165 73c70 0 116 -25.333 138 -76v257h190v-695h-176v90c-12 -31.333 -30.833 -56.166 -56.5 -74.499s-55.834 -27.5 -90.501 -27.5zM303.001 128.999
c24.667 0 45.334 11.667 62.001 35s25 52.333 25 87s-8.33301 63.667 -25 87s-37.334 35 -62.001 35c-27.333 0 -48.666 -10.667 -63.999 -32s-23 -51.333 -23 -90s7.66699 -68.667 23 -90s36.666 -32 63.999 -32z" />
    <glyph glyph-name="e" unicode="e" horiz-adv-x="584" 
d="M407 190l152 -70c-44 -88 -127.333 -132 -250 -132c-84.667 0 -153.834 23.333 -207.501 70s-80.5 111 -80.5 193c0 76.667 26.667 139.667 80 189s120.333 74 201 74c78.667 0 140.834 -23.333 186.501 -70s68.5 -109 68.5 -187c0 -24.667 -0.333008 -40.667 -1 -48
h-338c4.66699 -25.333 15.167 -45 31.5 -59s37.5 -21 63.5 -21c40 0 71.333 20.333 94 61zM294 381c-20 0 -36.834 -7 -50.501 -21s-22.167 -33 -25.5 -57h146c-5.33301 52 -28.666 78 -69.999 78z" />
    <glyph glyph-name="f" unicode="f" horiz-adv-x="381" 
d="M82 0l-0.000976562 350h-77v152h70c-9.33301 22 -14 45 -14 69c0 39.333 18 71.833 54 97.5s79.667 38.5 131 38.5c80 0 135.667 -21 167 -63l-98 -95c-11.333 18 -27.666 27 -48.999 27c-11.333 0 -20 -3 -26 -9s-9 -13.667 -9 -23c0 -16.667 7.66699 -30.667 23 -42
h119v-152h-101v-350h-190z" />
    <glyph glyph-name="g" unicode="g" horiz-adv-x="595" 
d="M484 482c-11.333 0 -20.667 -7.99902 -28 -23.999c34 -28.667 51 -66 51 -112c0 -52.667 -21.833 -93.667 -65.5 -123s-98.5 -44 -164.5 -44c-26.667 0 -52.667 2.66699 -78 8c-12 -7.33301 -18 -16 -18 -26c0 -15.333 10.667 -23 32 -23h186c132 0 198 -52.667 198 -158
c0 -64 -28.333 -114 -85 -150s-128.667 -54 -216 -54c-189.333 0 -284 45.333 -284 136c0 42.667 29.667 74 89 94c-41.333 23.333 -62 57.333 -62 102c0 48.667 24.333 86.667 73 114c-44 30 -66 71.333 -66 124c0 53.333 21.667 94.666 65 123.999s98.666 44 165.999 44
c36.667 0 69.334 -4.33301 98.001 -13c28.667 60 72.667 90 132 90c30 0 55.667 -10 77 -30s32 -52.333 32 -97v-19l-102 -11c-2 32 -12 48 -30 48zM276.999 296.001c16.667 0 30.334 4.33301 41.001 13s16 21 16 37s-5.33301 28.333 -16 37s-24.334 13 -41.001 13
c-17.333 0 -31.5 -4.33301 -42.5 -13s-16.5 -21 -16.5 -37s5.5 -28.333 16.5 -37s25.167 -13 42.5 -13zM364.999 -21.999l-129.001 -0.000976562c-36.667 0 -55 -12 -55 -36c0 -30 37 -45 111 -45c36.667 0 65.834 5.33301 87.501 16s32.5 23.334 32.5 38.001
c0 18 -15.667 27 -47 27z" />
    <glyph glyph-name="h" unicode="h" horiz-adv-x="609" 
d="M50 0v695h190v-270c34 59.333 82.667 89 146 89c57.333 0 101.333 -17 132 -51s46 -82.667 46 -146v-317h-190v284c0 52.667 -19.667 79 -59 79c-22 0 -40 -8.33301 -54 -25s-21 -40 -21 -70v-268h-190z" />
    <glyph glyph-name="i" unicode="i" 
d="M146 530c-28 0 -51.5 9 -70.5 27s-28.5 41 -28.5 69s9.5 51 28.5 69s42.5 27 70.5 27s51.5 -9 70.5 -27s28.5 -41 28.5 -69s-9.5 -51 -28.5 -69s-42.5 -27 -70.5 -27zM50 0v502h190v-502h-190z" />
    <glyph glyph-name="j" unicode="j" 
d="M146 530c-28 0 -51.5 9 -70.5 27s-28.5 41 -28.5 69s9.5 51 28.5 69s42.5 27 70.5 27s51.5 -9 70.5 -27s28.5 -41 28.5 -69s-9.5 -51 -28.5 -69s-42.5 -27 -70.5 -27zM67 -224c-49.333 0 -94.667 9.33301 -136 28l41 149c14.667 -16 31 -24 49 -24c19.333 0 29 12 29 36
v537h190v-554c0 -60.667 -16.5 -104.5 -49.5 -131.5s-74.167 -40.5 -123.5 -40.5z" />
    <glyph glyph-name="k" unicode="k" horiz-adv-x="589" 
d="M426 244c19.333 -30 37.333 -51.167 54 -63.5s35.667 -18.5 57 -18.5c15.333 0 28.666 2.33301 39.999 7l-4 -169c-20.667 -4.66699 -41.667 -7 -63 -7c-53.333 0 -97.166 9.5 -131.499 28.5s-66.833 54.833 -97.5 107.5l-24 41l-17 -18v-152h-190v695h190v-379l139 186
h215l-189 -226z" />
    <glyph glyph-name="l" unicode="l" 
d="M50 0v695h190v-695h-190z" />
    <glyph glyph-name="m" unicode="m" horiz-adv-x="923" 
d="M688 514c62.667 0 109.999 -16.835 141.999 -50.502s48 -82.5 48 -146.5v-317h-190v287c0 50.667 -18.667 76 -56 76c-21.333 0 -38.833 -8.16699 -52.5 -24.5s-20.5 -39.166 -20.5 -68.499v-270h-190v287c0 50.667 -18.667 76 -56 76
c-21.333 0 -38.833 -8.16699 -52.5 -24.5s-20.5 -39.166 -20.5 -68.499v-270h-190v502h176v-77c34 59.333 82.667 89 146 89c70.667 0 123.334 -26.667 158.001 -80c37.333 53.333 90 80 158 80z" />
    <glyph glyph-name="n" unicode="n" horiz-adv-x="609" 
d="M50 0v502h176v-77c34 59.333 82.667 89 146 89c62 0 109.5 -17 142.5 -51s49.5 -82.667 49.5 -146v-317h-190v284c0 52.667 -19.667 79 -59 79c-22 0 -40 -8.33301 -54 -25s-21 -40 -21 -70v-268h-190z" />
    <glyph glyph-name="o" unicode="o" horiz-adv-x="598" 
d="M299 -12c-84 0 -151.333 24.333 -202 73s-76 112 -76 190s25.333 141.333 76 190s118 73 202 73s151.333 -24.333 202 -73s76 -112 76 -190s-25.333 -141.333 -76 -190s-118 -73 -202 -73zM299 129c26 0 46.333 10.667 61 32s22 51.333 22 90s-7.33301 68.667 -22 90
s-35 32 -61 32s-46.333 -10.667 -61 -32s-22 -51.333 -22 -90s7.33301 -68.667 22 -90s35 -32 61 -32z" />
    <glyph glyph-name="p" unicode="p" horiz-adv-x="630" 
d="M50 -210v712h176v-80c10.667 28 29 50.333 55 67s56.667 25 92 25c68 0 124.333 -24.167 169 -72.5s67 -111.833 67 -190.5c0 -78 -22 -141.333 -66 -190s-99 -73 -165 -73c-70 0 -116 25.333 -138 76v-274h-190zM327 129c27.333 0 48.666 10.667 63.999 32
s23 51.333 23 90s-7.66699 68.667 -23 90s-36.666 32 -63.999 32c-24.667 0 -45.334 -11.667 -62.001 -35s-25 -52.333 -25 -87s8.33301 -63.667 25 -87s37.334 -35 62.001 -35z" />
    <glyph glyph-name="q" unicode="q" horiz-adv-x="630" 
d="M390 -210v284c-25.333 -57.333 -71.333 -86 -138 -86c-66 0 -121 24.333 -165 73s-66 112 -66 190c0 78.667 22.333 142.167 67 190.5s101 72.5 169 72.5c35.333 0 66 -8.33301 92 -25s44.333 -39 55 -67v80h176v-712h-190zM303 129c24.667 0 45.334 11.667 62.001 35
s25 52.333 25 87s-8.33301 63.667 -25 87s-37.334 35 -62.001 35c-27.333 0 -48.666 -10.667 -63.999 -32s-23 -51.333 -23 -90s7.66699 -68.667 23 -90s36.666 -32 63.999 -32z" />
    <glyph glyph-name="r" unicode="r" horiz-adv-x="524" 
d="M50 0l-0.000976562 502h176v-94c28.667 68.667 77.334 103 146.001 103c43.333 0 78.5 -14 105.5 -42s40.5 -67 40.5 -117c0 -28 -5.66699 -60 -17 -96l-169 18c3.33301 12.667 5 26 5 40c0 34.667 -12.667 52 -38 52c-17.333 0 -31.5 -9.16699 -42.5 -27.5
s-16.5 -45.833 -16.5 -82.5v-256h-190z" />
    <glyph glyph-name="s" unicode="s" horiz-adv-x="543" 
d="M272 -12c-80 0 -143.501 15.833 -190.501 47.5s-70.833 74.167 -71.5 127.5l180 18c5.33301 -46 34.666 -69 87.999 -69c38 0 57 10.667 57 32c0 15.333 -12.333 25.333 -37 30l-56 10c-31.333 5.33301 -57.666 11.5 -78.999 18.5s-43.166 16.833 -65.499 29.5
s-39.166 29.667 -50.499 51s-17 47 -17 77c0 46.667 22.167 84 66.5 112s104.833 42 181.5 42c70.667 0 126.667 -13.667 168 -41s66 -62.666 74 -105.999l-168 -40c-9.33301 42 -34 63 -74 63c-38 0 -57 -10.667 -57 -32c0 -16.667 15.667 -27.334 47 -32.001l55 -8
c28.667 -4 53.667 -9.33301 75 -16s42.166 -16.167 62.499 -28.5s35.833 -28.833 46.5 -49.5s16 -45.334 16 -74.001c0 -51.333 -23.333 -91.166 -70 -119.499s-107 -42.5 -181 -42.5z" />
    <glyph glyph-name="t" unicode="t" horiz-adv-x="473" 
d="M261 -12c-126 0 -189 58.333 -189 175v187h-62v152h74l50 142h128v-142h190v-152h-190v-166c0 -22.667 9 -34 27 -34c9.33301 0 18 4.83301 26 14.5s16.333 25.834 25 48.501l138 -78c-28 -50.667 -58.833 -87.834 -92.5 -111.501s-75.167 -35.5 -124.5 -35.5z" />
    <glyph glyph-name="u" unicode="u" horiz-adv-x="604" 
d="M234 -12c-60.667 0 -107.333 17.001 -140 51.001s-49 82.667 -49 146v317h190v-286c0 -51.333 18.667 -77 56 -77c21.333 0 38.833 8.16699 52.5 24.5s20.5 39.166 20.5 68.499v270h190v-502h-176v77c-34 -59.333 -82 -89 -144 -89z" />
    <glyph glyph-name="v" unicode="v" horiz-adv-x="542" 
d="M165 0l-176 502h200l83 -296l81 296h200l-175 -502h-213z" />
    <glyph glyph-name="w" unicode="w" horiz-adv-x="831" 
d="M155 0l-153 502h194l58 -278l66 278h190l69 -278l56 278h194l-153 -502h-187l-74 289l-73 -289h-187z" />
    <glyph glyph-name="x" unicode="x" horiz-adv-x="575" 
d="M-2 0l178 256l-164 246h214l65 -116l68 116h204l-164 -246l178 -256h-214l-79 126l-82 -126h-204z" />
    <glyph glyph-name="y" unicode="y" horiz-adv-x="542" 
d="M163 -224c-72 0 -127.666 32.333 -166.999 97l117 102c13.333 -30.667 30.333 -46 51 -46c22 0 38.667 18.333 50 55l5 16h-55l-175 502h200l83 -297l81 297h200l-207 -572c-20.667 -57.333 -45.334 -97.333 -74.001 -120s-65 -34 -109 -34z" />
    <glyph glyph-name="z" unicode="z" horiz-adv-x="498" 
d="M17 0v121l213 228h-202v152h442v-121l-213 -228h224v-152h-464z" />
    <glyph glyph-name="braceleft" unicode="{" horiz-adv-x="392" 
d="M372 -144c-88 2.66699 -152.5 16.999 -193.5 42.999s-61.5 64 -61.5 114c0 16.667 4.33301 41.5 13 74.5s13 59.5 13 79.5c0 43.333 -35.333 65 -106 65h-7v122h7c70.667 0 106 21.667 106 65c0 20 -4.33301 46.5 -13 79.5s-13 57.833 -13 74.5c0 50 20.5 88 61.5 114
s105.5 40.333 193.5 43v-130c-40 -3.33301 -67.833 -9.33301 -83.5 -18s-23.5 -24.334 -23.5 -47.001c0 -15.333 4.66699 -37.666 14 -66.999s14 -54.666 14 -75.999c0 -56.667 -36 -89.667 -108 -99c72 -9.33301 108 -42 108 -98c0 -22 -4.66699 -47.333 -14 -76
s-14 -51 -14 -67c0 -23.333 7.83301 -39.333 23.5 -48s43.5 -14.667 83.5 -18v-130z" />
    <glyph glyph-name="bar" unicode="|" horiz-adv-x="314" 
d="M83 -100v830h148v-830h-148z" />
    <glyph glyph-name="braceright" unicode="}" horiz-adv-x="392" 
d="M20 -144v130.001c40 3.33301 67.833 9.33301 83.5 18s23.5 24.334 23.5 47.001c0 15.333 -4.66699 37.666 -14 66.999s-14 54.666 -14 75.999c0 56.667 36 89.667 108 99c-72 9.33301 -108 42 -108 98c0 22 4.66699 47.333 14 76s14 51 14 67
c0 23.333 -7.83301 39.333 -23.5 48s-43.5 14.667 -83.5 18v130c88 -2.66699 152.5 -17 193.5 -43s61.5 -64 61.5 -114c0 -16.667 -4.33301 -41.5 -13 -74.5s-13 -59.5 -13 -79.5c0 -43.333 35.333 -65 106 -65h7v-122h-7c-70.667 0 -106 -21.667 -106 -65
c0 -20 4.33301 -46.5 13 -79.5s13 -57.833 13 -74.5c0 -50 -20.5 -88 -61.5 -114s-105.5 -40.333 -193.5 -43z" />
    <glyph glyph-name="asciitilde" unicode="~" horiz-adv-x="514" 
d="M337 206c-26.667 0 -53 7.83301 -79 23.5s-44 23.5 -54 23.5c-19.333 0 -31.666 -16.333 -36.999 -49l-138 28c12 114 61 171 147 171c26.667 0 53 -7.83301 79 -23.5s44 -23.5 54 -23.5c19.333 0 31.666 16.333 36.999 49l139 -28c-12 -114 -61.333 -171 -148 -171z" />
    <glyph glyph-name="uni00A0" unicode="&#xa0;" horiz-adv-x="230" 
 />
    <glyph glyph-name="exclamdown" unicode="&#xa1;" horiz-adv-x="310" 
d="M155 516c31.333 0 58.333 -10.833 81 -32.5s34 -48.5 34 -80.5s-11.333 -58.833 -34 -80.5s-49.667 -32.5 -81 -32.5c-32.667 0 -60 10.667 -82 32s-33 48.333 -33 81s11 59.667 33 81s49.333 32 82 32zM245 252l12 -445h-204l12 445h180z" />
    <glyph glyph-name="cent" unicode="&#xa2;" horiz-adv-x="584" 
d="M349 134c31.333 15.333 51.667 43.333 61 84l149 -60c-24 -50 -52.333 -89 -85 -117s-74.334 -45 -125.001 -51v-92h-90v93c-70 8 -125.5 33.833 -166.5 77.5s-61.5 104.5 -61.5 182.5c0 69.333 21.333 128.333 64 177s97.334 76.667 164.001 84v92h90v-94
c56.667 -8.66699 103.667 -30.167 141 -64.5s61 -82.833 71 -145.5l-162 -29c-3.33301 45.333 -20 77 -50 95v-232zM206.001 251c0 -54.667 17.667 -92.667 53 -114v231c-35.333 -20.667 -53 -59.667 -53 -117z" />
    <glyph glyph-name="sterling" unicode="&#xa3;" horiz-adv-x="732" 
d="M510 259l189.997 -4c0 -84 -19.167 -149.833 -57.5 -197.5s-93.166 -71.5 -164.499 -71.5c-48 0 -91.333 17 -130 51c-39.333 -34 -91.666 -51 -156.999 -51c-48.667 0 -87.667 13 -117 39s-44 60.333 -44 103s15.167 77.5 45.5 104.5s70.5 40.5 120.5 40.5
c14.667 0 28 -2 40 -6l-20 35h-131v105h66c-18 34 -27 64.667 -27 92c0 63.333 25.833 114.166 77.5 152.499s120.5 57.5 206.5 57.5c80.667 0 145.167 -22.167 193.5 -66.5s72.833 -104.166 73.5 -179.499l-191 -18c-1.33301 29.333 -9.5 53 -24.5 71s-34.5 27 -58.5 27
c-24.667 0 -43.667 -7 -57 -21s-20 -32 -20 -54c0 -20 4.33301 -40.333 13 -61h156v-105h-102c15.333 -35.333 23 -69 23 -101c0 -17.333 -1.66699 -35 -5 -53c8.66699 -4 17.334 -6 26.001 -6c48 0 73 39 75 117zM194.997 92c27.333 0 45.332 17.333 53.999 52
c-17.333 15.333 -35.666 23 -54.999 23c-13.333 0 -24.333 -3.5 -33 -10.5s-13 -16.167 -13 -27.5s4.33301 -20.333 13 -27s20 -10 34 -10z" />
    <glyph glyph-name="currency" unicode="&#xa4;" horiz-adv-x="504" 
d="M127 104l-106 105.999l53 53c-8.66699 22.667 -13 46.334 -13 71.001c0 23.333 4.33301 47 13 71l-53 52l106 106l54 -54c21.333 8.66699 45.333 13 72 13c26 0 49.333 -4 70 -12l54 53l106 -106l-53 -52c8.66699 -24 13 -47.667 13 -71c0 -24 -4.33301 -48 -13 -72
l53 -52l-106 -106l-54 53c-20.667 -8 -44 -12 -70 -12c-26.667 0 -50.667 4.33301 -72 13zM253 248.999c24.667 0 44.834 8 60.501 24s23.5 36.333 23.5 61s-7.83301 44.834 -23.5 60.501s-35.834 23.5 -60.501 23.5c-25.333 0 -46 -7.83301 -62 -23.5
s-24 -35.834 -24 -60.501s8 -45 24 -61s36.667 -24 62 -24z" />
    <glyph glyph-name="yen" unicode="&#xa5;" horiz-adv-x="674" 
d="M679 695l-194 -328h100v-105h-150v-65h150v-105h-150v-92h-196v92h-150v105h150v65h-150v105h100l-194 328h221l124 -245l118 245h221z" />
    <glyph glyph-name="brokenbar" unicode="&#xa6;" horiz-adv-x="314" 
d="M83 385v345h148v-345h-148zM83 -100v335h148v-335h-148z" />
    <glyph glyph-name="section" unicode="&#xa7;" horiz-adv-x="603" 
d="M573 334c0 -59.333 -38.333 -101.332 -115 -125.999c43.333 -27.333 65 -70.333 65 -129c0 -50.667 -21.167 -90.667 -63.5 -120s-100.5 -44 -174.5 -44c-70.667 0 -126.667 13.667 -168 41s-66 62.666 -74 105.999l168 40c9.33301 -42 34 -63 74 -63
c38 0 57 12.333 57 37c0 12 -3.5 21 -10.5 27s-19.167 11 -36.5 15l-49 12c-73.333 18 -122 33.333 -146 46c-46.667 25.333 -70 63.666 -70 114.999c0 59.333 38.667 101 116 125c-44 26.667 -66 69.667 -66 129c0 50.667 21.167 90.667 63.5 120s100.5 44 174.5 44
c70.667 0 126.667 -13.667 168 -41s66 -62.666 74 -105.999l-168 -40c-9.33301 42 -34 63 -74 63c-38 0 -57 -12.333 -57 -37c0 -11.333 3.5 -20 10.5 -26s19.167 -11 36.5 -15l49 -12c73.333 -18 122 -33.333 146 -46c46 -26.667 69.333 -65 70 -115zM321 260.001
c3.33301 -1.33301 8 -2.6709 14 -4.00391s10.333 -2.66602 13 -3.99902c24.667 13.333 37 30 37 50c0 13.333 -3.66699 23.5 -11 30.5s-21.333 13.167 -42 18.5l-50 14c-3.33301 0.666992 -7.83301 1.83398 -13.5 3.50098s-9.5 2.83398 -11.5 3.50098
c-26 -12.667 -39 -29 -39 -49c0 -12.667 3.83301 -22.667 11.5 -30s21.5 -13.666 41.5 -18.999z" />
    <glyph glyph-name="dieresis" unicode="&#xa8;" horiz-adv-x="400" 
d="M90 540c-25.333 0 -46.5 8.16699 -63.5 24.5s-25.5 36.833 -25.5 61.5c0 24 8.5 44 25.5 60s38.167 24 63.5 24s46.5 -8 63.5 -24s25.5 -36 25.5 -60c0 -24.667 -8.5 -45.167 -25.5 -61.5s-38.167 -24.5 -63.5 -24.5zM309 540c-25.333 0 -46.5 8.16699 -63.5 24.5
s-25.5 36.833 -25.5 61.5c0 24 8.5 44 25.5 60s38.167 24 63.5 24s46.5 -8 63.5 -24s25.5 -36 25.5 -60c0 -24.667 -8.5 -45.167 -25.5 -61.5s-38.167 -24.5 -63.5 -24.5z" />
    <glyph glyph-name="copyright" unicode="&#xa9;" horiz-adv-x="788" 
d="M395 -14c-104 0 -190.834 34.333 -260.501 103s-104.5 155 -104.5 259s34.667 190.167 104 258.5s156 102.5 260 102.5s190.667 -34.167 260 -102.5s104 -154.5 104 -258.5s-34.667 -190.333 -104 -259s-155.666 -103 -258.999 -103zM393.999 65
c80 0 146.167 26.5 198.5 79.5s78.5 120.833 78.5 203.5c0 82 -26.167 149.667 -78.5 203s-118.5 80 -198.5 80s-146.167 -26.667 -198.5 -80s-78.5 -121 -78.5 -203c0 -82.667 26.167 -150.5 78.5 -203.5s118.5 -79.5 198.5 -79.5zM396.999 140
c-60.667 0 -109.334 18.166 -146.001 54.499s-55 86.5 -55 150.5c0 60 18.667 110 56 150s85.333 60 144 60c46.667 0 87.167 -13.667 121.5 -41s55.833 -66 64.5 -116l-109 -26c-15.333 56.667 -42.666 85 -81.999 85c-24 0 -43.167 -9.66699 -57.5 -29
s-21.5 -46.333 -21.5 -81c0 -33.333 7.5 -59.833 22.5 -79.5s35.833 -29.5 62.5 -29.5c18.667 0 34 5.33301 46 16s23 27 33 49l108 -28c-17.333 -41.333 -42 -74.166 -74 -98.499s-69.667 -36.5 -113 -36.5z" />
    <glyph glyph-name="ordfeminine" unicode="&#xaa;" horiz-adv-x="458" 
d="M170 333c-45.333 0 -80.998 10.002 -106.998 30.002s-39 47.333 -39 82c0 31.333 13.833 57.666 41.5 78.999s64.167 32 109.5 32c37.333 0 67.666 -9.33301 90.999 -28v29c0 32 -16.333 48 -49 48c-26.667 0 -44.334 -12 -53.001 -36l-134 17
c12 37.333 34.833 67.166 68.5 89.499s77.167 33.5 130.5 33.5c122.667 0 184 -55.333 184 -166v-201h-136v41c-12 -15.333 -27.833 -27.5 -47.5 -36.5s-39.5 -13.5 -59.5 -13.5zM211.002 416.002c20.667 0 39 10.667 55 32v7c-16.667 15.333 -35 23 -55 23
c-12.667 0 -23 -3 -31 -9s-12 -13.333 -12 -22c0 -9.33301 4 -16.833 12 -22.5s18.333 -8.5 31 -8.5z" />
    <glyph glyph-name="guillemotleft" unicode="&#xab;" horiz-adv-x="598" 
d="M280 79l-240 125v162l240 125v-167l-101 -39l101 -37v-169zM548 79l-240 125v162l240 125v-167l-101 -39l101 -37v-169z" />
    <glyph glyph-name="logicalnot" unicode="&#xac;" horiz-adv-x="514" 
d="M282 155v120h-249v150h411v-270h-162z" />
    <glyph glyph-name="uni00AD" unicode="&#xad;" horiz-adv-x="356" 
d="M35 210v155h286v-155h-286z" />
    <glyph glyph-name="registered" unicode="&#xae;" horiz-adv-x="442" 
d="M222 333c-54.667 0 -100.334 18 -137.001 54s-55 81 -55 135c0 53.333 18.333 97.833 55 133.5s82.334 53.5 137.001 53.5s100 -18 136 -54s54 -80.667 54 -134s-18 -98 -54 -134s-81.333 -54 -136 -54zM222 385c39.333 0 71.666 12.667 96.999 38s38 58 38 98
s-12.667 72.667 -38 98s-57.666 38 -96.999 38c-40 0 -72.833 -12.667 -98.5 -38s-38.5 -58 -38.5 -98s12.833 -72.667 38.5 -98s58.5 -38 98.5 -38zM143 433v187h86c24 0 43 -5.33301 57 -16s21 -25 21 -43c0 -30 -13.667 -48.667 -41 -56l7 -8
c9.33301 -10 21 -15.333 35 -16v-48c-19.333 0 -35.5 3 -48.5 9s-25.833 18 -38.5 36l-9 13h-17v-58h-52zM195 533h31c18.667 0 28 7.66699 28 23c0 14.667 -9.33301 22 -28 22h-31v-45z" />
    <glyph glyph-name="macron" unicode="&#xaf;" horiz-adv-x="400" 
d="M41 561v119h318v-119h-318z" />
    <glyph glyph-name="degree" unicode="&#xb0;" horiz-adv-x="390" 
d="M195 401c-48.667 0 -89.167 14.667 -121.5 44s-48.5 66.333 -48.5 111c0 43.333 16.167 79.666 48.5 108.999s72.833 44 121.5 44s89.167 -14.667 121.5 -44s48.5 -65.666 48.5 -108.999c0 -44.667 -16.167 -81.667 -48.5 -111s-72.833 -44 -121.5 -44zM195 506
c14 0 25.833 4.83301 35.5 14.5s14.5 21.5 14.5 35.5s-4.83301 25.667 -14.5 35s-21.5 14 -35.5 14s-25.833 -4.66699 -35.5 -14s-14.5 -21 -14.5 -35s4.83301 -25.833 14.5 -35.5s21.5 -14.5 35.5 -14.5z" />
    <glyph glyph-name="plusminus" unicode="&#xb1;" horiz-adv-x="514" 
d="M335 458h146v-150h-146v-123h-162v123h-140v150h140v123h162v-123zM33 0v150h448v-150h-448z" />
    <glyph glyph-name="uni00B2" unicode="&#xb2;" horiz-adv-x="433" 
d="M20 269v37.001c0 35.333 11 66.333 33 93s61.667 55.667 119 87l43 23c18 10 30.333 19.333 37 28s10 18.667 10 30s-4.5 20.666 -13.5 27.999s-20.5 11 -34.5 11c-17.333 0 -30.333 -4.66699 -39 -14s-13 -21 -13 -35c0 -10.667 1.66699 -21 5 -31l-131 -27
c-6 16.667 -9 36 -9 58c0 42 17 77.833 51 107.5s81.333 44.5 142 44.5c51.333 0 94 -11.333 128 -34s51.667 -54.334 53 -95.001c0.666992 -33.333 -8 -60.166 -26 -80.499s-49.667 -41.5 -95 -63.5l-44 -21c-24.667 -11.333 -41 -23.333 -49 -36h216v-110h-383z" />
    <glyph glyph-name="uni00B3" unicode="&#xb3;" horiz-adv-x="441" 
d="M227 260c-64 0 -113.333 14.5 -148 43.5s-52 63.5 -52 103.5c0 23.333 3.33301 44 10 62l133 -27c-3.33301 -11.333 -5 -22 -5 -32c0 -31.333 20.333 -47 61 -47c16 0 28.667 3.5 38 10.5s14 16.833 14 29.5c0 12 -5 21.5 -15 28.5s-24 10.5 -42 10.5h-18v89h9
c38.667 0 58 14 58 42c0 23.333 -15 35 -45 35c-36 0 -57 -23.333 -63 -70l-132 18c6 41.333 26.5 77.166 61.5 107.499s81.5 45.5 139.5 45.5c52 0 95.167 -11 129.5 -33s51.5 -51.333 51.5 -88c0 -26.667 -8 -48.5 -24 -65.5s-37.667 -27.167 -65 -30.5
c65.333 -11.333 98 -44.666 98 -99.999c0 -40 -18.333 -72 -55 -96s-83 -36 -139 -36z" />
    <glyph glyph-name="acute" unicode="&#xb4;" horiz-adv-x="400" 
d="M136 549l76 146h183l-125 -146h-134z" />
    <glyph glyph-name="uni00B5" unicode="&#xb5;" horiz-adv-x="609" 
d="M50 -193v695.001h191v-305c4 -38.667 22.333 -58 55 -58c21.333 0 38.833 8.16699 52.5 24.5s20.5 39.166 20.5 68.499v270h190v-502h-176v77c-24 -54.667 -59 -82 -105 -82c-32 0 -55 10.333 -69 31l31 -219h-190z" />
    <glyph glyph-name="paragraph" unicode="&#xb6;" horiz-adv-x="839" 
d="M392 0c-46.667 0 -91.5 7.66699 -134.5 23s-81.5 37.333 -115.5 66s-61.167 65.5 -81.5 110.5s-30.5 94.833 -30.5 149.5s10.167 104.334 30.5 149.001s47.5 81.167 81.5 109.5s72.5 50.166 115.5 65.499s87.833 23 134.5 23h92v-696h-92zM580 0v695h196v-695h-196z" />
    <glyph glyph-name="periodcentered" unicode="&#xb7;" horiz-adv-x="300" 
d="M150 176c-31.333 0 -58.333 10.833 -81 32.5s-34 48.5 -34 80.5s11.333 58.833 34 80.5s49.667 32.5 81 32.5c32.667 0 60 -10.667 82 -32s33 -48.333 33 -81s-11 -59.667 -33 -81s-49.333 -32 -82 -32z" />
    <glyph glyph-name="cedilla" unicode="&#xb8;" horiz-adv-x="400" 
d="M91 -165l42 175h142l-45 -175h-139z" />
    <glyph glyph-name="uni00B9" unicode="&#xb9;" horiz-adv-x="293" 
d="M95 264v273.999c-22 -16 -53.667 -24 -95 -24v127c28.667 -1.33301 53.5 2.83398 74.5 12.501s31.5 23.5 31.5 41.5h127v-431h-138z" />
    <glyph glyph-name="ordmasculine" unicode="&#xba;" horiz-adv-x="450" 
d="M225 333c-61.333 0 -110.666 17.333 -147.999 52s-56 80 -56 136s18.667 101.333 56 136s86.666 52 147.999 52s110.666 -17.333 147.999 -52s56 -80 56 -136s-18.667 -101.333 -56 -136s-86.666 -52 -147.999 -52zM225 438c18.667 0 33.167 7.33301 43.5 22
s15.5 35 15.5 61s-5.16699 46.333 -15.5 61s-24.833 22 -43.5 22s-33.167 -7.33301 -43.5 -22s-15.5 -35 -15.5 -61s5.16699 -46.333 15.5 -61s24.833 -22 43.5 -22z" />
    <glyph glyph-name="guillemotright" unicode="&#xbb;" horiz-adv-x="598" 
d="M50 79v167l101 39l-101 37v169l240 -125v-162zM318 79v167l101 39l-101 37v169l240 -125v-162z" />
    <glyph glyph-name="onequarter" unicode="&#xbc;" horiz-adv-x="947" 
d="M95 264v273.999c-22 -16 -53.667 -24 -95 -24v127c28.667 -1.33301 53.5 2.83398 74.5 12.501s31.5 23.5 31.5 41.5h127v-431h-138zM133 -0.000976562l477 695h133l-477 -695h-133zM747 -5.00098v80.999h-203v126c71.333 60.667 111.333 135.334 120 224.001h144
c-7.33301 -51.333 -23.833 -99 -49.5 -143s-54.167 -77 -85.5 -99h74v57h135v-57h45v-108h-45v-81h-135z" />
    <glyph glyph-name="onehalf" unicode="&#xbd;" horiz-adv-x="987" 
d="M95 264v273.999c-22 -16 -53.667 -24 -95 -24v127c28.667 -1.33301 53.5 2.83398 74.5 12.501s31.5 23.5 31.5 41.5h127v-431h-138zM133 -0.000976562l477 695h133l-477 -695h-133zM574 -0.000976562v37.002c0 35.333 11 66.333 33 93s61.667 55.667 119 87l43 23
c18 10 30.333 19.333 37 28s10 18.667 10 30s-4.5 20.666 -13.5 27.999s-20.5 11 -34.5 11c-17.333 0 -30.333 -4.66699 -39 -14s-13 -21 -13 -35c0 -10.667 1.66699 -21 5 -31l-131 -27c-6 17.333 -9 36.666 -9 57.999c0 42 17 77.833 51 107.5s81.333 44.5 142 44.5
c51.333 0 94 -11.333 128 -34s51.667 -54.334 53 -95.001c0.666992 -33.333 -8 -60.166 -26 -80.499s-49.667 -41.5 -95 -63.5l-44 -21c-24.667 -11.333 -41 -23.333 -49 -36h216v-110h-383z" />
    <glyph glyph-name="threequarters" unicode="&#xbe;" horiz-adv-x="1099" 
d="M227 260c-64 0 -113.333 14.5 -148 43.5s-52 63.5 -52 103.5c0 23.333 3.33301 44 10 62l133 -27c-3.33301 -11.333 -5 -22 -5 -32c0 -31.333 20.333 -47 61 -47c16 0 28.667 3.5 38 10.5s14 16.833 14 29.5c0 12 -5 21.5 -15 28.5s-24 10.5 -42 10.5h-18v89h9
c38.667 0 58 14 58 42c0 23.333 -15 35 -45 35c-36 0 -57 -23.333 -63 -70l-132 18c6 41.333 26.5 77.166 61.5 107.499s81.5 45.5 139.5 45.5c52 0 95.167 -11 129.5 -33s51.5 -51.333 51.5 -88c0 -26.667 -8 -48.5 -24 -65.5s-37.667 -27.167 -65 -30.5
c65.333 -11.333 98 -44.666 98 -99.999c0 -40 -18.333 -72 -55 -96s-83 -36 -139 -36zM281 0l477 695h133l-477 -695h-133zM899 0v80.999h-203v126c71.333 60.667 111.333 135.334 120 224.001h144c-7.33301 -51.333 -23.833 -99 -49.5 -143s-54.167 -77 -85.5 -99h74v57
h135v-57h45v-108h-45v-81h-135z" />
    <glyph glyph-name="questiondown" unicode="&#xbf;" horiz-adv-x="588" 
d="M296 516c31.333 0 58.333 -10.833 81 -32.5s34 -48.5 34 -80.5s-11.333 -58.833 -34 -80.5s-49.667 -32.5 -81 -32.5c-32.667 0 -60 10.667 -82 32s-33 48.333 -33 81s11 59.667 33 81s49.333 32 82 32zM386 262c0 -32.667 -6.16895 -60.667 -18.502 -84
s-34.166 -44 -65.499 -62c-33.333 -19.333 -55.333 -35 -66 -47s-16 -26.667 -16 -44c0 -19.333 6.33301 -35.166 19 -47.499s29.667 -18.5 51 -18.5c29.333 0 51.166 7.66699 65.499 23s21.5 34.333 21.5 57c0 16 -2.66699 32.667 -8 50l183 43
c10.667 -28.667 16 -60 16 -94c0 -30 -5 -58.667 -15 -86s-25.667 -53.333 -47 -78s-51.666 -44.334 -90.999 -59.001s-85.333 -22 -138 -22c-80.667 0 -143.667 19.667 -189 59s-68 93.666 -68 162.999c0 40.667 11.5 77.167 34.5 109.5s56.167 58.5 99.5 78.5
c16 7.33301 26.833 15.333 32.5 24s8.83398 20.334 9.50098 35.001h190z" />
    <glyph glyph-name="Agrave" unicode="&#xc0;" horiz-adv-x="701" 
d="M417 744h-133l-125 146h182zM506 0l-45 144h-223l-43 -144h-205l233 695h255l233 -695h-205zM282 293h132l-68 218z" />
    <glyph glyph-name="Aacute" unicode="&#xc1;" horiz-adv-x="701" 
d="M547 890l-125 -146h-134l76 146h183zM506 0l-45 144h-223l-43 -144h-205l233 695h255l233 -695h-205zM282 293h132l-68 218z" />
    <glyph glyph-name="Acircumflex" unicode="&#xc2;" horiz-adv-x="701" 
d="M348 799l-45 -55h-128l104 146h146l104 -146h-134zM506 0l-45 144h-223l-43 -144h-205l233 695h255l233 -695h-205zM282 293h132l-68 218z" />
    <glyph glyph-name="Atilde" unicode="&#xc3;" horiz-adv-x="701" 
d="M309 781c-16.667 0 -25.001 -12.333 -25.001 -37h-107c0 48 10 85 30 111s47 39 81 39c20.667 0 40.5 -6 59.5 -18s31.5 -18 37.5 -18c16.667 0 25 12.333 25 37h107c0 -48 -10 -85 -30 -111s-47 -39 -81 -39c-20.667 0 -40.667 6 -60 18s-31.666 18 -36.999 18z
M505.999 0l-45 144h-223l-43 -144h-205l233 695h255l233 -695h-205zM281.999 293h132l-68 218z" />
    <glyph glyph-name="Adieresis" unicode="&#xc4;" horiz-adv-x="701" 
d="M242 735c-25.333 0 -46.5 8.16699 -63.5 24.5s-25.5 36.833 -25.5 61.5c0 24 8.5 44 25.5 60s38.167 24 63.5 24s46.5 -8 63.5 -24s25.5 -36 25.5 -60c0 -24.667 -8.5 -45.167 -25.5 -61.5s-38.167 -24.5 -63.5 -24.5zM461 735c-25.333 0 -46.5 8.16699 -63.5 24.5
s-25.5 36.833 -25.5 61.5c0 24 8.5 44 25.5 60s38.167 24 63.5 24s46.5 -8 63.5 -24s25.5 -36 25.5 -60c0 -24.667 -8.5 -45.167 -25.5 -61.5s-38.167 -24.5 -63.5 -24.5zM506 0l-45 144h-223l-43 -144h-205l233 695h255l233 -695h-205zM282 293h132l-68 218z" />
    <glyph glyph-name="Aring" unicode="&#xc5;" horiz-adv-x="701" 
d="M506 0l-45.002 144.001h-223l-43 -144h-205l231 689c-6 14 -9 29.333 -9 46c0 34.667 12.833 63.167 38.5 85.5s58.834 33.5 99.501 33.5s73.834 -11.167 99.501 -33.5s38.5 -50.833 38.5 -85.5c0 -16.667 -3 -31.334 -9 -44.001l232 -691h-205zM349.998 770.001
c-11.333 0 -20.5 -3.16699 -27.5 -9.5s-10.5 -14.833 -10.5 -25.5s3.5 -19.167 10.5 -25.5s16.167 -9.5 27.5 -9.5s20.5 3.16699 27.5 9.5s10.5 14.833 10.5 25.5s-3.5 19.167 -10.5 25.5s-16.167 9.5 -27.5 9.5zM281.998 293.001h132l-68 218z" />
    <glyph glyph-name="AE" unicode="&#xc6;" horiz-adv-x="994" 
d="M632 169h332v-169h-528v144h-201l-51 -144h-202l262 695h712v-169h-324v-92h268v-169h-268v-96zM288 293h148v233h-66z" />
    <glyph glyph-name="Ccedilla" unicode="&#xc7;" horiz-adv-x="742" 
d="M722 246c-39.333 -150.667 -131.333 -235.666 -276 -254.999l-37 -146h-139l35 147c-83.333 15.333 -150 54.666 -200 117.999s-75 142.333 -75 237c0 104.667 33.667 191.167 101 259.5s152.666 102.5 255.999 102.5c86 0 157.833 -24.667 215.5 -74
s96.167 -119 115.5 -209l-196 -48c-23.333 100 -71.666 150 -144.999 150c-41.333 0 -75.333 -16.667 -102 -50s-40 -77 -40 -131s13.667 -97.5 41 -130.5s63 -49.5 107 -49.5c69.333 0 114 36.333 134 109z" />
    <glyph glyph-name="Egrave" unicode="&#xc8;" horiz-adv-x="621" 
d="M254 744l-125 146h182l76 -146h-133zM63 0v695h520v-169h-324v-92h268v-169h-268v-96h332v-169h-528z" />
    <glyph glyph-name="Eacute" unicode="&#xc9;" horiz-adv-x="621" 
d="M258 744l76 146h183l-125 -146h-134zM63 0v695h520v-169h-324v-92h268v-169h-268v-96h332v-169h-528z" />
    <glyph glyph-name="Ecircumflex" unicode="&#xca;" horiz-adv-x="621" 
d="M145 744l104 146h146l104 -146h-134l-47 55l-45 -55h-128zM63 0v695h520v-169h-324v-92h268v-169h-268v-96h332v-169h-528z" />
    <glyph glyph-name="Edieresis" unicode="&#xcb;" horiz-adv-x="621" 
d="M212 735c-25.333 0 -46.5 8.16699 -63.5 24.5s-25.5 36.833 -25.5 61.5c0 24 8.5 44 25.5 60s38.167 24 63.5 24s46.5 -8 63.5 -24s25.5 -36 25.5 -60c0 -24.667 -8.5 -45.167 -25.5 -61.5s-38.167 -24.5 -63.5 -24.5zM431 735c-25.333 0 -46.5 8.16699 -63.5 24.5
s-25.5 36.833 -25.5 61.5c0 24 8.5 44 25.5 60s38.167 24 63.5 24s46.5 -8 63.5 -24s25.5 -36 25.5 -60c0 -24.667 -8.5 -45.167 -25.5 -61.5s-38.167 -24.5 -63.5 -24.5zM63 0v695h520v-169h-324v-92h268v-169h-268v-96h332v-169h-528z" />
    <glyph glyph-name="Igrave" unicode="&#xcc;" horiz-adv-x="322" 
d="M94 744l-125 146h182l76 -146h-133zM63 0v695h196v-695h-196z" />
    <glyph glyph-name="Iacute" unicode="&#xcd;" horiz-adv-x="322" 
d="M98 744l76 146h183l-125 -146h-134zM63 0v695h196v-695h-196z" />
    <glyph glyph-name="Icircumflex" unicode="&#xce;" horiz-adv-x="322" 
d="M-15 744l104 146h146l104 -146h-134l-47 55l-45 -55h-128zM63 0v695h196v-695h-196z" />
    <glyph glyph-name="Idieresis" unicode="&#xcf;" horiz-adv-x="322" 
d="M52 735c-25.333 0 -46.5 8.16699 -63.5 24.5s-25.5 36.833 -25.5 61.5c0 24 8.5 44 25.5 60s38.167 24 63.5 24s46.5 -8 63.5 -24s25.5 -36 25.5 -60c0 -24.667 -8.5 -45.167 -25.5 -61.5s-38.167 -24.5 -63.5 -24.5zM271 735c-25.333 0 -46.5 8.16699 -63.5 24.5
s-25.5 36.833 -25.5 61.5c0 24 8.5 44 25.5 60s38.167 24 63.5 24s46.5 -8 63.5 -24s25.5 -36 25.5 -60c0 -24.667 -8.5 -45.167 -25.5 -61.5s-38.167 -24.5 -63.5 -24.5zM63 0v695h196v-695h-196z" />
    <glyph glyph-name="Eth" unicode="&#xd0;" horiz-adv-x="747" 
d="M355 695c63.333 0 121.833 -12.833 175.5 -38.5s98.167 -65.5 133.5 -119.5s53 -117.333 53 -190c0 -54.667 -10.167 -104.334 -30.5 -149.001s-47.5 -81.167 -81.5 -109.5s-72.5 -50.166 -115.5 -65.499s-87.833 -23 -134.5 -23h-292v287h-55v130h55v278h292zM339 181
c48.667 0 89.667 13.5 123 40.5s50 69.167 50 126.5c0 56.667 -16.667 98.5 -50 125.5s-74.333 40.5 -123 40.5h-80v-97h115v-130h-115v-106h80z" />
    <glyph glyph-name="Ntilde" unicode="&#xd1;" horiz-adv-x="771" 
d="M215 744c0 48 9.99902 85 29.999 111s47 39 81 39c20.667 0 40.5 -6 59.5 -18s31.5 -18 37.5 -18c16.667 0 25 12.333 25 37h107c0 -48 -10 -85 -30 -111s-47 -39 -81 -39c-20.667 0 -40.667 6 -60 18s-31.666 18 -36.999 18c-16.667 0 -25 -12.333 -25 -37h-107z
M62.999 0v695h192l263 -397v397h190v-695h-192l-263 395v-395h-190z" />
    <glyph glyph-name="Ograve" unicode="&#xd2;" horiz-adv-x="788" 
d="M326 744l-125 146h182l76 -146h-133zM394 -14c-105.333 0 -192.333 34 -261 102s-103 154.333 -103 259s34.333 191.167 103 259.5s155.667 102.5 261 102.5s192.333 -34.167 261 -102.5s103 -154.833 103 -259.5s-34.333 -191 -103 -259s-155.667 -102 -261 -102z
M394 167c47.333 0 85.666 16 114.999 48s44 76 44 132s-14.667 100.167 -44 132.5s-67.666 48.5 -114.999 48.5s-85.666 -16.167 -114.999 -48.5s-44 -76.5 -44 -132.5s14.667 -100 44 -132s67.666 -48 114.999 -48z" />
    <glyph glyph-name="Oacute" unicode="&#xd3;" horiz-adv-x="788" 
d="M330 744l76 146h183l-125 -146h-134zM394 -14c-105.333 0 -192.333 34 -261 102s-103 154.333 -103 259s34.333 191.167 103 259.5s155.667 102.5 261 102.5s192.333 -34.167 261 -102.5s103 -154.833 103 -259.5s-34.333 -191 -103 -259s-155.667 -102 -261 -102z
M394 167c47.333 0 85.666 16 114.999 48s44 76 44 132s-14.667 100.167 -44 132.5s-67.666 48.5 -114.999 48.5s-85.666 -16.167 -114.999 -48.5s-44 -76.5 -44 -132.5s14.667 -100 44 -132s67.666 -48 114.999 -48z" />
    <glyph glyph-name="Ocircumflex" unicode="&#xd4;" horiz-adv-x="788" 
d="M217 744l104 146h146l104 -146h-134l-47 55l-45 -55h-128zM394 -14c-105.333 0 -192.333 34 -261 102s-103 154.333 -103 259s34.333 191.167 103 259.5s155.667 102.5 261 102.5s192.333 -34.167 261 -102.5s103 -154.833 103 -259.5s-34.333 -191 -103 -259
s-155.667 -102 -261 -102zM394 167c47.333 0 85.666 16 114.999 48s44 76 44 132s-14.667 100.167 -44 132.5s-67.666 48.5 -114.999 48.5s-85.666 -16.167 -114.999 -48.5s-44 -76.5 -44 -132.5s14.667 -100 44 -132s67.666 -48 114.999 -48z" />
    <glyph glyph-name="Otilde" unicode="&#xd5;" horiz-adv-x="788" 
d="M219 744c0 48 9.99902 85 29.999 111s47 39 81 39c20.667 0 40.5 -6 59.5 -18s31.5 -18 37.5 -18c16.667 0 25 12.333 25 37h107c0 -48 -10 -85 -30 -111s-47 -39 -81 -39c-20.667 0 -40.667 6 -60 18s-31.666 18 -36.999 18c-16.667 0 -25 -12.333 -25 -37h-107z
M393.999 -14c-105.333 0 -192.333 34 -261 102s-103 154.333 -103 259s34.333 191.167 103 259.5s155.667 102.5 261 102.5s192.333 -34.167 261 -102.5s103 -154.833 103 -259.5s-34.333 -191 -103 -259s-155.667 -102 -261 -102zM393.999 167
c47.333 0 85.666 16 114.999 48s44 76 44 132s-14.667 100.167 -44 132.5s-67.666 48.5 -114.999 48.5s-85.666 -16.167 -114.999 -48.5s-44 -76.5 -44 -132.5s14.667 -100 44 -132s67.666 -48 114.999 -48z" />
    <glyph glyph-name="Odieresis" unicode="&#xd6;" horiz-adv-x="788" 
d="M284 735c-25.333 0 -46.5 8.16699 -63.5 24.5s-25.5 36.833 -25.5 61.5c0 24 8.5 44 25.5 60s38.167 24 63.5 24s46.5 -8 63.5 -24s25.5 -36 25.5 -60c0 -24.667 -8.5 -45.167 -25.5 -61.5s-38.167 -24.5 -63.5 -24.5zM503 735c-25.333 0 -46.5 8.16699 -63.5 24.5
s-25.5 36.833 -25.5 61.5c0 24 8.5 44 25.5 60s38.167 24 63.5 24s46.5 -8 63.5 -24s25.5 -36 25.5 -60c0 -24.667 -8.5 -45.167 -25.5 -61.5s-38.167 -24.5 -63.5 -24.5zM394 -14c-105.333 0 -192.333 34 -261 102s-103 154.333 -103 259s34.333 191.167 103 259.5
s155.667 102.5 261 102.5s192.333 -34.167 261 -102.5s103 -154.833 103 -259.5s-34.333 -191 -103 -259s-155.667 -102 -261 -102zM394 167c47.333 0 85.666 16 114.999 48s44 76 44 132s-14.667 100.167 -44 132.5s-67.666 48.5 -114.999 48.5
s-85.666 -16.167 -114.999 -48.5s-44 -76.5 -44 -132.5s14.667 -100 44 -132s67.666 -48 114.999 -48z" />
    <glyph glyph-name="multiply" unicode="&#xd7;" horiz-adv-x="514" 
d="M488 427l-125 -123l125 -124l-106 -106l-125 124l-125 -124l-106 106l125 124l-125 123l106 106l125 -124l125 124z" />
    <glyph glyph-name="Oslash" unicode="&#xd8;" horiz-adv-x="788" 
d="M669 592c59.333 -66.667 89 -148.333 89 -245c0 -104.667 -34.333 -191 -103 -259s-155.667 -102 -261 -102c-66 0 -126.667 14.667 -182 44l-24 -30h-153l84 103c-59.333 66.667 -89 148 -89 244c0 104.667 34.333 191.167 103 259.5s155.667 102.5 261 102.5
c66 0 126.667 -14.667 182 -44l24 30h153zM229 347.001c0 -32 5.33398 -61.332 16.001 -87.999l217 266c-22 9.33301 -44.667 14 -68 14c-48.667 0 -88.334 -17.833 -119.001 -53.5s-46 -81.834 -46 -138.501zM394.001 156.002c48.667 0 88.333 17.667 119 53
s46 81.333 46 138c0 31.333 -5.33301 61 -16 89l-217 -266c22 -9.33301 44.667 -14 68 -14z" />
    <glyph glyph-name="Ugrave" unicode="&#xd9;" horiz-adv-x="740" 
d="M302 744l-125 146h182l76 -146h-133zM370 -14c-102 0 -180.333 26 -235 78s-82 126.667 -82 224v407h196v-377c0 -48.667 10.333 -86 31 -112s50.667 -39 90 -39s69.333 13 90 39s31 63.333 31 112v377h196v-407c0 -97.333 -27.333 -172 -82 -224s-133 -78 -235 -78z" />
    <glyph glyph-name="Uacute" unicode="&#xda;" horiz-adv-x="740" 
d="M306 744l76 146h183l-125 -146h-134zM370 -14c-102 0 -180.333 26 -235 78s-82 126.667 -82 224v407h196v-377c0 -48.667 10.333 -86 31 -112s50.667 -39 90 -39s69.333 13 90 39s31 63.333 31 112v377h196v-407c0 -97.333 -27.333 -172 -82 -224s-133 -78 -235 -78z" />
    <glyph glyph-name="Ucircumflex" unicode="&#xdb;" horiz-adv-x="740" 
d="M193 744l104 146h146l104 -146h-134l-47 55l-45 -55h-128zM370 -14c-102 0 -180.333 26 -235 78s-82 126.667 -82 224v407h196v-377c0 -48.667 10.333 -86 31 -112s50.667 -39 90 -39s69.333 13 90 39s31 63.333 31 112v377h196v-407c0 -97.333 -27.333 -172 -82 -224
s-133 -78 -235 -78z" />
    <glyph glyph-name="Udieresis" unicode="&#xdc;" horiz-adv-x="740" 
d="M260 735c-25.333 0 -46.5 8.16699 -63.5 24.5s-25.5 36.833 -25.5 61.5c0 24 8.5 44 25.5 60s38.167 24 63.5 24s46.5 -8 63.5 -24s25.5 -36 25.5 -60c0 -24.667 -8.5 -45.167 -25.5 -61.5s-38.167 -24.5 -63.5 -24.5zM479 735c-25.333 0 -46.5 8.16699 -63.5 24.5
s-25.5 36.833 -25.5 61.5c0 24 8.5 44 25.5 60s38.167 24 63.5 24s46.5 -8 63.5 -24s25.5 -36 25.5 -60c0 -24.667 -8.5 -45.167 -25.5 -61.5s-38.167 -24.5 -63.5 -24.5zM370 -14c-102 0 -180.333 26 -235 78s-82 126.667 -82 224v407h196v-377
c0 -48.667 10.333 -86 31 -112s50.667 -39 90 -39s69.333 13 90 39s31 63.333 31 112v377h196v-407c0 -97.333 -27.333 -172 -82 -224s-133 -78 -235 -78z" />
    <glyph glyph-name="Yacute" unicode="&#xdd;" horiz-adv-x="664" 
d="M267 744l76 146h183l-125 -146h-134zM234 0v253l-244 442h221l124 -245l118 245h221l-244 -442v-253h-196z" />
    <glyph glyph-name="Thorn" unicode="&#xde;" horiz-adv-x="674" 
d="M63 0v695h196v-100h121c76.667 0 140.167 -21.833 190.5 -65.5s75.5 -102.5 75.5 -176.5s-25.167 -132.833 -75.5 -176.5s-113.833 -65.5 -190.5 -65.5h-121v-111h-196zM259 279h92c60 0 90 24.667 90 74s-31 74 -93 74h-89v-148z" />
    <glyph glyph-name="germandbls" unicode="&#xdf;" horiz-adv-x="711" 
d="M478 -12c-99.333 0 -169.334 25 -210.001 75l102 120c8.66699 -17.333 21.5 -31.5 38.5 -42.5s35.167 -16.5 54.5 -16.5c14.667 0 26.667 3.16699 36 9.5s14 15.166 14 26.499c0 18 -12.667 31.667 -38 41l-36 14c-50 19.333 -81.667 34.333 -95 45
c-24 19.333 -36 46.333 -36 81c0 24 13.833 52.667 41.5 86s41.5 63.333 41.5 90c0 36.667 -23.667 55 -71 55c-53.333 0 -80 -29 -80 -87v-485h-190v499c0 62.667 26.667 113 80 151s120 57 200 57c82 0 146.833 -12.667 194.5 -38s71.5 -65.333 71.5 -120
c0 -20.667 -6.16699 -40.167 -18.5 -58.5s-25.666 -33 -39.999 -44s-27.666 -22.667 -39.999 -35s-18.5 -23.833 -18.5 -34.5c0 -2.66699 0.166992 -5 0.5 -7s1.16602 -3.83301 2.49902 -5.5l3.5 -4.5c1 -1.33301 2.66699 -2.83301 5 -4.5s4.33301 -2.83398 6 -3.50098
s4.33398 -1.66699 8.00098 -3s6.66699 -2.5 9 -3.5s5.83301 -2.16699 10.5 -3.5s8.66699 -2.66602 12 -3.99902l35 -12c42 -14.667 74.5 -34.167 97.5 -58.5s34.5 -58.5 34.5 -102.5c0 -57.333 -20.833 -101.166 -62.5 -131.499s-95.834 -45.5 -162.501 -45.5z" />
    <glyph glyph-name="agrave" unicode="&#xe0;" horiz-adv-x="588" 
d="M236 549l-125 146h182l76 -146h-133zM218 -12c-58 0 -104.834 14.001 -140.501 42.001s-53.5 66 -53.5 114c0 43.333 19 80.166 57 110.499s86 45.5 144 45.5c53.333 0 95.666 -13.333 126.999 -40v45c0 45.333 -23 68 -69 68c-16 0 -31 -5.33301 -45 -16
s-23.667 -25 -29 -43l-178 23c16.667 54 47.834 97 93.501 129s103.834 48 174.501 48c80 0 140.667 -17.5 182 -52.5s62 -91.5 62 -169.5v-292h-176v58c-16 -21.333 -37.833 -38.333 -65.5 -51s-55.5 -19 -83.5 -19zM274.999 104.001c28.667 0 54.334 15.667 77.001 47v4
c-22.667 24 -48.334 36 -77.001 36c-18.667 0 -33.5 -4 -44.5 -12s-16.5 -18.667 -16.5 -32c0 -12.667 5.66699 -23 17 -31s26 -12 44 -12z" />
    <glyph glyph-name="aacute" unicode="&#xe1;" horiz-adv-x="588" 
d="M240 549l76 146h183l-125 -146h-134zM218 -12c-58 0 -104.834 14.001 -140.501 42.001s-53.5 66 -53.5 114c0 43.333 19 80.166 57 110.499s86 45.5 144 45.5c53.333 0 95.666 -13.333 126.999 -40v45c0 45.333 -23 68 -69 68c-16 0 -31 -5.33301 -45 -16
s-23.667 -25 -29 -43l-178 23c16.667 54 47.834 97 93.501 129s103.834 48 174.501 48c80 0 140.667 -17.5 182 -52.5s62 -91.5 62 -169.5v-292h-176v58c-16 -21.333 -37.833 -38.333 -65.5 -51s-55.5 -19 -83.5 -19zM274.999 104.001c28.667 0 54.334 15.667 77.001 47v4
c-22.667 24 -48.334 36 -77.001 36c-18.667 0 -33.5 -4 -44.5 -12s-16.5 -18.667 -16.5 -32c0 -12.667 5.66699 -23 17 -31s26 -12 44 -12z" />
    <glyph glyph-name="acircumflex" unicode="&#xe2;" horiz-adv-x="588" 
d="M127 549l104 146h146l104 -146h-134l-47 55l-45 -55h-128zM218 -12c-58 0 -104.834 14.001 -140.501 42.001s-53.5 66 -53.5 114c0 43.333 19 80.166 57 110.499s86 45.5 144 45.5c53.333 0 95.666 -13.333 126.999 -40v45c0 45.333 -23 68 -69 68
c-16 0 -31 -5.33301 -45 -16s-23.667 -25 -29 -43l-178 23c16.667 54 47.834 97 93.501 129s103.834 48 174.501 48c80 0 140.667 -17.5 182 -52.5s62 -91.5 62 -169.5v-292h-176v58c-16 -21.333 -37.833 -38.333 -65.5 -51s-55.5 -19 -83.5 -19zM274.999 104.001
c28.667 0 54.334 15.667 77.001 47v4c-22.667 24 -48.334 36 -77.001 36c-18.667 0 -33.5 -4 -44.5 -12s-16.5 -18.667 -16.5 -32c0 -12.667 5.66699 -23 17 -31s26 -12 44 -12z" />
    <glyph glyph-name="atilde" unicode="&#xe3;" horiz-adv-x="588" 
d="M129 549c0 48 9.99902 85 29.999 111s47 39 81 39c20.667 0 40.5 -6 59.5 -18s31.5 -18 37.5 -18c16.667 0 25 12.333 25 37h107c0 -48 -10 -85 -30 -111s-47 -39 -81 -39c-20.667 0 -40.667 6 -60 18s-31.666 18 -36.999 18c-16.667 0 -25 -12.333 -25 -37h-107z
M217.999 -12c-58 0 -104.834 14.001 -140.501 42.001s-53.5 66 -53.5 114c0 43.333 19 80.166 57 110.499s86 45.5 144 45.5c53.333 0 95.666 -13.333 126.999 -40v45c0 45.333 -23 68 -69 68c-16 0 -31 -5.33301 -45 -16s-23.667 -25 -29 -43l-178 23
c16.667 54 47.834 97 93.501 129s103.834 48 174.501 48c80 0 140.667 -17.5 182 -52.5s62 -91.5 62 -169.5v-292h-176v58c-16 -21.333 -37.833 -38.333 -65.5 -51s-55.5 -19 -83.5 -19zM274.998 104.001c28.667 0 54.334 15.667 77.001 47v4
c-22.667 24 -48.334 36 -77.001 36c-18.667 0 -33.5 -4 -44.5 -12s-16.5 -18.667 -16.5 -32c0 -12.667 5.66699 -23 17 -31s26 -12 44 -12z" />
    <glyph glyph-name="adieresis" unicode="&#xe4;" horiz-adv-x="588" 
d="M194 540c-25.333 0 -46.5 8.16699 -63.5 24.5s-25.5 36.833 -25.5 61.5c0 24 8.5 44 25.5 60s38.167 24 63.5 24s46.5 -8 63.5 -24s25.5 -36 25.5 -60c0 -24.667 -8.5 -45.167 -25.5 -61.5s-38.167 -24.5 -63.5 -24.5zM413 540c-25.333 0 -46.5 8.16699 -63.5 24.5
s-25.5 36.833 -25.5 61.5c0 24 8.5 44 25.5 60s38.167 24 63.5 24s46.5 -8 63.5 -24s25.5 -36 25.5 -60c0 -24.667 -8.5 -45.167 -25.5 -61.5s-38.167 -24.5 -63.5 -24.5zM218 -12c-58 0 -104.834 14.001 -140.501 42.001s-53.5 66 -53.5 114c0 43.333 19 80.166 57 110.499
s86 45.5 144 45.5c53.333 0 95.666 -13.333 126.999 -40v45c0 45.333 -23 68 -69 68c-16 0 -31 -5.33301 -45 -16s-23.667 -25 -29 -43l-178 23c16.667 54 47.834 97 93.501 129s103.834 48 174.501 48c80 0 140.667 -17.5 182 -52.5s62 -91.5 62 -169.5v-292h-176v58
c-16 -21.333 -37.833 -38.333 -65.5 -51s-55.5 -19 -83.5 -19zM274.999 104.001c28.667 0 54.334 15.667 77.001 47v4c-22.667 24 -48.334 36 -77.001 36c-18.667 0 -33.5 -4 -44.5 -12s-16.5 -18.667 -16.5 -32c0 -12.667 5.66699 -23 17 -31s26 -12 44 -12z" />
    <glyph glyph-name="aring" unicode="&#xe5;" horiz-adv-x="588" 
d="M404 501c92.667 -26 138.998 -95.667 138.998 -209v-292h-176v58c-16 -21.333 -37.833 -38.333 -65.5 -51s-55.5 -19 -83.5 -19c-58 0 -104.833 14 -140.5 42s-53.5 66 -53.5 114c0 43.333 19 80.166 57 110.499s86 45.5 144 45.5c53.333 0 95.666 -13.333 126.999 -40
v45c0 45.333 -23 68 -69 68c-16 0 -31 -5.33301 -45 -16s-23.667 -25 -29 -43l-178 23c12 40.667 32.833 75.334 62.5 104.001s66.834 49 111.501 61c-25.333 22 -38 50.333 -38 85s12.833 63.167 38.5 85.5s58.834 33.5 99.501 33.5s73.834 -11.167 99.501 -33.5
s38.5 -50.833 38.5 -85.5c0 -35.333 -13 -64 -39 -86zM304.998 622c-11.333 0 -20.5 -3.16699 -27.5 -9.5s-10.5 -14.833 -10.5 -25.5s3.5 -19.167 10.5 -25.5s16.167 -9.5 27.5 -9.5s20.5 3.16699 27.5 9.5s10.5 14.833 10.5 25.5s-3.5 19.167 -10.5 25.5
s-16.167 9.5 -27.5 9.5zM351.998 151v4c-22.667 24 -48.334 36 -77.001 36c-18.667 0 -33.5 -4 -44.5 -12s-16.5 -18.667 -16.5 -32c0 -12.667 5.66699 -23 17 -31s26 -12 44 -12c28.667 0 54.334 15.667 77.001 47z" />
    <glyph glyph-name="ae" unicode="&#xe6;" horiz-adv-x="911" 
d="M734 190l152.001 -70c-44 -88 -127.333 -132 -250 -132c-88.667 0 -158.334 27.333 -209.001 82c-53.333 -54.667 -119.666 -82 -198.999 -82c-60.667 0 -109.834 14 -147.501 42s-56.5 66 -56.5 114c0 43.333 19 80.166 57 110.499s86 45.5 144 45.5
c53.333 0 95.666 -13.333 126.999 -40v45c0 45.333 -23 68 -69 68c-16 0 -31 -5.33301 -45 -16s-23.667 -25 -29 -43l-178 23c16.667 54.667 46.334 97.834 89.001 129.501s99 47.5 169 47.5c88 0 149.333 -21.667 184 -65c40 43.333 94.333 65 163 65
c78 0 138.833 -23.333 182.5 -70s65.5 -109 65.5 -187c0 -22 -0.333008 -38 -1 -48h-338c4.66699 -25.333 15.167 -45 31.5 -59s37.5 -21 63.5 -21c40 0 71.333 20.333 94 61zM621.001 381c-20 0 -36.834 -7 -50.501 -21s-22.167 -33 -25.5 -57h146
c-5.33301 52 -28.666 78 -69.999 78zM275 104c29.333 0 56.666 16 81.999 48c-27.333 26 -54.666 39 -81.999 39c-18.667 0 -33.5 -4 -44.5 -12s-16.5 -18.667 -16.5 -32c0 -12.667 5.66699 -23 17 -31s26 -12 44 -12z" />
    <glyph glyph-name="ccedilla" unicode="&#xe7;" horiz-adv-x="557" 
d="M544 158c-22 -46.667 -47.666 -83.5 -76.999 -110.5s-65.666 -44.833 -108.999 -53.5l-38 -149h-139l36 150c-60.667 12.667 -108.5 40.5 -143.5 83.5s-52.5 100.5 -52.5 172.5c0 75.333 24.333 138 73 188s110 75 184 75c69.333 0 127.666 -18.167 174.999 -54.5
s77.333 -92.833 90 -169.5l-182 -29c-2 34 -9.5 61.167 -22.5 81.5s-30.167 30.5 -51.5 30.5c-22 0 -39.333 -11 -52 -33s-19 -51.667 -19 -89s7.16699 -67 21.5 -89s33.833 -33 58.5 -33c18.667 0 35.167 8.16699 49.5 24.5s24.166 37.833 29.499 64.5z" />
    <glyph glyph-name="egrave" unicode="&#xe8;" horiz-adv-x="584" 
d="M368 549h-133l-125 146h182zM407 190l152 -70c-44 -88 -127.333 -132 -250 -132c-84.667 0 -153.834 23.333 -207.501 70s-80.5 111 -80.5 193c0 76.667 26.667 139.667 80 189s120.333 74 201 74c78.667 0 140.834 -23.333 186.501 -70s68.5 -109 68.5 -187
c0 -24.667 -0.333008 -40.667 -1 -48h-338c4.66699 -25.333 15.167 -45 31.5 -59s37.5 -21 63.5 -21c40 0 71.333 20.333 94 61zM294 381c-20 0 -36.834 -7 -50.501 -21s-22.167 -33 -25.5 -57h146c-5.33301 52 -28.666 78 -69.999 78z" />
    <glyph glyph-name="eacute" unicode="&#xe9;" horiz-adv-x="584" 
d="M498 695l-125 -146h-134l76 146h183zM407 190l152 -70c-44 -88 -127.333 -132 -250 -132c-84.667 0 -153.834 23.333 -207.501 70s-80.5 111 -80.5 193c0 76.667 26.667 139.667 80 189s120.333 74 201 74c78.667 0 140.834 -23.333 186.501 -70s68.5 -109 68.5 -187
c0 -24.667 -0.333008 -40.667 -1 -48h-338c4.66699 -25.333 15.167 -45 31.5 -59s37.5 -21 63.5 -21c40 0 71.333 20.333 94 61zM294 381c-20 0 -36.834 -7 -50.501 -21s-22.167 -33 -25.5 -57h146c-5.33301 52 -28.666 78 -69.999 78z" />
    <glyph glyph-name="ecircumflex" unicode="&#xea;" horiz-adv-x="584" 
d="M299 604l-45 -55h-128l104 146h146l104 -146h-134zM407 190l152 -70c-44 -88 -127.333 -132 -250 -132c-84.667 0 -153.834 23.333 -207.501 70s-80.5 111 -80.5 193c0 76.667 26.667 139.667 80 189s120.333 74 201 74c78.667 0 140.834 -23.333 186.501 -70
s68.5 -109 68.5 -187c0 -24.667 -0.333008 -40.667 -1 -48h-338c4.66699 -25.333 15.167 -45 31.5 -59s37.5 -21 63.5 -21c40 0 71.333 20.333 94 61zM294 381c-20 0 -36.834 -7 -50.501 -21s-22.167 -33 -25.5 -57h146c-5.33301 52 -28.666 78 -69.999 78z" />
    <glyph glyph-name="edieresis" unicode="&#xeb;" horiz-adv-x="584" 
d="M193 540c-25.333 0 -46.5 8.16699 -63.5 24.5s-25.5 36.833 -25.5 61.5c0 24 8.5 44 25.5 60s38.167 24 63.5 24s46.5 -8 63.5 -24s25.5 -36 25.5 -60c0 -24.667 -8.5 -45.167 -25.5 -61.5s-38.167 -24.5 -63.5 -24.5zM412 540c-25.333 0 -46.5 8.16699 -63.5 24.5
s-25.5 36.833 -25.5 61.5c0 24 8.5 44 25.5 60s38.167 24 63.5 24s46.5 -8 63.5 -24s25.5 -36 25.5 -60c0 -24.667 -8.5 -45.167 -25.5 -61.5s-38.167 -24.5 -63.5 -24.5zM407 190l152 -70c-44 -88 -127.333 -132 -250 -132c-84.667 0 -153.834 23.333 -207.501 70
s-80.5 111 -80.5 193c0 76.667 26.667 139.667 80 189s120.333 74 201 74c78.667 0 140.834 -23.333 186.501 -70s68.5 -109 68.5 -187c0 -24.667 -0.333008 -40.667 -1 -48h-338c4.66699 -25.333 15.167 -45 31.5 -59s37.5 -21 63.5 -21c40 0 71.333 20.333 94 61zM294 381
c-20 0 -36.834 -7 -50.501 -21s-22.167 -33 -25.5 -57h146c-5.33301 52 -28.666 78 -69.999 78z" />
    <glyph glyph-name="igrave" unicode="&#xec;" 
d="M78 549l-125 146h182l76 -146h-133zM50 0v502h190v-502h-190z" />
    <glyph glyph-name="iacute" unicode="&#xed;" 
d="M82 549l76 146h183l-125 -146h-134zM50 0v502h190v-502h-190z" />
    <glyph glyph-name="icircumflex" unicode="&#xee;" 
d="M-31 549l104 146h146l104 -146h-134l-47 55l-45 -55h-128zM50 0v502h190v-502h-190z" />
    <glyph glyph-name="idieresis" unicode="&#xef;" 
d="M36 540c-25.333 0 -46.5 8.16699 -63.5 24.5s-25.5 36.833 -25.5 61.5c0 24 8.5 44 25.5 60s38.167 24 63.5 24s46.5 -8 63.5 -24s25.5 -36 25.5 -60c0 -24.667 -8.5 -45.167 -25.5 -61.5s-38.167 -24.5 -63.5 -24.5zM255 540c-25.333 0 -46.5 8.16699 -63.5 24.5
s-25.5 36.833 -25.5 61.5c0 24 8.5 44 25.5 60s38.167 24 63.5 24s46.5 -8 63.5 -24s25.5 -36 25.5 -60c0 -24.667 -8.5 -45.167 -25.5 -61.5s-38.167 -24.5 -63.5 -24.5zM50 0v502h190v-502h-190z" />
    <glyph glyph-name="eth" unicode="&#xf0;" horiz-adv-x="609" 
d="M424 633c106 -68.667 158.999 -172.999 158.999 -312.999c0 -98.667 -25.833 -178.667 -77.5 -240s-120.5 -92 -206.5 -92c-84 0 -151.333 22.5 -202 67.5s-76 103.5 -76 175.5c0 67.333 21.167 123.666 63.5 168.999s94.5 68 156.5 68
c76.667 0 133.334 -32.333 170.001 -97c-4.66699 70.667 -37.334 125.667 -98.001 165l-40 -35h-131l85 74c-36 12 -75.667 20 -119 24l84 110c52.667 -6 102.334 -17.333 149.001 -34l33 28h131zM298.999 129.001c26 0 46.333 9 61 27s22 43 22 75s-7.33301 57 -22 75
s-35 27 -61 27s-46.333 -9 -61 -27s-22 -43 -22 -75s7.33301 -57 22 -75s35 -27 61 -27z" />
    <glyph glyph-name="ntilde" unicode="&#xf1;" horiz-adv-x="609" 
d="M150 549c0 48 9.99902 85 29.999 111s47 39 81 39c20.667 0 40.5 -6 59.5 -18s31.5 -18 37.5 -18c16.667 0 25 12.333 25 37h107c0 -48 -10 -85 -30 -111s-47 -39 -81 -39c-20.667 0 -40.667 6 -60 18s-31.666 18 -36.999 18c-16.667 0 -25 -12.333 -25 -37h-107z
M49.999 0v502h176v-77c34 59.333 82.667 89 146 89c62 0 109.5 -17 142.5 -51s49.5 -82.667 49.5 -146v-317h-190v284c0 52.667 -19.667 79 -59 79c-22 0 -40 -8.33301 -54 -25s-21 -40 -21 -70v-268h-190z" />
    <glyph glyph-name="ograve" unicode="&#xf2;" horiz-adv-x="598" 
d="M231 549l-125 146h182l76 -146h-133zM299 -12c-84 0 -151.333 24.333 -202 73s-76 112 -76 190s25.333 141.333 76 190s118 73 202 73s151.333 -24.333 202 -73s76 -112 76 -190s-25.333 -141.333 -76 -190s-118 -73 -202 -73zM299 129c26 0 46.333 10.667 61 32
s22 51.333 22 90s-7.33301 68.667 -22 90s-35 32 -61 32s-46.333 -10.667 -61 -32s-22 -51.333 -22 -90s7.33301 -68.667 22 -90s35 -32 61 -32z" />
    <glyph glyph-name="oacute" unicode="&#xf3;" horiz-adv-x="598" 
d="M235 549l76 146h183l-125 -146h-134zM299 -12c-84 0 -151.333 24.333 -202 73s-76 112 -76 190s25.333 141.333 76 190s118 73 202 73s151.333 -24.333 202 -73s76 -112 76 -190s-25.333 -141.333 -76 -190s-118 -73 -202 -73zM299 129c26 0 46.333 10.667 61 32
s22 51.333 22 90s-7.33301 68.667 -22 90s-35 32 -61 32s-46.333 -10.667 -61 -32s-22 -51.333 -22 -90s7.33301 -68.667 22 -90s35 -32 61 -32z" />
    <glyph glyph-name="ocircumflex" unicode="&#xf4;" horiz-adv-x="598" 
d="M122 549l104 146h146l104 -146h-134l-47 55l-45 -55h-128zM299 -12c-84 0 -151.333 24.333 -202 73s-76 112 -76 190s25.333 141.333 76 190s118 73 202 73s151.333 -24.333 202 -73s76 -112 76 -190s-25.333 -141.333 -76 -190s-118 -73 -202 -73zM299 129
c26 0 46.333 10.667 61 32s22 51.333 22 90s-7.33301 68.667 -22 90s-35 32 -61 32s-46.333 -10.667 -61 -32s-22 -51.333 -22 -90s7.33301 -68.667 22 -90s35 -32 61 -32z" />
    <glyph glyph-name="otilde" unicode="&#xf5;" horiz-adv-x="598" 
d="M124 549c0 48 9.99902 85 29.999 111s47 39 81 39c20.667 0 40.5 -6 59.5 -18s31.5 -18 37.5 -18c16.667 0 25 12.333 25 37h107c0 -48 -10 -85 -30 -111s-47 -39 -81 -39c-20.667 0 -40.667 6 -60 18s-31.666 18 -36.999 18c-16.667 0 -25 -12.333 -25 -37h-107z
M298.999 -12c-84 0 -151.333 24.333 -202 73s-76 112 -76 190s25.333 141.333 76 190s118 73 202 73s151.333 -24.333 202 -73s76 -112 76 -190s-25.333 -141.333 -76 -190s-118 -73 -202 -73zM298.999 129c26 0 46.333 10.667 61 32s22 51.333 22 90
s-7.33301 68.667 -22 90s-35 32 -61 32s-46.333 -10.667 -61 -32s-22 -51.333 -22 -90s7.33301 -68.667 22 -90s35 -32 61 -32z" />
    <glyph glyph-name="odieresis" unicode="&#xf6;" horiz-adv-x="598" 
d="M189 540c-25.333 0 -46.5 8.16699 -63.5 24.5s-25.5 36.833 -25.5 61.5c0 24 8.5 44 25.5 60s38.167 24 63.5 24s46.5 -8 63.5 -24s25.5 -36 25.5 -60c0 -24.667 -8.5 -45.167 -25.5 -61.5s-38.167 -24.5 -63.5 -24.5zM408 540c-25.333 0 -46.5 8.16699 -63.5 24.5
s-25.5 36.833 -25.5 61.5c0 24 8.5 44 25.5 60s38.167 24 63.5 24s46.5 -8 63.5 -24s25.5 -36 25.5 -60c0 -24.667 -8.5 -45.167 -25.5 -61.5s-38.167 -24.5 -63.5 -24.5zM299 -12c-84 0 -151.333 24.333 -202 73s-76 112 -76 190s25.333 141.333 76 190s118 73 202 73
s151.333 -24.333 202 -73s76 -112 76 -190s-25.333 -141.333 -76 -190s-118 -73 -202 -73zM299 129c26 0 46.333 10.667 61 32s22 51.333 22 90s-7.33301 68.667 -22 90s-35 32 -61 32s-46.333 -10.667 -61 -32s-22 -51.333 -22 -90s7.33301 -68.667 22 -90s35 -32 61 -32z
" />
    <glyph glyph-name="divide" unicode="&#xf7;" horiz-adv-x="514" 
d="M257 403c-24 0 -44.333 8.33301 -61 25s-25 37 -25 61s8.33301 44.333 25 61s37 25 61 25s44.333 -8.33301 61 -25s25 -37 25 -61s-8.33301 -44.333 -25 -61s-37 -25 -61 -25zM33 230v150h448v-150h-448zM257 35c-24 0 -44.333 8.33301 -61 25s-25 37 -25 61
s8.33301 44.333 25 61s37 25 61 25s44.333 -8.33301 61 -25s25 -37 25 -61s-8.33301 -44.333 -25 -61s-37 -25 -61 -25z" />
    <glyph glyph-name="oslash" unicode="&#xf8;" horiz-adv-x="598" 
d="M587 502l-70 -78c40 -46 60 -103.667 60 -173c0 -78 -25.333 -141.333 -76 -190s-118 -73 -202 -73c-54.667 0 -103.334 11 -146.001 33l-19 -21h-123l70 78c-40 46 -60 103.667 -60 173c0 78 25.333 141.333 76 190s118 73 202 73c54.667 0 103.334 -11 146.001 -33
l19 21h123zM209 251c0 -6.66699 0.666992 -16.668 2 -30.001l133 148c-12.667 9.33301 -27.667 14 -45 14c-28 0 -50 -11.667 -66 -35s-24 -55.666 -24 -96.999zM389 250.999c0 6.66699 -0.666992 16.668 -2 30.001l-133 -148c12.667 -9.33301 27.667 -14 45 -14
c28 0 50 11.667 66 35s24 55.666 24 96.999z" />
    <glyph glyph-name="ugrave" unicode="&#xf9;" horiz-adv-x="604" 
d="M233 549l-125 146h182l76 -146h-133zM234 -12c-60.667 0 -107.333 17.001 -140 51.001s-49 82.667 -49 146v317h190v-286c0 -51.333 18.667 -77 56 -77c21.333 0 38.833 8.16699 52.5 24.5s20.5 39.166 20.5 68.499v270h190v-502h-176v77c-34 -59.333 -82 -89 -144 -89z
" />
    <glyph glyph-name="uacute" unicode="&#xfa;" horiz-adv-x="604" 
d="M237 549l76 146h183l-125 -146h-134zM234 -12c-60.667 0 -107.333 17.001 -140 51.001s-49 82.667 -49 146v317h190v-286c0 -51.333 18.667 -77 56 -77c21.333 0 38.833 8.16699 52.5 24.5s20.5 39.166 20.5 68.499v270h190v-502h-176v77c-34 -59.333 -82 -89 -144 -89z
" />
    <glyph glyph-name="ucircumflex" unicode="&#xfb;" horiz-adv-x="604" 
d="M124 549l104 146h146l104 -146h-134l-47 55l-45 -55h-128zM234 -12c-60.667 0 -107.333 17.001 -140 51.001s-49 82.667 -49 146v317h190v-286c0 -51.333 18.667 -77 56 -77c21.333 0 38.833 8.16699 52.5 24.5s20.5 39.166 20.5 68.499v270h190v-502h-176v77
c-34 -59.333 -82 -89 -144 -89z" />
    <glyph glyph-name="udieresis" unicode="&#xfc;" horiz-adv-x="604" 
d="M191 540c-25.333 0 -46.5 8.16699 -63.5 24.5s-25.5 36.833 -25.5 61.5c0 24 8.5 44 25.5 60s38.167 24 63.5 24s46.5 -8 63.5 -24s25.5 -36 25.5 -60c0 -24.667 -8.5 -45.167 -25.5 -61.5s-38.167 -24.5 -63.5 -24.5zM410 540c-25.333 0 -46.5 8.16699 -63.5 24.5
s-25.5 36.833 -25.5 61.5c0 24 8.5 44 25.5 60s38.167 24 63.5 24s46.5 -8 63.5 -24s25.5 -36 25.5 -60c0 -24.667 -8.5 -45.167 -25.5 -61.5s-38.167 -24.5 -63.5 -24.5zM234 -12c-60.667 0 -107.333 17.001 -140 51.001s-49 82.667 -49 146v317h190v-286
c0 -51.333 18.667 -77 56 -77c21.333 0 38.833 8.16699 52.5 24.5s20.5 39.166 20.5 68.499v270h190v-502h-176v77c-34 -59.333 -82 -89 -144 -89z" />
    <glyph glyph-name="yacute" unicode="&#xfd;" horiz-adv-x="542" 
d="M209 549l76 146h183l-125 -146h-134zM163 -224c-72 0 -127.666 32.333 -166.999 97l117 102c13.333 -30.667 30.333 -46 51 -46c22 0 38.667 18.333 50 55l5 16h-55l-175 502h200l83 -297l81 297h200l-207 -572c-20.667 -57.333 -45.334 -97.333 -74.001 -120
s-65 -34 -109 -34z" />
    <glyph glyph-name="thorn" unicode="&#xfe;" horiz-adv-x="630" 
d="M50 -210v905h190v-267c25.333 57.333 71.333 86 138 86c66 0 121 -24.333 165 -73s66 -112 66 -190s-22 -141.333 -66 -190s-99 -73 -165 -73c-66.667 0 -112.667 28.667 -138 86v-284h-190zM327 129c27.333 0 48.666 10.667 63.999 32s23 51.333 23 90
s-7.66699 68.667 -23 90s-36.666 32 -63.999 32c-24.667 0 -45.334 -11.667 -62.001 -35s-25 -52.333 -25 -87s8.33301 -63.667 25 -87s37.334 -35 62.001 -35z" />
    <glyph glyph-name="ydieresis" unicode="&#xff;" horiz-adv-x="542" 
d="M163 540c-25.333 0 -46.5 8.16699 -63.5 24.5s-25.5 36.833 -25.5 61.5c0 24 8.5 44 25.5 60s38.167 24 63.5 24s46.5 -8 63.5 -24s25.5 -36 25.5 -60c0 -24.667 -8.5 -45.167 -25.5 -61.5s-38.167 -24.5 -63.5 -24.5zM382 540c-25.333 0 -46.5 8.16699 -63.5 24.5
s-25.5 36.833 -25.5 61.5c0 24 8.5 44 25.5 60s38.167 24 63.5 24s46.5 -8 63.5 -24s25.5 -36 25.5 -60c0 -24.667 -8.5 -45.167 -25.5 -61.5s-38.167 -24.5 -63.5 -24.5zM163 -224c-72 0 -127.666 32.333 -166.999 97l117 102c13.333 -30.667 30.333 -46 51 -46
c22 0 38.667 18.333 50 55l5 16h-55l-175 502h200l83 -297l81 297h200l-207 -572c-20.667 -57.333 -45.334 -97.333 -74.001 -120s-65 -34 -109 -34z" />
    <glyph glyph-name="Amacron" unicode="&#x100;" horiz-adv-x="701" 
d="M511 875v-119h-318v119h318zM506 0l-45 144h-223l-43 -144h-205l233 695h255l233 -695h-205zM282 293h132l-68 218z" />
    <glyph glyph-name="amacron" unicode="&#x101;" horiz-adv-x="588" 
d="M145 561v119h318v-119h-318zM218 -12c-58 0 -104.834 14.001 -140.501 42.001s-53.5 66 -53.5 114c0 43.333 19 80.166 57 110.499s86 45.5 144 45.5c53.333 0 95.666 -13.333 126.999 -40v45c0 45.333 -23 68 -69 68c-16 0 -31 -5.33301 -45 -16s-23.667 -25 -29 -43
l-178 23c16.667 54 47.834 97 93.501 129s103.834 48 174.501 48c80 0 140.667 -17.5 182 -52.5s62 -91.5 62 -169.5v-292h-176v58c-16 -21.333 -37.833 -38.333 -65.5 -51s-55.5 -19 -83.5 -19zM274.999 104.001c28.667 0 54.334 15.667 77.001 47v4
c-22.667 24 -48.334 36 -77.001 36c-18.667 0 -33.5 -4 -44.5 -12s-16.5 -18.667 -16.5 -32c0 -12.667 5.66699 -23 17 -31s26 -12 44 -12z" />
    <glyph glyph-name="Abreve" unicode="&#x102;" horiz-adv-x="701" 
d="M352 740c-49.333 0 -88.168 13 -116.501 39s-42.5 63 -42.5 111h112c0 -14 4.16699 -25.167 12.5 -33.5s19.833 -12.5 34.5 -12.5s26.167 4.16699 34.5 12.5s12.5 19.5 12.5 33.5h112c0 -48 -14.167 -85 -42.5 -111s-67.166 -39 -116.499 -39zM505.998 0l-45 144h-223
l-43 -144h-205l233 695h255l233 -695h-205zM281.998 293h132l-68 218z" />
    <glyph glyph-name="abreve" unicode="&#x103;" horiz-adv-x="588" 
d="M304 545c-49.333 0 -88.168 13 -116.501 39s-42.5 63 -42.5 111h112c0 -14 4.16699 -25.167 12.5 -33.5s19.833 -12.5 34.5 -12.5s26.167 4.16699 34.5 12.5s12.5 19.5 12.5 33.5h112c0 -48 -14.167 -85 -42.5 -111s-67.166 -39 -116.499 -39zM217.998 -12
c-58 0 -104.834 14.001 -140.501 42.001s-53.5 66 -53.5 114c0 43.333 19 80.166 57 110.499s86 45.5 144 45.5c53.333 0 95.666 -13.333 126.999 -40v45c0 45.333 -23 68 -69 68c-16 0 -31 -5.33301 -45 -16s-23.667 -25 -29 -43l-178 23c16.667 54 47.834 97 93.501 129
s103.834 48 174.501 48c80 0 140.667 -17.5 182 -52.5s62 -91.5 62 -169.5v-292h-176v58c-16 -21.333 -37.833 -38.333 -65.5 -51s-55.5 -19 -83.5 -19zM274.997 104.001c28.667 0 54.334 15.667 77.001 47v4c-22.667 24 -48.334 36 -77.001 36
c-18.667 0 -33.5 -4 -44.5 -12s-16.5 -18.667 -16.5 -32c0 -12.667 5.66699 -23 17 -31s26 -12 44 -12z" />
    <glyph glyph-name="Aogonek" unicode="&#x104;" horiz-adv-x="701" 
d="M694 -95l37 -92.001c-26 -16.667 -58.667 -25 -98 -25c-38 0 -69.5 7.5 -94.5 22.5s-37.5 38.5 -37.5 70.5c0 46.667 29.667 86.334 89 119.001h-84l-45 144h-223l-43 -144h-205l233 695h255l233 -695c-46 -30.667 -69 -57.667 -69 -81c0 -16 8.33301 -24 25 -24
c9.33301 0 18.333 3.33301 27 10zM282 292.999h132l-68 218z" />
    <glyph glyph-name="aogonek" unicode="&#x105;" horiz-adv-x="588" 
d="M526 -95l36.999 -92c-26 -16.667 -58.667 -25 -98 -25c-38 0 -69.5 7.5 -94.5 22.5s-37.5 38.5 -37.5 70.5c0 46.667 29.667 86.334 89 119.001h-55v58c-16 -21.333 -37.833 -38.333 -65.5 -51s-55.5 -19 -83.5 -19c-58 0 -104.833 14 -140.5 42s-53.5 66 -53.5 114
c0 43.333 19 80.166 57 110.499s86 45.5 144 45.5c53.333 0 95.666 -13.333 126.999 -40v45c0 45.333 -23 68 -69 68c-16 0 -31 -5.33301 -45 -16s-23.667 -25 -29 -43l-178 23c16.667 54 47.834 97 93.501 129s103.834 48 174.501 48c80 0 140.667 -17.5 182 -52.5
s62 -91.5 62 -169.5v-292c-46 -30.667 -69 -57.667 -69 -81c0 -16 8.33301 -24 25 -24c9.33301 0 18.333 3.33301 27 10zM351.999 151v4c-22.667 24 -48.334 36 -77.001 36c-18.667 0 -33.5 -4 -44.5 -12s-16.5 -18.667 -16.5 -32c0 -12.667 5.66699 -23 17 -31
s26 -12 44 -12c28.667 0 54.334 15.667 77.001 47z" />
    <glyph glyph-name="Cacute" unicode="&#x106;" horiz-adv-x="742" 
d="M320 744l76 146h183l-125 -146h-134zM378 -14c-102.667 0 -186.333 33 -251 99s-97 153.333 -97 262c0 104.667 33.667 191.167 101 259.5s152.666 102.5 255.999 102.5c86 0 157.833 -24.667 215.5 -74s96.167 -119 115.5 -209l-196 -48
c-23.333 100 -71.666 150 -144.999 150c-41.333 0 -75.333 -16.667 -102 -50s-40 -77 -40 -131s13.667 -97.5 41 -130.5s63 -49.5 107 -49.5c69.333 0 114 36.333 134 109l205 -30c-45.333 -173.333 -160 -260 -344 -260z" />
    <glyph glyph-name="cacute" unicode="&#x107;" horiz-adv-x="557" 
d="M214 549l76 146h183l-125 -146h-134zM293 -12c-82 0 -147.83 22.167 -197.497 66.5s-74.5 109.833 -74.5 196.5c0 75.333 24.333 138 73 188s110 75 184 75c69.333 0 127.666 -18.167 174.999 -54.5s77.333 -92.833 90 -169.5l-182 -29c-2 34 -9.5 61.167 -22.5 81.5
s-30.167 30.5 -51.5 30.5c-22 0 -39.333 -11 -52 -33s-19 -51.667 -19 -89s7.16699 -67 21.5 -89s33.833 -33 58.5 -33c18.667 0 35.167 8.16699 49.5 24.5s24.166 37.833 29.499 64.5l169 -60c-27.333 -56.667 -60.333 -99.167 -99 -127.5s-89.334 -42.5 -152.001 -42.5z
" />
    <glyph glyph-name="Ccircumflex" unicode="&#x108;" horiz-adv-x="742" 
d="M207 744l104 146h146l104 -146h-134l-47 55l-45 -55h-128zM378 -14c-102.667 0 -186.333 33 -251 99s-97 153.333 -97 262c0 104.667 33.667 191.167 101 259.5s152.666 102.5 255.999 102.5c86 0 157.833 -24.667 215.5 -74s96.167 -119 115.5 -209l-196 -48
c-23.333 100 -71.666 150 -144.999 150c-41.333 0 -75.333 -16.667 -102 -50s-40 -77 -40 -131s13.667 -97.5 41 -130.5s63 -49.5 107 -49.5c69.333 0 114 36.333 134 109l205 -30c-45.333 -173.333 -160 -260 -344 -260z" />
    <glyph glyph-name="ccircumflex" unicode="&#x109;" horiz-adv-x="557" 
d="M101 549l104 146h146l104 -146h-134l-47 55l-45 -55h-128zM293 -12c-82 0 -147.83 22.167 -197.497 66.5s-74.5 109.833 -74.5 196.5c0 75.333 24.333 138 73 188s110 75 184 75c69.333 0 127.666 -18.167 174.999 -54.5s77.333 -92.833 90 -169.5l-182 -29
c-2 34 -9.5 61.167 -22.5 81.5s-30.167 30.5 -51.5 30.5c-22 0 -39.333 -11 -52 -33s-19 -51.667 -19 -89s7.16699 -67 21.5 -89s33.833 -33 58.5 -33c18.667 0 35.167 8.16699 49.5 24.5s24.166 37.833 29.499 64.5l169 -60c-27.333 -56.667 -60.333 -99.167 -99 -127.5
s-89.334 -42.5 -152.001 -42.5z" />
    <glyph glyph-name="Cdotaccent" unicode="&#x10a;" horiz-adv-x="742" 
d="M384 732c-26 0 -47.5 8.16699 -64.5 24.5s-25.5 37.166 -25.5 62.499s8.5 46.166 25.5 62.499s38.5 24.5 64.5 24.5s47.5 -8.16699 64.5 -24.5s25.5 -37.166 25.5 -62.499s-8.5 -46.166 -25.5 -62.499s-38.5 -24.5 -64.5 -24.5zM378 -14c-102.667 0 -186.333 33 -251 99
s-97 153.333 -97 262c0 104.667 33.667 191.167 101 259.5s152.666 102.5 255.999 102.5c86 0 157.833 -24.667 215.5 -74s96.167 -119 115.5 -209l-196 -48c-23.333 100 -71.666 150 -144.999 150c-41.333 0 -75.333 -16.667 -102 -50s-40 -77 -40 -131
s13.667 -97.5 41 -130.5s63 -49.5 107 -49.5c69.333 0 114 36.333 134 109l205 -30c-45.333 -173.333 -160 -260 -344 -260z" />
    <glyph glyph-name="cdotaccent" unicode="&#x10b;" horiz-adv-x="557" 
d="M278 537c-26 0 -47.5 8.16699 -64.5 24.5s-25.5 37.166 -25.5 62.499s8.5 46.166 25.5 62.499s38.5 24.5 64.5 24.5s47.5 -8.16699 64.5 -24.5s25.5 -37.166 25.5 -62.499s-8.5 -46.166 -25.5 -62.499s-38.5 -24.5 -64.5 -24.5zM293 -12
c-82 0 -147.83 22.167 -197.497 66.5s-74.5 109.833 -74.5 196.5c0 75.333 24.333 138 73 188s110 75 184 75c69.333 0 127.666 -18.167 174.999 -54.5s77.333 -92.833 90 -169.5l-182 -29c-2 34 -9.5 61.167 -22.5 81.5s-30.167 30.5 -51.5 30.5c-22 0 -39.333 -11 -52 -33
s-19 -51.667 -19 -89s7.16699 -67 21.5 -89s33.833 -33 58.5 -33c18.667 0 35.167 8.16699 49.5 24.5s24.166 37.833 29.499 64.5l169 -60c-27.333 -56.667 -60.333 -99.167 -99 -127.5s-89.334 -42.5 -152.001 -42.5z" />
    <glyph glyph-name="Ccaron" unicode="&#x10c;" horiz-adv-x="742" 
d="M561 890l-104 -146h-146l-104 146h134l47 -55l45 55h128zM378 -14c-102.667 0 -186.333 33 -251 99s-97 153.333 -97 262c0 104.667 33.667 191.167 101 259.5s152.666 102.5 255.999 102.5c86 0 157.833 -24.667 215.5 -74s96.167 -119 115.5 -209l-196 -48
c-23.333 100 -71.666 150 -144.999 150c-41.333 0 -75.333 -16.667 -102 -50s-40 -77 -40 -131s13.667 -97.5 41 -130.5s63 -49.5 107 -49.5c69.333 0 114 36.333 134 109l205 -30c-45.333 -173.333 -160 -260 -344 -260z" />
    <glyph glyph-name="ccaron" unicode="&#x10d;" horiz-adv-x="557" 
d="M455 695l-104 -146h-146l-104 146h134l47 -55l45 55h128zM293 -12c-82 0 -147.83 22.167 -197.497 66.5s-74.5 109.833 -74.5 196.5c0 75.333 24.333 138 73 188s110 75 184 75c69.333 0 127.666 -18.167 174.999 -54.5s77.333 -92.833 90 -169.5l-182 -29
c-2 34 -9.5 61.167 -22.5 81.5s-30.167 30.5 -51.5 30.5c-22 0 -39.333 -11 -52 -33s-19 -51.667 -19 -89s7.16699 -67 21.5 -89s33.833 -33 58.5 -33c18.667 0 35.167 8.16699 49.5 24.5s24.166 37.833 29.499 64.5l169 -60c-27.333 -56.667 -60.333 -99.167 -99 -127.5
s-89.334 -42.5 -152.001 -42.5z" />
    <glyph glyph-name="Dcaron" unicode="&#x10e;" horiz-adv-x="747" 
d="M490 890l-104 -146h-146l-104 146h134l47 -55l45 55h128zM63 0v695h292c63.333 0 121.833 -12.833 175.5 -38.5s98.167 -65.5 133.5 -119.5s53 -117.333 53 -190c0 -54.667 -10.167 -104.334 -30.5 -149.001s-47.5 -81.167 -81.5 -109.5s-72.5 -50.166 -115.5 -65.499
s-87.833 -23 -134.5 -23h-292zM259 181h80c48.667 0 89.667 13.5 123 40.5s50 69.167 50 126.5c0 56.667 -16.667 98.5 -50 125.5s-74.333 40.5 -123 40.5h-80v-333z" />
    <glyph glyph-name="dcaron" unicode="&#x10f;" horiz-adv-x="750" 
d="M257 -12c-68 0 -124.332 24.166 -168.999 72.499s-67 111.833 -67 190.5c0 78 22 141.333 66 190s99 73 165 73c70 0 116 -25.333 138 -76v257h190v-695h-176v90c-12 -31.333 -30.833 -56.166 -56.5 -74.499s-55.834 -27.5 -90.501 -27.5zM619.001 515.999l15 179h145
l-47 -179h-113zM303.001 128.999c24.667 0 45.334 11.667 62.001 35s25 52.333 25 87s-8.33301 63.667 -25 87s-37.334 35 -62.001 35c-27.333 0 -48.666 -10.667 -63.999 -32s-23 -51.333 -23 -90s7.66699 -68.667 23 -90s36.666 -32 63.999 -32z" />
    <glyph glyph-name="Dcroat" unicode="&#x110;" horiz-adv-x="747" 
d="M355 695c63.333 0 121.833 -12.833 175.5 -38.5s98.167 -65.5 133.5 -119.5s53 -117.333 53 -190c0 -54.667 -10.167 -104.334 -30.5 -149.001s-47.5 -81.167 -81.5 -109.5s-72.5 -50.166 -115.5 -65.499s-87.833 -23 -134.5 -23h-292v287h-55v130h55v278h292zM339 181
c48.667 0 89.667 13.5 123 40.5s50 69.167 50 126.5c0 56.667 -16.667 98.5 -50 125.5s-74.333 40.5 -123 40.5h-80v-97h115v-130h-115v-106h80z" />
    <glyph glyph-name="dcroat" unicode="&#x111;" horiz-adv-x="630" 
d="M630 647l0.000976562 -101.001h-50v-546h-176v90c-12 -31.333 -30.833 -56.166 -56.5 -74.499s-55.834 -27.5 -90.501 -27.5c-68 0 -124.333 24.167 -169 72.5s-67 111.833 -67 190.5c0 78 22 141.333 66 190s99 73 165 73c70 0 116 -25.333 138 -76v108h-103v101h103v48
h190v-48h50zM303.001 128.999c24.667 0 45.334 11.667 62.001 35s25 52.333 25 87s-8.33301 63.667 -25 87s-37.334 35 -62.001 35c-27.333 0 -48.666 -10.667 -63.999 -32s-23 -51.333 -23 -90s7.66699 -68.667 23 -90s36.666 -32 63.999 -32z" />
    <glyph glyph-name="Emacron" unicode="&#x112;" horiz-adv-x="621" 
d="M163 756v119h318v-119h-318zM63 0v695h520v-169h-324v-92h268v-169h-268v-96h332v-169h-528z" />
    <glyph glyph-name="emacron" unicode="&#x113;" horiz-adv-x="584" 
d="M462 680v-119h-318v119h318zM407 190l152 -70c-44 -88 -127.333 -132 -250 -132c-84.667 0 -153.834 23.333 -207.501 70s-80.5 111 -80.5 193c0 76.667 26.667 139.667 80 189s120.333 74 201 74c78.667 0 140.834 -23.333 186.501 -70s68.5 -109 68.5 -187
c0 -24.667 -0.333008 -40.667 -1 -48h-338c4.66699 -25.333 15.167 -45 31.5 -59s37.5 -21 63.5 -21c40 0 71.333 20.333 94 61zM294 381c-20 0 -36.834 -7 -50.501 -21s-22.167 -33 -25.5 -57h146c-5.33301 52 -28.666 78 -69.999 78z" />
    <glyph glyph-name="Ebreve" unicode="&#x114;" horiz-adv-x="621" 
d="M322 740c-49.333 0 -88.168 13 -116.501 39s-42.5 63 -42.5 111h112c0 -14 4.16699 -25.167 12.5 -33.5s19.833 -12.5 34.5 -12.5s26.167 4.16699 34.5 12.5s12.5 19.5 12.5 33.5h112c0 -48 -14.167 -85 -42.5 -111s-67.166 -39 -116.499 -39zM62.998 0v695h520v-169
h-324v-92h268v-169h-268v-96h332v-169h-528z" />
    <glyph glyph-name="ebreve" unicode="&#x115;" horiz-adv-x="584" 
d="M303 545c-49.333 0 -88.168 13 -116.501 39s-42.5 63 -42.5 111h112c0 -14 4.16699 -25.167 12.5 -33.5s19.833 -12.5 34.5 -12.5s26.167 4.16699 34.5 12.5s12.5 19.5 12.5 33.5h112c0 -48 -14.167 -85 -42.5 -111s-67.166 -39 -116.499 -39zM406.998 190l152 -70
c-44 -88 -127.333 -132 -250 -132c-84.667 0 -153.834 23.333 -207.501 70s-80.5 111 -80.5 193c0 76.667 26.667 139.667 80 189s120.333 74 201 74c78.667 0 140.834 -23.333 186.501 -70s68.5 -109 68.5 -187c0 -24.667 -0.333008 -40.667 -1 -48h-338
c4.66699 -25.333 15.167 -45 31.5 -59s37.5 -21 63.5 -21c40 0 71.333 20.333 94 61zM293.998 381c-20 0 -36.834 -7 -50.501 -21s-22.167 -33 -25.5 -57h146c-5.33301 52 -28.666 78 -69.999 78z" />
    <glyph glyph-name="Edotaccent" unicode="&#x116;" horiz-adv-x="621" 
d="M322 732c-26 0 -47.5 8.16699 -64.5 24.5s-25.5 37.166 -25.5 62.499s8.5 46.166 25.5 62.499s38.5 24.5 64.5 24.5s47.5 -8.16699 64.5 -24.5s25.5 -37.166 25.5 -62.499s-8.5 -46.166 -25.5 -62.499s-38.5 -24.5 -64.5 -24.5zM63 0v695h520v-169h-324v-92h268v-169
h-268v-96h332v-169h-528z" />
    <glyph glyph-name="edotaccent" unicode="&#x117;" horiz-adv-x="584" 
d="M303 537c-26 0 -47.5 8.16699 -64.5 24.5s-25.5 37.166 -25.5 62.499s8.5 46.166 25.5 62.499s38.5 24.5 64.5 24.5s47.5 -8.16699 64.5 -24.5s25.5 -37.166 25.5 -62.499s-8.5 -46.166 -25.5 -62.499s-38.5 -24.5 -64.5 -24.5zM407 190l152 -70
c-44 -88 -127.333 -132 -250 -132c-84.667 0 -153.834 23.333 -207.501 70s-80.5 111 -80.5 193c0 76.667 26.667 139.667 80 189s120.333 74 201 74c78.667 0 140.834 -23.333 186.501 -70s68.5 -109 68.5 -187c0 -24.667 -0.333008 -40.667 -1 -48h-338
c4.66699 -25.333 15.167 -45 31.5 -59s37.5 -21 63.5 -21c40 0 71.333 20.333 94 61zM294 381c-20 0 -36.834 -7 -50.501 -21s-22.167 -33 -25.5 -57h146c-5.33301 52 -28.666 78 -69.999 78z" />
    <glyph glyph-name="Eogonek" unicode="&#x118;" horiz-adv-x="621" 
d="M574 -95l37 -92.001c-26 -16.667 -58.667 -25 -98 -25c-38 0 -69.5 7.5 -94.5 22.5s-37.5 38.5 -37.5 70.5c0 46.667 29.667 86.334 89 119.001h-407v695h520v-169h-324v-92h268v-169h-268v-96h332v-169c-46 -30.667 -69 -57.667 -69 -81c0 -16 8.33301 -24 25 -24
c9.33301 0 18.333 3.33301 27 10z" />
    <glyph glyph-name="eogonek" unicode="&#x119;" horiz-adv-x="584" 
d="M467 24c-34 -20.667 -57.5 -38.5 -70.5 -53.5s-19.5 -31.167 -19.5 -48.5c0 -8 2.33301 -14.5 7 -19.5s10.667 -7.5 18 -7.5c9.33301 0 18.333 3.33301 27 10l37 -92c-26 -16.667 -60 -25 -102 -25c-37.333 0 -68 7.5 -92 22.5s-36 38.5 -36 70.5
c0 39.333 25.333 75 76 107h-3c-84.667 0 -153.834 23.333 -207.501 70s-80.5 111 -80.5 193c0 76.667 26.667 139.667 80 189s120.333 74 201 74c78.667 0 140.834 -23.333 186.501 -70s68.5 -109 68.5 -187c0 -24.667 -0.333008 -40.667 -1 -48h-338
c4.66699 -25.333 15.167 -45 31.5 -59s37.5 -21 63.5 -21c40 0 71.333 20.333 94 61l152 -70c-20 -40.667 -50.667 -72.667 -92 -96zM294 381c-20 0 -36.834 -7 -50.501 -21s-22.167 -33 -25.5 -57h146c-5.33301 52 -28.666 78 -69.999 78z" />
    <glyph glyph-name="Ecaron" unicode="&#x11a;" horiz-adv-x="621" 
d="M499 890l-104 -146h-146l-104 146h134l47 -55l45 55h128zM63 0v695h520v-169h-324v-92h268v-169h-268v-96h332v-169h-528z" />
    <glyph glyph-name="ecaron" unicode="&#x11b;" horiz-adv-x="584" 
d="M376 549h-146l-104 146h134l47 -55l45 55h128zM407 190l152 -70c-44 -88 -127.333 -132 -250 -132c-84.667 0 -153.834 23.333 -207.501 70s-80.5 111 -80.5 193c0 76.667 26.667 139.667 80 189s120.333 74 201 74c78.667 0 140.834 -23.333 186.501 -70
s68.5 -109 68.5 -187c0 -24.667 -0.333008 -40.667 -1 -48h-338c4.66699 -25.333 15.167 -45 31.5 -59s37.5 -21 63.5 -21c40 0 71.333 20.333 94 61zM294 381c-20 0 -36.834 -7 -50.501 -21s-22.167 -33 -25.5 -57h146c-5.33301 52 -28.666 78 -69.999 78z" />
    <glyph glyph-name="Gcircumflex" unicode="&#x11c;" horiz-adv-x="805" 
d="M218 744l104 146h146l104 -146h-134l-47 55l-45 -55h-128zM363 -14c-96.667 0 -176.335 32.999 -239.002 98.999s-94 153.333 -94 262c0 104.667 34.667 191.167 104 259.5s157 102.5 263 102.5c86 0 157.5 -20 214.5 -60s93.5 -97 109.5 -171l-201 -48
c-8 34 -23.667 59.833 -47 77.5s-51.333 26.5 -84 26.5c-44 0 -80.667 -17.333 -110 -52s-44 -79.667 -44 -135c0 -58.667 16.333 -104.667 49 -138s73.667 -50 123 -50c40 0 72.833 7.16699 98.5 21.5s43.167 32.833 52.5 55.5h-166v151h355v-387h-175v97
c-19.333 -39.333 -45.666 -67.666 -78.999 -84.999s-76.666 -26 -129.999 -26z" />
    <glyph glyph-name="gcircumflex" unicode="&#x11d;" horiz-adv-x="595" 
d="M484 482c-11.333 0 -20.6689 -7.99902 -28.002 -23.999c34 -28.667 51 -66 51 -112c0 -52.667 -21.833 -93.667 -65.5 -123s-98.5 -44 -164.5 -44c-26.667 0 -52.667 2.66699 -78 8c-12 -7.33301 -18 -16 -18 -26c0 -15.333 10.667 -23 32 -23h186
c132 0 198 -52.667 198 -158c0 -64 -28.333 -114 -85 -150s-128.667 -54 -216 -54c-189.333 0 -284 45.333 -284 136c0 42.667 29.667 74 89 94c-41.333 23.333 -62 57.333 -62 102c0 48.667 24.333 86.667 73 114c-44 30 -66 71.333 -66 124
c0 53.333 21.667 94.666 65 123.999s98.666 44 165.999 44c36.667 0 69.334 -4.33301 98.001 -13c8.66699 18 19.334 34 32.001 48h-93l-47 55l-45 -55h-128l104 146h146l89 -125c20.667 14 45.334 21 74.001 21c30 0 55.667 -10 77 -30s32 -52.333 32 -97v-19l-102 -11
c-2 32 -12 48 -30 48zM276.997 296.001c16.667 0 30.334 4.33301 41.001 13s16 21 16 37s-5.33301 28.333 -16 37s-24.334 13 -41.001 13c-17.333 0 -31.5 -4.33301 -42.5 -13s-16.5 -21 -16.5 -37s5.5 -28.333 16.5 -37s25.167 -13 42.5 -13zM364.997 -21.999
l-129.001 -0.000976562c-36.667 0 -55 -12 -55 -36c0 -30 37 -45 111 -45c36.667 0 65.834 5.33301 87.501 16s32.5 23.334 32.5 38.001c0 18 -15.667 27 -47 27z" />
    <glyph glyph-name="Gbreve" unicode="&#x11e;" horiz-adv-x="805" 
d="M395 740c-49.333 0 -88.168 13 -116.501 39s-42.5 63 -42.5 111h112c0 -14 4.16699 -25.167 12.5 -33.5s19.833 -12.5 34.5 -12.5s26.167 4.16699 34.5 12.5s12.5 19.5 12.5 33.5h112c0 -48 -14.167 -85 -42.5 -111s-67.166 -39 -116.499 -39zM362.998 -14
c-96.667 0 -176.335 32.999 -239.002 98.999s-94 153.333 -94 262c0 104.667 34.667 191.167 104 259.5s157 102.5 263 102.5c86 0 157.5 -20 214.5 -60s93.5 -97 109.5 -171l-201 -48c-8 34 -23.667 59.833 -47 77.5s-51.333 26.5 -84 26.5c-44 0 -80.667 -17.333 -110 -52
s-44 -79.667 -44 -135c0 -58.667 16.333 -104.667 49 -138s73.667 -50 123 -50c40 0 72.833 7.16699 98.5 21.5s43.167 32.833 52.5 55.5h-166v151h355v-387h-175v97c-19.333 -39.333 -45.666 -67.666 -78.999 -84.999s-76.666 -26 -129.999 -26z" />
    <glyph glyph-name="gbreve" unicode="&#x11f;" horiz-adv-x="595" 
d="M271 545c-49.333 0 -88.168 13 -116.501 39s-42.5 63 -42.5 111h112c0 -14 4.16699 -25.167 12.5 -33.5s19.833 -12.5 34.5 -12.5s26.167 4.16699 34.5 12.5s12.5 19.5 12.5 33.5h112c0 -48 -14.167 -85 -42.5 -111s-67.166 -39 -116.499 -39zM483.998 482
c-11.333 0 -20.667 -7.99902 -28 -23.999c34 -28.667 51 -66 51 -112c0 -52.667 -21.833 -93.667 -65.5 -123s-98.5 -44 -164.5 -44c-26.667 0 -52.667 2.66699 -78 8c-12 -7.33301 -18 -16 -18 -26c0 -15.333 10.667 -23 32 -23h186c132 0 198 -52.667 198 -158
c0 -64 -28.333 -114 -85 -150s-128.667 -54 -216 -54c-189.333 0 -284 45.333 -284 136c0 42.667 29.667 74 89 94c-41.333 23.333 -62 57.333 -62 102c0 48.667 24.333 86.667 73 114c-44 30 -66 71.333 -66 124c0 53.333 21.667 94.666 65 123.999s98.666 44 165.999 44
c36.667 0 69.334 -4.33301 98.001 -13c28.667 60 72.667 90 132 90c30 0 55.667 -10 77 -30s32 -52.333 32 -97v-19l-102 -11c-2 32 -12 48 -30 48zM276.997 296.001c16.667 0 30.334 4.33301 41.001 13s16 21 16 37s-5.33301 28.333 -16 37s-24.334 13 -41.001 13
c-17.333 0 -31.5 -4.33301 -42.5 -13s-16.5 -21 -16.5 -37s5.5 -28.333 16.5 -37s25.167 -13 42.5 -13zM364.997 -21.999l-129.001 -0.000976562c-36.667 0 -55 -12 -55 -36c0 -30 37 -45 111 -45c36.667 0 65.834 5.33301 87.501 16s32.5 23.334 32.5 38.001
c0 18 -15.667 27 -47 27z" />
    <glyph glyph-name="Gdotaccent" unicode="&#x120;" horiz-adv-x="805" 
d="M395 732c-26 0 -47.5 8.16699 -64.5 24.5s-25.5 37.166 -25.5 62.499s8.5 46.166 25.5 62.499s38.5 24.5 64.5 24.5s47.5 -8.16699 64.5 -24.5s25.5 -37.166 25.5 -62.499s-8.5 -46.166 -25.5 -62.499s-38.5 -24.5 -64.5 -24.5zM363 -14
c-96.667 0 -176.335 32.999 -239.002 98.999s-94 153.333 -94 262c0 104.667 34.667 191.167 104 259.5s157 102.5 263 102.5c86 0 157.5 -20 214.5 -60s93.5 -97 109.5 -171l-201 -48c-8 34 -23.667 59.833 -47 77.5s-51.333 26.5 -84 26.5c-44 0 -80.667 -17.333 -110 -52
s-44 -79.667 -44 -135c0 -58.667 16.333 -104.667 49 -138s73.667 -50 123 -50c40 0 72.833 7.16699 98.5 21.5s43.167 32.833 52.5 55.5h-166v151h355v-387h-175v97c-19.333 -39.333 -45.666 -67.666 -78.999 -84.999s-76.666 -26 -129.999 -26z" />
    <glyph glyph-name="gdotaccent" unicode="&#x121;" horiz-adv-x="595" 
d="M271 537c-26 0 -47.5 8.16699 -64.5 24.5s-25.5 37.166 -25.5 62.499s8.5 46.166 25.5 62.499s38.5 24.5 64.5 24.5s47.5 -8.16699 64.5 -24.5s25.5 -37.166 25.5 -62.499s-8.5 -46.166 -25.5 -62.499s-38.5 -24.5 -64.5 -24.5zM484 482
c-11.333 0 -20.667 -7.99902 -28 -23.999c34 -28.667 51 -66 51 -112c0 -52.667 -21.833 -93.667 -65.5 -123s-98.5 -44 -164.5 -44c-26.667 0 -52.667 2.66699 -78 8c-12 -7.33301 -18 -16 -18 -26c0 -15.333 10.667 -23 32 -23h186c132 0 198 -52.667 198 -158
c0 -64 -28.333 -114 -85 -150s-128.667 -54 -216 -54c-189.333 0 -284 45.333 -284 136c0 42.667 29.667 74 89 94c-41.333 23.333 -62 57.333 -62 102c0 48.667 24.333 86.667 73 114c-44 30 -66 71.333 -66 124c0 53.333 21.667 94.666 65 123.999s98.666 44 165.999 44
c36.667 0 69.334 -4.33301 98.001 -13c28.667 60 72.667 90 132 90c30 0 55.667 -10 77 -30s32 -52.333 32 -97v-19l-102 -11c-2 32 -12 48 -30 48zM276.999 296.001c16.667 0 30.334 4.33301 41.001 13s16 21 16 37s-5.33301 28.333 -16 37s-24.334 13 -41.001 13
c-17.333 0 -31.5 -4.33301 -42.5 -13s-16.5 -21 -16.5 -37s5.5 -28.333 16.5 -37s25.167 -13 42.5 -13zM364.999 -21.999l-129.001 -0.000976562c-36.667 0 -55 -12 -55 -36c0 -30 37 -45 111 -45c36.667 0 65.834 5.33301 87.501 16s32.5 23.334 32.5 38.001
c0 18 -15.667 27 -47 27z" />
    <glyph glyph-name="uni0122" unicode="&#x122;" horiz-adv-x="805" 
d="M363 -14c-96.667 0 -176.335 32.999 -239.002 98.999s-94 153.333 -94 262c0 104.667 34.667 191.167 104 259.5s157 102.5 263 102.5c86 0 157.5 -20 214.5 -60s93.5 -97 109.5 -171l-201 -48c-8 34 -23.667 59.833 -47 77.5s-51.333 26.5 -84 26.5
c-44 0 -80.667 -17.333 -110 -52s-44 -79.667 -44 -135c0 -58.667 16.333 -104.667 49 -138s73.667 -50 123 -50c40 0 72.833 7.16699 98.5 21.5s43.167 32.833 52.5 55.5h-166v151h355v-387h-175v97c-19.333 -39.333 -45.666 -67.666 -78.999 -84.999
s-76.666 -26 -129.999 -26zM271.999 -235.001l49 178h155l-72 -178h-132z" />
    <glyph glyph-name="uni0123" unicode="&#x123;" horiz-adv-x="595" 
d="M399 727l-49 -178h-155l72 178h132zM484 482c-11.333 0 -20.667 -7.99902 -28 -23.999c34 -28.667 51 -66 51 -112c0 -52.667 -21.833 -93.667 -65.5 -123s-98.5 -44 -164.5 -44c-26.667 0 -52.667 2.66699 -78 8c-12 -7.33301 -18 -16 -18 -26
c0 -15.333 10.667 -23 32 -23h186c132 0 198 -52.667 198 -158c0 -64 -28.333 -114 -85 -150s-128.667 -54 -216 -54c-189.333 0 -284 45.333 -284 136c0 42.667 29.667 74 89 94c-41.333 23.333 -62 57.333 -62 102c0 48.667 24.333 86.667 73 114
c-44 30 -66 71.333 -66 124c0 53.333 21.667 94.666 65 123.999s98.666 44 165.999 44c36.667 0 69.334 -4.33301 98.001 -13c28.667 60 72.667 90 132 90c30 0 55.667 -10 77 -30s32 -52.333 32 -97v-19l-102 -11c-2 32 -12 48 -30 48zM276.999 296.001
c16.667 0 30.334 4.33301 41.001 13s16 21 16 37s-5.33301 28.333 -16 37s-24.334 13 -41.001 13c-17.333 0 -31.5 -4.33301 -42.5 -13s-16.5 -21 -16.5 -37s5.5 -28.333 16.5 -37s25.167 -13 42.5 -13zM364.999 -21.999l-129.001 -0.000976562c-36.667 0 -55 -12 -55 -36
c0 -30 37 -45 111 -45c36.667 0 65.834 5.33301 87.501 16s32.5 23.334 32.5 38.001c0 18 -15.667 27 -47 27z" />
    <glyph glyph-name="Hcircumflex" unicode="&#x124;" horiz-adv-x="761" 
d="M204 744l104 146h146l104 -146h-134l-47 55l-45 -55h-128zM63 0v695h196v-254h243v254h196v-695h-196v260h-243v-260h-196z" />
    <glyph glyph-name="hcircumflex" unicode="&#x125;" horiz-adv-x="609" 
d="M-32 727l104 146h146l104 -146h-134l-47 55l-45 -55h-128zM50 0v695h190v-270c34 59.333 82.667 89 146 89c57.333 0 101.333 -17 132 -51s46 -82.667 46 -146v-317h-190v284c0 52.667 -19.667 79 -59 79c-22 0 -40 -8.33301 -54 -25s-21 -40 -21 -70v-268h-190z" />
    <glyph glyph-name="Hbar" unicode="&#x126;" horiz-adv-x="761" 
d="M753 597v-130h-55v-467h-196v230h-243v-230h-196v467h-55v130h55v98h196v-98h243v98h196v-98h55zM502 401v66h-243v-66h243z" />
    <glyph glyph-name="hbar" unicode="&#x127;" horiz-adv-x="609" 
d="M386 514c57.333 0 101.333 -17 132 -51s46 -82.667 46 -146v-317h-190v284c0 52.667 -19.667 79 -59 79c-22 0 -40 -8.33301 -54 -25s-21 -40 -21 -70v-268h-190v546h-50v101h50v48h190v-48h103v-101h-103v-121c34 59.333 82.667 89 146 89z" />
    <glyph glyph-name="Itilde" unicode="&#x128;" horiz-adv-x="322" 
d="M-13 744c0 48 9.99902 85 29.999 111s47 39 81 39c20.667 0 40.5 -6 59.5 -18s31.5 -18 37.5 -18c16.667 0 25 12.333 25 37h107c0 -48 -10 -85 -30 -111s-47 -39 -81 -39c-20.667 0 -40.667 6 -60 18s-31.666 18 -36.999 18c-16.667 0 -25 -12.333 -25 -37h-107z
M62.999 0v695h196v-695h-196z" />
    <glyph glyph-name="itilde" unicode="&#x129;" 
d="M-29 549c0 48 9.99902 85 29.999 111s47 39 81 39c20.667 0 40.5 -6 59.5 -18s31.5 -18 37.5 -18c16.667 0 25 12.333 25 37h107c0 -48 -10 -85 -30 -111s-47 -39 -81 -39c-20.667 0 -40.667 6 -60 18s-31.666 18 -36.999 18c-16.667 0 -25 -12.333 -25 -37h-107z
M49.999 0v502h190v-502h-190z" />
    <glyph glyph-name="Imacron" unicode="&#x12a;" horiz-adv-x="322" 
d="M3 756v119h318v-119h-318zM63 0v695h196v-695h-196z" />
    <glyph glyph-name="imacron" unicode="&#x12b;" 
d="M-13 561v119h318v-119h-318zM50 0v502h190v-502h-190z" />
    <glyph glyph-name="Ibreve" unicode="&#x12c;" horiz-adv-x="322" 
d="M162 740c-49.333 0 -88.168 13 -116.501 39s-42.5 63 -42.5 111h112c0 -14 4.16699 -25.167 12.5 -33.5s19.833 -12.5 34.5 -12.5s26.167 4.16699 34.5 12.5s12.5 19.5 12.5 33.5h112c0 -48 -14.167 -85 -42.5 -111s-67.166 -39 -116.499 -39zM62.998 0v695h196v-695
h-196z" />
    <glyph glyph-name="ibreve" unicode="&#x12d;" 
d="M146 545c-49.333 0 -88.168 13 -116.501 39s-42.5 63 -42.5 111h112c0 -14 4.16699 -25.167 12.5 -33.5s19.833 -12.5 34.5 -12.5s26.167 4.16699 34.5 12.5s12.5 19.5 12.5 33.5h112c0 -48 -14.167 -85 -42.5 -111s-67.166 -39 -116.499 -39zM49.998 0v502h190v-502
h-190z" />
    <glyph glyph-name="Iogonek" unicode="&#x12e;" horiz-adv-x="322" 
d="M250 -95l37 -92c-26 -16.667 -58.667 -25 -98 -25c-38 0 -69.5 7.5 -94.5 22.5s-37.5 38.5 -37.5 70.5c0 46 27.667 85.667 83 119h-77v695h196v-695c-40.667 -32.667 -61 -59.667 -61 -81c0 -16 8.33301 -24 25 -24c9.33301 0 18.333 3.33301 27 10z" />
    <glyph glyph-name="iogonek" unicode="&#x12f;" 
d="M146 530c-28 0 -51.5 9 -70.5 27s-28.5 41 -28.5 69s9.5 51 28.5 69s42.5 27 70.5 27s51.5 -9 70.5 -27s28.5 -41 28.5 -69s-9.5 -51 -28.5 -69s-42.5 -27 -70.5 -27zM231 -95l37 -92c-26 -16.667 -58.667 -25 -98 -25c-38 0 -69.5 7.5 -94.5 22.5s-37.5 38.5 -37.5 70.5
c0 46 27.667 85.667 83 119h-71v502h190v-502c-40.667 -32.667 -61 -59.667 -61 -81c0 -16 8.33301 -24 25 -24c9.33301 0 18.333 3.33301 27 10z" />
    <glyph glyph-name="Idotaccent" unicode="&#x130;" horiz-adv-x="322" 
d="M162 732c-26 0 -47.5 8.16699 -64.5 24.5s-25.5 37.166 -25.5 62.499s8.5 46.166 25.5 62.499s38.5 24.5 64.5 24.5s47.5 -8.16699 64.5 -24.5s25.5 -37.166 25.5 -62.499s-8.5 -46.166 -25.5 -62.499s-38.5 -24.5 -64.5 -24.5zM63 0v695h196v-695h-196z" />
    <glyph glyph-name="dotlessi" unicode="&#x131;" 
d="M50 0v502h190v-502h-190z" />
    <glyph glyph-name="IJ" unicode="&#x132;" horiz-adv-x="710" 
d="M53 337v358h196v-358h-196zM354 -14c-96.667 0 -171 21.168 -223 63.501s-78 100.5 -78 174.5c0 14.667 1 27.667 3 39h189v-12c0 -59.333 36.667 -89 110 -89c38 0 65.167 10.167 81.5 30.5s24.5 51.166 24.5 92.499v410h196v-431c0 -88 -26.5 -156.333 -79.5 -205
s-127.5 -73 -223.5 -73z" />
    <glyph glyph-name="ij" unicode="&#x133;" horiz-adv-x="580" 
d="M146 530c-28 0 -51.5 9 -70.5 27s-28.5 41 -28.5 69s9.5 51 28.5 69s42.5 27 70.5 27s51.5 -9 70.5 -27s28.5 -41 28.5 -69s-9.5 -51 -28.5 -69s-42.5 -27 -70.5 -27zM436 530c-28 0 -51.5 9 -70.5 27s-28.5 41 -28.5 69s9.5 51 28.5 69s42.5 27 70.5 27
s51.5 -9 70.5 -27s28.5 -41 28.5 -69s-9.5 -51 -28.5 -69s-42.5 -27 -70.5 -27zM50 0v502h190v-502h-190zM357 -224c-49.333 0 -94.667 9.33301 -136 28l41 149c14.667 -16 31 -24 49 -24c19.333 0 29 12 29 36v537h190v-554c0 -60.667 -16.5 -104.5 -49.5 -131.5
s-74.167 -40.5 -123.5 -40.5z" />
    <glyph glyph-name="Jcircumflex" unicode="&#x134;" horiz-adv-x="605" 
d="M280 744l104 146h146l104 -146h-134l-47 55l-45 -55h-128zM279 -14c-84 0 -149.166 23.1689 -195.499 69.502s-69.5 109.166 -69.5 188.499c0 30.667 4.33301 66 13 106l189 -35c-4 -22 -6 -42.333 -6 -61c0 -61.333 23.333 -92 70 -92c27.333 0 46.833 10.167 58.5 30.5
s17.5 51.166 17.5 92.499v410h196v-461c0 -78.667 -23.833 -139.667 -71.5 -183s-114.834 -65 -201.501 -65z" />
    <glyph glyph-name="jcircumflex" unicode="&#x135;" 
d="M-31 549l104 146h146l104 -146h-134l-47 55l-45 -55h-128zM67 -224c-49.333 0 -94.667 9.33301 -136 28l41 149c14.667 -16 31 -24 49 -24c19.333 0 29 12 29 36v537h190v-554c0 -60.667 -16.5 -104.5 -49.5 -131.5s-74.167 -40.5 -123.5 -40.5z" />
    <glyph glyph-name="uni0136" unicode="&#x136;" horiz-adv-x="699" 
d="M508 294c32 -45.333 57.334 -75.333 76.001 -90s39.667 -22 63 -22c9.33301 0 18.666 0.666992 27.999 2v-181c-14 -5.33301 -30 -8 -48 -8c-60 0 -111.333 14.667 -154 44s-90 83.333 -142 162l-36 54l-36 -48v-207h-196v695h196v-290l200 290h225l-237 -315z
M252.001 -235l49 178h155l-72 -178h-132z" />
    <glyph glyph-name="uni0137" unicode="&#x137;" horiz-adv-x="589" 
d="M426 244c19.333 -30 37.333 -51.167 54 -63.5s35.667 -18.5 57 -18.5c15.333 0 28.666 2.33301 39.999 7l-4 -169c-20.667 -4.66699 -41.667 -7 -63 -7c-53.333 0 -97.166 9.5 -131.499 28.5s-66.833 54.833 -97.5 107.5l-24 41l-17 -18v-152h-190v695h190v-379l139 186
h215l-189 -226zM193 -235l49 178h155l-72 -178h-132z" />
    <glyph glyph-name="kgreenlandic" unicode="&#x138;" horiz-adv-x="589" 
d="M426 244c19.333 -30 37.333 -51.167 54 -63.5s35.667 -18.5 57 -18.5c15.333 0 28.666 2.33301 39.999 7l-4 -169c-20.667 -4.66699 -41.667 -7 -63 -7c-53.333 0 -97.166 9.5 -131.499 28.5s-66.833 54.833 -97.5 107.5l-24 41l-17 -18v-152h-190v502h190v-186l139 186
h215l-189 -226z" />
    <glyph glyph-name="Lacute" unicode="&#x139;" horiz-adv-x="540" 
d="M97 744l76 146h183l-125 -146h-134zM63 0v695h196v-514h271v-181h-467z" />
    <glyph glyph-name="lacute" unicode="&#x13a;" 
d="M81 727l76 146h183l-125 -146h-134zM50 0v695h190v-695h-190z" />
    <glyph glyph-name="uni013B" unicode="&#x13b;" horiz-adv-x="540" 
d="M63 0v695h196v-514h271v-181h-467zM173 -235l49 178h155l-72 -178h-132z" />
    <glyph glyph-name="uni013C" unicode="&#x13c;" 
d="M50 0v695h190v-695h-190zM18 -235l49 178h155l-72 -178h-132z" />
    <glyph glyph-name="Lcaron" unicode="&#x13d;" horiz-adv-x="540" 
d="M63 0v695h196v-514h271v-181h-467zM299 516l15 179h145l-47 -179h-113z" />
    <glyph glyph-name="lcaron" unicode="&#x13e;" horiz-adv-x="410" 
d="M50 0v695h190v-695h-190zM279 516l15 179h145l-47 -179h-113z" />
    <glyph glyph-name="Ldot" unicode="&#x13f;" horiz-adv-x="540" 
d="M63 0v695h196v-514h271v-181h-467zM433 275c-31.333 0 -58.333 10.833 -81 32.5s-34 48.5 -34 80.5s11.333 58.833 34 80.5s49.667 32.5 81 32.5c32.667 0 60 -10.667 82 -32s33 -48.333 33 -81s-11 -59.667 -33 -81s-49.333 -32 -82 -32z" />
    <glyph glyph-name="ldot" unicode="&#x140;" horiz-adv-x="477" 
d="M50 0v695h190v-695h-190zM383 215c-31.333 0 -58.333 10.833 -81 32.5s-34 48.5 -34 80.5s11.333 58.833 34 80.5s49.667 32.5 81 32.5c32.667 0 60 -10.667 82 -32s33 -48.333 33 -81s-11 -59.667 -33 -81s-49.333 -32 -82 -32z" />
    <glyph glyph-name="Lslash" unicode="&#x141;" horiz-adv-x="540" 
d="M259 181h271v-181h-467v290l-50 -17v134l50 17v271h196v-205l140 47v-134l-140 -47v-175z" />
    <glyph glyph-name="lslash" unicode="&#x142;" 
d="M292 471v-110l-52 -23v-338h-190v254l-52 -23v110l52 23v331h190v-247z" />
    <glyph glyph-name="Nacute" unicode="&#x143;" horiz-adv-x="771" 
d="M326 744l76 146h183l-125 -146h-134zM63 0v695h192l263 -397v397h190v-695h-192l-263 395v-395h-190z" />
    <glyph glyph-name="nacute" unicode="&#x144;" horiz-adv-x="609" 
d="M261 549l76 146h183l-125 -146h-134zM50 0v502h176v-77c34 59.333 82.667 89 146 89c62 0 109.5 -17 142.5 -51s49.5 -82.667 49.5 -146v-317h-190v284c0 52.667 -19.667 79 -59 79c-22 0 -40 -8.33301 -54 -25s-21 -40 -21 -70v-268h-190z" />
    <glyph glyph-name="uni0145" unicode="&#x145;" horiz-adv-x="771" 
d="M63 0v695h192l263 -397v397h190v-695h-192l-263 395v-395h-190zM263 -235l49 178h155l-72 -178h-132z" />
    <glyph glyph-name="uni0146" unicode="&#x146;" horiz-adv-x="609" 
d="M50 0v502h176v-77c34 59.333 82.667 89 146 89c62 0 109.5 -17 142.5 -51s49.5 -82.667 49.5 -146v-317h-190v284c0 52.667 -19.667 79 -59 79c-22 0 -40 -8.33301 -54 -25s-21 -40 -21 -70v-268h-190zM182 -235l49 178h155l-72 -178h-132z" />
    <glyph glyph-name="Ncaron" unicode="&#x147;" horiz-adv-x="771" 
d="M567 890l-104 -146h-146l-104 146h134l47 -55l45 55h128zM63 0v695h192l263 -397v397h190v-695h-192l-263 395v-395h-190z" />
    <glyph glyph-name="ncaron" unicode="&#x148;" horiz-adv-x="609" 
d="M502 695l-104 -146h-146l-104 146h134l47 -55l45 55h128zM50 0v502h176v-77c34 59.333 82.667 89 146 89c62 0 109.5 -17 142.5 -51s49.5 -82.667 49.5 -146v-317h-190v284c0 52.667 -19.667 79 -59 79c-22 0 -40 -8.33301 -54 -25s-21 -40 -21 -70v-268h-190z" />
    <glyph glyph-name="napostrophe" unicode="&#x149;" horiz-adv-x="889" 
d="M135 709c35.333 0 64.167 -12.167 86.5 -36.5s33.5 -57.166 33.5 -98.499c0 -76.667 -36 -149.334 -108 -218.001l-85 59c32 26 51 56.667 57 92c-26.667 2 -49 12 -67 30s-27 40.667 -27 68c0 31.333 10.5 56.5 31.5 75.5s47.167 28.5 78.5 28.5zM652.001 514
c62 0 109.5 -17 142.5 -51s49.5 -82.667 49.5 -146v-317h-190v284c0 52.667 -19.667 79 -59 79c-22 0 -40 -8.33301 -54 -25s-21 -40 -21 -70v-268h-190v502h176v-77c34 59.333 82.667 89 146 89z" />
    <glyph glyph-name="Eng" unicode="&#x14a;" horiz-adv-x="771" 
d="M522 -224c-53.333 0 -101.999 9.66699 -145.999 29l46 154c14.667 -16 34 -24 58 -24c29.333 0 44 14.333 44 43v26l-271 391v-395h-190v695h192l263 -389v389h190v-737c0 -64 -17.833 -110.333 -53.5 -139s-79.834 -43 -132.501 -43z" />
    <glyph glyph-name="eng" unicode="&#x14b;" horiz-adv-x="609" 
d="M391 -224c-49.333 0 -94.667 9.33301 -136 28l41 149c14.667 -16 31 -24 49 -24c19.333 0 29 12 29 36v319c0 52.667 -19.667 79 -59 79c-22 0 -40 -8.33301 -54 -25s-21 -40 -21 -70v-268h-190v502h176v-77c34 59.333 82.667 89 146 89c62 0 109.5 -17 142.5 -51
s49.5 -82.667 49.5 -146v-369c0 -60.667 -16.5 -104.5 -49.5 -131.5s-74.167 -40.5 -123.5 -40.5z" />
    <glyph glyph-name="Omacron" unicode="&#x14c;" horiz-adv-x="788" 
d="M235 756v119h318v-119h-318zM394 -14c-105.333 0 -192.333 34 -261 102s-103 154.333 -103 259s34.333 191.167 103 259.5s155.667 102.5 261 102.5s192.333 -34.167 261 -102.5s103 -154.833 103 -259.5s-34.333 -191 -103 -259s-155.667 -102 -261 -102zM394 167
c47.333 0 85.666 16 114.999 48s44 76 44 132s-14.667 100.167 -44 132.5s-67.666 48.5 -114.999 48.5s-85.666 -16.167 -114.999 -48.5s-44 -76.5 -44 -132.5s14.667 -100 44 -132s67.666 -48 114.999 -48z" />
    <glyph glyph-name="omacron" unicode="&#x14d;" horiz-adv-x="598" 
d="M140 561v119h318v-119h-318zM299 -12c-84 0 -151.333 24.333 -202 73s-76 112 -76 190s25.333 141.333 76 190s118 73 202 73s151.333 -24.333 202 -73s76 -112 76 -190s-25.333 -141.333 -76 -190s-118 -73 -202 -73zM299 129c26 0 46.333 10.667 61 32s22 51.333 22 90
s-7.33301 68.667 -22 90s-35 32 -61 32s-46.333 -10.667 -61 -32s-22 -51.333 -22 -90s7.33301 -68.667 22 -90s35 -32 61 -32z" />
    <glyph glyph-name="Obreve" unicode="&#x14e;" horiz-adv-x="788" 
d="M394 740c-49.333 0 -88.168 13 -116.501 39s-42.5 63 -42.5 111h112c0 -14 4.16699 -25.167 12.5 -33.5s19.833 -12.5 34.5 -12.5s26.167 4.16699 34.5 12.5s12.5 19.5 12.5 33.5h112c0 -48 -14.167 -85 -42.5 -111s-67.166 -39 -116.499 -39zM393.998 -14
c-105.333 0 -192.333 34 -261 102s-103 154.333 -103 259s34.333 191.167 103 259.5s155.667 102.5 261 102.5s192.333 -34.167 261 -102.5s103 -154.833 103 -259.5s-34.333 -191 -103 -259s-155.667 -102 -261 -102zM393.998 167c47.333 0 85.666 16 114.999 48
s44 76 44 132s-14.667 100.167 -44 132.5s-67.666 48.5 -114.999 48.5s-85.666 -16.167 -114.999 -48.5s-44 -76.5 -44 -132.5s14.667 -100 44 -132s67.666 -48 114.999 -48z" />
    <glyph glyph-name="obreve" unicode="&#x14f;" horiz-adv-x="598" 
d="M299 545c-49.333 0 -88.168 13 -116.501 39s-42.5 63 -42.5 111h112c0 -14 4.16699 -25.167 12.5 -33.5s19.833 -12.5 34.5 -12.5s26.167 4.16699 34.5 12.5s12.5 19.5 12.5 33.5h112c0 -48 -14.167 -85 -42.5 -111s-67.166 -39 -116.499 -39zM298.998 -12
c-84 0 -151.333 24.333 -202 73s-76 112 -76 190s25.333 141.333 76 190s118 73 202 73s151.333 -24.333 202 -73s76 -112 76 -190s-25.333 -141.333 -76 -190s-118 -73 -202 -73zM298.998 129c26 0 46.333 10.667 61 32s22 51.333 22 90s-7.33301 68.667 -22 90
s-35 32 -61 32s-46.333 -10.667 -61 -32s-22 -51.333 -22 -90s7.33301 -68.667 22 -90s35 -32 61 -32z" />
    <glyph glyph-name="Ohungarumlaut" unicode="&#x150;" horiz-adv-x="788" 
d="M237 744l56 146h168l-105 -146h-119zM428 744l58 146h169l-107 -146h-120zM394 -14c-105.333 0 -192.333 34 -261 102s-103 154.333 -103 259s34.333 191.167 103 259.5s155.667 102.5 261 102.5s192.333 -34.167 261 -102.5s103 -154.833 103 -259.5
s-34.333 -191 -103 -259s-155.667 -102 -261 -102zM394 167c47.333 0 85.666 16 114.999 48s44 76 44 132s-14.667 100.167 -44 132.5s-67.666 48.5 -114.999 48.5s-85.666 -16.167 -114.999 -48.5s-44 -76.5 -44 -132.5s14.667 -100 44 -132s67.666 -48 114.999 -48z" />
    <glyph glyph-name="ohungarumlaut" unicode="&#x151;" horiz-adv-x="598" 
d="M142 549l56 146h168l-105 -146h-119zM333 549l58 146h169l-107 -146h-120zM299 -12c-84 0 -151.333 24.333 -202 73s-76 112 -76 190s25.333 141.333 76 190s118 73 202 73s151.333 -24.333 202 -73s76 -112 76 -190s-25.333 -141.333 -76 -190s-118 -73 -202 -73z
M299 129c26 0 46.333 10.667 61 32s22 51.333 22 90s-7.33301 68.667 -22 90s-35 32 -61 32s-46.333 -10.667 -61 -32s-22 -51.333 -22 -90s7.33301 -68.667 22 -90s35 -32 61 -32z" />
    <glyph glyph-name="OE" unicode="&#x152;" horiz-adv-x="1076" 
d="M714 169h332v-169h-528v38c-44.667 -34.667 -99.667 -52 -165 -52c-96.667 0 -176.334 34 -239.001 102s-94 154.333 -94 259s31.333 191.167 94 259.5s142.334 102.5 239.001 102.5c63.333 0 118.333 -17.333 165 -52v38h520v-169h-324v-92h268v-169h-268v-96zM384 167
c60.667 0 105.334 25.666 134.001 76.999v207c-28.667 51.333 -73.334 77 -134.001 77c-46.667 0 -84.834 -16.667 -114.501 -50s-44.5 -77 -44.5 -131c0 -53.333 14.833 -96.666 44.5 -129.999s67.834 -50 114.501 -50z" />
    <glyph glyph-name="oe" unicode="&#x153;" horiz-adv-x="928" 
d="M751 190l152 -70c-44 -88 -127.333 -132 -250 -132c-74 0 -134.333 18.333 -181 55c-44 -36.667 -101.667 -55 -173 -55c-84 0 -151.333 24.333 -202 73s-76 112 -76 190s25.333 141.333 76 190s118 73 202 73c71.333 0 129.666 -19 174.999 -57c46.667 38 104 57 172 57
c78.667 0 140.834 -23.333 186.501 -70s68.5 -109 68.5 -187c0 -24.667 -0.333008 -40.667 -1 -48h-338c4.66699 -25.333 15.167 -45 31.5 -59s37.5 -21 63.5 -21c40 0 71.333 20.333 94 61zM638 381c-20 0 -36.834 -7 -50.501 -21s-22.167 -33 -25.5 -57h146
c-5.33301 52 -28.666 78 -69.999 78zM298.999 129c26 0 46.333 10.667 61 32s22 51.333 22 90s-7.33301 68.667 -22 90s-35 32 -61 32s-46.333 -10.667 -61 -32s-22 -51.333 -22 -90s7.33301 -68.667 22 -90s35 -32 61 -32z" />
    <glyph glyph-name="Racute" unicode="&#x154;" horiz-adv-x="701" 
d="M503 890l-125 -146h-134l76 146h183zM638 182c8.66699 0 18.333 0.666992 29 2v-181c-17.333 -5.33301 -36.666 -8 -57.999 -8c-68 0 -124.833 14 -170.5 42s-84.167 82.667 -115.5 164l-8 20h-56v-221h-196v695h331c77.333 0 141.166 -21.5 191.499 -64.5
s75.5 -101.5 75.5 -175.5c0 -50.667 -12.667 -92.5 -38 -125.5s-61 -56.5 -107 -70.5c14 -22 28.333 -39 43 -51s27.5 -19.333 38.5 -22s24.5 -4 40.5 -4zM258.999 527v-139h107c60 0 90 23.333 90 70c0 46 -31 69 -93 69h-104z" />
    <glyph glyph-name="racute" unicode="&#x155;" horiz-adv-x="524" 
d="M219 549l76 146h183l-125 -146h-134zM50 0l-0.000976562 502h176v-94c28.667 68.667 77.334 103 146.001 103c43.333 0 78.5 -14 105.5 -42s40.5 -67 40.5 -117c0 -28 -5.66699 -60 -17 -96l-169 18c3.33301 12.667 5 26 5 40c0 34.667 -12.667 52 -38 52
c-17.333 0 -31.5 -9.16699 -42.5 -27.5s-16.5 -45.833 -16.5 -82.5v-256h-190z" />
    <glyph glyph-name="uni0156" unicode="&#x156;" horiz-adv-x="701" 
d="M638 182c8.66699 0 18.333 0.666992 29 2v-181c-17.333 -5.33301 -36.666 -8 -57.999 -8c-68 0 -124.833 14 -170.5 42s-84.167 82.667 -115.5 164l-8 20h-56v-221h-196v695h331c77.333 0 141.166 -21.5 191.499 -64.5s75.5 -101.5 75.5 -175.5
c0 -50.667 -12.667 -92.5 -38 -125.5s-61 -56.5 -107 -70.5c14 -22 28.333 -39 43 -51s27.5 -19.333 38.5 -22s24.5 -4 40.5 -4zM258.999 527v-139h107c60 0 90 23.333 90 70c0 46 -31 69 -93 69h-104zM257.999 -235l49 178h155l-72 -178h-132z" />
    <glyph glyph-name="uni0157" unicode="&#x157;" horiz-adv-x="524" 
d="M50 0l-0.000976562 502h176v-94c28.667 68.667 77.334 103 146.001 103c43.333 0 78.5 -14 105.5 -42s40.5 -67 40.5 -117c0 -28 -5.66699 -60 -17 -96l-169 18c3.33301 12.667 5 26 5 40c0 34.667 -12.667 52 -38 52c-17.333 0 -31.5 -9.16699 -42.5 -27.5
s-16.5 -45.833 -16.5 -82.5v-256h-190zM17.999 -235l49 178h155l-72 -178h-132z" />
    <glyph glyph-name="Rcaron" unicode="&#x158;" horiz-adv-x="701" 
d="M381 744h-146l-104 146h134l47 -55l45 55h128zM638 182c8.66699 0 18.333 0.666992 29 2v-181c-17.333 -5.33301 -36.666 -8 -57.999 -8c-68 0 -124.833 14 -170.5 42s-84.167 82.667 -115.5 164l-8 20h-56v-221h-196v695h331c77.333 0 141.166 -21.5 191.499 -64.5
s75.5 -101.5 75.5 -175.5c0 -50.667 -12.667 -92.5 -38 -125.5s-61 -56.5 -107 -70.5c14 -22 28.333 -39 43 -51s27.5 -19.333 38.5 -22s24.5 -4 40.5 -4zM258.999 527v-139h107c60 0 90 23.333 90 70c0 46 -31 69 -93 69h-104z" />
    <glyph glyph-name="rcaron" unicode="&#x159;" horiz-adv-x="524" 
d="M460 695l-104 -146h-146l-104 146h134l47 -55l45 55h128zM50 0l-0.000976562 502h176v-94c28.667 68.667 77.334 103 146.001 103c43.333 0 78.5 -14 105.5 -42s40.5 -67 40.5 -117c0 -28 -5.66699 -60 -17 -96l-169 18c3.33301 12.667 5 26 5 40
c0 34.667 -12.667 52 -38 52c-17.333 0 -31.5 -9.16699 -42.5 -27.5s-16.5 -45.833 -16.5 -82.5v-256h-190z" />
    <glyph glyph-name="Sacute" unicode="&#x15a;" horiz-adv-x="672" 
d="M273 744l76 146h183l-125 -146h-134zM343 -14c-98.667 0 -175.997 20.167 -231.997 60.5s-84 92.5 -84 156.5c0 30 4.33301 57 13 81l190 -38c-5.33301 -12 -8 -23.667 -8 -35c0 -21.333 11.167 -38.166 33.5 -50.499s52.166 -18.5 89.499 -18.5
c33.333 0 59.166 5.66699 77.499 17s27.5 26.666 27.5 45.999c0 15.333 -6.33301 27.666 -19 36.999s-28.334 15.333 -47.001 18l-92 13c-86.667 12.667 -150.334 36.667 -191.001 72s-61 83.333 -61 144c0 61.333 25.333 113.333 76 156s121 64 211 64
c191.333 0 292.333 -78.333 303 -235l-193 -23c-4 32.667 -14.667 57.834 -32 75.501s-45.666 26.5 -84.999 26.5c-24 0 -44.167 -5 -60.5 -15s-24.5 -22.667 -24.5 -38c0 -30.667 28 -50 84 -58l93 -14c81.333 -12 140.5 -34.667 177.5 -68s55.5 -78.333 55.5 -135
c0 -70 -26.833 -127.333 -80.5 -172s-127.5 -67 -221.5 -67z" />
    <glyph glyph-name="sacute" unicode="&#x15b;" horiz-adv-x="543" 
d="M215 549l76 146h183l-125 -146h-134zM272 -12c-80 0 -143.501 15.833 -190.501 47.5s-70.833 74.167 -71.5 127.5l180 18c5.33301 -46 34.666 -69 87.999 -69c38 0 57 10.667 57 32c0 15.333 -12.333 25.333 -37 30l-56 10c-31.333 5.33301 -57.666 11.5 -78.999 18.5
s-43.166 16.833 -65.499 29.5s-39.166 29.667 -50.499 51s-17 47 -17 77c0 46.667 22.167 84 66.5 112s104.833 42 181.5 42c70.667 0 126.667 -13.667 168 -41s66 -62.666 74 -105.999l-168 -40c-9.33301 42 -34 63 -74 63c-38 0 -57 -10.667 -57 -32
c0 -16.667 15.667 -27.334 47 -32.001l55 -8c28.667 -4 53.667 -9.33301 75 -16s42.166 -16.167 62.499 -28.5s35.833 -28.833 46.5 -49.5s16 -45.334 16 -74.001c0 -51.333 -23.333 -91.166 -70 -119.499s-107 -42.5 -181 -42.5z" />
    <glyph glyph-name="Scircumflex" unicode="&#x15c;" horiz-adv-x="672" 
d="M160 744l104 146h146l104 -146h-134l-47 55l-45 -55h-128zM343 -14c-98.667 0 -175.997 20.167 -231.997 60.5s-84 92.5 -84 156.5c0 30 4.33301 57 13 81l190 -38c-5.33301 -12 -8 -23.667 -8 -35c0 -21.333 11.167 -38.166 33.5 -50.499s52.166 -18.5 89.499 -18.5
c33.333 0 59.166 5.66699 77.499 17s27.5 26.666 27.5 45.999c0 15.333 -6.33301 27.666 -19 36.999s-28.334 15.333 -47.001 18l-92 13c-86.667 12.667 -150.334 36.667 -191.001 72s-61 83.333 -61 144c0 61.333 25.333 113.333 76 156s121 64 211 64
c191.333 0 292.333 -78.333 303 -235l-193 -23c-4 32.667 -14.667 57.834 -32 75.501s-45.666 26.5 -84.999 26.5c-24 0 -44.167 -5 -60.5 -15s-24.5 -22.667 -24.5 -38c0 -30.667 28 -50 84 -58l93 -14c81.333 -12 140.5 -34.667 177.5 -68s55.5 -78.333 55.5 -135
c0 -70 -26.833 -127.333 -80.5 -172s-127.5 -67 -221.5 -67z" />
    <glyph glyph-name="scircumflex" unicode="&#x15d;" horiz-adv-x="543" 
d="M102 549l104 146h146l104 -146h-134l-47 55l-45 -55h-128zM272 -12c-80 0 -143.501 15.833 -190.501 47.5s-70.833 74.167 -71.5 127.5l180 18c5.33301 -46 34.666 -69 87.999 -69c38 0 57 10.667 57 32c0 15.333 -12.333 25.333 -37 30l-56 10
c-31.333 5.33301 -57.666 11.5 -78.999 18.5s-43.166 16.833 -65.499 29.5s-39.166 29.667 -50.499 51s-17 47 -17 77c0 46.667 22.167 84 66.5 112s104.833 42 181.5 42c70.667 0 126.667 -13.667 168 -41s66 -62.666 74 -105.999l-168 -40c-9.33301 42 -34 63 -74 63
c-38 0 -57 -10.667 -57 -32c0 -16.667 15.667 -27.334 47 -32.001l55 -8c28.667 -4 53.667 -9.33301 75 -16s42.166 -16.167 62.499 -28.5s35.833 -28.833 46.5 -49.5s16 -45.334 16 -74.001c0 -51.333 -23.333 -91.166 -70 -119.499s-107 -42.5 -181 -42.5z" />
    <glyph glyph-name="Scedilla" unicode="&#x15e;" horiz-adv-x="672" 
d="M645 225c0 -60.667 -20.6641 -112.331 -61.9971 -154.998s-99 -69 -173 -79l-37 -146h-139l35 146c-76.667 9.33301 -136.167 33.166 -178.5 71.499s-63.5 85.166 -63.5 140.499c0 30 4.33301 57 13 81l190 -38c-5.33301 -12 -8 -23.667 -8 -35
c0 -21.333 11.167 -38.166 33.5 -50.499s52.166 -18.5 89.499 -18.5c33.333 0 59.166 5.66699 77.499 17s27.5 26.666 27.5 45.999c0 15.333 -6.33301 27.666 -19 36.999s-28.334 15.333 -47.001 18l-92 13c-86.667 12.667 -150.334 36.667 -191.001 72s-61 83.333 -61 144
c0 61.333 25.333 113.333 76 156s121 64 211 64c191.333 0 292.333 -78.333 303 -235l-193 -23c-4 32.667 -14.667 57.834 -32 75.501s-45.666 26.5 -84.999 26.5c-24 0 -44.167 -5 -60.5 -15s-24.5 -22.667 -24.5 -38c0 -30.667 28 -50 84 -58l93 -14
c81.333 -12 140.5 -34.667 177.5 -68s55.5 -78.333 55.5 -135z" />
    <glyph glyph-name="scedilla" unicode="&#x15f;" horiz-adv-x="543" 
d="M523 150c0 -42.667 -16.668 -77.665 -50.001 -104.998s-78.333 -45 -135 -53l-38 -147h-139l36 149c-58 9.33301 -103.5 28.666 -136.5 57.999s-49.833 66.333 -50.5 111l180 18c5.33301 -46 34.666 -69 87.999 -69c38 0 57 10.667 57 32c0 15.333 -12.333 25.333 -37 30
l-56 10c-31.333 5.33301 -57.666 11.5 -78.999 18.5s-43.166 16.833 -65.499 29.5s-39.166 29.667 -50.499 51s-17 47 -17 77c0 46.667 22.167 84 66.5 112s104.833 42 181.5 42c70.667 0 126.667 -13.667 168 -41s66 -62.666 74 -105.999l-168 -40
c-9.33301 42 -34 63 -74 63c-38 0 -57 -10.667 -57 -32c0 -16.667 15.667 -27.334 47 -32.001l55 -8c28.667 -4 53.667 -9.33301 75 -16s42.166 -16.167 62.499 -28.5s35.833 -28.833 46.5 -49.5s16 -45.334 16 -74.001z" />
    <glyph glyph-name="Scaron" unicode="&#x160;" horiz-adv-x="672" 
d="M514 890l-104 -146h-146l-104 146h134l47 -55l45 55h128zM343 -14c-98.667 0 -175.997 20.167 -231.997 60.5s-84 92.5 -84 156.5c0 30 4.33301 57 13 81l190 -38c-5.33301 -12 -8 -23.667 -8 -35c0 -21.333 11.167 -38.166 33.5 -50.499s52.166 -18.5 89.499 -18.5
c33.333 0 59.166 5.66699 77.499 17s27.5 26.666 27.5 45.999c0 15.333 -6.33301 27.666 -19 36.999s-28.334 15.333 -47.001 18l-92 13c-86.667 12.667 -150.334 36.667 -191.001 72s-61 83.333 -61 144c0 61.333 25.333 113.333 76 156s121 64 211 64
c191.333 0 292.333 -78.333 303 -235l-193 -23c-4 32.667 -14.667 57.834 -32 75.501s-45.666 26.5 -84.999 26.5c-24 0 -44.167 -5 -60.5 -15s-24.5 -22.667 -24.5 -38c0 -30.667 28 -50 84 -58l93 -14c81.333 -12 140.5 -34.667 177.5 -68s55.5 -78.333 55.5 -135
c0 -70 -26.833 -127.333 -80.5 -172s-127.5 -67 -221.5 -67z" />
    <glyph glyph-name="scaron" unicode="&#x161;" horiz-adv-x="543" 
d="M456 695l-104 -146h-146l-104 146h134l47 -55l45 55h128zM272 -12c-80 0 -143.501 15.833 -190.501 47.5s-70.833 74.167 -71.5 127.5l180 18c5.33301 -46 34.666 -69 87.999 -69c38 0 57 10.667 57 32c0 15.333 -12.333 25.333 -37 30l-56 10
c-31.333 5.33301 -57.666 11.5 -78.999 18.5s-43.166 16.833 -65.499 29.5s-39.166 29.667 -50.499 51s-17 47 -17 77c0 46.667 22.167 84 66.5 112s104.833 42 181.5 42c70.667 0 126.667 -13.667 168 -41s66 -62.666 74 -105.999l-168 -40c-9.33301 42 -34 63 -74 63
c-38 0 -57 -10.667 -57 -32c0 -16.667 15.667 -27.334 47 -32.001l55 -8c28.667 -4 53.667 -9.33301 75 -16s42.166 -16.167 62.499 -28.5s35.833 -28.833 46.5 -49.5s16 -45.334 16 -74.001c0 -51.333 -23.333 -91.166 -70 -119.499s-107 -42.5 -181 -42.5z" />
    <glyph glyph-name="uni0162" unicode="&#x162;" horiz-adv-x="624" 
d="M214 0v514h-194v181h584v-181h-194v-514h-196zM187 -235l49 178h155l-72 -178h-132z" />
    <glyph glyph-name="uni0163" unicode="&#x163;" horiz-adv-x="473" 
d="M261 -12c-126 0 -189 58.333 -189 175v187h-62v152h74l50 142h128v-142h190v-152h-190v-166c0 -22.667 9 -34 27 -34c9.33301 0 18 4.83301 26 14.5s16.333 25.834 25 48.501l138 -78c-28 -50.667 -58.833 -87.834 -92.5 -111.501s-75.167 -35.5 -124.5 -35.5zM115 -235
l49 178h155l-72 -178h-132z" />
    <glyph glyph-name="Tcaron" unicode="&#x164;" horiz-adv-x="624" 
d="M489 890l-104 -146h-146l-104 146h134l47 -55l45 55h128zM214 0v514h-194v181h584v-181h-194v-514h-196z" />
    <glyph glyph-name="tcaron" unicode="&#x165;" horiz-adv-x="473" 
d="M304 541l15 179h145l-47 -179h-113zM261 -12c-126 0 -189 58.333 -189 175v187h-62v152h74l50 142h128v-142h190v-152h-190v-166c0 -22.667 9 -34 27 -34c9.33301 0 18 4.83301 26 14.5s16.333 25.834 25 48.501l138 -78c-28 -50.667 -58.833 -87.834 -92.5 -111.501
s-75.167 -35.5 -124.5 -35.5z" />
    <glyph glyph-name="Tbar" unicode="&#x166;" horiz-adv-x="624" 
d="M604 514h-194v-127h85v-130h-85v-257h-196v257h-85v130h85v127h-194v181h584v-181z" />
    <glyph glyph-name="tbar" unicode="&#x167;" horiz-adv-x="473" 
d="M337 189l138 -77c-46.667 -82.667 -118 -124 -214 -124c-126 0 -189 58 -189 174v63h-62v101h62v47h-62v129h74l50 142h128v-142h190v-129h-190v-47h161v-101h-161v-46c0 -22.667 9 -34 27 -34c20.667 0 36.667 14.667 48 44z" />
    <glyph glyph-name="Utilde" unicode="&#x168;" horiz-adv-x="740" 
d="M195 744c0 48 9.99902 85 29.999 111s47 39 81 39c20.667 0 40.5 -6 59.5 -18s31.5 -18 37.5 -18c16.667 0 25 12.333 25 37h107c0 -48 -10 -85 -30 -111s-47 -39 -81 -39c-20.667 0 -40.667 6 -60 18s-31.666 18 -36.999 18c-16.667 0 -25 -12.333 -25 -37h-107z
M369.999 -14c-102 0 -180.333 26 -235 78s-82 126.667 -82 224v407h196v-377c0 -48.667 10.333 -86 31 -112s50.667 -39 90 -39s69.333 13 90 39s31 63.333 31 112v377h196v-407c0 -97.333 -27.333 -172 -82 -224s-133 -78 -235 -78z" />
    <glyph glyph-name="utilde" unicode="&#x169;" horiz-adv-x="604" 
d="M126 549c0 48 9.99902 85 29.999 111s47 39 81 39c20.667 0 40.5 -6 59.5 -18s31.5 -18 37.5 -18c16.667 0 25 12.333 25 37h107c0 -48 -10 -85 -30 -111s-47 -39 -81 -39c-20.667 0 -40.667 6 -60 18s-31.666 18 -36.999 18c-16.667 0 -25 -12.333 -25 -37h-107z
M233.999 -12c-60.667 0 -107.333 17.001 -140 51.001s-49 82.667 -49 146v317h190v-286c0 -51.333 18.667 -77 56 -77c21.333 0 38.833 8.16699 52.5 24.5s20.5 39.166 20.5 68.499v270h190v-502h-176v77c-34 -59.333 -82 -89 -144 -89z" />
    <glyph glyph-name="Umacron" unicode="&#x16a;" horiz-adv-x="740" 
d="M211 756v119h318v-119h-318zM370 -14c-102 0 -180.333 26 -235 78s-82 126.667 -82 224v407h196v-377c0 -48.667 10.333 -86 31 -112s50.667 -39 90 -39s69.333 13 90 39s31 63.333 31 112v377h196v-407c0 -97.333 -27.333 -172 -82 -224s-133 -78 -235 -78z" />
    <glyph glyph-name="umacron" unicode="&#x16b;" horiz-adv-x="604" 
d="M142 561v119h318v-119h-318zM234 -12c-60.667 0 -107.333 17.001 -140 51.001s-49 82.667 -49 146v317h190v-286c0 -51.333 18.667 -77 56 -77c21.333 0 38.833 8.16699 52.5 24.5s20.5 39.166 20.5 68.499v270h190v-502h-176v77c-34 -59.333 -82 -89 -144 -89z" />
    <glyph glyph-name="Ubreve" unicode="&#x16c;" horiz-adv-x="740" 
d="M370 740c-49.333 0 -88.168 13 -116.501 39s-42.5 63 -42.5 111h112c0 -14 4.16699 -25.167 12.5 -33.5s19.833 -12.5 34.5 -12.5s26.167 4.16699 34.5 12.5s12.5 19.5 12.5 33.5h112c0 -48 -14.167 -85 -42.5 -111s-67.166 -39 -116.499 -39zM369.998 -14
c-102 0 -180.333 26 -235 78s-82 126.667 -82 224v407h196v-377c0 -48.667 10.333 -86 31 -112s50.667 -39 90 -39s69.333 13 90 39s31 63.333 31 112v377h196v-407c0 -97.333 -27.333 -172 -82 -224s-133 -78 -235 -78z" />
    <glyph glyph-name="ubreve" unicode="&#x16d;" horiz-adv-x="604" 
d="M301 545c-49.333 0 -88.168 13 -116.501 39s-42.5 63 -42.5 111h112c0 -14 4.16699 -25.167 12.5 -33.5s19.833 -12.5 34.5 -12.5s26.167 4.16699 34.5 12.5s12.5 19.5 12.5 33.5h112c0 -48 -14.167 -85 -42.5 -111s-67.166 -39 -116.499 -39zM233.998 -12
c-60.667 0 -107.333 17.001 -140 51.001s-49 82.667 -49 146v317h190v-286c0 -51.333 18.667 -77 56 -77c21.333 0 38.833 8.16699 52.5 24.5s20.5 39.166 20.5 68.499v270h190v-502h-176v77c-34 -59.333 -82 -89 -144 -89z" />
    <glyph glyph-name="Uring" unicode="&#x16e;" horiz-adv-x="740" 
d="M371 673c-40.667 0 -73.834 11.167 -99.501 33.5s-38.5 50.833 -38.5 85.5s12.833 63.167 38.5 85.5s58.834 33.5 99.501 33.5s73.834 -11.167 99.501 -33.5s38.5 -50.833 38.5 -85.5s-12.833 -63.167 -38.5 -85.5s-58.834 -33.5 -99.501 -33.5zM371 757
c11.333 0 20.5 3.16699 27.5 9.5s10.5 14.833 10.5 25.5s-3.5 19.167 -10.5 25.5s-16.167 9.5 -27.5 9.5s-20.5 -3.16699 -27.5 -9.5s-10.5 -14.833 -10.5 -25.5s3.5 -19.167 10.5 -25.5s16.167 -9.5 27.5 -9.5zM370 -14c-102 0 -180.333 26 -235 78s-82 126.667 -82 224
v407h196v-377c0 -48.667 10.333 -86 31 -112s50.667 -39 90 -39s69.333 13 90 39s31 63.333 31 112v377h196v-407c0 -97.333 -27.333 -172 -82 -224s-133 -78 -235 -78z" />
    <glyph glyph-name="uring" unicode="&#x16f;" horiz-adv-x="604" 
d="M302 508c-40.667 0 -73.834 11.167 -99.501 33.5s-38.5 50.833 -38.5 85.5s12.833 63.167 38.5 85.5s58.834 33.5 99.501 33.5s73.834 -11.167 99.501 -33.5s38.5 -50.833 38.5 -85.5s-12.833 -63.167 -38.5 -85.5s-58.834 -33.5 -99.501 -33.5zM302 592
c11.333 0 20.5 3.16699 27.5 9.5s10.5 14.833 10.5 25.5s-3.5 19.167 -10.5 25.5s-16.167 9.5 -27.5 9.5s-20.5 -3.16699 -27.5 -9.5s-10.5 -14.833 -10.5 -25.5s3.5 -19.167 10.5 -25.5s16.167 -9.5 27.5 -9.5zM234 -12c-60.667 0 -107.333 17.001 -140 51.001
s-49 82.667 -49 146v317h190v-286c0 -51.333 18.667 -77 56 -77c21.333 0 38.833 8.16699 52.5 24.5s20.5 39.166 20.5 68.499v270h190v-502h-176v77c-34 -59.333 -82 -89 -144 -89z" />
    <glyph glyph-name="Uhungarumlaut" unicode="&#x170;" horiz-adv-x="740" 
d="M213 744l56 146h168l-105 -146h-119zM404 744l58 146h169l-107 -146h-120zM370 -14c-102 0 -180.333 26 -235 78s-82 126.667 -82 224v407h196v-377c0 -48.667 10.333 -86 31 -112s50.667 -39 90 -39s69.333 13 90 39s31 63.333 31 112v377h196v-407
c0 -97.333 -27.333 -172 -82 -224s-133 -78 -235 -78z" />
    <glyph glyph-name="uhungarumlaut" unicode="&#x171;" horiz-adv-x="604" 
d="M144 549l56 146h168l-105 -146h-119zM335 549l58 146h169l-107 -146h-120zM234 -12c-60.667 0 -107.333 17.001 -140 51.001s-49 82.667 -49 146v317h190v-286c0 -51.333 18.667 -77 56 -77c21.333 0 38.833 8.16699 52.5 24.5s20.5 39.166 20.5 68.499v270h190v-502
h-176v77c-34 -59.333 -82 -89 -144 -89z" />
    <glyph glyph-name="Uogonek" unicode="&#x172;" horiz-adv-x="740" 
d="M491 695h196v-407c0 -126 -45.667 -213.667 -137 -263c-34 -20 -57.667 -37.833 -71 -53.5s-20 -32.167 -20 -49.5c0 -8 2.33301 -14.5 7 -19.5s10.667 -7.5 18 -7.5c9.33301 0 18.333 3.33301 27 10l37 -92c-26 -16.667 -60 -25 -102 -25c-37.333 0 -68 7.5 -92 22.5
s-36 38.5 -36 70.5c0 39.333 24.333 74.333 73 105h-21c-102 0 -180.333 26 -235 78s-82 126.667 -82 224v407h196v-377c0 -48.667 10.333 -86 31 -112s50.667 -39 90 -39s69.333 13 90 39s31 63.333 31 112v377z" />
    <glyph glyph-name="uogonek" unicode="&#x173;" horiz-adv-x="604" 
d="M537 -95l37.001 -92c-26 -16.667 -58.667 -25 -98 -25c-38 0 -69.5 7.5 -94.5 22.5s-37.5 38.5 -37.5 70.5c0 46.667 29.667 86.334 89 119.001h-55v77c-34 -59.333 -82 -89 -144 -89c-60.667 0 -107.334 17 -140.001 51s-49 82.667 -49 146v317h190v-286
c0 -51.333 18.667 -77 56 -77c21.333 0 38.833 8.16699 52.5 24.5s20.5 39.166 20.5 68.499v270h190v-502c-46 -30.667 -69 -57.667 -69 -81c0 -16 8.33301 -24 25 -24c9.33301 0 18.333 3.33301 27 10z" />
    <glyph glyph-name="Wcircumflex" unicode="&#x174;" horiz-adv-x="983" 
d="M307 744l104 146h146l104 -146h-134l-47 55l-45 -55h-128zM159 0l-159 695h201l83 -439l102 439h212l108 -439l76 439h201l-159 -695h-213l-119 430l-120 -430h-213z" />
    <glyph glyph-name="wcircumflex" unicode="&#x175;" horiz-adv-x="831" 
d="M240 549l104 146h146l104 -146h-134l-47 55l-45 -55h-128zM155 0l-153 502h194l58 -278l66 278h190l69 -278l56 278h194l-153 -502h-187l-74 289l-73 -289h-187z" />
    <glyph glyph-name="Ycircumflex" unicode="&#x176;" horiz-adv-x="664" 
d="M154 744l104 146h146l104 -146h-134l-47 55l-45 -55h-128zM234 0v253l-244 442h221l124 -245l118 245h221l-244 -442v-253h-196z" />
    <glyph glyph-name="ycircumflex" unicode="&#x177;" horiz-adv-x="542" 
d="M96 549l104 146h146l104 -146h-134l-47 55l-45 -55h-128zM163 -224c-72 0 -127.666 32.333 -166.999 97l117 102c13.333 -30.667 30.333 -46 51 -46c22 0 38.667 18.333 50 55l5 16h-55l-175 502h200l83 -297l81 297h200l-207 -572
c-20.667 -57.333 -45.334 -97.333 -74.001 -120s-65 -34 -109 -34z" />
    <glyph glyph-name="Ydieresis" unicode="&#x178;" horiz-adv-x="664" 
d="M221 735c-25.333 0 -46.5 8.16699 -63.5 24.5s-25.5 36.833 -25.5 61.5c0 24 8.5 44 25.5 60s38.167 24 63.5 24s46.5 -8 63.5 -24s25.5 -36 25.5 -60c0 -24.667 -8.5 -45.167 -25.5 -61.5s-38.167 -24.5 -63.5 -24.5zM440 735c-25.333 0 -46.5 8.16699 -63.5 24.5
s-25.5 36.833 -25.5 61.5c0 24 8.5 44 25.5 60s38.167 24 63.5 24s46.5 -8 63.5 -24s25.5 -36 25.5 -60c0 -24.667 -8.5 -45.167 -25.5 -61.5s-38.167 -24.5 -63.5 -24.5zM234 0v253l-244 442h221l124 -245l118 245h221l-244 -442v-253h-196z" />
    <glyph glyph-name="Zacute" unicode="&#x179;" horiz-adv-x="622" 
d="M250 744l76 146h183l-125 -146h-134zM20 0v161l316 353h-301v181h552v-161l-316 -353h331v-181h-582z" />
    <glyph glyph-name="zacute" unicode="&#x17a;" horiz-adv-x="498" 
d="M186 549l76 146h183l-125 -146h-134zM17 0v121l213 228h-202v152h442v-121l-213 -228h224v-152h-464z" />
    <glyph glyph-name="Zdotaccent" unicode="&#x17b;" horiz-adv-x="622" 
d="M314 732c-26 0 -47.5 8.16699 -64.5 24.5s-25.5 37.166 -25.5 62.499s8.5 46.166 25.5 62.499s38.5 24.5 64.5 24.5s47.5 -8.16699 64.5 -24.5s25.5 -37.166 25.5 -62.499s-8.5 -46.166 -25.5 -62.499s-38.5 -24.5 -64.5 -24.5zM20 0v161l316 353h-301v181h552v-161
l-316 -353h331v-181h-582z" />
    <glyph glyph-name="zdotaccent" unicode="&#x17c;" horiz-adv-x="498" 
d="M250 537c-26 0 -47.5 8.16699 -64.5 24.5s-25.5 37.166 -25.5 62.499s8.5 46.166 25.5 62.499s38.5 24.5 64.5 24.5s47.5 -8.16699 64.5 -24.5s25.5 -37.166 25.5 -62.499s-8.5 -46.166 -25.5 -62.499s-38.5 -24.5 -64.5 -24.5zM17 0v121l213 228h-202v152h442v-121
l-213 -228h224v-152h-464z" />
    <glyph glyph-name="Zcaron" unicode="&#x17d;" horiz-adv-x="622" 
d="M491 890l-104 -146h-146l-104 146h134l47 -55l45 55h128zM20 0v161l316 353h-301v181h552v-161l-316 -353h331v-181h-582z" />
    <glyph glyph-name="zcaron" unicode="&#x17e;" horiz-adv-x="498" 
d="M427 695l-104 -146h-146l-104 146h134l47 -55l45 55h128zM17 0v121l213 228h-202v152h442v-121l-213 -228h224v-152h-464z" />
    <glyph glyph-name="florin" unicode="&#x192;" horiz-adv-x="453" 
d="M385 566c-11.333 0 -20.333 -4.16699 -27 -12.5s-11.334 -22.5 -14.001 -42.5l-13 -86h79l-19 -121h-77l-16 -109c-20 -136.667 -93.333 -205 -220 -205c-39.333 0 -72 7 -98 21l42 140c13.333 -13.333 28.666 -20 45.999 -20c11.333 0 20.333 4.16699 27 12.5
s11.334 22.5 14.001 42.5l17 118h-78l19 121h77l11 77c20 136.667 93.333 205 220 205c40 0 72.667 -7 98 -21l-42 -140c-13.333 13.333 -28.666 20 -45.999 20z" />
    <glyph glyph-name="uni0218" unicode="&#x218;" horiz-adv-x="672" 
d="M343 -14c-98.667 0 -175.997 20.167 -231.997 60.5s-84 92.5 -84 156.5c0 30 4.33301 57 13 81l190 -38c-5.33301 -12 -8 -23.667 -8 -35c0 -21.333 11.167 -38.166 33.5 -50.499s52.166 -18.5 89.499 -18.5c33.333 0 59.166 5.66699 77.499 17s27.5 26.666 27.5 45.999
c0 15.333 -6.33301 27.666 -19 36.999s-28.334 15.333 -47.001 18l-92 13c-86.667 12.667 -150.334 36.667 -191.001 72s-61 83.333 -61 144c0 61.333 25.333 113.333 76 156s121 64 211 64c191.333 0 292.333 -78.333 303 -235l-193 -23
c-4 32.667 -14.667 57.834 -32 75.501s-45.666 26.5 -84.999 26.5c-24 0 -44.167 -5 -60.5 -15s-24.5 -22.667 -24.5 -38c0 -30.667 28 -50 84 -58l93 -14c81.333 -12 140.5 -34.667 177.5 -68s55.5 -78.333 55.5 -135c0 -70 -26.833 -127.333 -80.5 -172
s-127.5 -67 -221.5 -67zM218.003 -235l49 178h155l-72 -178h-132z" />
    <glyph glyph-name="uni0219" unicode="&#x219;" horiz-adv-x="543" 
d="M272 -12c-80 0 -143.501 15.833 -190.501 47.5s-70.833 74.167 -71.5 127.5l180 18c5.33301 -46 34.666 -69 87.999 -69c38 0 57 10.667 57 32c0 15.333 -12.333 25.333 -37 30l-56 10c-31.333 5.33301 -57.666 11.5 -78.999 18.5s-43.166 16.833 -65.499 29.5
s-39.166 29.667 -50.499 51s-17 47 -17 77c0 46.667 22.167 84 66.5 112s104.833 42 181.5 42c70.667 0 126.667 -13.667 168 -41s66 -62.666 74 -105.999l-168 -40c-9.33301 42 -34 63 -74 63c-38 0 -57 -10.667 -57 -32c0 -16.667 15.667 -27.334 47 -32.001l55 -8
c28.667 -4 53.667 -9.33301 75 -16s42.166 -16.167 62.499 -28.5s35.833 -28.833 46.5 -49.5s16 -45.334 16 -74.001c0 -51.333 -23.333 -91.166 -70 -119.499s-107 -42.5 -181 -42.5zM144.999 -235l49 178h155l-72 -178h-132z" />
    <glyph glyph-name="uni021A" unicode="&#x21a;" horiz-adv-x="624" 
d="M214 0v514h-194v181h584v-181h-194v-514h-196zM187 -235l49 178h155l-72 -178h-132z" />
    <glyph glyph-name="uni021B" unicode="&#x21b;" horiz-adv-x="473" 
d="M261 -12c-126 0 -189 58.333 -189 175v187h-62v152h74l50 142h128v-142h190v-152h-190v-166c0 -22.667 9 -34 27 -34c9.33301 0 18 4.83301 26 14.5s16.333 25.834 25 48.501l138 -78c-28 -50.667 -58.833 -87.834 -92.5 -111.501s-75.167 -35.5 -124.5 -35.5zM115 -235
l49 178h155l-72 -178h-132z" />
    <glyph glyph-name="uni0237" unicode="&#x237;" 
d="M67 -224c-49.333 0 -94.667 9.33301 -136 28l41 149c14.667 -16 31 -24 49 -24c19.333 0 29 12 29 36v537h190v-554c0 -60.667 -16.5 -104.5 -49.5 -131.5s-74.167 -40.5 -123.5 -40.5z" />
    <glyph glyph-name="circumflex" unicode="&#x2c6;" horiz-adv-x="400" 
d="M23 549l104 146h146l104 -146h-134l-47 55l-45 -55h-128z" />
    <glyph glyph-name="caron" unicode="&#x2c7;" horiz-adv-x="400" 
d="M377 695l-104 -146h-146l-104 146h134l47 -55l45 55h128z" />
    <glyph glyph-name="breve" unicode="&#x2d8;" horiz-adv-x="400" 
d="M200 545c-49.333 0 -88.168 13 -116.501 39s-42.5 63 -42.5 111h112c0 -14 4.16699 -25.167 12.5 -33.5s19.833 -12.5 34.5 -12.5s26.167 4.16699 34.5 12.5s12.5 19.5 12.5 33.5h112c0 -48 -14.167 -85 -42.5 -111s-67.166 -39 -116.499 -39z" />
    <glyph glyph-name="dotaccent" unicode="&#x2d9;" horiz-adv-x="400" 
d="M200 537c-26 0 -47.5 8.16699 -64.5 24.5s-25.5 37.166 -25.5 62.499s8.5 46.166 25.5 62.499s38.5 24.5 64.5 24.5s47.5 -8.16699 64.5 -24.5s25.5 -37.166 25.5 -62.499s-8.5 -46.166 -25.5 -62.499s-38.5 -24.5 -64.5 -24.5z" />
    <glyph glyph-name="ring" unicode="&#x2da;" horiz-adv-x="400" 
d="M201 508c-40.667 0 -73.834 11.167 -99.501 33.5s-38.5 50.833 -38.5 85.5s12.833 63.167 38.5 85.5s58.834 33.5 99.501 33.5s73.834 -11.167 99.501 -33.5s38.5 -50.833 38.5 -85.5s-12.833 -63.167 -38.5 -85.5s-58.834 -33.5 -99.501 -33.5zM201 592
c11.333 0 20.5 3.16699 27.5 9.5s10.5 14.833 10.5 25.5s-3.5 19.167 -10.5 25.5s-16.167 9.5 -27.5 9.5s-20.5 -3.16699 -27.5 -9.5s-10.5 -14.833 -10.5 -25.5s3.5 -19.167 10.5 -25.5s16.167 -9.5 27.5 -9.5z" />
    <glyph glyph-name="ogonek" unicode="&#x2db;" horiz-adv-x="400" 
d="M192 -212c-38 0 -69.5 7.5 -94.5 22.5s-37.5 38.5 -37.5 70.5c0 25.333 10.333 50 31 74s51.667 44.667 93 62l86 -17c-46 -30.667 -69 -57.667 -69 -81c0 -16 8.33301 -24 25 -24c9.33301 0 18.333 3.33301 27 10l37 -92c-26 -16.667 -58.667 -25 -98 -25z" />
    <glyph glyph-name="tilde" unicode="&#x2dc;" horiz-adv-x="400" 
d="M25 544c0 48 9.99902 85 29.999 111s47 39 81 39c20.667 0 40.5 -6 59.5 -18s31.5 -18 37.5 -18c16.667 0 25 12.333 25 37h107c0 -48 -10 -85 -30 -111s-47 -39 -81 -39c-20.667 0 -40.667 6 -60 18s-31.666 18 -36.999 18c-16.667 0 -25 -12.333 -25 -37h-107z" />
    <glyph glyph-name="hungarumlaut" unicode="&#x2dd;" horiz-adv-x="400" 
d="M43 549l56 146h168l-105 -146h-119zM234 549l58 146h169l-107 -146h-120z" />
    <glyph glyph-name="gravecomb" unicode="&#x300;" horiz-adv-x="0" 
d="M-268 549l-125 146h182l76 -146h-133z" />
    <glyph glyph-name="acutecomb" unicode="&#x301;" horiz-adv-x="0" 
d="M-264 549l76 146h183l-125 -146h-134z" />
    <glyph glyph-name="uni0302" unicode="&#x302;" horiz-adv-x="0" 
d="M-377 549l104 146h146l104 -146h-134l-47 55l-45 -55h-128z" />
    <glyph glyph-name="tildecomb" unicode="&#x303;" horiz-adv-x="0" 
d="M-375 544c0 48 9.99902 85 29.999 111s47 39 81 39c20.667 0 40.5 -6 59.5 -18s31.5 -18 37.5 -18c16.667 0 25 12.333 25 37h107c0 -48 -10 -85 -30 -111s-47 -39 -81 -39c-20.667 0 -40.667 6 -60 18s-31.666 18 -36.999 18c-16.667 0 -25 -12.333 -25 -37h-107z" />
    <glyph glyph-name="uni0304" unicode="&#x304;" horiz-adv-x="0" 
d="M-359 561v119h318v-119h-318z" />
    <glyph glyph-name="uni0306" unicode="&#x306;" horiz-adv-x="0" 
d="M-200 545c-49.333 0 -88.168 13 -116.501 39s-42.5 63 -42.5 111h112c0 -14 4.16699 -25.167 12.5 -33.5s19.833 -12.5 34.5 -12.5s26.167 4.16699 34.5 12.5s12.5 19.5 12.5 33.5h112c0 -48 -14.167 -85 -42.5 -111s-67.166 -39 -116.499 -39z" />
    <glyph glyph-name="uni0307" unicode="&#x307;" horiz-adv-x="0" 
d="M-200 537c-26 0 -47.5 8.16699 -64.5 24.5s-25.5 37.166 -25.5 62.499s8.5 46.166 25.5 62.499s38.5 24.5 64.5 24.5s47.5 -8.16699 64.5 -24.5s25.5 -37.166 25.5 -62.499s-8.5 -46.166 -25.5 -62.499s-38.5 -24.5 -64.5 -24.5z" />
    <glyph glyph-name="uni0308" unicode="&#x308;" horiz-adv-x="0" 
d="M-310 540c-25.333 0 -46.5 8.16699 -63.5 24.5s-25.5 36.833 -25.5 61.5c0 24 8.5 44 25.5 60s38.167 24 63.5 24s46.5 -8 63.5 -24s25.5 -36 25.5 -60c0 -24.667 -8.5 -45.167 -25.5 -61.5s-38.167 -24.5 -63.5 -24.5zM-91 540c-25.333 0 -46.5 8.16699 -63.5 24.5
s-25.5 36.833 -25.5 61.5c0 24 8.5 44 25.5 60s38.167 24 63.5 24s46.5 -8 63.5 -24s25.5 -36 25.5 -60c0 -24.667 -8.5 -45.167 -25.5 -61.5s-38.167 -24.5 -63.5 -24.5z" />
    <glyph glyph-name="uni030A" unicode="&#x30a;" horiz-adv-x="0" 
d="M-199 508c-40.667 0 -73.834 11.167 -99.501 33.5s-38.5 50.833 -38.5 85.5s12.833 63.167 38.5 85.5s58.834 33.5 99.501 33.5s73.834 -11.167 99.501 -33.5s38.5 -50.833 38.5 -85.5s-12.833 -63.167 -38.5 -85.5s-58.834 -33.5 -99.501 -33.5zM-199 592
c11.333 0 20.5 3.16699 27.5 9.5s10.5 14.833 10.5 25.5s-3.5 19.167 -10.5 25.5s-16.167 9.5 -27.5 9.5s-20.5 -3.16699 -27.5 -9.5s-10.5 -14.833 -10.5 -25.5s3.5 -19.167 10.5 -25.5s16.167 -9.5 27.5 -9.5z" />
    <glyph glyph-name="uni030B" unicode="&#x30b;" horiz-adv-x="0" 
d="M-357 549l56 146h168l-105 -146h-119zM-166 549l58 146h169l-107 -146h-120z" />
    <glyph glyph-name="uni030C" unicode="&#x30c;" horiz-adv-x="0" 
d="M-23 695l-104 -146h-146l-104 146h134l47 -55l45 55h128z" />
    <glyph glyph-name="uni0312" unicode="&#x312;" horiz-adv-x="0" 
d="M-72 727l-49 -178h-155l72 178h132z" />
    <glyph glyph-name="uni0326" unicode="&#x326;" horiz-adv-x="0" 
d="M-325 -235l49 178h155l-72 -178h-132z" />
    <glyph glyph-name="uni0327" unicode="&#x327;" horiz-adv-x="0" 
d="M-309 -165l42 175h142l-45 -175h-139z" />
    <glyph glyph-name="uni0328" unicode="&#x328;" horiz-adv-x="0" 
d="M-208 -212c-38 0 -69.5 7.5 -94.5 22.5s-37.5 38.5 -37.5 70.5c0 25.333 10.333 50 31 74s51.667 44.667 93 62l86 -17c-46 -30.667 -69 -57.667 -69 -81c0 -16 8.33301 -24 25 -24c9.33301 0 18.333 3.33301 27 10l37 -92c-26 -16.667 -58.667 -25 -98 -25z" />
    <glyph glyph-name="uni0394" unicode="&#x394;" horiz-adv-x="761" 
d="M30 0v151l243 544h215l243 -544v-151h-701zM249 180h260l-133 311z" />
    <glyph glyph-name="uni03A9" unicode="&#x3a9;" horiz-adv-x="800" 
d="M47 0l0.00195312 170.999h150v35c-104.667 46 -157 120.333 -157 223c0 82.667 33.667 150 101 202s153.666 78 258.999 78s191.666 -26 258.999 -78s101 -119.333 101 -202c0 -58.667 -15.333 -106.167 -46 -142.5s-67.667 -63.166 -111 -80.499v-35h150v-171h-304v231
c29.333 17.333 54.333 39.666 75 66.999s31 59.333 31 96c0 44 -14.333 79 -43 105s-66 39 -112 39s-83.333 -13 -112 -39s-43 -61 -43 -105c0 -65.333 35.333 -119.666 106 -162.999v-231h-304z" />
    <glyph glyph-name="uni03BC" unicode="&#x3bc;" horiz-adv-x="609" 
d="M50 -193v695.001h191v-305c4 -38.667 22.333 -58 55 -58c21.333 0 38.833 8.16699 52.5 24.5s20.5 39.166 20.5 68.499v270h190v-502h-176v77c-24 -54.667 -59 -82 -105 -82c-32 0 -55 10.333 -69 31l31 -219h-190z" />
    <glyph glyph-name="pi" unicode="&#x3c0;" horiz-adv-x="690" 
d="M670 350h-100.001v-164c0 -20 8 -30 24 -30c8 0 16.333 4 25 12l34 -146c-29.333 -18.667 -62.666 -28 -99.999 -28c-115.333 0 -173 58.333 -173 175v181h-100v-350h-190v350h-70v152h650v-152z" />
    <glyph glyph-name="Wgrave" unicode="&#x1e80;" horiz-adv-x="983" 
d="M416 744l-125 146h182l76 -146h-133zM159 0l-159 695h201l83 -439l102 439h212l108 -439l76 439h201l-159 -695h-213l-119 430l-120 -430h-213z" />
    <glyph glyph-name="wgrave" unicode="&#x1e81;" horiz-adv-x="831" 
d="M349 549l-125 146h182l76 -146h-133zM155 0l-153 502h194l58 -278l66 278h190l69 -278l56 278h194l-153 -502h-187l-74 289l-73 -289h-187z" />
    <glyph glyph-name="Wacute" unicode="&#x1e82;" horiz-adv-x="983" 
d="M420 744l76 146h183l-125 -146h-134zM159 0l-159 695h201l83 -439l102 439h212l108 -439l76 439h201l-159 -695h-213l-119 430l-120 -430h-213z" />
    <glyph glyph-name="wacute" unicode="&#x1e83;" horiz-adv-x="831" 
d="M353 549l76 146h183l-125 -146h-134zM155 0l-153 502h194l58 -278l66 278h190l69 -278l56 278h194l-153 -502h-187l-74 289l-73 -289h-187z" />
    <glyph glyph-name="Wdieresis" unicode="&#x1e84;" horiz-adv-x="983" 
d="M374 735c-25.333 0 -46.5 8.16699 -63.5 24.5s-25.5 36.833 -25.5 61.5c0 24 8.5 44 25.5 60s38.167 24 63.5 24s46.5 -8 63.5 -24s25.5 -36 25.5 -60c0 -24.667 -8.5 -45.167 -25.5 -61.5s-38.167 -24.5 -63.5 -24.5zM593 735c-25.333 0 -46.5 8.16699 -63.5 24.5
s-25.5 36.833 -25.5 61.5c0 24 8.5 44 25.5 60s38.167 24 63.5 24s46.5 -8 63.5 -24s25.5 -36 25.5 -60c0 -24.667 -8.5 -45.167 -25.5 -61.5s-38.167 -24.5 -63.5 -24.5zM159 0l-159 695h201l83 -439l102 439h212l108 -439l76 439h201l-159 -695h-213l-119 430l-120 -430
h-213z" />
    <glyph glyph-name="wdieresis" unicode="&#x1e85;" horiz-adv-x="831" 
d="M307 540c-25.333 0 -46.5 8.16699 -63.5 24.5s-25.5 36.833 -25.5 61.5c0 24 8.5 44 25.5 60s38.167 24 63.5 24s46.5 -8 63.5 -24s25.5 -36 25.5 -60c0 -24.667 -8.5 -45.167 -25.5 -61.5s-38.167 -24.5 -63.5 -24.5zM526 540c-25.333 0 -46.5 8.16699 -63.5 24.5
s-25.5 36.833 -25.5 61.5c0 24 8.5 44 25.5 60s38.167 24 63.5 24s46.5 -8 63.5 -24s25.5 -36 25.5 -60c0 -24.667 -8.5 -45.167 -25.5 -61.5s-38.167 -24.5 -63.5 -24.5zM155 0l-153 502h194l58 -278l66 278h190l69 -278l56 278h194l-153 -502h-187l-74 289l-73 -289h-187z
" />
    <glyph glyph-name="uni1E9E" unicode="&#x1e9e;" horiz-adv-x="803" 
d="M491 -14c-84.667 0 -153 18.334 -205 55.001l102 142c26.667 -26 64.667 -39 114 -39c26.667 0 47.5 5.16699 62.5 15.5s22.5 24.5 22.5 42.5c0 22.667 -16.333 40 -49 52s-84 20.333 -154 25l-39 112l182 143h-268v-534h-196v695h651v-189l-161 -106
c153.333 -24 230 -89 230 -195c0 -68.667 -25.5 -122.334 -76.5 -161.001s-122.833 -58 -215.5 -58z" />
    <glyph glyph-name="Ygrave" unicode="&#x1ef2;" horiz-adv-x="664" 
d="M263 744l-125 146h182l76 -146h-133zM234 0v253l-244 442h221l124 -245l118 245h221l-244 -442v-253h-196z" />
    <glyph glyph-name="ygrave" unicode="&#x1ef3;" horiz-adv-x="542" 
d="M205 549l-125 146h182l76 -146h-133zM163 -224c-72 0 -127.666 32.333 -166.999 97l117 102c13.333 -30.667 30.333 -46 51 -46c22 0 38.667 18.333 50 55l5 16h-55l-175 502h200l83 -297l81 297h200l-207 -572c-20.667 -57.333 -45.334 -97.333 -74.001 -120
s-65 -34 -109 -34z" />
    <glyph glyph-name="endash" unicode="&#x2013;" horiz-adv-x="556" 
d="M45 230v150h466v-150h-466z" />
    <glyph glyph-name="emdash" unicode="&#x2014;" horiz-adv-x="1000" 
d="M35 230v150h930v-150h-930z" />
    <glyph glyph-name="quoteleft" unicode="&#x2018;" horiz-adv-x="280" 
d="M161 558c26.667 -2 48.999 -12.002 66.999 -30.002s27 -40.667 27 -68c0 -31.333 -10.5 -56.5 -31.5 -75.5s-47.167 -28.5 -78.5 -28.5c-35.333 0 -64.166 12.333 -86.499 37s-33.5 57.334 -33.5 98.001c0 76.667 36 149.334 108 218.001l85 -59
c-32 -26 -51 -56.667 -57 -92z" />
    <glyph glyph-name="quoteright" unicode="&#x2019;" horiz-adv-x="280" 
d="M135 709c35.333 0 64.167 -12.167 86.5 -36.5s33.5 -57.166 33.5 -98.499c0 -76.667 -36 -149.334 -108 -218.001l-85 59c32 26 51 56.667 57 92c-26.667 2 -49 12 -67 30s-27 40.667 -27 68c0 31.333 10.5 56.5 31.5 75.5s47.167 28.5 78.5 28.5z" />
    <glyph glyph-name="quotesinglbase" unicode="&#x201a;" horiz-adv-x="280" 
d="M135 208c35.333 0 64.167 -12.3311 86.5 -36.998s33.5 -57.334 33.5 -98.001c0 -76.667 -36 -149.334 -108 -218.001l-85 59c32 26 51 56.667 57 92c-26.667 2 -49 12 -67 30s-27 40.667 -27 68c0 31.333 10.5 56.5 31.5 75.5s47.167 28.5 78.5 28.5z" />
    <glyph glyph-name="quotedblleft" unicode="&#x201c;" horiz-adv-x="518" 
d="M161 558c26.667 -2 48.999 -12.002 66.999 -30.002s27 -40.667 27 -68c0 -31.333 -10.5 -56.5 -31.5 -75.5s-47.167 -28.5 -78.5 -28.5c-35.333 0 -64.166 12.333 -86.499 37s-33.5 57.334 -33.5 98.001c0 76.667 36 149.334 108 218.001l85 -59
c-32 -26 -51 -56.667 -57 -92zM398.999 557.998c26.667 -2 48.999 -12.002 66.999 -30.002s27 -40.667 27 -68c0 -31.333 -10.5 -56.5 -31.5 -75.5s-47.167 -28.5 -78.5 -28.5c-35.333 0 -64.166 12.333 -86.499 37s-33.5 57.334 -33.5 98.001
c0 76.667 36 149.334 108 218.001l85 -59c-32 -26 -51 -56.667 -57 -92z" />
    <glyph glyph-name="quotedblright" unicode="&#x201d;" horiz-adv-x="518" 
d="M135 709c35.333 0 64.167 -12.167 86.5 -36.5s33.5 -57.166 33.5 -98.499c0 -76.667 -36 -149.334 -108 -218.001l-85 59c32 26 51 56.667 57 92c-26.667 2 -49 12 -67 30s-27 40.667 -27 68c0 31.333 10.5 56.5 31.5 75.5s47.167 28.5 78.5 28.5zM373.001 706
c35.333 0 64.167 -12.3311 86.5 -36.998s33.5 -57.334 33.5 -98.001c0 -76.667 -36 -149.334 -108 -218.001l-85 59c32 26 51 56.667 57 92c-26.667 2 -49 12 -67 30s-27 40.667 -27 68c0 31.333 10.5 56.5 31.5 75.5s47.167 28.5 78.5 28.5z" />
    <glyph glyph-name="quotedblbase" unicode="&#x201e;" horiz-adv-x="518" 
d="M135 208c35.333 0 64.167 -12.3311 86.5 -36.998s33.5 -57.334 33.5 -98.001c0 -76.667 -36 -149.334 -108 -218.001l-85 59c32 26 51 56.667 57 92c-26.667 2 -49 12 -67 30s-27 40.667 -27 68c0 31.333 10.5 56.5 31.5 75.5s47.167 28.5 78.5 28.5zM373.001 208.002
c35.333 0 64.167 -12.3311 86.5 -36.998s33.5 -57.334 33.5 -98.001c0 -76.667 -36 -149.334 -108 -218.001l-85 59c32 26 51 56.667 57 92c-26.667 2 -49 12 -67 30s-27 40.667 -27 68c0 31.333 10.5 56.5 31.5 75.5s47.167 28.5 78.5 28.5z" />
    <glyph glyph-name="dagger" unicode="&#x2020;" horiz-adv-x="488" 
d="M468 542v-150h-143v-203h-162v203h-143v150h143v153h162v-153h143z" />
    <glyph glyph-name="daggerdbl" unicode="&#x2021;" horiz-adv-x="488" 
d="M468 431h-143v-78h143v-150h-143v-114h-162v114h-143v150h143v78h-143v150h143v114h162v-114h143v-150z" />
    <glyph glyph-name="bullet" unicode="&#x2022;" horiz-adv-x="489" 
d="M245 141c-54.667 0 -101.667 18.667 -141 56s-59 84 -59 140c0 55.333 19.667 101.833 59 139.5s86.333 56.5 141 56.5c56.667 0 104 -18.667 142 -56s57 -84 57 -140s-19 -102.667 -57 -140s-85.333 -56 -142 -56z" />
    <glyph glyph-name="ellipsis" unicode="&#x2026;" horiz-adv-x="808" 
d="M140 -14c-31.333 0 -58.333 10.833 -81 32.5s-34 48.5 -34 80.5s11.333 58.833 34 80.5s49.667 32.5 81 32.5c32.667 0 60 -10.667 82 -32s33 -48.333 33 -81s-11 -59.667 -33 -81s-49.333 -32 -82 -32zM668 -14c-31.333 0 -58.333 10.833 -81 32.5s-34 48.5 -34 80.5
s11.333 58.833 34 80.5s49.667 32.5 81 32.5c32.667 0 60 -10.667 82 -32s33 -48.333 33 -81s-11 -59.667 -33 -81s-49.333 -32 -82 -32zM404 -15c-31.333 0 -58.333 10.833 -81 32.5s-34 48.5 -34 80.5s11.333 58.833 34 80.5s49.667 32.5 81 32.5
c32.667 0 60 -10.667 82 -32s33 -48.333 33 -81s-11 -59.667 -33 -81s-49.333 -32 -82 -32z" />
    <glyph glyph-name="perthousand" unicode="&#x2030;" horiz-adv-x="1495" 
d="M230 315c-63.333 0 -114 17.833 -152 53.5s-57 83.167 -57 142.5s19 106.833 57 142.5s88.667 53.5 152 53.5s114 -17.833 152 -53.5s57 -83.167 57 -142.5s-19 -106.833 -57 -142.5s-88.667 -53.5 -152 -53.5zM221 0l454 695h152l-454 -695h-152zM230 430
c20 0 36.167 7.5 48.5 22.5s18.5 34.5 18.5 58.5s-6.16699 43.5 -18.5 58.5s-28.5 22.5 -48.5 22.5s-36.167 -7.5 -48.5 -22.5s-18.5 -34.5 -18.5 -58.5s6.16699 -43.5 18.5 -58.5s28.5 -22.5 48.5 -22.5zM809 -12c-63.333 0 -114 17.833 -152 53.5s-57 83.167 -57 142.5
s19 106.833 57 142.5s88.667 53.5 152 53.5s114 -17.833 152 -53.5s57 -83.167 57 -142.5s-19 -106.833 -57 -142.5s-88.667 -53.5 -152 -53.5zM1265 -12c-63.333 0 -114 17.833 -152 53.5s-57 83.167 -57 142.5s19 106.833 57 142.5s88.667 53.5 152 53.5
s114 -17.833 152 -53.5s57 -83.167 57 -142.5s-19 -106.833 -57 -142.5s-88.667 -53.5 -152 -53.5zM809 103c20 0 36.167 7.5 48.5 22.5s18.5 34.5 18.5 58.5s-6.16699 43.5 -18.5 58.5s-28.5 22.5 -48.5 22.5s-36.167 -7.5 -48.5 -22.5s-18.5 -34.5 -18.5 -58.5
s6.16699 -43.5 18.5 -58.5s28.5 -22.5 48.5 -22.5zM1265 103c20 0 36.167 7.5 48.5 22.5s18.5 34.5 18.5 58.5s-6.16699 43.5 -18.5 58.5s-28.5 22.5 -48.5 22.5s-36.167 -7.5 -48.5 -22.5s-18.5 -34.5 -18.5 -58.5s6.16699 -43.5 18.5 -58.5s28.5 -22.5 48.5 -22.5z" />
    <glyph glyph-name="guilsinglleft" unicode="&#x2039;" horiz-adv-x="330" 
d="M280 79l-240 125v162l240 125v-167l-101 -39l101 -37v-169z" />
    <glyph glyph-name="guilsinglright" unicode="&#x203a;" horiz-adv-x="330" 
d="M50 79v167l101 39l-101 37v169l240 -125v-162z" />
    <glyph glyph-name="fraction" unicode="&#x2044;" 
d="M-160 0l477 695h133l-477 -695h-133z" />
    <glyph glyph-name="uni2074" unicode="&#x2074;" horiz-adv-x="423" 
d="M223 264v80.999h-203v126c71.333 60.667 111.333 135.334 120 224.001h144c-7.33301 -51.333 -23.833 -99 -49.5 -143s-54.167 -77 -85.5 -99h74v57h135v-57h45v-108h-45v-81h-135z" />
    <glyph glyph-name="Euro" unicode="&#x20ac;" horiz-adv-x="766" 
d="M531 259l204.999 -30.002c-42.667 -162 -148.667 -243 -318 -243c-77.333 0 -144 21.5 -200 64.5s-94.333 102.167 -115 177.5h-88v95h74c-0.666992 5.33301 -1 13.333 -1 24v21h-73v95h89c21.333 74.667 61 134.334 119 179.001s126.333 67 205 67
s144.334 -19.667 197.001 -59s86.667 -94.666 102 -165.999l-196 -48c-19.333 74.667 -57 112 -113 112c-54.667 0 -92.667 -28.333 -114 -85h110v-95h-128v-21c0 -10.667 0.333008 -18.667 1 -24h127v-95h-110c20 -54 56.667 -81 110 -81c59.333 0 98.333 37.333 117 112z
" />
    <glyph glyph-name="trademark" unicode="&#x2122;" horiz-adv-x="675" 
d="M95 441v178h-75v76h234v-76h-75v-178h-84zM290 441v254h115l59 -132l55 132h113v-254h-84v145l-53 -107h-67l-54 107v-145h-84z" />
    <glyph glyph-name="uni2126" unicode="&#x2126;" horiz-adv-x="800" 
d="M47 0l0.00195312 170.999h150v35c-104.667 46 -157 120.333 -157 223c0 82.667 33.667 150 101 202s153.666 78 258.999 78s191.666 -26 258.999 -78s101 -119.333 101 -202c0 -58.667 -15.333 -106.167 -46 -142.5s-67.667 -63.166 -111 -80.499v-35h150v-171h-304v231
c29.333 17.333 54.333 39.666 75 66.999s31 59.333 31 96c0 44 -14.333 79 -43 105s-66 39 -112 39s-83.333 -13 -112 -39s-43 -61 -43 -105c0 -65.333 35.333 -119.666 106 -162.999v-231h-304z" />
    <glyph glyph-name="arrowleft" unicode="&#x2190;" horiz-adv-x="720" 
d="M553 321c38.667 -14.667 66.333 -39.1641 83 -73.4971s25 -90.5 25 -168.5l-181 -20c0 61.333 -5.66699 104.666 -17 129.999s-35.666 38 -72.999 38h-96c24 -17.333 40.667 -38.333 50 -63s14.666 -62.667 15.999 -114l-189 -2
c-2.66699 56.667 -13.834 99.667 -33.501 129s-54.5 59.333 -104.5 90v110c50 30.667 84.833 60.667 104.5 90s30.834 72.333 33.501 129l189 -2c-1.33301 -51.333 -6.66602 -89.333 -15.999 -114s-26 -45.667 -50 -63h96c37.333 0 61.666 12.5 72.999 37.5
s17 68.5 17 130.5l181 -20c0 -74.667 -8.5 -130.334 -25.5 -167.001s-44.5 -62.334 -82.5 -77.001z" />
    <glyph glyph-name="arrowup" unicode="&#x2191;" horiz-adv-x="720" 
d="M632 348c-51.333 1.33301 -89.3311 6.66602 -113.998 15.999s-45.667 26 -63 50v-106c0 -42 12.5 -69.167 37.5 -81.5s68.5 -18.5 130.5 -18.5l-20 -181c-74.667 0 -130.334 8.5 -167.001 25.5s-62.334 44.5 -77.001 82.5c-14.667 -38 -39 -65 -73 -81
s-90.333 -24 -169 -24l-20 178c62 0 105.5 6.16699 130.5 18.5s37.5 39.5 37.5 81.5v106c-17.333 -24 -38.333 -40.667 -63 -50s-62.667 -14.666 -114 -15.999l-2 189c56.667 2.66699 99.667 13.834 129 33.501s59.333 54.5 90 104.5h110
c30.667 -50 60.667 -84.833 90 -104.5s72.333 -30.834 129 -33.501z" />
    <glyph glyph-name="arrowright" unicode="&#x2192;" horiz-adv-x="720" 
d="M549 596c2.66699 -56.667 13.835 -99.6699 33.502 -129.003s54.5 -59.333 104.5 -90v-110c-50 -30.667 -84.833 -60.667 -104.5 -90s-30.834 -72.333 -33.501 -129l-189 2c1.33301 51.333 6.66602 89.333 15.999 114s26 45.667 50 63h-96
c-37.333 0 -61.666 -12.5 -72.999 -37.5s-17 -68.5 -17 -130.5l-181 20c0 74.667 8.5 130.334 25.5 167.001s44.5 62.334 82.5 77.001c-38.667 14.667 -66.334 39.167 -83.001 73.5s-25 90.5 -25 168.5l181 20c0 -61.333 5.66699 -104.666 17 -129.999
s35.666 -38 72.999 -38h96c-24 17.333 -40.667 38.333 -50 63s-14.666 62.667 -15.999 114z" />
    <glyph glyph-name="arrowdown" unicode="&#x2193;" horiz-adv-x="720" 
d="M632 351l1.99805 -189c-56.667 -2.66699 -99.667 -13.834 -129 -33.501s-59.333 -54.5 -90 -104.5h-110c-30.667 50 -60.667 84.833 -90 104.5s-72.333 30.834 -129 33.501l2 189c51.333 -1.33301 89.333 -6.66602 114 -15.999s45.667 -26 63 -50v106
c0 42 -12.5 69.167 -37.5 81.5s-68.5 18.5 -130.5 18.5l20 181c74.667 0 130.334 -8.5 167.001 -25.5s62.334 -44.5 77.001 -82.5c14.667 38 39 65 73 81s90.333 24 169 24l20 -178c-62 0 -105.5 -6.16699 -130.5 -18.5s-37.5 -39.5 -37.5 -81.5v-106
c17.333 24 38.333 40.667 63 50s62.667 14.666 114 15.999z" />
    <glyph glyph-name="arrowboth" unicode="&#x2194;" horiz-adv-x="864" 
d="M693 596c2.66699 -56.667 13.834 -99.667 33.501 -129s54.5 -59.333 104.5 -90v-110c-50 -30.667 -84.833 -60.667 -104.5 -90s-30.834 -72.333 -33.501 -129l-189 2c1.33301 51.333 6.66602 89.333 15.999 114s26 45.667 50 63h-276c24 -17.333 40.667 -38.333 50 -63
s14.666 -62.667 15.999 -114l-189 -2c-2.66699 56.667 -13.834 99.667 -33.501 129s-54.5 59.333 -104.5 90v110c50 30.667 84.833 60.667 104.5 90s30.834 72.333 33.501 129l189 -2c-1.33301 -51.333 -6.66602 -89.333 -15.999 -114s-26 -45.667 -50 -63h276
c-24 17.333 -40.667 38.333 -50 63s-14.666 62.667 -15.999 114z" />
    <glyph glyph-name="arrowupdn" unicode="&#x2195;" horiz-adv-x="720" 
d="M455 202c17.333 24 38.333 40.667 63 50s62.667 14.666 114 15.999l2 -189c-56.667 -2.66699 -99.667 -13.834 -129 -33.501s-59.333 -54.5 -90 -104.5h-110c-30.667 50 -60.667 84.833 -90 104.5s-72.333 30.834 -129 33.501l2 189
c51.333 -1.33301 89.333 -6.66602 114 -15.999s45.667 -26 63 -50v276c-17.333 -24 -38.333 -40.667 -63 -50s-62.667 -14.666 -114 -15.999l-2 189c56.667 2.66699 99.667 13.834 129 33.501s59.333 54.5 90 104.5h110c30.667 -50 60.667 -84.833 90 -104.5
s72.333 -30.834 129 -33.501l-2 -189c-51.333 1.33301 -89.333 6.66602 -114 15.999s-45.667 26 -63 50v-276z" />
    <glyph glyph-name="uni2196" unicode="&#x2196;" horiz-adv-x="722" 
d="M735 305c-53.333 -52.667 -99.5 -86.168 -138.5 -100.501s-75.833 -12.833 -110.5 4.5c18 -33.333 20.333 -68.666 7 -105.999s-48 -83.666 -104 -138.999l-140 112c29.333 29.333 50.333 53.166 63 71.499s18.5 37.333 17.5 57s-11.833 39.834 -32.5 60.501l-75 75
c5.33301 -28.667 2.5 -55 -8.5 -79s-34.167 -55 -69.5 -93l-135 133c38 42 60.5 81.167 67.5 117.5s3.5 81.166 -10.5 134.499l78 78c53.333 -14 98.166 -17.5 134.499 -10.5s75.5 29.5 117.5 67.5l133 -135c-38 -35.333 -69 -58.5 -93 -69.5s-50.333 -14.167 -79 -9.5
l75 -74c20.667 -20.667 40.834 -31.5 60.501 -32.5s38.5 4.66699 56.5 17s42 33.5 72 63.5z" />
    <glyph glyph-name="uni2197" unicode="&#x2197;" horiz-adv-x="720" 
d="M654 552c-14 -53.333 -17.501 -98.166 -10.501 -134.499s29.5 -75.5 67.5 -117.5l-135 -133c-35.333 38 -58.5 69 -69.5 93s-14.167 50.333 -9.5 79l-74 -74v-1c-20.667 -20.667 -31.5 -40.834 -32.5 -60.501s4.66699 -38.5 17 -56.5s33.5 -42 63.5 -72l-143 -114
c-52.667 53.333 -86.167 99.5 -100.5 138.5s-12.833 75.833 4.5 110.5c-33.333 -18 -68.666 -20.333 -105.999 -7s-83.666 48 -138.999 104l112 140c29.333 -29.333 53.166 -50.333 71.499 -63s37.333 -18.5 57 -17.5s39.834 11.833 60.501 32.5l75 75
c-28.667 -5.33301 -55 -2.5 -79 8.5s-55 34.167 -93 69.5l133 135c42 -38 81.167 -60.5 117.5 -67.5s81.166 -3.5 134.499 10.5z" />
    <glyph glyph-name="uni2198" unicode="&#x2198;" horiz-adv-x="722" 
d="M713 353c-38 -42 -60.5 -81.166 -67.5 -117.499s-3.5 -81.166 10.5 -134.499l-78 -78c-53.333 14 -98.166 17.5 -134.499 10.5s-75.5 -29.5 -117.5 -67.5l-133 135c38 35.333 69 58.5 93 69.5s50.333 14.167 79 9.5l-74 75l-1 -1
c-20.667 20.667 -40.834 31.5 -60.501 32.5s-38.5 -4.66699 -56.5 -17s-42 -33.5 -72 -63.5l-114 143c53.333 52.667 99.5 86.167 138.5 100.5s75.833 12.833 110.5 -4.5c-18 33.333 -20.333 68.666 -7 105.999s48 83.666 104 138.999l140 -112
c-29.333 -29.333 -50.333 -53.166 -63 -71.499s-18.5 -37.333 -17.5 -57s11.833 -39.834 32.5 -60.501l75 -75c-5.33301 28.667 -2.5 55 8.5 79s34.167 55 69.5 93z" />
    <glyph glyph-name="uni2199" unicode="&#x2199;" horiz-adv-x="720" 
d="M432 252l-74.999 -75c28.667 5.33301 55 2.5 79 -8.5s55 -34.167 93 -69.5l-133 -135c-42 38 -81.167 60.5 -117.5 67.5s-81.166 3.5 -134.499 -10.5l-78 78c14 53.333 17.5 98.166 10.5 134.499s-29.5 75.5 -67.5 117.5l135 133c35.333 -38 58.5 -69 69.5 -93
s14.167 -50.333 9.5 -79l75 75h-1c20.667 20.667 31.5 40.834 32.5 60.501s-4.66699 38.5 -17 56.5s-33.5 42 -63.5 72l143 114c52.667 -53.333 86.167 -99.5 100.5 -138.5s12.833 -75.833 -4.5 -110.5c33.333 18 68.666 20.333 105.999 7s83.666 -48 138.999 -104
l-112 -140c-29.333 29.333 -53.166 50.333 -71.499 63s-37.333 18.5 -57 17.5s-39.834 -11.833 -60.501 -32.5z" />
    <glyph glyph-name="partialdiff" unicode="&#x2202;" horiz-adv-x="604" 
d="M299 -12c-84 0 -151.333 22.501 -202 67.501s-76 103.5 -76 175.5c0 66.667 21.5 121.667 64.5 165s95.833 65 158.5 65c77.333 0 133 -30 167 -90c-2 33.333 -10.667 62.166 -26 86.499s-37 43.833 -65 58.5s-58.833 26 -92.5 34s-73.5 14.333 -119.5 19l54 140
c126.667 -14 228.5 -55 305.5 -123s115.5 -156.667 115.5 -266c0 -98.667 -25.833 -178.667 -77.5 -240s-120.5 -92 -206.5 -92zM299 129.001c26 0 46.333 9 61 27s22 43 22 75s-7.33301 57 -22 75s-35 27 -61 27s-46.333 -9 -61 -27s-22 -43 -22 -75s7.33301 -57 22 -75
s35 -27 61 -27z" />
    <glyph glyph-name="uni2206" unicode="&#x2206;" horiz-adv-x="761" 
d="M30 0v151l243 544h215l243 -544v-151h-701zM249 180h260l-133 311z" />
    <glyph glyph-name="product" unicode="&#x220f;" horiz-adv-x="843" 
d="M823 695v-181h-104v-604h-196v604h-203v-604h-196v604h-104v181h803z" />
    <glyph glyph-name="summation" unicode="&#x2211;" horiz-adv-x="631" 
d="M30 -90v161l201 238l-198 225v161h556v-181h-299l124 -140v-121l-138 -162h325v-181h-571z" />
    <glyph glyph-name="minus" unicode="&#x2212;" horiz-adv-x="514" 
d="M33 230v150h448v-150h-448z" />
    <glyph glyph-name="radical" unicode="&#x221a;" horiz-adv-x="679" 
d="M250 -90l-161 367h-50v145h166l133 -312l199 585h154l-270 -785h-171z" />
    <glyph glyph-name="infinity" unicode="&#x221e;" horiz-adv-x="744" 
d="M541 481c51.333 0 93 -16.333 125 -49s48 -74 48 -124c0 -50.667 -16.667 -93.167 -50 -127.5s-75.333 -51.5 -126 -51.5c-31.333 0 -59.666 6.5 -84.999 19.5s-52.333 33.5 -81 61.5c-48 -54 -104.333 -81 -169 -81c-51.333 0 -93 16.333 -125 49s-48 74 -48 124
c0 50.667 16.667 93.167 50 127.5s75.333 51.5 126 51.5c31.333 0 59.666 -6.5 84.999 -19.5s52.333 -33.5 81 -61.5c48 54 104.333 81 169 81zM526 256c13.333 0 24.667 4.5 34 13.5s14 20.5 14 34.5c0 15.333 -4.83301 27.833 -14.5 37.5s-21.5 14.5 -35.5 14.5
c-16.667 0 -38.667 -16.667 -66 -50c30 -33.333 52.667 -50 68 -50zM220.001 254c16.667 0 38.666 16.667 65.999 50c-30 33.333 -52.667 50 -68 50c-13.333 0 -24.666 -4.5 -33.999 -13.5s-14 -20.5 -14 -34.5c0 -15.333 4.83301 -27.833 14.5 -37.5s21.5 -14.5 35.5 -14.5
z" />
    <glyph glyph-name="integral" unicode="&#x222b;" horiz-adv-x="408" 
d="M72 -100c-40 0 -74 5.66699 -102 17l36 144c12.667 -6.66699 26 -10 40 -10c34.667 0 52 22.667 52 68v396c0 62 20 109.5 60 142.5s92 49.5 156 49.5c40 0 74 -5.66699 102 -17l-36 -144c-12.667 6.66699 -26 10 -40 10c-34.667 0 -52 -22.667 -52 -68v-396
c0 -62 -20 -109.5 -60 -142.5s-92 -49.5 -156 -49.5z" />
    <glyph glyph-name="approxequal" unicode="&#x2248;" horiz-adv-x="514" 
d="M337 319c-22.667 0 -47.668 6.99902 -75.001 20.999s-46.666 21 -57.999 21c-19.333 0 -31.666 -13 -36.999 -39l-138 28c12 107.333 61 161 147 161c22 0 46.833 -7 74.5 -21s47.167 -21 58.5 -21s19.666 2.83301 24.999 8.5s9.33301 15.834 12 30.501l139 -28
c-12 -107.333 -61.333 -161 -148 -161zM336.999 98.999c-22.667 0 -47.668 7 -75.001 21s-46.666 21 -57.999 21c-19.333 0 -31.666 -13 -36.999 -39l-138 28c12 107.333 61 161 147 161c22 0 46.833 -7 74.5 -21s47.167 -21 58.5 -21c19.333 0 31.666 13 36.999 39l139 -28
c-12 -107.333 -61.333 -161 -148 -161z" />
    <glyph glyph-name="notequal" unicode="&#x2260;" horiz-adv-x="514" 
d="M464 337h-136l-25 -65h161v-150h-220l-31 -79h-117l31 79h-77v150h137l25 65h-162v150h222l31 79h115l-31 -79h77v-150z" />
    <glyph glyph-name="lessequal" unicode="&#x2264;" horiz-adv-x="514" 
d="M460 532v-163l-218 -50l218 -50v-163h-1v-106h-399v150h265l-264 86v166z" />
    <glyph glyph-name="greaterequal" unicode="&#x2265;" horiz-adv-x="514" 
d="M459 402v-166l-264 -86h264v-150h-399v269l218 50l-218 50v163z" />
    <glyph glyph-name="filledbox" unicode="&#x25a0;" horiz-adv-x="830" 
d="M63 695h704v-695h-704v695z" />
    <glyph glyph-name="uni25A1" unicode="&#x25a1;" horiz-adv-x="830" 
d="M63 695h704v-695h-704v695zM247 521v-347h336v347h-336z" />
    <glyph glyph-name="uni25AF" unicode="&#x25af;" horiz-adv-x="646" 
d="M63 695h520v-695h-520v695zM247 521v-347h152v347h-152z" />
    <glyph glyph-name="triagup" unicode="&#x25b2;" horiz-adv-x="812" 
d="M407 709l405 -709h-812z" />
    <glyph glyph-name="uni25B3" unicode="&#x25b3;" horiz-adv-x="812" 
d="M0 0l407 709l405 -709h-812zM303 173h206l-103 197z" />
    <glyph glyph-name="uni25B6" unicode="&#x25b6;" horiz-adv-x="486" 
d="M50 506l446 -256l-446 -256v512z" />
    <glyph glyph-name="uni25B7" unicode="&#x25b7;" horiz-adv-x="502" 
d="M50 524l462 -265l-462 -265v530zM183 210l89 49l-89 50v-99z" />
    <glyph glyph-name="uni25C0" unicode="&#x25c0;" horiz-adv-x="486" 
d="M436 506v-512l-446 256z" />
    <glyph glyph-name="uni25C1" unicode="&#x25c1;" horiz-adv-x="502" 
d="M452 524v-530l-462 265zM319 210v99l-89 -50z" />
    <glyph glyph-name="lozenge" unicode="&#x25ca;" horiz-adv-x="595" 
d="M240 0l-210 299l208 307h117l210 -300l-208 -306h-117zM299 160l93 143l-93 142l-96 -142z" />
    <glyph glyph-name="circle" unicode="&#x25cb;" horiz-adv-x="799" 
d="M400 -14c-107.333 0 -195.833 34 -265.5 102s-104.5 154.333 -104.5 259c0 105.333 34.833 192 104.5 260s158.167 102 265.5 102s195.666 -34 264.999 -102s104 -154.667 104 -260s-34.667 -191.833 -104 -259.5s-157.666 -101.5 -264.999 -101.5zM400 160
c53.333 0 97 17.5 131 52.5s51 79.833 51 134.5c0 55.333 -17 100.5 -51 135.5s-77.667 52.5 -131 52.5s-97 -17.5 -131 -52.5s-51 -80.167 -51 -135.5c0 -54.667 17 -99.5 51 -134.5s77.667 -52.5 131 -52.5z" />
    <glyph glyph-name="uni25CF" unicode="&#x25cf;" horiz-adv-x="798" 
d="M399 709c-107.333 0 -195.666 -34 -264.999 -102s-104 -154.667 -104 -260s34.667 -191.833 104 -259.5s157.666 -101.5 264.999 -101.5s195.666 33.833 264.999 101.5s104 154.167 104 259.5s-34.667 192 -104 260s-157.666 102 -264.999 102z" />
    <glyph glyph-name="uni25FD" unicode="&#x25fd;" horiz-adv-x="633" 
d="M50 525h533v-525h-533v525zM234 351v-177h165v177h-165z" />
    <glyph glyph-name="uni25FE" unicode="&#x25fe;" horiz-adv-x="633" 
d="M50 525h533v-525h-533v525z" />
    <glyph glyph-name="glyph2" horiz-adv-x="333" 
 />
    <glyph glyph-name="Q.ss03" horiz-adv-x="788" 
d="M394 -14c-105.333 0 -192.334 33.999 -261.001 101.999s-103 154.333 -103 259s34.333 191.167 103 259.5s155.667 102.5 261 102.5s192.333 -34 261 -102s103 -153.667 103 -257c0 -64.667 -14.667 -123 -44 -175c22.667 -22.667 53.334 -31.667 92.001 -27v-156
c-79.333 -9.33301 -141 14.334 -185 71.001c-62 -51.333 -137.667 -77 -227 -77zM393.999 156.999c41.333 0 73.332 12.999 95.999 38.999c-22.667 18.667 -56 28 -100 28v156c62 0 115.667 -22.667 161 -68c1.33301 14.667 2 26.334 2 35.001c0 59.333 -14.667 106 -44 140
s-67.666 51 -114.999 51s-85.666 -17.167 -114.999 -51.5s-44 -80.833 -44 -139.5s14.667 -105 44 -139s67.666 -51 114.999 -51z" />
    <glyph glyph-name="i.loclTRK" 
d="M146 530c-28 0 -51.5 9 -70.5 27s-28.5 41 -28.5 69s9.5 51 28.5 69s42.5 27 70.5 27s51.5 -9 70.5 -27s28.5 -41 28.5 -69s-9.5 -51 -28.5 -69s-42.5 -27 -70.5 -27zM50 0v502h190v-502h-190z" />
    <glyph glyph-name="f.short" horiz-adv-x="349" 
d="M82 0v350h-77v152h70c-9.33301 22 -14 45 -14 69c0 39.333 18 71.833 54 97.5s79.667 38.5 131 38.5c30 0 57.167 -3.66699 81.5 -11s41.5 -16 51.5 -26l-63 -117c-13.333 15.333 -29 23 -47 23c-11.333 0 -20.5 -3 -27.5 -9s-10.5 -13.667 -10.5 -23
c0 -16.667 7.66699 -30.667 23 -42h99v-152h-81v-350h-190z" />
    <glyph glyph-name="a.ss01" horiz-adv-x="629" 
d="M256 -12c-68 0 -124.332 24.166 -168.999 72.499s-67 111.833 -67 190.5c0 78 22 141.333 66 190s99 73 165 73c36 0 67.333 -8.5 94 -25.5s46 -39.167 58 -66.5v80h176v-502h-176v90c-12 -31.333 -30.833 -56.166 -56.5 -74.499s-55.834 -27.5 -90.501 -27.5z
M302.001 128.999c24.667 0 45.334 11.667 62.001 35s25 52.333 25 87s-8.33301 63.667 -25 87s-37.334 35 -62.001 35c-27.333 0 -48.666 -10.667 -63.999 -32s-23 -51.333 -23 -90s7.66699 -68.667 23 -90s36.666 -32 63.999 -32z" />
    <glyph glyph-name="aacute.ss01" horiz-adv-x="629" 
d="M254 549l76 146h183l-125 -146h-134zM256 -12c-68 0 -124.332 24.166 -168.999 72.499s-67 111.833 -67 190.5c0 78 22 141.333 66 190s99 73 165 73c36 0 67.333 -8.5 94 -25.5s46 -39.167 58 -66.5v80h176v-502h-176v90c-12 -31.333 -30.833 -56.166 -56.5 -74.499
s-55.834 -27.5 -90.501 -27.5zM302.001 128.999c24.667 0 45.334 11.667 62.001 35s25 52.333 25 87s-8.33301 63.667 -25 87s-37.334 35 -62.001 35c-27.333 0 -48.666 -10.667 -63.999 -32s-23 -51.333 -23 -90s7.66699 -68.667 23 -90s36.666 -32 63.999 -32z" />
    <glyph glyph-name="abreve.ss01" horiz-adv-x="629" 
d="M318 545c-49.333 0 -88.168 13 -116.501 39s-42.5 63 -42.5 111h112c0 -14 4.16699 -25.167 12.5 -33.5s19.833 -12.5 34.5 -12.5s26.167 4.16699 34.5 12.5s12.5 19.5 12.5 33.5h112c0 -48 -14.167 -85 -42.5 -111s-67.166 -39 -116.499 -39zM255.998 -12
c-68 0 -124.332 24.166 -168.999 72.499s-67 111.833 -67 190.5c0 78 22 141.333 66 190s99 73 165 73c36 0 67.333 -8.5 94 -25.5s46 -39.167 58 -66.5v80h176v-502h-176v90c-12 -31.333 -30.833 -56.166 -56.5 -74.499s-55.834 -27.5 -90.501 -27.5zM301.999 128.999
c24.667 0 45.334 11.667 62.001 35s25 52.333 25 87s-8.33301 63.667 -25 87s-37.334 35 -62.001 35c-27.333 0 -48.666 -10.667 -63.999 -32s-23 -51.333 -23 -90s7.66699 -68.667 23 -90s36.666 -32 63.999 -32z" />
    <glyph glyph-name="acircumflex.ss01" horiz-adv-x="629" 
d="M141 549l104 146h146l104 -146h-134l-47 55l-45 -55h-128zM256 -12c-68 0 -124.332 24.166 -168.999 72.499s-67 111.833 -67 190.5c0 78 22 141.333 66 190s99 73 165 73c36 0 67.333 -8.5 94 -25.5s46 -39.167 58 -66.5v80h176v-502h-176v90
c-12 -31.333 -30.833 -56.166 -56.5 -74.499s-55.834 -27.5 -90.501 -27.5zM302.001 128.999c24.667 0 45.334 11.667 62.001 35s25 52.333 25 87s-8.33301 63.667 -25 87s-37.334 35 -62.001 35c-27.333 0 -48.666 -10.667 -63.999 -32s-23 -51.333 -23 -90
s7.66699 -68.667 23 -90s36.666 -32 63.999 -32z" />
    <glyph glyph-name="adieresis.ss01" horiz-adv-x="629" 
d="M208 540c-25.333 0 -46.5 8.16699 -63.5 24.5s-25.5 36.833 -25.5 61.5c0 24 8.5 44 25.5 60s38.167 24 63.5 24s46.5 -8 63.5 -24s25.5 -36 25.5 -60c0 -24.667 -8.5 -45.167 -25.5 -61.5s-38.167 -24.5 -63.5 -24.5zM427 540c-25.333 0 -46.5 8.16699 -63.5 24.5
s-25.5 36.833 -25.5 61.5c0 24 8.5 44 25.5 60s38.167 24 63.5 24s46.5 -8 63.5 -24s25.5 -36 25.5 -60c0 -24.667 -8.5 -45.167 -25.5 -61.5s-38.167 -24.5 -63.5 -24.5zM256 -12c-68 0 -124.332 24.166 -168.999 72.499s-67 111.833 -67 190.5c0 78 22 141.333 66 190
s99 73 165 73c36 0 67.333 -8.5 94 -25.5s46 -39.167 58 -66.5v80h176v-502h-176v90c-12 -31.333 -30.833 -56.166 -56.5 -74.499s-55.834 -27.5 -90.501 -27.5zM302.001 128.999c24.667 0 45.334 11.667 62.001 35s25 52.333 25 87s-8.33301 63.667 -25 87
s-37.334 35 -62.001 35c-27.333 0 -48.666 -10.667 -63.999 -32s-23 -51.333 -23 -90s7.66699 -68.667 23 -90s36.666 -32 63.999 -32z" />
    <glyph glyph-name="agrave.ss01" horiz-adv-x="629" 
d="M250 549l-125 146h182l76 -146h-133zM256 -12c-68 0 -124.332 24.166 -168.999 72.499s-67 111.833 -67 190.5c0 78 22 141.333 66 190s99 73 165 73c36 0 67.333 -8.5 94 -25.5s46 -39.167 58 -66.5v80h176v-502h-176v90c-12 -31.333 -30.833 -56.166 -56.5 -74.499
s-55.834 -27.5 -90.501 -27.5zM302.001 128.999c24.667 0 45.334 11.667 62.001 35s25 52.333 25 87s-8.33301 63.667 -25 87s-37.334 35 -62.001 35c-27.333 0 -48.666 -10.667 -63.999 -32s-23 -51.333 -23 -90s7.66699 -68.667 23 -90s36.666 -32 63.999 -32z" />
    <glyph glyph-name="amacron.ss01" horiz-adv-x="629" 
d="M159 561v119h318v-119h-318zM256 -12c-68 0 -124.332 24.166 -168.999 72.499s-67 111.833 -67 190.5c0 78 22 141.333 66 190s99 73 165 73c36 0 67.333 -8.5 94 -25.5s46 -39.167 58 -66.5v80h176v-502h-176v90c-12 -31.333 -30.833 -56.166 -56.5 -74.499
s-55.834 -27.5 -90.501 -27.5zM302.001 128.999c24.667 0 45.334 11.667 62.001 35s25 52.333 25 87s-8.33301 63.667 -25 87s-37.334 35 -62.001 35c-27.333 0 -48.666 -10.667 -63.999 -32s-23 -51.333 -23 -90s7.66699 -68.667 23 -90s36.666 -32 63.999 -32z" />
    <glyph glyph-name="aogonek.ss01" horiz-adv-x="629" 
d="M562 -95l37.001 -92.002c-26 -16.667 -58.667 -25 -98 -25c-38 0 -69.5 7.5 -94.5 22.5s-37.5 38.5 -37.5 70.5c0 46.667 29.667 86.334 89 119.001h-55v90c-12 -31.333 -30.833 -56.166 -56.5 -74.499s-55.834 -27.5 -90.501 -27.5c-68 0 -124.333 24.167 -169 72.5
s-67 111.833 -67 190.5c0 78 22 141.333 66 190s99 73 165 73c36 0 67.333 -8.5 94 -25.5s46 -39.167 58 -66.5v80h176v-502c-46 -30.667 -69 -57.667 -69 -81c0 -16 8.33301 -24 25 -24c9.33301 0 18.333 3.33301 27 10zM302.001 128.998c24.667 0 45.334 11.667 62.001 35
s25 52.333 25 87s-8.33301 63.667 -25 87s-37.334 35 -62.001 35c-27.333 0 -48.666 -10.667 -63.999 -32s-23 -51.333 -23 -90s7.66699 -68.667 23 -90s36.666 -32 63.999 -32z" />
    <glyph glyph-name="aring.ss01" horiz-adv-x="629" 
d="M403 502h175.999v-502h-176v90c-12 -31.333 -30.833 -56.166 -56.5 -74.499s-55.834 -27.5 -90.501 -27.5c-68 0 -124.333 24.167 -169 72.5s-67 111.833 -67 190.5c0 63.333 14.667 117.166 44 161.499s68 74.5 116 90.5c-23.333 22 -35 49.667 -35 83
c0 34.667 12.833 63.167 38.5 85.5s58.834 33.5 99.501 33.5s73.834 -11.167 99.501 -33.5s38.5 -50.833 38.5 -85.5c0 -48 -22 -82.667 -66 -104c22.667 -17.333 38.667 -37.333 48 -60v80zM282.999 621c-11.333 0 -20.5 -3.16699 -27.5 -9.5s-10.5 -14.833 -10.5 -25.5
s3.5 -19.167 10.5 -25.5s16.167 -9.5 27.5 -9.5s20.5 3.16699 27.5 9.5s10.5 14.833 10.5 25.5s-3.5 19.167 -10.5 25.5s-16.167 9.5 -27.5 9.5zM301.999 129c24.667 0 45.334 11.667 62.001 35s25 52.333 25 87s-8.33301 63.667 -25 87s-37.334 35 -62.001 35
c-27.333 0 -48.666 -10.667 -63.999 -32s-23 -51.333 -23 -90s7.66699 -68.667 23 -90s36.666 -32 63.999 -32z" />
    <glyph glyph-name="atilde.ss01" horiz-adv-x="629" 
d="M143 549c0 48 9.99902 85 29.999 111s47 39 81 39c20.667 0 40.5 -6 59.5 -18s31.5 -18 37.5 -18c16.667 0 25 12.333 25 37h107c0 -48 -10 -85 -30 -111s-47 -39 -81 -39c-20.667 0 -40.667 6 -60 18s-31.666 18 -36.999 18c-16.667 0 -25 -12.333 -25 -37h-107z
M255.999 -12c-68 0 -124.332 24.166 -168.999 72.499s-67 111.833 -67 190.5c0 78 22 141.333 66 190s99 73 165 73c36 0 67.333 -8.5 94 -25.5s46 -39.167 58 -66.5v80h176v-502h-176v90c-12 -31.333 -30.833 -56.166 -56.5 -74.499s-55.834 -27.5 -90.501 -27.5z
M302 128.999c24.667 0 45.334 11.667 62.001 35s25 52.333 25 87s-8.33301 63.667 -25 87s-37.334 35 -62.001 35c-27.333 0 -48.666 -10.667 -63.999 -32s-23 -51.333 -23 -90s7.66699 -68.667 23 -90s36.666 -32 63.999 -32z" />
    <glyph glyph-name="g.ss01" horiz-adv-x="629" 
d="M284 -224c-128 0 -216.332 42.6631 -264.999 127.996l142 88c26.667 -48.667 67.667 -73 123 -73c40.667 0 70.667 10.5 90 31.5s29 54.167 29 99.5v50c-12 -31.333 -30.833 -56.166 -56.5 -74.499s-55.834 -27.5 -90.501 -27.5c-68 0 -124.333 23.833 -169 71.5
s-67 109.834 -67 186.501s22.167 138.834 66.5 186.501s99.833 71.5 166.5 71.5c74 0 124 -30.333 150 -91v79h176v-465c0 -81.333 -25.833 -145.166 -77.5 -191.499s-124.167 -69.5 -217.5 -69.5zM302.001 138.996c24.667 0 45.334 11.1709 62.001 33.5039
s25 50.166 25 83.499s-8.33301 61.166 -25 83.499s-37.334 33.5 -62.001 33.5c-27.333 0 -48.666 -10.333 -63.999 -31s-23 -49.334 -23 -86.001s7.66699 -65.334 23 -86.001s36.666 -31 63.999 -31z" />
    <glyph glyph-name="gbreve.ss01" horiz-adv-x="629" 
d="M318 545c-49.333 0 -88.168 13 -116.501 39s-42.5 63 -42.5 111h112c0 -14 4.16699 -25.167 12.5 -33.5s19.833 -12.5 34.5 -12.5s26.167 4.16699 34.5 12.5s12.5 19.5 12.5 33.5h112c0 -48 -14.167 -85 -42.5 -111s-67.166 -39 -116.499 -39zM283.998 -224
c-128 0 -216.332 42.6631 -264.999 127.996l142 88c26.667 -48.667 67.667 -73 123 -73c40.667 0 70.667 10.5 90 31.5s29 54.167 29 99.5v50c-12 -31.333 -30.833 -56.166 -56.5 -74.499s-55.834 -27.5 -90.501 -27.5c-68 0 -124.333 23.833 -169 71.5
s-67 109.834 -67 186.501s22.167 138.834 66.5 186.501s99.833 71.5 166.5 71.5c74 0 124 -30.333 150 -91v79h176v-465c0 -81.333 -25.833 -145.166 -77.5 -191.499s-124.167 -69.5 -217.5 -69.5zM301.999 138.996c24.667 0 45.334 11.1709 62.001 33.5039
s25 50.166 25 83.499s-8.33301 61.166 -25 83.499s-37.334 33.5 -62.001 33.5c-27.333 0 -48.666 -10.333 -63.999 -31s-23 -49.334 -23 -86.001s7.66699 -65.334 23 -86.001s36.666 -31 63.999 -31z" />
    <glyph glyph-name="gcircumflex.ss01" horiz-adv-x="629" 
d="M141 549l104 146h146l104 -146h-134l-47 55l-45 -55h-128zM284 -224c-128 0 -216.332 42.6631 -264.999 127.996l142 88c26.667 -48.667 67.667 -73 123 -73c40.667 0 70.667 10.5 90 31.5s29 54.167 29 99.5v50c-12 -31.333 -30.833 -56.166 -56.5 -74.499
s-55.834 -27.5 -90.501 -27.5c-68 0 -124.333 23.833 -169 71.5s-67 109.834 -67 186.501s22.167 138.834 66.5 186.501s99.833 71.5 166.5 71.5c74 0 124 -30.333 150 -91v79h176v-465c0 -81.333 -25.833 -145.166 -77.5 -191.499s-124.167 -69.5 -217.5 -69.5z
M302.001 138.996c24.667 0 45.334 11.1709 62.001 33.5039s25 50.166 25 83.499s-8.33301 61.166 -25 83.499s-37.334 33.5 -62.001 33.5c-27.333 0 -48.666 -10.333 -63.999 -31s-23 -49.334 -23 -86.001s7.66699 -65.334 23 -86.001s36.666 -31 63.999 -31z" />
    <glyph glyph-name="uni0123.ss01" horiz-adv-x="629" 
d="M446 727l-49 -178h-155l72 178h132zM284 -224c-128 0 -216.332 42.6631 -264.999 127.996l142 88c26.667 -48.667 67.667 -73 123 -73c40.667 0 70.667 10.5 90 31.5s29 54.167 29 99.5v50c-12 -31.333 -30.833 -56.166 -56.5 -74.499s-55.834 -27.5 -90.501 -27.5
c-68 0 -124.333 23.833 -169 71.5s-67 109.834 -67 186.501s22.167 138.834 66.5 186.501s99.833 71.5 166.5 71.5c74 0 124 -30.333 150 -91v79h176v-465c0 -81.333 -25.833 -145.166 -77.5 -191.499s-124.167 -69.5 -217.5 -69.5zM302.001 138.996
c24.667 0 45.334 11.1709 62.001 33.5039s25 50.166 25 83.499s-8.33301 61.166 -25 83.499s-37.334 33.5 -62.001 33.5c-27.333 0 -48.666 -10.333 -63.999 -31s-23 -49.334 -23 -86.001s7.66699 -65.334 23 -86.001s36.666 -31 63.999 -31z" />
    <glyph glyph-name="gdotaccent.ss01" horiz-adv-x="629" 
d="M318 537c-26 0 -47.5 8.16699 -64.5 24.5s-25.5 37.166 -25.5 62.499s8.5 46.166 25.5 62.499s38.5 24.5 64.5 24.5s47.5 -8.16699 64.5 -24.5s25.5 -37.166 25.5 -62.499s-8.5 -46.166 -25.5 -62.499s-38.5 -24.5 -64.5 -24.5zM284 -224
c-128 0 -216.332 42.6631 -264.999 127.996l142 88c26.667 -48.667 67.667 -73 123 -73c40.667 0 70.667 10.5 90 31.5s29 54.167 29 99.5v50c-12 -31.333 -30.833 -56.166 -56.5 -74.499s-55.834 -27.5 -90.501 -27.5c-68 0 -124.333 23.833 -169 71.5
s-67 109.834 -67 186.501s22.167 138.834 66.5 186.501s99.833 71.5 166.5 71.5c74 0 124 -30.333 150 -91v79h176v-465c0 -81.333 -25.833 -145.166 -77.5 -191.499s-124.167 -69.5 -217.5 -69.5zM302.001 138.996c24.667 0 45.334 11.1709 62.001 33.5039
s25 50.166 25 83.499s-8.33301 61.166 -25 83.499s-37.334 33.5 -62.001 33.5c-27.333 0 -48.666 -10.333 -63.999 -31s-23 -49.334 -23 -86.001s7.66699 -65.334 23 -86.001s36.666 -31 63.999 -31z" />
    <glyph glyph-name="y.ss01" horiz-adv-x="604" 
d="M275 -224c-118 0 -204.33 34.333 -258.997 103l132 102c25.333 -41.333 64.666 -62 117.999 -62c37.333 0 65.333 10.5 84 31.5s28 57.5 28 109.5v23c-30 -59.333 -78 -89 -144 -89c-60.667 0 -107.334 17 -140.001 51s-49 82.333 -49 145v312h190v-281
c0 -50.667 18.667 -76 56 -76c21.333 0 38.833 8 52.5 24s20.5 38.667 20.5 68v265h190v-464c0 -89.333 -24.333 -155.333 -73 -198s-117.334 -64 -206.001 -64z" />
    <glyph glyph-name="yacute.ss01" horiz-adv-x="604" 
d="M237 549l76 146h183l-125 -146h-134zM275 -224c-118 0 -204.33 34.333 -258.997 103l132 102c25.333 -41.333 64.666 -62 117.999 -62c37.333 0 65.333 10.5 84 31.5s28 57.5 28 109.5v23c-30 -59.333 -78 -89 -144 -89c-60.667 0 -107.334 17 -140.001 51
s-49 82.333 -49 145v312h190v-281c0 -50.667 18.667 -76 56 -76c21.333 0 38.833 8 52.5 24s20.5 38.667 20.5 68v265h190v-464c0 -89.333 -24.333 -155.333 -73 -198s-117.334 -64 -206.001 -64z" />
    <glyph glyph-name="ycircumflex.ss01" horiz-adv-x="604" 
d="M124 549l104 146h146l104 -146h-134l-47 55l-45 -55h-128zM275 -224c-118 0 -204.33 34.333 -258.997 103l132 102c25.333 -41.333 64.666 -62 117.999 -62c37.333 0 65.333 10.5 84 31.5s28 57.5 28 109.5v23c-30 -59.333 -78 -89 -144 -89
c-60.667 0 -107.334 17 -140.001 51s-49 82.333 -49 145v312h190v-281c0 -50.667 18.667 -76 56 -76c21.333 0 38.833 8 52.5 24s20.5 38.667 20.5 68v265h190v-464c0 -89.333 -24.333 -155.333 -73 -198s-117.334 -64 -206.001 -64z" />
    <glyph glyph-name="ydieresis.ss01" horiz-adv-x="604" 
d="M191 540c-25.333 0 -46.5 8.16699 -63.5 24.5s-25.5 36.833 -25.5 61.5c0 24 8.5 44 25.5 60s38.167 24 63.5 24s46.5 -8 63.5 -24s25.5 -36 25.5 -60c0 -24.667 -8.5 -45.167 -25.5 -61.5s-38.167 -24.5 -63.5 -24.5zM410 540c-25.333 0 -46.5 8.16699 -63.5 24.5
s-25.5 36.833 -25.5 61.5c0 24 8.5 44 25.5 60s38.167 24 63.5 24s46.5 -8 63.5 -24s25.5 -36 25.5 -60c0 -24.667 -8.5 -45.167 -25.5 -61.5s-38.167 -24.5 -63.5 -24.5zM275 -224c-118 0 -204.33 34.333 -258.997 103l132 102c25.333 -41.333 64.666 -62 117.999 -62
c37.333 0 65.333 10.5 84 31.5s28 57.5 28 109.5v23c-30 -59.333 -78 -89 -144 -89c-60.667 0 -107.334 17 -140.001 51s-49 82.333 -49 145v312h190v-281c0 -50.667 18.667 -76 56 -76c21.333 0 38.833 8 52.5 24s20.5 38.667 20.5 68v265h190v-464
c0 -89.333 -24.333 -155.333 -73 -198s-117.334 -64 -206.001 -64z" />
    <glyph glyph-name="ygrave.ss01" horiz-adv-x="604" 
d="M233 549l-125 146h182l76 -146h-133zM275 -224c-118 0 -204.33 34.333 -258.997 103l132 102c25.333 -41.333 64.666 -62 117.999 -62c37.333 0 65.333 10.5 84 31.5s28 57.5 28 109.5v23c-30 -59.333 -78 -89 -144 -89c-60.667 0 -107.334 17 -140.001 51
s-49 82.333 -49 145v312h190v-281c0 -50.667 18.667 -76 56 -76c21.333 0 38.833 8 52.5 24s20.5 38.667 20.5 68v265h190v-464c0 -89.333 -24.333 -155.333 -73 -198s-117.334 -64 -206.001 -64z" />
    <glyph glyph-name="f.ss02" horiz-adv-x="373" 
d="M82 0l0.00195312 350h-77v152h70v42c0 48 17 87.167 51 117.5s79.667 45.5 137 45.5c64 0 111.333 -10.333 142 -31l-62 -133c-16.667 15.333 -34.334 23 -53.001 23c-10.667 0 -19.334 -3.33301 -26.001 -10s-10 -15 -10 -25v-29h109v-152h-91v-350h-190z" />
    <glyph glyph-name="r.ss02" horiz-adv-x="428" 
d="M50 0l-0.000976562 502h176v-101c28 72.667 74 109 138 109c22 0 40 -2.66699 54 -8v-179c-21.333 8.66699 -45.666 13 -72.999 13c-70 0 -105 -31.333 -105 -94v-242h-190z" />
    <glyph glyph-name="racute.ss02" horiz-adv-x="428" 
d="M196 549l76 146h183l-125 -146h-134zM50 0l-0.000976562 502h176v-101c28 72.667 74 109 138 109c22 0 40 -2.66699 54 -8v-179c-21.333 8.66699 -45.666 13 -72.999 13c-70 0 -105 -31.333 -105 -94v-242h-190z" />
    <glyph glyph-name="rcaron.ss02" horiz-adv-x="428" 
d="M437 695l-104 -146h-146l-104 146h134l47 -55l45 55h128zM50 0l-0.000976562 502h176v-101c28 72.667 74 109 138 109c22 0 40 -2.66699 54 -8v-179c-21.333 8.66699 -45.666 13 -72.999 13c-70 0 -105 -31.333 -105 -94v-242h-190z" />
    <glyph glyph-name="uni0157.ss02" horiz-adv-x="428" 
d="M50 0l-0.000976562 502h176v-101c28 72.667 74 109 138 109c22 0 40 -2.66699 54 -8v-179c-21.333 8.66699 -45.666 13 -72.999 13c-70 0 -105 -31.333 -105 -94v-242h-190zM17.999 -235l49 178h155l-72 -178h-132z" />
    <glyph glyph-name="f.short.ss02" horiz-adv-x="349" 
d="M82 0v350h-77v152h70v42c0 48 17 87.167 51 117.5s79.667 45.5 137 45.5c40 0 73 -4.33301 99 -13l-23 -137c-14 7.33301 -28 11 -42 11c-12.667 0 -23 -4 -31 -12s-12 -17.333 -12 -28v-26h92v-152h-74v-350h-190z" />
    <glyph glyph-name="f_f.ss02" horiz-adv-x="690" 
d="M571 531l0.00195312 -29h109v-152h-91v-350h-190v350h-127v-350h-190v350h-77v152h70v42c0 48 17 87.167 51 117.5s79.667 45.5 137 45.5c40 0 73 -4.33301 99 -13l-23 -137c-14 7.33301 -28 11 -42 11c-12.667 0 -23 -4 -31 -12s-12 -17.333 -12 -28v-26h138v42
c0 48 17 87.167 51 117.5s79.667 45.5 137 45.5c64 0 111.333 -10.333 142 -31l-62 -133c-16.667 15.333 -34.334 23 -53.001 23c-10.667 0 -19.334 -3.33301 -26.001 -10s-10 -15 -10 -25z" />
    <glyph glyph-name="f_f_i.ss02" horiz-adv-x="956" 
d="M812 530c-28 0 -51.5 9 -70.5 27s-28.5 41 -28.5 69s9.5 51 28.5 69s42.5 27 70.5 27s51.5 -9 70.5 -27s28.5 -41 28.5 -69s-9.5 -51 -28.5 -69s-42.5 -27 -70.5 -27zM614 568c-12.667 0 -23 -4 -31 -12s-12 -17.333 -12 -28v-26h92v-152h-74v-350h-190v350h-127v-350
h-190v350h-77v152h70v42c0 48 17 87.167 51 117.5s79.667 45.5 137 45.5c40 0 73 -4.33301 99 -13l-23 -137c-14 7.33301 -28 11 -42 11c-12.667 0 -23 -4 -31 -12s-12 -17.333 -12 -28v-26h138v42c0 48 17 87.167 51 117.5s79.667 45.5 137 45.5c40 0 73 -4.33301 99 -13
l-23 -137c-14 7.33301 -28 11 -42 11zM716 0v502h190v-502h-190z" />
    <glyph glyph-name="f_f_l.ss02" horiz-adv-x="956" 
d="M614 568c-12.667 0 -23 -4 -31 -12s-12 -17.333 -12 -28v-26h92v-152h-74v-350h-190v350h-127v-350h-190v350h-77v152h70v42c0 48 17 87.167 51 117.5s79.667 45.5 137 45.5c40 0 73 -4.33301 99 -13l-23 -137c-14 7.33301 -28 11 -42 11c-12.667 0 -23 -4 -31 -12
s-12 -17.333 -12 -28v-26h138v42c0 48 17 87.167 51 117.5s79.667 45.5 137 45.5c40 0 73 -4.33301 99 -13l-23 -137c-14 7.33301 -28 11 -42 11zM716 695h190v-695h-190v695z" />
    <glyph glyph-name="fi.ss02" horiz-adv-x="639" 
d="M495 530c-28 0 -51.5 9 -70.5 27s-28.5 41 -28.5 69s9.5 51 28.5 69s42.5 27 70.5 27s51.5 -9 70.5 -27s28.5 -41 28.5 -69s-9.5 -51 -28.5 -69s-42.5 -27 -70.5 -27zM82 0v350h-77v152h70v42c0 48 17 87.167 51 117.5s79.667 45.5 137 45.5c40 0 73 -4.33301 99 -13
l-23 -137c-14 7.33301 -28 11 -42 11c-12.667 0 -23 -4 -31 -12s-12 -17.333 -12 -28v-26h92v-152h-74v-350h-190zM399 0v502h190v-502h-190z" />
    <glyph glyph-name="fl.ss02" horiz-adv-x="639" 
d="M82 0v350h-77v152h70v42c0 48 17 87.167 51 117.5s79.667 45.5 137 45.5c40 0 73 -4.33301 99 -13l-23 -137c-14 7.33301 -28 11 -42 11c-12.667 0 -23 -4 -31 -12s-12 -17.333 -12 -28v-26h92v-152h-74v-350h-190zM399 0v695h190v-695h-190z" />
    <glyph glyph-name="zero.osf" horiz-adv-x="628" 
d="M314 -12c-86.667 0 -156.334 26.167 -209.001 78.5s-79 120.166 -79 203.499s26.333 151.166 79 203.499s122.334 78.5 209.001 78.5s156.334 -26.167 209.001 -78.5s79 -120.166 79 -203.499s-26.333 -151.166 -79 -203.499s-122.334 -78.5 -209.001 -78.5zM314 129
c29.333 0 52.166 12.333 68.499 37s24.5 59.334 24.5 104.001s-8.16699 79.334 -24.5 104.001s-39.166 37 -68.499 37s-52.166 -12.333 -68.499 -37s-24.5 -59.334 -24.5 -104.001s8.16699 -79.334 24.5 -104.001s39.166 -37 68.499 -37z" />
    <glyph glyph-name="one.osf" horiz-adv-x="378" 
d="M128 0l0.000976562 329c-30 -20 -67.667 -30 -113 -30v160c41.333 -2.66699 76.666 3 105.999 17s44 35.333 44 64h153v-540h-190z" />
    <glyph glyph-name="two.osf" horiz-adv-x="573" 
d="M15 0l0.000976562 29.0029c0 102.667 68 183 204 241l66 28c26.667 11.333 44.667 22 54 32s14 22.667 14 38c0 16.667 -5.5 30 -16.5 40s-26.833 15 -47.5 15c-26.667 0 -47.167 -9.83301 -61.5 -29.5s-21.5 -44.167 -21.5 -73.5l-183 10
c0 59.333 23 111.166 69 155.499s113.333 66.5 202 66.5c77.333 0 138.666 -14.833 183.999 -44.5s68 -68.167 68 -115.5c0 -52 -14.5 -90.333 -43.5 -115s-78.833 -49.334 -149.5 -74.001l-35 -12c-35.333 -12.667 -58 -26.334 -68 -41.001h297v-150h-532z" />
    <glyph glyph-name="three.osf" horiz-adv-x="587" 
d="M285 -167c-93.333 0 -162.835 21.167 -208.502 63.5s-68.5 94.833 -68.5 157.5c0 28.667 4.66699 55 14 79l176 -29c-4.66699 -17.333 -7 -32.333 -7 -45c0 -25.333 7.83301 -45.833 23.5 -61.5s38.5 -23.5 68.5 -23.5c26.667 0 48 7.33301 64 22s24 34 24 58
c0 21.333 -7.66699 38.5 -23 51.5s-36.666 19.5 -63.999 19.5h-27v140h14c28 0 49.167 7.16699 63.5 21.5s21.5 33.5 21.5 57.5c0 18 -6.33301 33.667 -19 47s-30 20 -52 20c-58.667 0 -90 -38.667 -94 -116l-181 21c9.33301 67.333 37.333 123.5 84 168.5
s114.334 67.5 203.001 67.5c78.667 0 140.5 -17.167 185.5 -51.5s67.5 -81.833 67.5 -142.5c0 -42.667 -12.667 -77.667 -38 -105s-58 -44 -98 -50c101.333 -17.333 152 -70.333 152 -159c0 -65.333 -25.667 -116.833 -77 -154.5s-119.333 -56.5 -204 -56.5z" />
    <glyph glyph-name="four.osf" horiz-adv-x="561" 
d="M317 -155v155h-300v174c106.667 116 170 238 190 366h195c-20 -123.333 -93 -255 -219 -395h134v101h179v-101h56v-145h-56v-155h-179z" />
    <glyph glyph-name="five.osf" horiz-adv-x="576" 
d="M285 -167c-153.333 0 -243.334 62.002 -270.001 186.002l178 29c8.66699 -49.333 35 -74 79 -74c26.667 0 48 7.66699 64 23s24 39.333 24 72c0 28 -7.33301 51.167 -22 69.5s-33.667 27.5 -57 27.5c-32.667 0 -65 -16 -97 -48l-150 42c22.667 126.667 34 253 34 379h443
v-150h-297c-2.66699 -48 -7.66699 -94.333 -15 -139c33.333 38 81.333 57 144 57c62 0 112.833 -21.333 152.5 -64s59.5 -97.334 59.5 -164.001c0 -70.667 -25.167 -129.334 -75.5 -176.001s-115.166 -70 -194.499 -70z" />
    <glyph glyph-name="six.osf" horiz-adv-x="615" 
d="M333 707c75.333 0 135.332 -17.832 179.999 -53.499s71.667 -84.834 81 -147.501l-183 -28c-16 58.667 -46.333 88 -91 88c-34 0 -59.833 -18.833 -77.5 -56.5s-26.5 -87.5 -26.5 -149.5c32.667 54.667 86.334 82 161.001 82c63.333 0 115.166 -18.167 155.499 -54.5
s60.5 -87.833 60.5 -154.5c0 -74.667 -25.5 -134.167 -76.5 -178.5s-118.5 -66.5 -202.5 -66.5c-89.333 0 -159.666 30.333 -210.999 91s-77 143.667 -77 249c0 116 27.167 208.167 81.5 276.5s129.5 102.5 225.5 102.5zM313.999 303.001
c-25.333 0 -45.668 -7.83301 -61.001 -23.5s-23 -37.167 -23 -64.5c0 -26 7.83301 -46.833 23.5 -62.5s35.834 -23.5 60.501 -23.5s44.834 7.83301 60.501 23.5s23.5 36.5 23.5 62.5c0 26.667 -8.33301 48 -25 64s-36.334 24 -59.001 24z" />
    <glyph glyph-name="seven.osf" horiz-adv-x="542" 
d="M121 -155c7.33301 218 90.999 399.668 250.999 545.001h-362v150h512v-153c-135.333 -164.667 -205.666 -345.334 -210.999 -542.001h-190z" />
    <glyph glyph-name="eight.osf" horiz-adv-x="620" 
d="M310 -14c-87.333 0 -157.334 20.1641 -210.001 60.4971s-79 95.5 -79 165.5c0 33.333 10.167 63.833 30.5 91.5s50.166 49.834 89.499 66.501c-63.333 32.667 -95 80.667 -95 144c0 59.333 25.5 106.666 76.5 141.999s113.5 53 187.5 53
c74.667 0 137.334 -17.667 188.001 -53s76 -82.666 76 -141.999c0 -63.333 -31.667 -111.333 -95 -144c38.667 -15.333 68.334 -37.166 89.001 -65.499s31 -59.166 31 -92.499c0 -70 -26.333 -125.167 -79 -165.5s-122.667 -60.5 -210 -60.5zM309.999 433.997
c20.667 0 37.667 6.66699 51 20s20 29.666 20 48.999s-6.66699 35.333 -20 48s-30.333 19 -51 19s-37.667 -6.33301 -51 -19s-20 -28.667 -20 -48s6.66699 -35.666 20 -48.999s30.333 -20 51 -20zM309.999 126.997c26 0 47.502 7.5 64.502 22.5s25.5 35.167 25.5 60.5
c0 24.667 -9 45 -27 61s-39 24 -63 24c-24.667 0 -45.834 -8 -63.501 -24s-26.5 -36.333 -26.5 -61s8.66699 -44.667 26 -60s38.666 -23 63.999 -23z" />
    <glyph glyph-name="nine.osf" horiz-adv-x="615" 
d="M282 -167c-75.333 0 -135.332 17.832 -179.999 53.499s-71.667 84.834 -81 147.501l183 28c16 -58.667 46.333 -88 91 -88c34 0 59.833 18.833 77.5 56.5s26.5 87.5 26.5 149.5c-32.667 -54.667 -86.334 -82 -161.001 -82c-63.333 0 -115.166 18.167 -155.499 54.5
s-60.5 87.833 -60.5 154.5c0 74.667 25.5 134.167 76.5 178.5s118.5 66.5 202.5 66.5c89.333 0 159.666 -30.333 210.999 -91s77 -143.667 77 -249c0 -116 -27.167 -208.167 -81.5 -276.5s-129.5 -102.5 -225.5 -102.5zM301.001 236.999
c25.333 0 45.668 7.83301 61.001 23.5s23 37.167 23 64.5c0 26 -7.83301 46.833 -23.5 62.5s-35.834 23.5 -60.501 23.5s-44.834 -7.83301 -60.501 -23.5s-23.5 -36.5 -23.5 -62.5c0 -26.667 8.33301 -48 25 -64s36.334 -24 59.001 -24z" />
    <glyph glyph-name="zero.tf" horiz-adv-x="640" 
d="M320 -14c-92.667 0 -165.5 32.833 -218.5 98.5s-79.5 153.167 -79.5 262.5s26.5 197 79.5 263s125.833 99 218.5 99c92 0 164.667 -33 218 -99s80 -153.667 80 -263s-26.667 -196.833 -80 -262.5s-126 -98.5 -218 -98.5zM320 151c34 0 60 17.167 78 51.5
s27 82.5 27 144.5s-9 110.333 -27 145s-44 52 -78 52c-34.667 0 -60.834 -17.167 -78.501 -51.5s-26.5 -82.833 -26.5 -145.5s8.83301 -111 26.5 -145s43.834 -51 78.501 -51z" />
    <glyph glyph-name="one.tf" horiz-adv-x="640" 
d="M449 180h134.998v-180h-476v180h146v286c-33.333 -27.333 -81.666 -41 -144.999 -41v180c48.667 -3.33301 87.834 2.66699 117.501 18s44.5 39.333 44.5 72h178v-515z" />
    <glyph glyph-name="two.tf" horiz-adv-x="640" 
d="M36 0l-0.000976562 50c0 58.667 16.5 112.334 49.5 161.001s88.833 94.667 167.5 138l69 38c28.667 16 48.334 30.833 59.001 44.5s16 29.5 16 47.5c0 18.667 -7 34 -21 46s-32.667 18 -56 18c-28 0 -48.833 -7.66699 -62.5 -23s-20.5 -34.333 -20.5 -57
c0 -16 2.66699 -32.667 8 -50l-183 -43c-10.667 28.667 -16 60 -16 94c0 29.333 5.33301 58 16 86s26.667 54.167 48 78.5s51 43.833 89 58.5s81.667 22 131 22c78.667 0 142.167 -19.5 190.5 -58.5s72.5 -88.833 72.5 -149.5c0 -54.667 -12.833 -99.5 -38.5 -134.5
s-68.167 -67.5 -127.5 -97.5l-73 -37c-41.333 -20.667 -67.333 -39.334 -78 -56.001h321l-3 -176h-558z" />
    </font>
</defs>
</svg>
