<?xml version="1.0" standalone="no"?>
<!DOCTYPE svg PUBLIC "-//W3C//DTD SVG 1.1//EN" "http://www.w3.org/Graphics/SVG/1.1/DTD/svg11.dtd" >
<svg>
<metadata>
Created by FontForge 20090914 at Tue Oct  5 08:45:20 2021
 By www-data
Copyright 2019 CoType Foundry. All Rights Reserved
</metadata>
<defs>
<font id="Ambit-Light" horiz-adv-x="588" >
  <font-face 
    font-family="Ambit Light"
    font-weight="300"
    font-stretch="normal"
    units-per-em="1000"
    panose-1="0 0 4 0 0 0 0 0 0 0"
    ascent="750"
    descent="-250"
    x-height="475"
    cap-height="695"
    bbox="-348 -231.999 1277 900"
    underline-thickness="43"
    underline-position="-136"
    unicode-range="U+000D-U+FB03"
  />
<missing-glyph horiz-adv-x="620" 
d="M60 720h500v-829h-500v829zM217 632c-27.333 0 -48.333 -8 -63 -24s-22 -38 -22 -66s7.33301 -50 22 -66s35.667 -24 63 -24c21.333 0 38.666 6.16699 51.999 18.5s20.666 28.5 21.999 48.5h-46c-4.66699 -19.333 -14.667 -29 -30 -29c-23.333 0 -35 17.333 -35 52
s11.667 52 35 52c15.333 0 25.333 -10 30 -30h46c-1.33301 20.667 -8.66602 37.167 -21.999 49.5s-30.666 18.5 -51.999 18.5zM394 632c-26.667 0 -47.834 -8.5 -63.501 -25.5s-23.5 -38.5 -23.5 -64.5c0 -26.667 7.83301 -48.334 23.5 -65.001s36.834 -25 63.501 -25
c26 0 47 8.33301 63 25s24 38.334 24 65.001c0 26 -8 47.5 -24 64.5s-37 25.5 -63 25.5zM394 490c-26 0 -39 17.333 -39 52s13 52 39 52s39 -17.333 39 -52s-13 -52 -39 -52zM142 400v-40h49v-138h47v138h50v40h-146zM417 288l64 112h-52l-35 -65l-33 65h-55l64 -112v-66h47
v66zM231 46c20 0 36.167 5.5 48.5 16.5s18.5 25.833 18.5 44.5s-6.16699 33.667 -18.5 45s-28.5 17 -48.5 17h-74v-178h46v55h28zM463 -9v40h-78v31h60v37h-60v30h75v40h-122v-178h125zM227 131c16 0 24 -8 24 -24c0 -15.333 -8 -23 -24 -23h-24v47h24z" />
    <glyph glyph-name="f_f" unicode="ff" horiz-adv-x="583" 
d="M405 571c0 -22 8.33301 -54 25 -96h147v-50h-145v-425h-57v425h-222v-425h-57v425h-81v50h78c-15.333 37.333 -23 70.333 -23 99c0 43.333 13 76.166 39 98.499s58.333 33.5 97 33.5c43.333 0 76.333 -13.667 99 -41l-31 -39c-18 21.333 -41 32 -69 32
c-22.667 0 -41.5 -7.16699 -56.5 -21.5s-22.5 -36.166 -22.5 -65.499c0 -22 8.33301 -54 25 -96h221c-15.333 37.333 -23 70.333 -23 99c0 43.333 13.333 76.166 40 98.499s60 33.5 100 33.5c69.333 0 113 -32.667 131 -98l-53 -14c-12 42.667 -39.333 64 -82 64
c-22.667 0 -41.667 -7.16699 -57 -21.5s-23 -36.166 -23 -65.499z" />
    <glyph glyph-name="fi" unicode="fi" horiz-adv-x="512" 
d="M96 0v425h-81v50h78c-15.333 37.333 -23 70.333 -23 99c0 43.333 13 76.166 39 98.499s58.333 33.5 97 33.5c43.333 0 76.333 -13.667 99 -41l-31 -39c-18 21.333 -41 32 -69 32c-22.667 0 -41.5 -7.16699 -56.5 -21.5s-22.5 -36.166 -22.5 -65.499
c0 -22 8.33301 -54 25 -96h150v-50h-148v-425h-57zM403 594c-11.333 0 -21 3.83301 -29 11.5s-12 17.167 -12 28.5s4 20.833 12 28.5s17.667 11.5 29 11.5s21 -3.83301 29 -11.5s12 -17.167 12 -28.5s-4 -20.833 -12 -28.5s-17.667 -11.5 -29 -11.5zM375 0v475h57v-475h-57z
" />
    <glyph glyph-name="fl" unicode="fl" horiz-adv-x="512" 
d="M96 0v425h-81v50h78c-15.333 37.333 -23 70.333 -23 99c0 43.333 13 76.166 39 98.499s58.333 33.5 97 33.5c43.333 0 76.333 -13.667 99 -41l-31 -39c-18 21.333 -41 32 -69 32c-22.667 0 -41.5 -7.16699 -56.5 -21.5s-22.5 -36.166 -22.5 -65.499
c0 -22 8.33301 -54 25 -96h150v-50h-148v-425h-57zM375 0v695h57v-695h-57z" />
    <glyph glyph-name="f_f_i" unicode="ffi" horiz-adv-x="790" 
d="M484 658c-22.667 0 -41.5 -7.16699 -56.5 -21.5s-22.5 -36.166 -22.5 -65.499c0 -22 8.33301 -54 25 -96h150v-50h-148v-425h-57v425h-222v-425h-57v425h-81v50h78c-15.333 37.333 -23 70.333 -23 99c0 43.333 13 76.166 39 98.499s58.333 33.5 97 33.5
c43.333 0 76.333 -13.667 99 -41l-31 -39c-18 21.333 -41 32 -69 32c-22.667 0 -41.5 -7.16699 -56.5 -21.5s-22.5 -36.166 -22.5 -65.499c0 -22 8.33301 -54 25 -96h221c-15.333 37.333 -23 70.333 -23 99c0 43.333 13 76.166 39 98.499s58.333 33.5 97 33.5
c43.333 0 76.333 -13.667 99 -41l-31 -39c-18 21.333 -41 32 -69 32zM682 674c11.333 0 21 -3.83301 29 -11.5s12 -17.167 12 -28.5s-4 -20.833 -12 -28.5s-17.667 -11.5 -29 -11.5c-12 0 -22 3.83301 -30 11.5s-12 17.167 -12 28.5s4 20.833 12 28.5s18 11.5 30 11.5z
M654 0v475h56v-475h-56z" />
    <glyph glyph-name="f_f_l" unicode="ffl" horiz-adv-x="791" 
d="M484 658c-22.667 0 -41.5 -7.16699 -56.5 -21.5s-22.5 -36.166 -22.5 -65.499c0 -22 8.33301 -54 25 -96h150v-50h-148v-425h-57v425h-222v-425h-57v425h-81v50h78c-15.333 37.333 -23 70.333 -23 99c0 43.333 13 76.166 39 98.499s58.333 33.5 97 33.5
c43.333 0 76.333 -13.667 99 -41l-31 -39c-18 21.333 -41 32 -69 32c-22.667 0 -41.5 -7.16699 -56.5 -21.5s-22.5 -36.166 -22.5 -65.499c0 -22 8.33301 -54 25 -96h221c-15.333 37.333 -23 70.333 -23 99c0 43.333 13 76.166 39 98.499s58.333 33.5 97 33.5
c43.333 0 76.333 -13.667 99 -41l-31 -39c-18 21.333 -41 32 -69 32zM654 695h57v-695h-57v695z" />
    <glyph glyph-name=".notdef" horiz-adv-x="620" 
d="M60 720h500v-829h-500v829zM217 632c-27.333 0 -48.333 -8 -63 -24s-22 -38 -22 -66s7.33301 -50 22 -66s35.667 -24 63 -24c21.333 0 38.666 6.16699 51.999 18.5s20.666 28.5 21.999 48.5h-46c-4.66699 -19.333 -14.667 -29 -30 -29c-23.333 0 -35 17.333 -35 52
s11.667 52 35 52c15.333 0 25.333 -10 30 -30h46c-1.33301 20.667 -8.66602 37.167 -21.999 49.5s-30.666 18.5 -51.999 18.5zM394 632c-26.667 0 -47.834 -8.5 -63.501 -25.5s-23.5 -38.5 -23.5 -64.5c0 -26.667 7.83301 -48.334 23.5 -65.001s36.834 -25 63.501 -25
c26 0 47 8.33301 63 25s24 38.334 24 65.001c0 26 -8 47.5 -24 64.5s-37 25.5 -63 25.5zM394 490c-26 0 -39 17.333 -39 52s13 52 39 52s39 -17.333 39 -52s-13 -52 -39 -52zM142 400v-40h49v-138h47v138h50v40h-146zM417 288l64 112h-52l-35 -65l-33 65h-55l64 -112v-66h47
v66zM231 46c20 0 36.167 5.5 48.5 16.5s18.5 25.833 18.5 44.5s-6.16699 33.667 -18.5 45s-28.5 17 -48.5 17h-74v-178h46v55h28zM463 -9v40h-78v31h60v37h-60v30h75v40h-122v-178h125zM227 131c16 0 24 -8 24 -24c0 -15.333 -8 -23 -24 -23h-24v47h24z" />
    <glyph glyph-name="uni0000" horiz-adv-x="600" 
 />
    <glyph glyph-name="uni0000" horiz-adv-x="600" 
 />
    <glyph glyph-name="nonmarkingreturn" unicode="&#xd;" horiz-adv-x="600" 
 />
    <glyph glyph-name="space" unicode=" " horiz-adv-x="230" 
 />
    <glyph glyph-name="exclam" unicode="!" horiz-adv-x="271" 
d="M114 170l-7 525h63l-7 -525h-49zM135 -9c-11.333 0 -21.166 4.16699 -29.499 12.5s-12.5 18.5 -12.5 30.5s4.16699 22 12.5 30s18.166 12 29.499 12c12.667 0 23 -4 31 -12s12 -18 12 -30s-4 -22.167 -12 -30.5s-18.333 -12.5 -31 -12.5z" />
    <glyph glyph-name="quotedbl" unicode="&#x22;" horiz-adv-x="370" 
d="M89 474l-7 221h59l-7 -221h-45zM236 474l-7 221h59l-7 -221h-45z" />
    <glyph glyph-name="numbersign" unicode="#" horiz-adv-x="692" 
d="M652 455h-149l-30 -215h154l-6 -46h-155l-27 -194h-49l27 194h-186l-27 -194h-50l27 194h-147l6 46h148l30 215h-154l7 46h154l27 194h50l-27 -194h186l27 194h49l-27 -194h148zM424 240l30 215h-186l-30 -215h186z" />
    <glyph glyph-name="dollar" unicode="$" horiz-adv-x="636" 
d="M578 181c0 -59.333 -21.501 -105.334 -64.501 -138.001s-97.833 -51 -164.5 -55v-94h-53v94c-75.333 4.66699 -134.166 25.5 -176.499 62.5s-63.5 84.167 -63.5 141.5c0 28 4.33301 57 13 87l55 -16c-6 -20.667 -9 -43.334 -9 -68.001
c0 -45.333 16.167 -81.666 48.5 -108.999s76.5 -43 132.5 -47v289l-20 5c-70.667 16.667 -120.834 40.334 -150.501 71.001s-44.5 71 -44.5 121c0 54.667 20.167 98.167 60.5 130.5s91.833 49.833 154.5 52.5v91h53v-93c66.667 -6.66699 119.334 -30 158.001 -70
s60.667 -94 66 -162l-59 -8c-13.333 113.333 -68.333 176.333 -165 189v-280l37 -9c68 -16 117 -38.667 147 -68s45 -68.333 45 -117zM294.999 386.999h0.999023v270c-47.333 -2.66699 -85.166 -15.167 -113.499 -37.5s-42.5 -53.166 -42.5 -92.499s13.333 -69.333 40 -90
s65 -37.334 115 -50.001zM348.998 38.999c52.667 3.33301 94.167 17.167 124.5 41.5s45.5 56.5 45.5 96.5c0 37.333 -12.5 66 -37.5 86s-62.5 36 -112.5 48l-20 5v-277z" />
    <glyph glyph-name="percent" unicode="%" horiz-adv-x="917" 
d="M212 324c-50.667 0 -91.334 17.5 -122.001 52.5s-46 81.167 -46 138.5s15.333 103.5 46 138.5s71.334 52.5 122.001 52.5s91.334 -17.5 122.001 -52.5s46 -81.167 46 -138.5s-15.333 -103.5 -46 -138.5s-71.334 -52.5 -122.001 -52.5zM213 0l437 695h54l-436 -695h-55z
M212 370c34.667 0 62.667 13.167 84 39.5s32 61.5 32 105.5c0 43.333 -10.667 78.333 -32 105s-49.333 40 -84 40s-62.667 -13.333 -84 -40s-32 -61.667 -32 -105c0 -44 10.667 -79.167 32 -105.5s49.333 -39.5 84 -39.5zM705 -11c-50.667 0 -91.334 17.5 -122.001 52.5
s-46 81.167 -46 138.5s15.333 103.5 46 138.5s71.334 52.5 122.001 52.5s91.5 -17.5 122.5 -52.5s46.5 -81.167 46.5 -138.5s-15.5 -103.5 -46.5 -138.5s-71.833 -52.5 -122.5 -52.5zM705 35c34.667 0 62.667 13.167 84 39.5s32 61.5 32 105.5
c0 43.333 -10.667 78.333 -32 105s-49.333 40 -84 40c-34 0 -61.667 -13.333 -83 -40s-32 -61.667 -32 -105c0 -44 10.667 -79.167 32 -105.5s49 -39.5 83 -39.5z" />
    <glyph glyph-name="ampersand" unicode="&#x26;" horiz-adv-x="723" 
d="M702 3c-16 -6.66699 -30.668 -10 -44.001 -10c-26.667 0 -50.5 5.33301 -71.5 16s-48.5 32.334 -82.5 65.001c-65.333 -58 -138.333 -87 -219 -87c-72.667 0 -130.834 16.667 -174.501 50s-65.5 79 -65.5 137c0 82 53.333 149 160 201c-28 32 -48.333 60.833 -61 86.5
s-19 53.167 -19 82.5c0 48 16.5 87.333 49.5 118s77.167 46 132.5 46c50 0 90 -13.5 120 -40.5s45 -63.167 45 -108.5c0 -44.667 -15.667 -82.334 -47 -113.001s-74 -58.667 -128 -84c12.667 -12.667 22.334 -22.667 29.001 -30l181 -181c44.667 54 79.334 133 104.001 237
l53 -10c-25.333 -112 -65.333 -200 -120 -264c48 -44.667 87.333 -67 118 -67c12 0 22.333 2.33301 31 7zM305.999 660c-37.333 0 -67.1689 -10.4971 -89.502 -31.4971s-33.5 -48.5 -33.5 -82.5c0 -24.667 5.66699 -47.334 17 -68.001s32 -47.334 62 -80.001
c22.667 10.667 41.334 20.167 56.001 28.5s30.334 19.166 47.001 32.499s29.167 28 37.5 44s12.5 33.667 12.5 53c0 31.333 -10.167 56.5 -30.5 75.5s-46.5 28.5 -78.5 28.5zM105.996 179.003c0 -44 16.668 -78.835 50.001 -104.502s76.666 -38.5 129.999 -38.5
c64 0 124.333 25 181 75l-176 177l-52 52c-46 -23.333 -79.667 -47.666 -101 -72.999s-32 -54.666 -32 -87.999z" />
    <glyph glyph-name="quotesingle" unicode="'" horiz-adv-x="224" 
d="M89 474l-7 221h59l-7 -221h-45z" />
    <glyph glyph-name="parenleft" unicode="(" horiz-adv-x="336" 
d="M278 -144c-130 92.667 -195 238.332 -195 436.999s65 344.334 195 437.001l26 -41c-112.667 -82 -169 -214 -169 -396c0 -181.333 56.333 -313.333 169 -396z" />
    <glyph glyph-name="parenright" unicode=")" horiz-adv-x="336" 
d="M58 -144l-25 41.002c112 82.667 168 214.667 168 396c0 180.667 -56 312.667 -168 396l25 41c130 -92.667 195 -238.334 195 -437.001s-65 -344.334 -195 -437.001z" />
    <glyph glyph-name="asterisk" unicode="*" horiz-adv-x="419" 
d="M130 385l-42 30l80 107l-120 38l16 48l120 -39v126h51v-126l121 39l15 -48l-120 -38l79 -107l-41 -30l-80 109z" />
    <glyph glyph-name="plus" unicode="+" horiz-adv-x="483" 
d="M442 316v-50h-174v-182h-53v182h-174v50h174v183h53v-183h174z" />
    <glyph glyph-name="comma" unicode="," horiz-adv-x="199" 
d="M101 73c14 0 25.667 -5.66797 35 -17.001s14 -26.333 14 -45c0 -50 -22.333 -93.667 -67 -131l-29 23c32.667 30 49 60 49 90h-4c-11.333 0 -21 3.83301 -29 11.5s-12 16.834 -12 27.501c0 11.333 4.16699 21 12.5 29s18.5 12 30.5 12z" />
    <glyph glyph-name="hyphen" unicode="-" horiz-adv-x="388" 
d="M66 256v53h256v-53h-256z" />
    <glyph glyph-name="period" unicode="." horiz-adv-x="198" 
d="M99 -9c-12 0 -22.167 4.16699 -30.5 12.5s-12.5 18.5 -12.5 30.5s4.16699 22 12.5 30s18.5 12 30.5 12s22.167 -4 30.5 -12s12.5 -18 12.5 -30s-4.16699 -22.167 -12.5 -30.5s-18.5 -12.5 -30.5 -12.5z" />
    <glyph glyph-name="slash" unicode="/" horiz-adv-x="423" 
d="M35 -100l297 830h49l-297 -830h-49z" />
    <glyph glyph-name="zero" unicode="0" horiz-adv-x="676" 
d="M339 -13c-86 0 -153.833 32.501 -203.5 97.501s-74.5 152.5 -74.5 262.5c0 110.667 24.833 198.5 74.5 263.5s117.5 97.5 203.5 97.5c85.333 0 152.666 -32.5 201.999 -97.5s74 -152.833 74 -263.5s-24.667 -198.334 -74 -263.001s-116.666 -97 -201.999 -97zM339 38.001
c67.333 0 120.168 28.333 158.501 85s57.5 131.334 57.5 224.001s-19.333 167.5 -58 224.5s-91.334 85.5 -158.001 85.5c-67.333 0 -120.5 -28.5 -159.5 -85.5s-58.5 -131.833 -58.5 -224.5s19.5 -167.334 58.5 -224.001s92.167 -85 159.5 -85z" />
    <glyph glyph-name="one" unicode="1" horiz-adv-x="335" 
d="M179 0v570c-27.333 -42 -84.333 -63 -171 -63v54c58 0 100.833 10.5 128.5 31.5s41.5 55.167 41.5 102.5h59v-695h-58z" />
    <glyph glyph-name="two" unicode="2" horiz-adv-x="583" 
d="M47 0l-0.000976562 34.9971c0 80.667 51.667 151 155 211l133 75c86.667 50.667 130 111.667 130 183c0 48.667 -16 86.334 -48 113.001s-73.333 40 -124 40c-50 0 -91.333 -14.5 -124 -43.5s-49 -65.5 -49 -109.5c0 -31.333 7 -60 21 -86l-53 -21
c-18 30 -27 65.667 -27 107c0 58.667 22.167 107.334 66.5 146.001s100.5 58 168.5 58c68.667 0 124 -18.167 166 -54.5s63 -85.833 63 -148.5c0 -46.667 -13.167 -88.167 -39.5 -124.5s-67.166 -70.5 -122.499 -102.5l-133 -75c-80 -47.333 -121 -97.666 -123 -150.999h434
v-52h-494z" />
    <glyph glyph-name="three" unicode="3" horiz-adv-x="604" 
d="M309 -13c-71.333 0 -130.168 19.998 -176.501 59.998s-69.5 95 -69.5 165c0 22 3.66699 45 11 69l56 -16c-4.66699 -14.667 -7 -32.334 -7 -53.001c0 -53.333 17.667 -95.666 53 -126.999s80 -47 134 -47s97.167 13.5 129.5 40.5s48.5 64.167 48.5 111.5
c0 42.667 -15.333 76.334 -46 101.001s-71.667 37 -123 37h-50v51h55c44 0 79.667 12.167 107 36.5s41 57.833 41 100.5c0 44 -14.667 78.5 -44 103.5s-68 37.5 -116 37.5c-107.333 0 -169 -60.333 -185 -181l-56 7c9.33301 74 35.5 130 78.5 168s97.167 57 162.5 57
c66.667 0 120 -17 160 -51s60 -80 60 -138c0 -42 -12.667 -77.667 -38 -107s-56.666 -47.666 -93.999 -54.999c44 -8 79.5 -26.5 106.5 -55.5s40.5 -66.167 40.5 -111.5c0 -61.333 -21.667 -110.5 -65 -147.5s-101 -55.5 -173 -55.5z" />
    <glyph glyph-name="four" unicode="4" horiz-adv-x="571" 
d="M374 0l0.000976562 183.001h-350v50c151.333 146.667 238.666 300.667 261.999 462h58c-27.333 -170.667 -110.333 -324.334 -249 -461.001h279v189h56v-189h119v-51h-119v-183h-56z" />
    <glyph glyph-name="five" unicode="5" horiz-adv-x="598" 
d="M304 -13c-70.667 0 -128.329 20.333 -172.996 61s-70 91.667 -76 153l57 10c5.33301 -48 25.666 -88.833 60.999 -122.5s79 -50.5 131 -50.5c53.333 0 96.333 17 129 51s49 77 49 129c0 50.667 -16.333 92.834 -49 126.501s-74.667 50.5 -126 50.5
c-66.667 0 -121.667 -28 -165 -84l-49 17c16.667 127.333 26.667 249.666 30 366.999h389v-52h-338c-4 -98.667 -11 -187 -21 -265c17.333 22 40.166 38.833 68.499 50.5s58.166 17.5 89.499 17.5c69.333 0 125.166 -21.333 167.499 -64s63.5 -97.334 63.5 -164.001
c0 -67.333 -22 -122.666 -66 -165.999s-101.333 -65 -172 -65z" />
    <glyph glyph-name="six" unicode="6" horiz-adv-x="618" 
d="M326 -13c-83.333 0 -148.332 30.667 -194.999 92s-70 146.666 -70 255.999c0 113.333 24.667 203.833 74 271.5s114.666 101.5 195.999 101.5c70 0 124.833 -17.667 164.5 -53s61.167 -86.666 64.5 -153.999l-57 -7c-2.66699 52 -18.667 92.167 -48 120.5
s-70 42.5 -122 42.5c-68 0 -122.5 -32.167 -163.5 -96.5s-56.167 -156.5 -45.5 -276.5c12 54.667 37.333 94.5 76 119.5s81.334 37.5 128.001 37.5c69.333 0 126.166 -21 170.499 -63s66.5 -96.667 66.5 -164c0 -66 -22.5 -120.333 -67.5 -163s-102.167 -64 -171.5 -64z
M324.001 38c52.667 0 96 16.499 130 49.499s51 75.167 51 126.5c0 52 -16.833 94.5 -50.5 127.5s-77.167 49.5 -130.5 49.5c-52.667 0 -96 -16.667 -130 -50s-51 -75.666 -51 -126.999s17 -93.5 51 -126.5s77.333 -49.5 130 -49.5z" />
    <glyph glyph-name="seven" unicode="7" horiz-adv-x="508" 
d="M172 0c1.33301 112 22.665 219.5 63.998 322.5s102 209.833 182 320.5h-409v52h472v-55c-83.333 -115.333 -145.666 -221.833 -186.999 -319.5s-62.666 -204.5 -63.999 -320.5h-58z" />
    <glyph glyph-name="eight" unicode="8" horiz-adv-x="616" 
d="M308 -13c-74.667 0 -134.498 18.167 -179.498 54.5s-67.5 85.5 -67.5 147.5c0 41.333 12.5 78 37.5 110s58.833 55 101.5 69c-78 30 -117 81.667 -117 155c0 55.333 20.667 100 62 134s95.666 51 162.999 51s121.666 -17 162.999 -51s62 -78.667 62 -134
c0 -74 -39 -125.667 -117 -155c42 -14 75.667 -37 101 -69s38 -68.667 38 -110c0 -62 -22.5 -111.167 -67.5 -147.5s-104.833 -54.5 -179.5 -54.5zM308.002 389c49.333 0 89.333 12.333 120 37s46 57 46 97s-15.333 72.5 -46 97.5s-70.667 37.5 -120 37.5
s-89.333 -12.5 -120 -37.5s-46 -57.5 -46 -97.5s15.333 -72.333 46 -97s70.667 -37 120 -37zM308.002 37c56 0 101.167 13.667 135.5 41s51.5 64 51.5 110c0 44.667 -17.333 81 -52 109s-79.667 42 -135 42s-100.333 -14 -135 -42s-52 -64.333 -52 -109
c0 -46 17.167 -82.667 51.5 -110s79.5 -41 135.5 -41z" />
    <glyph glyph-name="nine" unicode="9" horiz-adv-x="618" 
d="M286 -13c-69.333 0 -124.167 18.168 -164.5 54.501s-61.833 88.166 -64.5 155.499l57 5c7.33301 -109.333 64.333 -164 171 -164c68 0 122.5 33.5 163.5 100.5s56.167 158.833 45.5 275.5c-12 -53.333 -37.167 -92.333 -75.5 -117s-80.5 -37 -126.5 -37
c-70 0 -127.333 20.833 -172 62.5s-67 95.5 -67 161.5c0 65.333 22.667 119 68 161s102.666 63 171.999 63c82.667 0 147.167 -30.5 193.5 -91.5s69.5 -145.5 69.5 -253.5c0 -113.333 -24.667 -204.333 -74 -273s-114.666 -103 -195.999 -103zM293.999 311.001
c52 0 95.167 16.332 129.5 48.999s51.5 74.334 51.5 125.001c0 50 -17.167 91.167 -51.5 123.5s-77.5 48.5 -129.5 48.5c-52.667 0 -96 -16.167 -130 -48.5s-51 -73.833 -51 -124.5s16.833 -92.167 50.5 -124.5s77.167 -48.5 130.5 -48.5z" />
    <glyph glyph-name="colon" unicode=":" horiz-adv-x="218" 
d="M109 399c-12 0 -22.167 4.16699 -30.5 12.5s-12.5 18.5 -12.5 30.5s4.16699 22 12.5 30s18.5 12 30.5 12s22.167 -4 30.5 -12s12.5 -18 12.5 -30s-4.16699 -22.167 -12.5 -30.5s-18.5 -12.5 -30.5 -12.5zM109 -9c-12 0 -22.167 4.16699 -30.5 12.5s-12.5 18.5 -12.5 30.5
s4.16699 22 12.5 30s18.5 12 30.5 12s22.167 -4 30.5 -12s12.5 -18 12.5 -30s-4.16699 -22.167 -12.5 -30.5s-18.5 -12.5 -30.5 -12.5z" />
    <glyph glyph-name="semicolon" unicode=";" horiz-adv-x="219" 
d="M109 399c-12 0 -22.167 4.16699 -30.5 12.5s-12.5 18.5 -12.5 30.5s4.16699 22 12.5 30s18.5 12 30.5 12s22.167 -4 30.5 -12s12.5 -18 12.5 -30s-4.16699 -22.167 -12.5 -30.5s-18.5 -12.5 -30.5 -12.5zM111 73c14 0 25.667 -5.66797 35 -17.001s14 -26.333 14 -45
c0 -50 -22.333 -93.667 -67 -131l-29 23c32.667 30 49 60 49 90h-4c-11.333 0 -21 3.83301 -29 11.5s-12 16.834 -12 27.501c0 11.333 4.16699 21 12.5 29s18.5 12 30.5 12z" />
    <glyph glyph-name="less" unicode="&#x3c;" horiz-adv-x="483" 
d="M425 106l-368 160v53l368 160v-55l-306 -132l306 -131v-55z" />
    <glyph glyph-name="equal" unicode="=" horiz-adv-x="483" 
d="M60 362v50h363v-50h-363zM60 171v49h363v-49h-363z" />
    <glyph glyph-name="greater" unicode="&#x3e;" horiz-adv-x="483" 
d="M57 106v55l307 131l-307 132v55l368 -160v-53z" />
    <glyph glyph-name="question" unicode="?" horiz-adv-x="539" 
d="M221 170c0 39.333 5.66797 71.168 17.001 95.501s33 49.166 65 74.499c48.667 36 81.667 66.333 99 91s26 53 26 85c0 43.333 -15 77.666 -45 102.999s-68.667 38 -116 38c-46 0 -84.5 -14 -115.5 -42s-46.5 -63.667 -46.5 -107c0 -28 7 -55 21 -81l-55 -21
c-18 30.667 -27 64.667 -27 102c0 56.667 21.833 104.167 65.5 142.5s96.834 57.5 159.501 57.5c67.333 0 120.833 -16.833 160.5 -50.5s59.5 -80.167 59.5 -139.5c0 -42 -11 -78.167 -33 -108.5s-59.667 -65.166 -113 -104.499
c-26.667 -19.333 -43.834 -38.333 -51.501 -57s-11.834 -44.667 -12.501 -78h-58zM245.001 -8.99805c-11.333 0 -21.333 4.16699 -30 12.5s-13 18.5 -13 30.5s4.16699 22 12.5 30s18.5 12 30.5 12s22.167 -4 30.5 -12s12.5 -18 12.5 -30s-4.16699 -22.167 -12.5 -30.5
s-18.5 -12.5 -30.5 -12.5z" />
    <glyph glyph-name="at" unicode="@" horiz-adv-x="936" 
d="M453 -195c-116 0 -211.166 36.5039 -285.499 109.504s-111.5 169.167 -111.5 288.5s39.167 216.666 117.5 291.999s177.166 113 296.499 113c123.333 0 223.333 -35.333 300 -106s115 -163 115 -277c0 -80.667 -15.5 -140.5 -46.5 -179.5s-70.5 -58.5 -118.5 -58.5
c-32 0 -57.167 9.16699 -75.5 27.5s-28.833 44.166 -31.5 77.499c-32.667 -70 -87.334 -105 -164.001 -105c-56 0 -102.667 20.833 -140 62.5s-56 93.5 -56 155.5s18.667 113.833 56 155.5s84 62.5 140 62.5c74.667 0 127.667 -32.667 159 -98v86h51v-293
c0 -56 21.333 -84 64 -84c34.667 0 62 16.167 82 48.5s30 79.5 30 141.5c0 101.333 -33.667 183.166 -101 245.499s-155.666 93.5 -264.999 93.5c-107.333 0 -194.833 -33.333 -262.5 -100s-101.5 -153.334 -101.5 -260.001s32.167 -192.167 96.5 -256.5
s148.5 -96.5 252.5 -96.5c67.333 0 129 18.333 185 55l21 -41c-58 -39.333 -127 -59 -207 -59zM455.001 35.0039c44 0 80.333 16 109 48s43 72.667 43 122s-14.333 90.166 -43 122.499s-65 48.5 -109 48.5c-43.333 0 -79.166 -16.167 -107.499 -48.5
s-42.5 -73.166 -42.5 -122.499s14.167 -90 42.5 -122s64.166 -48 107.499 -48z" />
    <glyph glyph-name="A" unicode="A" horiz-adv-x="666" 
d="M589 0l-87 217h-338l-86 -217h-61l278 695h76l278 -695h-60zM185 268h297l-149 372z" />
    <glyph glyph-name="B" unicode="B" horiz-adv-x="671" 
d="M94 0v695h252c72 0 127 -15 165 -45s57 -73.667 57 -131c0 -39.333 -10.5 -72.666 -31.5 -99.999s-48.833 -45.333 -83.5 -54c102.667 -22 154 -79.667 154 -173c0 -62.667 -20 -110.334 -60 -143.001s-97.333 -49 -172 -49h-281zM152 384l196 -0.000976562
c51.333 0 90.833 11.333 118.5 34s41.5 55.334 41.5 98.001c0 41.333 -14 73 -42 95s-67.333 33 -118 33h-196v-260zM152 50.999h218c117.333 0 176 47 176 141c0 44.667 -15.333 79.5 -46 104.5s-74.667 37.5 -132 37.5h-216v-283z" />
    <glyph glyph-name="C" unicode="C" horiz-adv-x="745" 
d="M387 -13c-96.667 0 -175.999 33.832 -237.999 101.499s-93 153.834 -93 258.501s31.333 191 94 259s142 102 238 102c79.333 0 144.5 -22.5 195.5 -67.5s86.833 -109.833 107.5 -194.5l-56 -17c-40 152 -122.333 228 -247 228c-79.333 0 -144.333 -29 -195 -87
s-76 -132.333 -76 -223c0 -90 25.167 -164 75.5 -222s115.166 -87 194.499 -87c132 0 216.667 69.667 254 209l57 -14c-44 -164 -147.667 -246 -311 -246z" />
    <glyph glyph-name="D" unicode="D" horiz-adv-x="743" 
d="M94 0l0.000976562 695h233c100 0 185 -30.333 255 -91s105 -146 105 -256c0 -56 -10 -106.5 -30 -151.5s-46.833 -81.5 -80.5 -109.5s-71.834 -49.5 -114.501 -64.5s-87.667 -22.5 -135 -22.5h-233zM152.001 51l165.001 -0.000976562c88 0 161.5 24.833 220.5 74.5
s88.5 123.834 88.5 222.501c0 99.333 -29.333 173.5 -88 222.5s-132.334 73.5 -221.001 73.5h-165v-593z" />
    <glyph glyph-name="E" unicode="E" horiz-adv-x="607" 
d="M94 0v695h462v-51h-404v-266h334v-51h-334v-276h408v-51h-466z" />
    <glyph glyph-name="F" unicode="F" horiz-adv-x="566" 
d="M94 0v695h442v-51h-384v-281h324v-51h-324v-312h-58z" />
    <glyph glyph-name="G" unicode="G" horiz-adv-x="808" 
d="M393 -13c-98 0 -178.669 33.833 -242.002 101.5s-95 153.834 -95 258.501s31.5 191 94.5 259s143.167 102 240.5 102c78.667 0 143.667 -19.333 195 -58s87 -94.667 107 -168l-56 -17c-38 128 -120 192 -246 192c-80 0 -145.667 -29 -197 -87s-77 -132.333 -77 -223
c0 -92 26.333 -166.5 79 -223.5s119.334 -85.5 200.001 -85.5c71.333 0 133.333 25.167 186 75.5s80 120.166 82 209.499h-268v51h324v-374h-56v165c-22.667 -55.333 -58.167 -98.833 -106.5 -130.5s-103.166 -47.5 -164.499 -47.5z" />
    <glyph glyph-name="H" unicode="H" horiz-adv-x="737" 
d="M94 0v695h58v-315h433v315h58v-695h-58v329h-433v-329h-58z" />
    <glyph glyph-name="I" unicode="I" horiz-adv-x="246" 
d="M94 0v695h58v-695h-58z" />
    <glyph glyph-name="J" unicode="J" horiz-adv-x="585" 
d="M274 -13c-72.667 0 -128.167 19.833 -166.5 59.5s-57.5 90.5 -57.5 152.5c0 19.333 2.66699 41.333 8 66l56 -10c-2.66699 -15.333 -4 -33 -4 -53c0 -49.333 14.167 -89 42.5 -119s68.833 -45 121.5 -45c112.667 0 169 66.667 169 200v457h58v-464
c0 -78.667 -20 -139 -60 -181s-95.667 -63 -167 -63z" />
    <glyph glyph-name="K" unicode="K" horiz-adv-x="669" 
d="M639 52c6 0 11.666 1 16.999 3v-55c-9.33301 -1.33301 -15.666 -2 -18.999 -2c-52.667 0 -95.167 15 -127.5 45s-82.833 94 -151.5 192l-83 117l-123 -119v-233h-58v695h58v-389l395 389h76l-307 -302l94 -132c61.333 -86 105.833 -142.333 133.5 -169s59.5 -40 95.5 -40
z" />
    <glyph glyph-name="L" unicode="L" horiz-adv-x="562" 
d="M94 0v695h58v-644h396v-51h-454z" />
    <glyph glyph-name="M" unicode="M" horiz-adv-x="879" 
d="M94 0v695h82l264 -500l262 500h83v-695h-58v623l-260 -494h-57l-258 494v-623h-58z" />
    <glyph glyph-name="N" unicode="N" horiz-adv-x="725" 
d="M94 0v695h64l418 -607v607h56v-695h-64l-419 607v-607h-55z" />
    <glyph glyph-name="O" unicode="O" horiz-adv-x="794" 
d="M397 -13c-98.667 0 -180.167 33.833 -244.5 101.5s-96.5 153.834 -96.5 258.501s32 191 96 259s145.667 102 245 102c98.667 0 180.167 -34 244.5 -102s96.5 -154.333 96.5 -259s-32.167 -190.834 -96.5 -258.501s-145.833 -101.5 -244.5 -101.5zM397 38
c81.333 0 148.333 29 201 87s79 132 79 222s-26.333 164.167 -79 222.5s-119.667 87.5 -201 87.5s-148.333 -29.167 -201 -87.5s-79 -132.5 -79 -222.5s26.333 -164 79 -222s119.667 -87 201 -87z" />
    <glyph glyph-name="P" unicode="P" horiz-adv-x="625" 
d="M94 0v695h261c72.667 0 129.167 -17.833 169.5 -53.5s60.5 -84.5 60.5 -146.5s-20.333 -110.833 -61 -146.5s-97 -53.5 -169 -53.5h-203v-295h-58zM152 346h203c54.667 0 96.5 13.167 125.5 39.5s43.5 62.833 43.5 109.5c0 48 -14.5 84.833 -43.5 110.5
s-70.833 38.5 -125.5 38.5h-203v-298z" />
    <glyph glyph-name="Q" unicode="Q" horiz-adv-x="794" 
d="M690 5l52.999 -13.002c-22 -84.667 -66.333 -127 -133 -127c-26.667 0 -51.167 6.16699 -73.5 18.5s-39.666 25.833 -51.999 40.5s-28.5 36.334 -48.5 65.001c-16 -1.33301 -29 -2 -39 -2c-98.667 0 -180.167 33.833 -244.5 101.5s-96.5 153.834 -96.5 258.501
s32 191 96 259s145.667 102 245 102c98.667 0 180.167 -34 244.5 -102s96.5 -154.333 96.5 -259c0 -86 -22.5 -160.333 -67.5 -223s-104.5 -104 -178.5 -124c20.667 -28.667 39.5 -49.667 56.5 -63s37.167 -20 60.5 -20c22.667 0 40 7 52 21s21.667 36.333 29 67z
M116.999 346.998c0 -90 26.333 -164 79 -222s119.667 -87 201 -87s148.333 29 201 87s79 132 79 222s-26.333 164.167 -79 222.5s-119.667 87.5 -201 87.5s-148.333 -29.167 -201 -87.5s-79 -132.5 -79 -222.5z" />
    <glyph glyph-name="R" unicode="R" horiz-adv-x="663" 
d="M629 52c6.66699 0 12.999 1.00098 18.999 3.00098v-55c-9.33301 -1.33301 -16.333 -2 -21 -2c-52 0 -95.5 14.833 -130.5 44.5s-76.833 86.5 -125.5 170.5l-60 100h-159v-313h-58v695h272c71.333 0 126.333 -16.833 165 -50.5s58 -80.5 58 -140.5
c0 -58 -18.667 -104.167 -56 -138.5s-89.333 -51.833 -156 -52.5l46 -75c42.667 -72.667 78.834 -121.834 108.501 -147.501s62.167 -38.5 97.5 -38.5zM151.999 644.001v-280h214c54 0 94.667 12.167 122 36.5s41 58.833 41 103.5c0 45.333 -13.833 80 -41.5 104
s-68.167 36 -121.5 36h-214z" />
    <glyph glyph-name="S" unicode="S" horiz-adv-x="636" 
d="M323 -13c-84.667 0 -150.333 18.8359 -197 56.5029s-70 87.167 -70 148.5c0 28 4.33301 57 13 87l54 -16c-6 -20.667 -9 -43.334 -9 -68.001c0 -49.333 19 -87.833 57 -115.5s89.333 -41.5 154 -41.5c60 0 107.5 12.5 142.5 37.5s52.5 58.833 52.5 101.5
c0 37.333 -12.5 66.166 -37.5 86.499s-62.5 36.5 -112.5 48.5l-94 23c-70.667 16 -120.834 39.333 -150.501 70s-44.5 70.667 -44.5 120c0 56.667 21.167 101.334 63.5 134.001s96.5 49 162.5 49c78.667 0 140.834 -20.333 186.501 -61s71.5 -98.334 77.5 -173.001l-58 -8
c-16.667 127.333 -85.667 191 -207 191c-50.667 0 -91.167 -11.333 -121.5 -34s-45.5 -54.667 -45.5 -96c0 -39.333 13.5 -69.333 40.5 -90s65.5 -37 115.5 -49l91 -21c68 -16 117 -38.833 147 -68.5s45 -68.834 45 -117.501c0 -62.667 -24.5 -110.667 -73.5 -144
s-109.5 -50 -181.5 -50z" />
    <glyph glyph-name="T" unicode="T" horiz-adv-x="610" 
d="M277 0v644h-252v51h561v-51h-251v-644h-58z" />
    <glyph glyph-name="U" unicode="U" horiz-adv-x="704" 
d="M352 -13c-85.333 0 -151.334 23.998 -198.001 71.998s-70 115.333 -70 202v434h58v-435c0 -71.333 17.833 -126.166 53.5 -164.499s87.834 -57.5 156.501 -57.5c68 0 120 19.333 156 58s54 93.334 54 164.001v435h58v-434c0 -86.667 -23.167 -154 -69.5 -202
s-112.5 -72 -198.5 -72z" />
    <glyph glyph-name="V" unicode="V" horiz-adv-x="632" 
d="M278 0l-271 695h62l247 -635l247 635h61l-270 -695h-76z" />
    <glyph glyph-name="W" unicode="W" horiz-adv-x="938" 
d="M220 0l-203 695h60l182 -626l179 626h61l184 -626l177 626h60l-203 -695h-72l-176 607l-177 -607h-72z" />
    <glyph glyph-name="X" unicode="X" horiz-adv-x="602" 
d="M15 0l249 357l-236 338h70l205 -294l204 294h66l-235 -338l249 -357h-71l-217 313l-218 -313h-66z" />
    <glyph glyph-name="Y" unicode="Y" horiz-adv-x="617" 
d="M278 0v295l-271 400h70l231 -346l233 346h68l-273 -400v-295h-58z" />
    <glyph glyph-name="Z" unicode="Z" horiz-adv-x="587" 
d="M32 0v46l442 598h-434v51h507v-46l-444 -598h452v-51h-523z" />
    <glyph glyph-name="bracketleft" unicode="[" horiz-adv-x="325" 
d="M289 683h-140v-780h140v-47h-190v874h190v-47z" />
    <glyph glyph-name="backslash" unicode="\" horiz-adv-x="424" 
d="M339 -100l-297 830h50l297 -830h-50z" />
    <glyph glyph-name="bracketright" unicode="]" horiz-adv-x="325" 
d="M226 730v-874h-191v45h140v784h-140v45h191z" />
    <glyph glyph-name="asciicircum" unicode="^" horiz-adv-x="496" 
d="M62 409l160 286h54l159 -286h-57l-130 233l-130 -233h-56z" />
    <glyph glyph-name="underscore" unicode="_" horiz-adv-x="477" 
d="M14 -78v49h449v-49h-449z" />
    <glyph glyph-name="grave" unicode="`" horiz-adv-x="400" 
d="M186 539l-122 145h70l106 -145h-54z" />
    <glyph glyph-name="a" unicode="a" horiz-adv-x="513" 
d="M221 -12c-52 0 -94.002 13.332 -126.002 39.999s-48 62.334 -48 107.001c0 41.333 16.333 76.333 49 105s74.334 43 125.001 43c62 0 115.667 -24 161 -72v89c0 42.667 -11.167 76.167 -33.5 100.5s-53.166 36.5 -92.499 36.5c-80 0 -129.667 -41.333 -149 -124l-52 14
c11.333 49.333 35 88.333 71 117s79.667 43 131 43c54.667 0 98.667 -16.167 132 -48.5s50 -77.5 50 -135.5v-303h-57v77c-39.333 -59.333 -93 -89 -161 -89zM225.998 35.999c63.333 0 115.333 31.998 156 95.998v20c-43.333 54.667 -95.333 82 -156 82
c-36 0 -64.833 -9.16699 -86.5 -27.5s-32.5 -42.166 -32.5 -71.499s10.833 -53.166 32.5 -71.499s50.5 -27.5 86.5 -27.5z" />
    <glyph glyph-name="b" unicode="b" 
d="M325 -11c-43.333 0 -81.166 10.166 -113.499 30.499s-57.166 48.5 -74.499 84.5v-104h-57v695h57v-324c17.333 36 42.166 64.167 74.499 84.5s70.166 30.5 113.499 30.5c62.667 0 115 -23.5 157 -70.5s63 -106.167 63 -177.5s-21 -130.666 -63 -177.999
s-94.333 -71 -157 -71zM314 37.999c51.333 0 92.666 18.333 123.999 55s47 85 47 145s-15.667 108.167 -47 144.5s-72.666 54.5 -123.999 54.5c-50 0 -92 -19.167 -126 -57.5s-51 -85.5 -51 -141.5c0 -56.667 17 -104.167 51 -142.5s76 -57.5 126 -57.5z" />
    <glyph glyph-name="c" unicode="c" horiz-adv-x="524" 
d="M274 -11c-68.667 0 -124.167 22.668 -166.5 68.001s-63.5 105.666 -63.5 180.999c0 72 21 131.333 63 178s96.333 70 163 70c54 0 100.5 -16 139.5 -48s64.833 -79.667 77.5 -143l-52 -17c-26 106 -81 159 -165 159c-52 0 -92.833 -18.167 -122.5 -54.5
s-44.5 -84.5 -44.5 -144.5c0 -60.667 15.333 -109.167 46 -145.5s72.334 -54.5 125.001 -54.5c40.667 0 73.667 10.333 99 31s47.666 51.667 66.999 93l44 -29c-47.333 -96 -117.333 -144 -210 -144z" />
    <glyph glyph-name="d" unicode="d" 
d="M264 -11c-63.333 0 -115.833 23.668 -157.5 71.001s-62.5 106.666 -62.5 177.999s20.833 130.5 62.5 177.5s94.167 70.5 157.5 70.5c43.333 0 81 -10.167 113 -30.5s56.667 -48.5 74 -84.5v324h57v-695h-57v104c-17.333 -36 -42 -64.167 -74 -84.5
s-69.667 -30.5 -113 -30.5zM274 38.001c50 0 92 19.167 126 57.5s51 85.833 51 142.5s-17 104 -51 142s-76 57 -126 57c-51.333 0 -92.666 -18.167 -123.999 -54.5s-47 -84.5 -47 -144.5s15.667 -108.333 47 -145s72.666 -55 123.999 -55z" />
    <glyph glyph-name="e" unicode="e" horiz-adv-x="537" 
d="M445 154l44.001 -25.998c-44.667 -92.667 -115.334 -139 -212.001 -139c-68.667 0 -124.667 23.167 -168 69.5s-65 106.166 -65 179.499s21.167 133 63.5 179s96.833 69 163.5 69c66 0 118 -21.333 156 -64s57 -99.334 57 -170.001v-23h-381
c1.33301 -57.333 17.5 -103.5 48.5 -138.5s72.833 -52.5 125.5 -52.5c76 0 132 38.667 168 116zM270.001 437.002c-46.667 0 -84.668 -14.5 -114.001 -43.5s-46.666 -68.167 -51.999 -117.5h322c-2.66699 52 -17.5 91.833 -44.5 119.5s-64.167 41.5 -111.5 41.5z" />
    <glyph glyph-name="f" unicode="f" horiz-adv-x="304" 
d="M96 0v425h-81v50h78c-15.333 37.333 -23 70.333 -23 99c0 43.333 13.333 76.166 40 98.499s60 33.5 100 33.5c69.333 0 113 -32.667 131 -98l-53 -14c-12 42.667 -39.333 64 -82 64c-22.667 0 -41.667 -7.16699 -57 -21.5s-23 -36.166 -23 -65.499
c0 -22 8.33301 -54 25 -96h147v-50h-145v-425h-57z" />
    <glyph glyph-name="g" unicode="g" horiz-adv-x="541" 
d="M448 497c-22.667 0 -41.333 -18.666 -56 -55.999c33.333 -30 50 -70 50 -120c0 -50.667 -16.833 -90.667 -50.5 -120s-77.167 -44 -130.5 -44c-36.667 0 -69 7.33301 -97 22c-35.333 -12 -53 -31.333 -53 -58c0 -16 5.33301 -29 16 -39s24.667 -15 42 -15h190
c108 0 162 -41.667 162 -125c0 -48.667 -23.167 -88 -69.5 -118s-104.166 -45 -173.499 -45c-80 0 -140.5 12.667 -181.5 38s-61.5 60.666 -61.5 105.999c0 44.667 24.333 79.667 73 105c-34 18 -51 46.333 -51 85c0 40.667 22.667 71.667 68 93c-30 30 -45 68.333 -45 115
c0 50.667 16.833 90.834 50.5 120.501s77.167 44.5 130.5 44.5c34 0 64.667 -6.33301 92 -19c25.333 52.667 58.666 79 99.999 79c24 0 44 -7.83301 60 -23.5s24 -38.834 24 -69.501v-12l-47 -8c-0.666992 42.667 -14.667 64 -42 64zM261.001 203.001
c36.667 0 66.667 10.667 90 32s35 50 35 86s-11.833 64.833 -35.5 86.5s-53.5 32.5 -89.5 32.5c-36.667 0 -66.5 -10.667 -89.5 -32s-34.5 -50.333 -34.5 -87s11.5 -65.5 34.5 -86.5s52.833 -31.5 89.5 -31.5zM355.001 12.001h-165c-28 0 -51.333 -7.83301 -70 -23.5
s-28 -35.167 -28 -58.5c0 -68 62.333 -102 187 -102c53.333 0 97.5 9.83301 132.5 29.5s52.5 46.5 52.5 80.5c0 25.333 -8.66699 44 -26 56s-45 18 -83 18z" />
    <glyph glyph-name="h" unicode="h" horiz-adv-x="557" 
d="M80 0v694.999h57v-297c32 58.667 86 88 162 88c58 0 103 -17 135 -51s48 -81.667 48 -143v-292h-57v285c0 49.333 -11.667 87 -35 113s-57.666 39 -102.999 39c-42.667 0 -78.334 -13.167 -107.001 -39.5s-43 -62.166 -43 -107.499v-290h-57z" />
    <glyph glyph-name="i" unicode="i" horiz-adv-x="217" 
d="M108 594c-11.333 0 -21 3.83301 -29 11.5s-12 17.167 -12 28.5s4 20.833 12 28.5s17.667 11.5 29 11.5s21 -3.83301 29 -11.5s12 -17.167 12 -28.5s-4 -20.833 -12 -28.5s-17.667 -11.5 -29 -11.5zM80 0v475h57v-475h-57z" />
    <glyph glyph-name="j" unicode="j" horiz-adv-x="217" 
d="M108 594c-11.333 0 -21 3.83301 -29 11.5s-12 17.167 -12 28.5s4 20.833 12 28.5s17.667 11.5 29 11.5s21 -3.83301 29 -11.5s12 -17.167 12 -28.5s-4 -20.833 -12 -28.5s-17.667 -11.5 -29 -11.5zM24 -221c-43.333 0 -78.667 17.332 -106 51.999l30 42
c22.667 -30 47 -45 73 -45c39.333 0 59 26.333 59 79v568h57v-567c0 -45.333 -10.5 -78.166 -31.5 -98.499s-48.167 -30.5 -81.5 -30.5z" />
    <glyph glyph-name="k" unicode="k" horiz-adv-x="507" 
d="M483 48c4.66699 0 10.3311 0.666992 16.998 2v-51c-7.33301 -1.33301 -18 -2 -32 -2c-37.333 0 -68.833 11 -94.5 33s-57.167 60.333 -94.5 115l-69 101l-73 -65v-181h-57v695h57v-450l264 230h76l-222 -192l68 -102c36.667 -54 64.834 -89.667 84.501 -107
s44.834 -26 75.501 -26z" />
    <glyph glyph-name="l" unicode="l" horiz-adv-x="217" 
d="M80 0v695h57v-695h-57z" />
    <glyph glyph-name="m" unicode="m" horiz-adv-x="880" 
d="M628 486c56.667 0 100.335 -17.002 131.002 -51.002s46 -81.333 46 -142v-293h-57v287c0 48.667 -11.167 85.834 -33.5 111.501s-54.833 38.5 -97.5 38.5c-42 0 -76.833 -13.333 -104.5 -40s-41.5 -62.667 -41.5 -108v-289h-57v287
c0 48.667 -11.167 85.834 -33.5 111.501s-54.833 38.5 -97.5 38.5c-42 0 -76.833 -13.167 -104.5 -39.5s-41.5 -61.833 -41.5 -106.5v-291h-57v475h57v-77c15.333 28 36.666 49.667 63.999 65s58.333 23 93 23c81.333 0 134.666 -33.667 159.999 -101
c34 67.333 92 101 174 101z" />
    <glyph glyph-name="n" unicode="n" horiz-adv-x="557" 
d="M80 0l-0.00195312 474.999h57v-77c32 58.667 86 88 162 88c58 0 103 -17 135 -51s48 -81.667 48 -143v-292h-57v285c0 49.333 -11.667 87 -35 113s-57.666 39 -102.999 39c-43.333 0 -79.166 -13.167 -107.499 -39.5s-42.5 -62.166 -42.5 -107.499v-290h-57z" />
    <glyph glyph-name="o" unicode="o" horiz-adv-x="558" 
d="M279 -11c-68 0 -124.167 23.333 -168.5 70s-66.5 106.334 -66.5 179.001c0 72 22.167 131.333 66.5 178s100.5 70 168.5 70s124.167 -23.333 168.5 -70s66.5 -106 66.5 -178c0 -72.667 -22.167 -132.334 -66.5 -179.001s-100.5 -70 -168.5 -70zM279 38
c53.333 0 96 18.5 128 55.5s48 85.167 48 144.5c0 58.667 -16 106.5 -48 143.5s-74.667 55.5 -128 55.5s-96 -18.167 -128 -54.5s-48 -84.5 -48 -144.5s16 -108.333 48 -145s74.667 -55 128 -55z" />
    <glyph glyph-name="p" unicode="p" 
d="M80 -210v684.999h57v-104c17.333 36 42.166 64.167 74.499 84.5s70.166 30.5 113.499 30.5c62.667 0 115 -23.667 157 -71s63 -106.333 63 -177c0 -71.333 -20.833 -130.666 -62.5 -177.999s-94.167 -71 -157.5 -71c-43.333 0 -81.166 10.167 -113.499 30.5
s-57.166 48.5 -74.499 84.5v-314h-57zM314 37.999c51.333 0 92.666 18.167 123.999 54.5s47 84.833 47 145.5c0 59.333 -15.667 107.333 -47 144s-72.666 55 -123.999 55c-50 0 -92 -19.167 -126 -57.5s-51 -85.5 -51 -141.5c0 -56.667 17 -104.167 51 -142.5
s76 -57.5 126 -57.5z" />
    <glyph glyph-name="q" unicode="q" 
d="M451 -210v314.001c-17.333 -36 -42 -64.167 -74 -84.5s-69.667 -30.5 -113 -30.5c-63.333 0 -115.833 23.667 -157.5 71s-62.5 106.666 -62.5 177.999s20.833 130.5 62.5 177.5s94.167 70.5 157.5 70.5c43.333 0 81 -10.167 113 -30.5s56.667 -48.5 74 -84.5v104h57v-685
h-57zM274 40.001c50 0 92 18.8311 126 56.498s51 84.834 51 141.501c0 56 -17 102.833 -51 140.5s-76 56.5 -126 56.5c-51.333 0 -92.666 -18.167 -123.999 -54.5s-47 -83.833 -47 -142.5c0 -59.333 15.667 -107.166 47 -143.499s72.666 -54.5 123.999 -54.5z" />
    <glyph glyph-name="r" unicode="r" horiz-adv-x="430" 
d="M80 0l0.000976562 474.999h57v-100c26.667 72.667 74.667 109 144 109c36.667 0 67 -12 91 -36s36 -56.333 36 -97c0 -17.333 -2.33301 -35.666 -7 -54.999l-54 6c2 13.333 3 25.333 3 36c0 63.333 -28 95 -84 95c-36.667 0 -67.334 -18.167 -92.001 -54.5
s-37 -84.5 -37 -144.5v-234h-57z" />
    <glyph glyph-name="s" unicode="s" horiz-adv-x="479" 
d="M250 -11c-58 0 -106.002 14.668 -144.002 44.001s-58.333 73.333 -61 132l53 9c8 -91.333 59 -137 153 -137c37.333 0 67.333 7.83301 90 23.5s34 38.5 34 68.5c0 24 -7.5 42 -22.5 54s-40.833 21.333 -77.5 28l-55 9c-48 8 -85.167 21.333 -111.5 40s-39.5 50 -39.5 94
c0 40.667 15.833 72.834 47.5 96.501s74.834 35.5 129.501 35.5c53.333 0 95 -12.667 125 -38s49.667 -60 59 -104l-52 -13c-18 71.333 -62.667 107 -134 107c-38 0 -67.5 -7.33301 -88.5 -22s-31.5 -35.334 -31.5 -62.001c0 -24.667 7.83301 -43.167 23.5 -55.5
s42.834 -21.5 81.501 -27.5l56 -10c46.667 -8 83.167 -21.167 109.5 -39.5s39.5 -48.833 39.5 -91.5c0 -44.667 -17 -79.334 -51 -104.001s-78.333 -37 -133 -37z" />
    <glyph glyph-name="t" unicode="t" horiz-adv-x="379" 
d="M217 -11c-82 0 -123 50 -123 150v286h-84v50h84l12 143h45v-143h198v-50h-198v-287c0 -65.333 22.667 -98 68 -98c22 0 40.833 8 56.5 24s30.5 41 44.5 75l47 -21c-33.333 -86 -83.333 -129 -150 -129z" />
    <glyph glyph-name="u" unicode="u" horiz-adv-x="551" 
d="M255 -11c-57.333 0 -101.667 17 -133 51s-47 81.667 -47 143v292h57v-288c0 -48 11.333 -84.833 34 -110.5s56 -38.5 100 -38.5c42 0 77.167 13 105.5 39s42.5 61 42.5 105v293h57v-475h-57v77c-15.333 -27.333 -36.833 -48.833 -64.5 -64.5s-59.167 -23.5 -94.5 -23.5z
" />
    <glyph glyph-name="v" unicode="v" horiz-adv-x="479" 
d="M207 0l-198 475h61l171 -419l168 419h62l-198 -475h-66z" />
    <glyph glyph-name="w" unicode="w" horiz-adv-x="709" 
d="M170 0l-151 475h60l126 -415l121 415h58l120 -415l126 415h60l-151 -475h-67l-118 394l-117 -394h-67z" />
    <glyph glyph-name="x" unicode="x" horiz-adv-x="473" 
d="M14 0l187 246l-175 229h68l143 -189l144 189h67l-176 -230l188 -245h-69l-155 205l-156 -205h-66z" />
    <glyph glyph-name="y" unicode="y" horiz-adv-x="479" 
d="M102 -221c-46.667 0 -80.334 19 -101.001 57l38 37c16.667 -30 38.667 -45 66 -45c20 0 37 8.5 51 25.5s28.667 45.167 44 84.5l25 62h-27l-189 475h61l171 -430l168 430h62l-225 -563c-19.333 -48.667 -40.166 -83 -62.499 -103s-49.5 -30 -81.5 -30z" />
    <glyph glyph-name="z" unicode="z" horiz-adv-x="442" 
d="M27 0v47l307 378h-297v50h369v-47l-308 -378h317v-50h-388z" />
    <glyph glyph-name="braceleft" unicode="{" horiz-adv-x="396" 
d="M349 -144c-68.667 2.66699 -118.167 13.6689 -148.5 33.002s-45.5 51 -45.5 95c0 25.333 7.5 58.166 22.5 98.499s22.5 71.5 22.5 93.5c0 29.333 -11.667 52.5 -35 69.5s-59.333 25.5 -108 25.5h-8v43h8c95.333 0 143 31.667 143 95c0 22 -7.5 53.5 -22.5 94.5
s-22.5 73.833 -22.5 98.5c0 44 15.167 75.667 45.5 95s79.833 30.333 148.5 33v-47c-52.667 -1.33301 -89.667 -8 -111 -20s-32 -34.333 -32 -67c0 -18.667 7.5 -48.334 22.5 -89.001s22.5 -75 22.5 -103c0 -62 -32.667 -99.333 -98 -112c65.333 -13.333 98 -50 98 -110
c0 -28 -7.5 -62.167 -22.5 -102.5s-22.5 -69.833 -22.5 -88.5c0 -33.333 10.667 -56 32 -68s58.333 -18.667 111 -20v-47z" />
    <glyph glyph-name="bar" unicode="|" horiz-adv-x="274" 
d="M114 -100v830h46v-830h-46z" />
    <glyph glyph-name="braceright" unicode="}" horiz-adv-x="396" 
d="M47 -144v47c52.667 1.33301 89.5 8 110.5 20s31.5 34.333 31.5 67c0 18.667 -7.5 48.334 -22.5 89.001s-22.5 75 -22.5 103c0 62 33 99.333 99 112c-66 13.333 -99 50 -99 110c0 28 7.5 62.167 22.5 102.5s22.5 69.833 22.5 88.5c0 33.333 -10.5 56 -31.5 68
s-57.833 18.667 -110.5 20v47c68.667 -2.66699 118.167 -13.667 148.5 -33s45.5 -51 45.5 -95c0 -24.667 -7.5 -57.334 -22.5 -98.001s-22.5 -72 -22.5 -94c0 -63.333 47.667 -95 143 -95h8v-43h-8c-95.333 0 -143 -31.667 -143 -95c0 -22 7.5 -53.5 22.5 -94.5
s22.5 -73.833 22.5 -98.5c0 -44 -15.167 -75.667 -45.5 -95s-79.833 -30.333 -148.5 -33z" />
    <glyph glyph-name="asciitilde" unicode="~" horiz-adv-x="483" 
d="M325 231c-22.667 0 -43.8311 5.83203 -63.498 17.499s-37.5 23.334 -53.5 35.001s-31 17.5 -45 17.5c-36.667 0 -57.334 -22.333 -62.001 -67l-48 7c3.33301 34.667 13.833 61.667 31.5 81s42.167 29 73.5 29c22.667 0 43.667 -5.83301 63 -17.5
s37.166 -23.5 53.499 -35.5s31.5 -18 45.5 -18c37.333 0 58.333 22.333 63 67l48 -7c-3.33301 -34.667 -14 -61.5 -32 -80.5s-42.667 -28.5 -74 -28.5z" />
    <glyph glyph-name="uni00A0" unicode="&#xa0;" horiz-adv-x="230" 
 />
    <glyph glyph-name="exclamdown" unicode="&#xa1;" horiz-adv-x="271" 
d="M136 485c11.333 0 21.166 -4.16699 29.499 -12.5s12.5 -18.5 12.5 -30.5s-4.16699 -22 -12.5 -30s-18.166 -12 -29.499 -12c-12.667 0 -23 4 -31 12s-12 18 -12 30s4 22.167 12 30.5s18.333 12.5 31 12.5zM157 306l7 -525h-63l7 525h49z" />
    <glyph glyph-name="cent" unicode="&#xa2;" horiz-adv-x="548" 
d="M305 39c36 2.66699 65.6689 14.333 89.002 35s43.666 50 60.999 88l45 -29c-46 -91.333 -111 -139 -195 -143v-92h-49v93c-61.333 7.33301 -110.333 33 -147 77s-55 100.667 -55 170c0 66.667 18.5 122.667 55.5 168s85.833 71.333 146.5 78v97h49v-96
c48 -4 89.5 -21.333 124.5 -52s58.5 -74.667 70.5 -132l-52 -17c-22.667 93.333 -70.334 144 -143.001 152v-397zM113.002 237.999c0 -54 12.667 -98.668 38 -134.001s60.333 -56.666 105 -63.999v395c-44.667 -6.66699 -79.667 -27.5 -105 -62.5s-38 -79.833 -38 -134.5z
" />
    <glyph glyph-name="sterling" unicode="&#xa3;" horiz-adv-x="644" 
d="M613 197c0.666992 -64.667 -12.6729 -115.831 -40.0059 -153.498s-66.666 -56.5 -117.999 -56.5c-17.333 0 -34.166 2.33301 -50.499 7s-33.333 13 -51 25s-30.667 21.333 -39 28l-42.5 35c-24 -63.333 -71.333 -95 -142 -95c-37.333 0 -67.166 9.66699 -89.499 29
s-33.5 45.666 -33.5 78.999c0 32 11.667 57.667 35 77s54 29 92 29c32.667 0 64 -8 94 -24c-1.33301 33.333 -17 86 -47 158h-114v48h95c-18.667 50 -28 94 -28 132c0 58 19.667 104.667 59 140s92 53 158 53c72.667 0 130.334 -22 173.001 -66s64.334 -101.333 65.001 -172
l-58 -4c-2.66699 56 -19.667 101.833 -51 137.5s-74.666 53.5 -129.999 53.5c-49.333 0 -87.666 -13 -114.999 -39s-41 -61.333 -41 -106c0 -32.667 10.667 -75.667 32 -129h184v-48h-165c28 -73.333 42 -128 42 -164c0 -13.333 -0.333008 -23.333 -1 -30l42 -33
c21.333 -16.667 36.666 -28.334 45.999 -35.001s22.166 -13.5 38.499 -20.5s31.833 -10.5 46.5 -10.5c62.667 0 95.334 52.667 98.001 158zM132.993 36.0029c47.333 0 77.332 28.333 89.999 85c-31.333 20.667 -59.666 31 -84.999 31c-21.333 0 -38.5 -5.33301 -51.5 -16
s-19.5 -24.667 -19.5 -42c0 -18 6 -32.167 18 -42.5s28 -15.5 48 -15.5z" />
    <glyph glyph-name="currency" unicode="&#xa4;" horiz-adv-x="434" 
d="M81 152l-36.002 36l37 36c-21.333 30 -32 63 -32 99c0 38.667 11 71.667 33 99l-38 37l36 36l37 -38c28.667 20 62 30 100 30c36.667 0 69.334 -10 98.001 -30l38 38l35 -36l-37 -37c21.333 -28.667 32 -61.667 32 -99s-10.667 -70.333 -32 -99l37 -36l-35 -36l-38 37
c-29.333 -20.667 -61.666 -31 -96.999 -31c-38 0 -71.333 10.667 -100 32zM218.998 197c34.667 0 63.999 12.167 87.999 36.5s36 54.166 36 89.499c0 34.667 -12.167 64.167 -36.5 88.5s-53.833 36.5 -88.5 36.5c-35.333 0 -65.166 -12 -89.499 -36s-36.5 -53.667 -36.5 -89
s12.167 -65.166 36.5 -89.499s54.5 -36.5 90.5 -36.5z" />
    <glyph glyph-name="yen" unicode="&#xa5;" horiz-adv-x="627" 
d="M341 298v-1h169v-48h-169v-103h169v-49h-169v-97h-58v97h-172v49h172v103h-172v48h172v1l-271 397h70l231 -345l232 345h69z" />
    <glyph glyph-name="brokenbar" unicode="&#xa6;" horiz-adv-x="274" 
d="M114 392v338h46v-338h-46zM114 -100v334h46v-334h-46z" />
    <glyph glyph-name="section" unicode="&#xa7;" horiz-adv-x="554" 
d="M498 310c0 -32.667 -11.6699 -60.8301 -35.0029 -84.4971s-53.333 -41.167 -90 -52.5c47.333 -25.333 71 -63 71 -113c0 -41.333 -16.167 -74.333 -48.5 -99s-76.166 -37 -131.499 -37c-112.667 0 -180 48.667 -202 146l55 12c10.667 -38.667 27.667 -66.667 51 -84
s55.333 -26 96 -26c38 0 67.833 7.66699 89.5 23s32.5 36.666 32.5 63.999c0 44.667 -32.333 76.334 -97 95.001l-92 27c-44 12 -78.5 28.667 -103.5 50s-37.5 51.666 -37.5 90.999c0 33.333 11.5 61.666 34.5 84.999s53.167 40.666 90.5 51.999
c-47.333 25.333 -71 63 -71 113c0 41.333 16.167 74.333 48.5 99s75.833 37 130.5 37c113.333 0 181 -48.667 203 -146l-55 -12c-10.667 38.667 -27.667 66.667 -51 84s-55.666 26 -96.999 26c-38 0 -67.667 -7.66699 -89 -23s-32 -36.666 -32 -63.999
c0 -44.667 32.333 -76.334 97 -95.001l92 -27c44.667 -13.333 79.334 -30.333 104.001 -51s37 -50.667 37 -90zM321.997 195.004c33.333 6.66699 61.335 19.167 84.002 37.5s34 41.833 34 70.5c0 48 -31 81.333 -93 100l-92 27
c-2.66699 0.666992 -6.5 1.83398 -11.5 3.50098s-8.83301 2.83398 -11.5 3.50098c-33.333 -6.66699 -61.5 -19.167 -84.5 -37.5s-34.5 -41.833 -34.5 -70.5c0 -48 31.333 -81.333 94 -100l92 -27c3.33301 -0.666992 7.66602 -1.83398 12.999 -3.50098
s8.66602 -2.83398 9.99902 -3.50098z" />
    <glyph glyph-name="dieresis" unicode="&#xa8;" horiz-adv-x="400" 
d="M112 572c-10.667 0 -19.834 3.66699 -27.501 11s-11.5 16.666 -11.5 27.999s3.83301 20.666 11.5 27.999s16.834 11 27.501 11c11.333 0 20.833 -3.66699 28.5 -11s11.5 -16.666 11.5 -27.999s-3.83301 -20.666 -11.5 -27.999s-17.167 -11 -28.5 -11zM290 572
c-11.333 0 -20.833 3.66699 -28.5 11s-11.5 16.666 -11.5 27.999s3.83301 20.666 11.5 27.999s17.167 11 28.5 11s20.666 -3.66699 27.999 -11s11 -16.666 11 -27.999s-3.66699 -20.666 -11 -27.999s-16.666 -11 -27.999 -11z" />
    <glyph glyph-name="copyright" unicode="&#xa9;" horiz-adv-x="828" 
d="M415 -13c-103.333 0 -188.999 34.167 -256.999 102.5s-102 154.5 -102 258.5s33.833 190 101.5 258s153.167 102 256.5 102s188.833 -34 256.5 -102s101.5 -154 101.5 -258s-33.833 -190.167 -101.5 -258.5s-152.834 -102.5 -255.501 -102.5zM414.001 25
c90.667 0 166 30.5 226 91.5s90 138.167 90 231.5c0 92.667 -29.833 169.5 -89.5 230.5s-135.167 91.5 -226.5 91.5c-90.667 0 -166 -30.5 -226 -91.5s-90 -137.833 -90 -230.5s30 -169.667 90 -231s135.333 -92 226 -92zM417.001 141
c-57.333 0 -104.167 19.001 -140.5 57.001s-54.5 87.667 -54.5 149c0 59.333 18.333 108.666 55 147.999s82.667 59 138 59c45.333 0 83.5 -12.833 114.5 -38.5s51.5 -63.5 61.5 -113.5l-45 -14c-19.333 81.333 -63 122 -131 122c-42.667 0 -76.834 -15 -102.501 -45
s-38.5 -69.333 -38.5 -118c0 -48 13 -87 39 -117s60.667 -45 104 -45c65.333 0 111.333 36 138 108l40 -23c-33.333 -86 -92.666 -129 -177.999 -129z" />
    <glyph glyph-name="ordfeminine" unicode="&#xaa;" horiz-adv-x="409" 
d="M174 352c-38 0 -68.6689 9.49902 -92.002 28.499s-35 44.5 -35 76.5c0 30 12 55.167 36 75.5s54.667 30.5 92 30.5c43.333 0 81.333 -17 114 -51v63c0 28.667 -8.16699 51.334 -24.5 68.001s-39.166 25 -68.499 25c-54 0 -87.667 -27.667 -101 -83l-43 10
c8.66699 35.333 25.834 63 51.501 83s57.5 30 95.5 30c40.667 0 73.5 -11.5 98.5 -34.5s37.5 -55.167 37.5 -96.5v-217h-46v54c-28.667 -41.333 -67 -62 -115 -62zM177.998 389.999c43.333 0 80.333 22.333 111 67v12c-32 37.333 -69 56 -111 56
c-24.667 0 -44.667 -6.33301 -60 -19s-23 -29 -23 -49s7.66699 -36.167 23 -48.5s35.333 -18.5 60 -18.5z" />
    <glyph glyph-name="guillemotleft" unicode="&#xab;" horiz-adv-x="509" 
d="M246 123l-202 134v52l202 134v-57l-153 -103l153 -103v-57zM456 123l-202 134v52l202 134v-57l-154 -103l154 -103v-57z" />
    <glyph glyph-name="logicalnot" unicode="&#xac;" horiz-adv-x="483" 
d="M357 178v141h-304v50h356v-191h-52z" />
    <glyph glyph-name="uni00AD" unicode="&#xad;" horiz-adv-x="388" 
d="M66 256v53h256v-53h-256z" />
    <glyph glyph-name="registered" unicode="&#xae;" horiz-adv-x="477" 
d="M240 332c-54.667 0 -100.333 18 -137 54s-55 81 -55 135c0 53.333 18.167 97.833 54.5 133.5s81.833 53.5 136.5 53.5s100 -17.833 136 -53.5s54 -80.5 54 -134.5c0 -53.333 -18 -98 -54 -134s-81 -54 -135 -54zM240.001 359c46 0 84.333 15.333 115 46s46 69 46 115
c0 46.667 -15.5 85.334 -46.5 116.001s-69.5 46 -115.5 46s-84.5 -15.333 -115.5 -46s-46.5 -69.334 -46.5 -116.001c0 -46 15.5 -84.333 46.5 -115s69.833 -46 116.5 -46zM163.001 417l0.00195312 215.001h88c23.333 0 41.5 -5.33301 54.5 -16s19.5 -25.334 19.5 -44.001
c0 -37.333 -21.333 -57.666 -64 -60.999l15 -24c12 -18 22.333 -29.667 31 -35s19 -8 31 -8l-1 -27c-18.667 0 -33.334 3.66699 -44.001 11s-24.334 22.666 -41.001 45.999l-23 34h-38v-91h-28zM191.003 533.001h57c32 0 48 12.333 48 37s-16 37 -48 37h-57v-74z" />
    <glyph glyph-name="macron" unicode="&#xaf;" horiz-adv-x="400" 
d="M61 589v49h278v-49h-278z" />
    <glyph glyph-name="degree" unicode="&#xb0;" horiz-adv-x="376" 
d="M188 453c-38 0 -69.5 12.167 -94.5 36.5s-37.5 54.833 -37.5 91.5s12.5 67 37.5 91s56.5 36 94.5 36s69.333 -12 94 -36s37 -54.333 37 -91c0 -37.333 -12.333 -68 -37 -92s-56 -36 -94 -36zM188 492c25.333 0 46.333 8.33301 63 25s25 38 25 64s-8.33301 47.333 -25 64
s-37.667 25 -63 25s-46.5 -8.33301 -63.5 -25s-25.5 -38 -25.5 -64s8.5 -47.333 25.5 -64s38.167 -25 63.5 -25z" />
    <glyph glyph-name="plusminus" unicode="&#xb1;" horiz-adv-x="483" 
d="M268 335h174v-50h-174v-168h-53v168h-174v50h174v168h53v-168zM41 0v50h401v-50h-401z" />
    <glyph glyph-name="uni00B2" unicode="&#xb2;" horiz-adv-x="387" 
d="M42 282l0.000976562 18.001c0 27.333 8 52 24 74s43 43.667 81 65l69 40c50 28.667 75 63.334 75 104.001c0 25.333 -8.5 45 -25.5 59s-40.167 21 -69.5 21c-28.667 0 -52.334 -7.83301 -71.001 -23.5s-28 -35.834 -28 -60.501c0 -16.667 4.33301 -32.667 13 -48l-46 -13
c-10 18.667 -15 39 -15 61c0 36 13.667 65.833 41 89.5s63 35.5 107 35.5c43.333 0 78 -10.667 104 -32s39 -50.333 39 -87c0 -56.667 -32.667 -103 -98 -139l-70 -39c-45.333 -24.667 -69.333 -51.334 -72 -80.001h248v-45h-306z" />
    <glyph glyph-name="uni00B3" unicode="&#xb3;" horiz-adv-x="378" 
d="M191 274c-46.667 0 -83.8311 12.001 -111.498 36.001s-41.5 56 -41.5 96c0 15.333 2.33301 30 7 44l45 -11c-3.33301 -11.333 -5 -22 -5 -32c0 -28 9.83301 -50.333 29.5 -67s44.834 -25 75.501 -25c31.333 0 56.166 7.33301 74.499 22s27.5 35 27.5 61
c0 22.667 -8.66699 40.5 -26 53.5s-41.333 19.5 -72 19.5h-23v41h24c27.333 0 49 6.66699 65 20s24 31.666 24 54.999s-8.16699 41.833 -24.5 55.5s-37.833 20.5 -64.5 20.5c-62 0 -97.667 -32.333 -107 -97l-47 6c5.33301 42.667 21.833 75.334 49.5 98.001
s63.5 34 107.5 34c40 0 72.333 -10.167 97 -30.5s37 -47.833 37 -82.5c0 -26.667 -7.83301 -48.5 -23.5 -65.5s-34.834 -27.5 -57.501 -31.5c27.333 -5.33301 49.166 -16.333 65.499 -33s24.5 -38.334 24.5 -65.001c0 -38 -13.5 -67.833 -40.5 -89.5
s-63.5 -32.5 -109.5 -32.5z" />
    <glyph glyph-name="acute" unicode="&#xb4;" horiz-adv-x="400" 
d="M160 539l108 145h69l-124 -145h-53z" />
    <glyph glyph-name="uni00B5" unicode="&#xb5;" horiz-adv-x="554" 
d="M80 -210v685h57v-288c0 -48 11.333 -84.833 34 -110.5s55.667 -38.5 99 -38.5c42 0 77 13 105 39s42 61 42 105v293h57v-475h-57v77c-14.667 -27.333 -35.5 -48.833 -62.5 -64.5s-57.5 -23.5 -91.5 -23.5c-60 0 -103 19.667 -129 59l3 -258h-57z" />
    <glyph glyph-name="paragraph" unicode="&#xb6;" horiz-adv-x="815" 
d="M422 0c-101.333 0 -187.667 30.5 -259 91.5s-107 146.833 -107 257.5c0 56.667 10.167 107.5 30.5 152.5s47.833 81.333 82.5 109s73.5 48.667 116.5 63s88.5 21.5 136.5 21.5h149v-695h-149zM655.999 0v695h64v-695h-64z" />
    <glyph glyph-name="periodcentered" unicode="&#xb7;" horiz-adv-x="218" 
d="M109 247c-12 0 -22.167 4.16699 -30.5 12.5s-12.5 18.5 -12.5 30.5s4.16699 22 12.5 30s18.5 12 30.5 12s22.167 -4 30.5 -12s12.5 -18 12.5 -30s-4.16699 -22.167 -12.5 -30.5s-18.5 -12.5 -30.5 -12.5z" />
    <glyph glyph-name="cedilla" unicode="&#xb8;" horiz-adv-x="400" 
d="M129 -160l44 164h56l-47 -164h-53z" />
    <glyph glyph-name="uni00B9" unicode="&#xb9;" horiz-adv-x="247" 
d="M116 282v329c-16 -23.333 -50.333 -35 -103 -35v44c73.333 -1.33301 110 23.667 110 75h42v-413h-49z" />
    <glyph glyph-name="ordmasculine" unicode="&#xba;" horiz-adv-x="430" 
d="M215 352c-50.667 0 -91.834 16.667 -123.501 50s-47.5 76 -47.5 128s15.833 94.667 47.5 128s72.834 50 123.501 50s91.834 -16.667 123.501 -50s47.5 -76 47.5 -128s-15.833 -94.667 -47.5 -128s-72.834 -50 -123.501 -50zM215 392c37.333 0 67.166 12.833 89.499 38.5
s33.5 58.834 33.5 99.501s-11.167 73.834 -33.5 99.501s-52.166 38.5 -89.499 38.5c-36.667 0 -66.334 -12.833 -89.001 -38.5s-34 -58.834 -34 -99.501s11.333 -73.834 34 -99.501s52.334 -38.5 89.001 -38.5z" />
    <glyph glyph-name="guillemotright" unicode="&#xbb;" horiz-adv-x="509" 
d="M54 123v57l153 103l-153 102v58l202 -134v-52zM264 123v57l153 103l-153 102v58l202 -134v-52z" />
    <glyph glyph-name="onequarter" unicode="&#xbc;" horiz-adv-x="819" 
d="M116 282v329c-16 -23.333 -50.333 -35 -103 -35v44c73.333 -1.33301 110 23.667 110 75h42v-413h-49zM123 0l477 695h51l-477 -695h-51zM695 -1l-0.000976562 102h-211v49c89.333 92 140.333 179.333 153 262h50c-15.333 -94 -66.666 -183 -153.999 -267h162v105h47v-105
h64v-44h-64v-102h-47z" />
    <glyph glyph-name="onehalf" unicode="&#xbd;" horiz-adv-x="903" 
d="M116 282v329c-16 -23.333 -50.333 -35 -103 -35v44c73.333 -1.33301 110 23.667 110 75h42v-413h-49zM123 0l477 695h51l-477 -695h-51zM557 -1l0.000976562 18c0 27.333 8.16699 51.833 24.5 73.5s43.5 43.5 81.5 65.5l69 39c50 28.667 75 63.334 75 104.001
c0 25.333 -8.66699 45.166 -26 59.499s-40.333 21.5 -69 21.5s-52.334 -8 -71.001 -24s-28 -36.333 -28 -61c0 -15.333 4 -31 12 -47l-45 -13c-10 18 -15 38 -15 60c0 36 13.667 66 41 90s63 36 107 36c42.667 0 77.167 -10.667 103.5 -32s39.5 -50.333 39.5 -87
c0 -56.667 -32.667 -103 -98 -139l-70 -39c-45.333 -25.333 -69.333 -52.333 -72 -81h248v-44h-307z" />
    <glyph glyph-name="threequarters" unicode="&#xbe;" horiz-adv-x="951" 
d="M191 274c-46.667 0 -83.8311 12.001 -111.498 36.001s-41.5 56 -41.5 96c0 15.333 2.33301 30 7 44l45 -11c-3.33301 -11.333 -5 -22 -5 -32c0 -28 9.83301 -50.333 29.5 -67s44.834 -25 75.501 -25c31.333 0 56.166 7.33301 74.499 22s27.5 35 27.5 61
c0 22.667 -8.66699 40.5 -26 53.5s-41.333 19.5 -72 19.5h-23v41h24c27.333 0 49 6.66699 65 20s24 31.666 24 54.999s-8.16699 41.833 -24.5 55.5s-37.833 20.5 -64.5 20.5c-62 0 -97.667 -32.333 -107 -97l-47 6c5.33301 42.667 21.833 75.334 49.5 98.001
s63.5 34 107.5 34c40 0 72.333 -10.167 97 -30.5s37 -47.833 37 -82.5c0 -26.667 -7.83301 -48.5 -23.5 -65.5s-34.834 -27.5 -57.501 -31.5c27.333 -5.33301 49.166 -16.333 65.499 -33s24.5 -38.334 24.5 -65.001c0 -38 -13.5 -67.833 -40.5 -89.5
s-63.5 -32.5 -109.5 -32.5zM254.003 0.000976562l477 695h51l-477 -695h-51zM827.003 -0.999023v102h-211v49c88.667 92.667 139.334 180 152.001 262h51c-14.667 -93.333 -66.334 -182.333 -155.001 -267h163v105h46v-105h64v-44h-64v-102h-46z" />
    <glyph glyph-name="questiondown" unicode="&#xbf;" horiz-adv-x="539" 
d="M294 485c11.333 0 21.166 -4.16699 29.499 -12.5s12.5 -18.5 12.5 -30.5s-4.16699 -22 -12.5 -30s-18.166 -12 -29.499 -12c-12.667 0 -23 4 -31 12s-12 18 -12 30s4 22.167 12 30.5s18.333 12.5 31 12.5zM318 306c0 -39.333 -5.66602 -71.167 -16.999 -95.5
s-33 -48.833 -65 -73.5c-48.667 -36.667 -81.667 -67.167 -99 -91.5s-26 -52.833 -26 -85.5c0 -43.333 15 -77.666 45 -102.999s68.667 -38 116 -38c45.333 0 83.666 14 114.999 42s47 63.667 47 107c0 29.333 -7 56.333 -21 81l55 21c17.333 -30 26 -64 26 -102
c0 -57.333 -21.667 -105 -65 -143s-96.666 -57 -159.999 -57c-66.667 0 -119.834 17 -159.501 51s-59.5 80.333 -59.5 139c0 42 11 78.167 33 108.5s59.667 65.166 113 104.499c26.667 19.333 43.667 38.333 51 57s11.333 44.667 12 78h59z" />
    <glyph glyph-name="Agrave" unicode="&#xc0;" horiz-adv-x="666" 
d="M373 754h-54l-122 145h70zM589 0l-87 217h-338l-86 -217h-61l278 695h76l278 -695h-60zM185 268h297l-149 372z" />
    <glyph glyph-name="Aacute" unicode="&#xc1;" horiz-adv-x="666" 
d="M471 899l-124 -145h-53l108 145h69zM589 0l-87 217h-338l-86 -217h-61l278 695h76l278 -695h-60zM185 268h297l-149 372z" />
    <glyph glyph-name="Acircumflex" unicode="&#xc2;" horiz-adv-x="666" 
d="M332 855l-81 -101h-56l110 145h56l109 -145h-57zM589 0l-87 217h-338l-86 -217h-61l278 695h76l278 -695h-60zM185 268h297l-149 372z" />
    <glyph glyph-name="Atilde" unicode="&#xc3;" horiz-adv-x="666" 
d="M273 826c-26 0 -40 -18.667 -42 -56h-46c0.666992 32.667 8.5 58.167 23.5 76.5s35.167 27.5 60.5 27.5c22.667 0 45.667 -9.33301 69 -28s41 -28 53 -28c24 0 37.667 18.667 41 56h46c-1.33301 -32.667 -9.5 -58 -24.5 -76s-35.167 -27 -60.5 -27
c-22.667 0 -45.5 9.16699 -68.5 27.5s-40.167 27.5 -51.5 27.5zM589 0l-87 217h-338l-86 -217h-61l278 695h76l278 -695h-60zM185 268h297l-149 372z" />
    <glyph glyph-name="Adieresis" unicode="&#xc4;" horiz-adv-x="666" 
d="M245 787c-11.333 0 -20.666 3.8291 -27.999 11.4961s-11 16.834 -11 27.501s3.66699 19.834 11 27.501s16.666 11.5 27.999 11.5s20.833 -3.66699 28.5 -11s11.5 -16.666 11.5 -27.999s-3.83301 -20.666 -11.5 -27.999s-17.167 -11 -28.5 -11zM423 786.996
c-11.333 0 -20.833 3.66699 -28.5 11s-11.5 16.666 -11.5 27.999s3.83301 20.666 11.5 27.999s17.167 11 28.5 11s20.666 -3.66699 27.999 -11s11 -16.666 11 -27.999s-3.66699 -20.666 -11 -27.999s-16.666 -11 -27.999 -11zM589 -0.00390625l-87 217h-338l-86 -217h-61
l278 695h76l278 -695h-60zM185 267.996h297l-149 372z" />
    <glyph glyph-name="Aring" unicode="&#xc5;" horiz-adv-x="666" 
d="M589 0l-87 216.999h-338l-86 -217h-61l271 678c-30 16.667 -45 42.334 -45 77.001c0 24.667 8.66699 45.167 26 61.5s39 24.5 65 24.5c25.333 0 46.833 -8.16699 64.5 -24.5s26.5 -36.833 26.5 -61.5c0 -35.333 -15.667 -61.333 -47 -78l271 -677h-60zM334 802.999
c-14.667 0 -26.5 -4.49902 -35.5 -13.499s-13.5 -20.5 -13.5 -34.5s4.5 -25.667 13.5 -35s20.833 -14 35.5 -14c14 0 25.667 4.66699 35 14s14 21 14 35c0 13.333 -4.66699 24.666 -14 33.999s-21 14 -35 14zM185 268h297l-149 372z" />
    <glyph glyph-name="AE" unicode="&#xc6;" horiz-adv-x="985" 
d="M530 51h408v-51h-466v234h-286l-117 -234h-60l345 695h580v-51h-404v-266h334v-51h-334v-276zM212 285h260v355h-83z" />
    <glyph glyph-name="Ccedilla" unicode="&#xc7;" horiz-adv-x="745" 
d="M698 233c-41.333 -154 -136 -235.665 -284 -244.998l-42 -148h-53l40 148c-89.333 7.33301 -162.166 44.166 -218.499 110.499s-84.5 149.166 -84.5 248.499c0 104.667 31.333 191 94 259s142 102 238 102c79.333 0 144.5 -22.5 195.5 -67.5
s86.833 -109.833 107.5 -194.5l-56 -17c-40 152 -122.333 228 -247 228c-79.333 0 -144.333 -29 -195 -87s-76 -132.333 -76 -223c0 -90 25.167 -164 75.5 -222s115.166 -87 194.499 -87c132 0 216.667 69.667 254 209z" />
    <glyph glyph-name="Egrave" unicode="&#xc8;" horiz-adv-x="607" 
d="M309 754l-122 145h70l106 -145h-54zM94 0v695h462v-51h-404v-266h334v-51h-334v-276h408v-51h-466z" />
    <glyph glyph-name="Eacute" unicode="&#xc9;" horiz-adv-x="607" 
d="M284 754l108 145h69l-124 -145h-53zM94 0v695h462v-51h-404v-266h334v-51h-334v-276h408v-51h-466z" />
    <glyph glyph-name="Ecircumflex" unicode="&#xca;" horiz-adv-x="607" 
d="M185 754l110 145h56l109 -145h-57l-81 101l-81 -101h-56zM94 0v695h462v-51h-404v-266h334v-51h-334v-276h408v-51h-466z" />
    <glyph glyph-name="Edieresis" unicode="&#xcb;" horiz-adv-x="607" 
d="M235 787c-11.333 0 -20.666 3.8291 -27.999 11.4961s-11 16.834 -11 27.501s3.66699 19.834 11 27.501s16.666 11.5 27.999 11.5s20.833 -3.66699 28.5 -11s11.5 -16.666 11.5 -27.999s-3.83301 -20.666 -11.5 -27.999s-17.167 -11 -28.5 -11zM413 786.996
c-11.333 0 -20.833 3.66699 -28.5 11s-11.5 16.666 -11.5 27.999s3.83301 20.666 11.5 27.999s17.167 11 28.5 11s20.666 -3.66699 27.999 -11s11 -16.666 11 -27.999s-3.66699 -20.666 -11 -27.999s-16.666 -11 -27.999 -11zM94 -0.00390625v695h462v-51h-404v-266h334v-51
h-334v-276h408v-51h-466z" />
    <glyph glyph-name="Igrave" unicode="&#xcc;" horiz-adv-x="246" 
d="M109 754l-122 145h70l106 -145h-54zM94 0v695h58v-695h-58z" />
    <glyph glyph-name="Iacute" unicode="&#xcd;" horiz-adv-x="246" 
d="M84 754l108 145h69l-124 -145h-53zM94 0v695h58v-695h-58z" />
    <glyph glyph-name="Icircumflex" unicode="&#xce;" horiz-adv-x="246" 
d="M-15 754l110 145h56l109 -145h-57l-81 101l-81 -101h-56zM94 0v695h58v-695h-58z" />
    <glyph glyph-name="Idieresis" unicode="&#xcf;" horiz-adv-x="246" 
d="M35 787c-11.333 0 -20.666 3.8291 -27.999 11.4961s-11 16.834 -11 27.501s3.66699 19.834 11 27.501s16.666 11.5 27.999 11.5s20.833 -3.66699 28.5 -11s11.5 -16.666 11.5 -27.999s-3.83301 -20.666 -11.5 -27.999s-17.167 -11 -28.5 -11zM213 786.996
c-11.333 0 -20.833 3.66699 -28.5 11s-11.5 16.666 -11.5 27.999s3.83301 20.666 11.5 27.999s17.167 11 28.5 11s20.666 -3.66699 27.999 -11s11 -16.666 11 -27.999s-3.66699 -20.666 -11 -27.999s-16.666 -11 -27.999 -11zM94 -0.00390625v695h58v-695h-58z" />
    <glyph glyph-name="Eth" unicode="&#xd0;" horiz-adv-x="743" 
d="M327 695c100 0 185.001 -30.333 255.001 -91s105 -146 105 -256c0 -56 -10 -106.5 -30 -151.5s-46.833 -81.5 -80.5 -109.5s-71.834 -49.5 -114.501 -64.5s-87.667 -22.5 -135 -22.5h-233v331h-68v49h68v315h233zM317.001 51c88 0 161.501 24.832 220.501 74.499
s88.5 123.834 88.5 222.501c0 99.333 -29.333 173.5 -88 222.5s-132.334 73.5 -221.001 73.5h-165v-264h204v-49h-204v-280h165z" />
    <glyph glyph-name="Ntilde" unicode="&#xd1;" horiz-adv-x="725" 
d="M218 770c0.666992 32.667 8.5 58.167 23.5 76.5s35.167 27.5 60.5 27.5c22.667 0 45.667 -9.33301 69 -28s41 -28 53 -28c24 0 37.667 18.667 41 56h46c-1.33301 -32.667 -9.5 -58 -24.5 -76s-35.167 -27 -60.5 -27c-22.667 0 -45.5 9.16699 -68.5 27.5
s-40.167 27.5 -51.5 27.5c-25.333 0 -39.333 -18.667 -42 -56h-46zM94 0v695h64l418 -607v607h56v-695h-64l-419 607v-607h-55z" />
    <glyph glyph-name="Ograve" unicode="&#xd2;" horiz-adv-x="794" 
d="M382 754l-122 145h70l106 -145h-54zM397 -13c-98.667 0 -180.167 33.833 -244.5 101.5s-96.5 153.834 -96.5 258.501s32 191 96 259s145.667 102 245 102c98.667 0 180.167 -34 244.5 -102s96.5 -154.333 96.5 -259s-32.167 -190.834 -96.5 -258.501
s-145.833 -101.5 -244.5 -101.5zM397 38c81.333 0 148.333 29 201 87s79 132 79 222s-26.333 164.167 -79 222.5s-119.667 87.5 -201 87.5s-148.333 -29.167 -201 -87.5s-79 -132.5 -79 -222.5s26.333 -164 79 -222s119.667 -87 201 -87z" />
    <glyph glyph-name="Oacute" unicode="&#xd3;" horiz-adv-x="794" 
d="M357 754l108 145h69l-124 -145h-53zM397 -13c-98.667 0 -180.167 33.833 -244.5 101.5s-96.5 153.834 -96.5 258.501s32 191 96 259s145.667 102 245 102c98.667 0 180.167 -34 244.5 -102s96.5 -154.333 96.5 -259s-32.167 -190.834 -96.5 -258.501
s-145.833 -101.5 -244.5 -101.5zM397 38c81.333 0 148.333 29 201 87s79 132 79 222s-26.333 164.167 -79 222.5s-119.667 87.5 -201 87.5s-148.333 -29.167 -201 -87.5s-79 -132.5 -79 -222.5s26.333 -164 79 -222s119.667 -87 201 -87z" />
    <glyph glyph-name="Ocircumflex" unicode="&#xd4;" horiz-adv-x="794" 
d="M258 754l110 145h56l109 -145h-57l-81 101l-81 -101h-56zM397 -13c-98.667 0 -180.167 33.833 -244.5 101.5s-96.5 153.834 -96.5 258.501s32 191 96 259s145.667 102 245 102c98.667 0 180.167 -34 244.5 -102s96.5 -154.333 96.5 -259s-32.167 -190.834 -96.5 -258.501
s-145.833 -101.5 -244.5 -101.5zM397 38c81.333 0 148.333 29 201 87s79 132 79 222s-26.333 164.167 -79 222.5s-119.667 87.5 -201 87.5s-148.333 -29.167 -201 -87.5s-79 -132.5 -79 -222.5s26.333 -164 79 -222s119.667 -87 201 -87z" />
    <glyph glyph-name="Otilde" unicode="&#xd5;" horiz-adv-x="794" 
d="M248 770c0.666992 32.667 8.5 58.167 23.5 76.5s35.167 27.5 60.5 27.5c22.667 0 45.667 -9.33301 69 -28s41 -28 53 -28c24 0 37.667 18.667 41 56h46c-1.33301 -32.667 -9.5 -58 -24.5 -76s-35.167 -27 -60.5 -27c-22.667 0 -45.5 9.16699 -68.5 27.5
s-40.167 27.5 -51.5 27.5c-25.333 0 -39.333 -18.667 -42 -56h-46zM397 -13c-98.667 0 -180.167 33.833 -244.5 101.5s-96.5 153.834 -96.5 258.501s32 191 96 259s145.667 102 245 102c98.667 0 180.167 -34 244.5 -102s96.5 -154.333 96.5 -259
s-32.167 -190.834 -96.5 -258.501s-145.833 -101.5 -244.5 -101.5zM397 38c81.333 0 148.333 29 201 87s79 132 79 222s-26.333 164.167 -79 222.5s-119.667 87.5 -201 87.5s-148.333 -29.167 -201 -87.5s-79 -132.5 -79 -222.5s26.333 -164 79 -222s119.667 -87 201 -87z
" />
    <glyph glyph-name="Odieresis" unicode="&#xd6;" horiz-adv-x="794" 
d="M308 787c-10.667 0 -19.834 3.8291 -27.501 11.4961s-11.5 16.834 -11.5 27.501s3.83301 19.834 11.5 27.501s16.834 11.5 27.501 11.5c11.333 0 20.833 -3.66699 28.5 -11s11.5 -16.666 11.5 -27.999s-3.83301 -20.666 -11.5 -27.999s-17.167 -11 -28.5 -11z
M486 786.996c-11.333 0 -20.833 3.66699 -28.5 11s-11.5 16.666 -11.5 27.999s3.83301 20.666 11.5 27.999s17.167 11 28.5 11s20.666 -3.66699 27.999 -11s11 -16.666 11 -27.999s-3.66699 -20.666 -11 -27.999s-16.666 -11 -27.999 -11zM397 -13.0039
c-98.667 0 -180.167 33.833 -244.5 101.5s-96.5 153.834 -96.5 258.501s32 191 96 259s145.667 102 245 102c98.667 0 180.167 -34 244.5 -102s96.5 -154.333 96.5 -259s-32.167 -190.834 -96.5 -258.501s-145.833 -101.5 -244.5 -101.5zM397 37.9961
c81.333 0 148.333 29 201 87s79 132 79 222s-26.333 164.167 -79 222.5s-119.667 87.5 -201 87.5s-148.333 -29.167 -201 -87.5s-79 -132.5 -79 -222.5s26.333 -164 79 -222s119.667 -87 201 -87z" />
    <glyph glyph-name="multiply" unicode="&#xd7;" horiz-adv-x="483" 
d="M413 427l-136 -136l136 -136l-34 -36l-137 137l-137 -137l-35 36l136 136l-136 136l35 35l137 -136l136 136z" />
    <glyph glyph-name="Oslash" unicode="&#xd8;" horiz-adv-x="794" 
d="M738 695l-87.999 -97.999c58.667 -68 88 -151.333 88 -250c0 -104.667 -32.167 -190.834 -96.5 -258.501s-145.833 -101.5 -244.5 -101.5c-85.333 0 -159 26.333 -221 79l-58 -66h-62l88 98c-58.667 66 -88 149 -88 249c0 104.667 32 191 96 259s145.667 102 245 102
c85.333 0 158.666 -26.333 219.999 -79l59 66h62zM117.001 347.001c0 -80.667 21.667 -149 65 -205l398 446c-50 46 -111 69 -183 69c-81.333 0 -148.333 -29.167 -201 -87.5s-79 -132.5 -79 -222.5zM677.001 347.001c0 81.333 -21.667 150 -65 206l-398 -446
c50 -46 111 -69 183 -69c81.333 0 148.333 29 201 87s79 132 79 222z" />
    <glyph glyph-name="Ugrave" unicode="&#xd9;" horiz-adv-x="704" 
d="M338 754l-122 145h70l106 -145h-54zM352 -13c-85.333 0 -151.334 23.998 -198.001 71.998s-70 115.333 -70 202v434h58v-435c0 -71.333 17.833 -126.166 53.5 -164.499s87.834 -57.5 156.501 -57.5c68 0 120 19.333 156 58s54 93.334 54 164.001v435h58v-434
c0 -86.667 -23.167 -154 -69.5 -202s-112.5 -72 -198.5 -72z" />
    <glyph glyph-name="Uacute" unicode="&#xda;" horiz-adv-x="704" 
d="M312 754l108 145h69l-124 -145h-53zM352 -13c-85.333 0 -151.334 23.998 -198.001 71.998s-70 115.333 -70 202v434h58v-435c0 -71.333 17.833 -126.166 53.5 -164.499s87.834 -57.5 156.501 -57.5c68 0 120 19.333 156 58s54 93.334 54 164.001v435h58v-434
c0 -86.667 -23.167 -154 -69.5 -202s-112.5 -72 -198.5 -72z" />
    <glyph glyph-name="Ucircumflex" unicode="&#xdb;" horiz-adv-x="704" 
d="M214 754l110 145h56l109 -145h-57l-81 101l-81 -101h-56zM352 -13c-85.333 0 -151.334 23.998 -198.001 71.998s-70 115.333 -70 202v434h58v-435c0 -71.333 17.833 -126.166 53.5 -164.499s87.834 -57.5 156.501 -57.5c68 0 120 19.333 156 58s54 93.334 54 164.001v435
h58v-434c0 -86.667 -23.167 -154 -69.5 -202s-112.5 -72 -198.5 -72z" />
    <glyph glyph-name="Udieresis" unicode="&#xdc;" horiz-adv-x="704" 
d="M264 787c-10.667 0 -19.834 3.8291 -27.501 11.4961s-11.5 16.834 -11.5 27.501s3.83301 19.834 11.5 27.501s16.834 11.5 27.501 11.5c11.333 0 20.833 -3.66699 28.5 -11s11.5 -16.666 11.5 -27.999s-3.83301 -20.666 -11.5 -27.999s-17.167 -11 -28.5 -11z
M442 786.996c-11.333 0 -20.833 3.66699 -28.5 11s-11.5 16.666 -11.5 27.999s3.83301 20.666 11.5 27.999s17.167 11 28.5 11s20.666 -3.66699 27.999 -11s11 -16.666 11 -27.999s-3.66699 -20.666 -11 -27.999s-16.666 -11 -27.999 -11zM352 -13.0039
c-85.333 0 -151.334 23.998 -198.001 71.998s-70 115.333 -70 202v434h58v-435c0 -71.333 17.833 -126.166 53.5 -164.499s87.834 -57.5 156.501 -57.5c68 0 120 19.333 156 58s54 93.334 54 164.001v435h58v-434c0 -86.667 -23.167 -154 -69.5 -202s-112.5 -72 -198.5 -72z
" />
    <glyph glyph-name="Yacute" unicode="&#xdd;" horiz-adv-x="617" 
d="M271 754l108 145h69l-124 -145h-53zM278 0v295l-271 400h70l231 -346l233 346h68l-273 -400v-295h-58z" />
    <glyph glyph-name="Thorn" unicode="&#xde;" horiz-adv-x="633" 
d="M94 0l-0.000976562 695h58v-141h202c72.667 0 129.334 -17.833 170.001 -53.5s61 -84.5 61 -146.5s-20.5 -110.667 -61.5 -146s-97.5 -53 -169.5 -53h-202v-155h-58zM151.999 206h202c54.667 0 96.667 13 126 39s44 62.333 44 109c0 48 -14.667 84.833 -44 110.5
s-71.333 38.5 -126 38.5h-202v-297z" />
    <glyph glyph-name="germandbls" unicode="&#xdf;" horiz-adv-x="607" 
d="M399 -11c-45.333 0 -84.668 9 -118.001 27s-57.333 45.667 -72 83l47 31c21.333 -62 69.333 -93 144 -93c35.333 0 64 7.83301 86 23.5s33 38.5 33 68.5c0 24 -6.5 41.667 -19.5 53s-36.833 23 -71.5 35l-34 12c-20.667 6.66699 -34.5 11.334 -41.5 14.001
s-18.167 7.83398 -33.5 15.501s-25.833 15 -31.5 22s-11.334 16.667 -17.001 29s-8.5 26.5 -8.5 42.5c0 16.667 5.33301 33 16 49s23.5 30.333 38.5 43l45 37c15 12 27.833 25.333 38.5 40s16 29.334 16 44.001c0 30 -11.5 52.833 -34.5 68.5s-53.5 23.5 -91.5 23.5
c-47.333 0 -84.5 -14.167 -111.5 -42.5s-40.5 -70.833 -40.5 -127.5v-487h-58v493c0 68.667 19.5 121.5 58.5 158.5s90.5 55.5 154.5 55.5c52.667 0 96.167 -11.667 130.5 -35s51.5 -57 51.5 -101c0 -20 -5.5 -39 -16.5 -57s-24.167 -33.5 -39.5 -46.5l-46 -37.5
c-15.333 -12 -28.5 -24.5 -39.5 -37.5s-16.5 -25.5 -16.5 -37.5c0 -5.33301 0.333008 -10.166 1 -14.499s2.16699 -8.33301 4.5 -12s4.5 -6.83398 6.5 -9.50098s5.16699 -5.5 9.5 -8.5l10 -7c2.33301 -1.66699 6.83301 -3.66699 13.5 -6l14 -5
c2.66699 -1 8 -2.83301 16 -5.5s13.333 -4.33398 16 -5.00098l34 -12c22 -7.33301 39.333 -14 52 -20s26.334 -14.333 41.001 -25s25.334 -23.834 32.001 -39.501s10 -34.167 10 -55.5c0 -44.667 -16.5 -79.334 -49.5 -104.001s-75.833 -37 -128.5 -37z" />
    <glyph glyph-name="agrave" unicode="&#xe0;" horiz-adv-x="513" 
d="M242 539l-122 145h70l106 -145h-54zM221 -12c-52 0 -94.002 13.332 -126.002 39.999s-48 62.334 -48 107.001c0 41.333 16.333 76.333 49 105s74.334 43 125.001 43c62 0 115.667 -24 161 -72v89c0 42.667 -11.167 76.167 -33.5 100.5s-53.166 36.5 -92.499 36.5
c-80 0 -129.667 -41.333 -149 -124l-52 14c11.333 49.333 35 88.333 71 117s79.667 43 131 43c54.667 0 98.667 -16.167 132 -48.5s50 -77.5 50 -135.5v-303h-57v77c-39.333 -59.333 -93 -89 -161 -89zM225.998 35.999c63.333 0 115.333 31.998 156 95.998v20
c-43.333 54.667 -95.333 82 -156 82c-36 0 -64.833 -9.16699 -86.5 -27.5s-32.5 -42.166 -32.5 -71.499s10.833 -53.166 32.5 -71.499s50.5 -27.5 86.5 -27.5z" />
    <glyph glyph-name="aacute" unicode="&#xe1;" horiz-adv-x="513" 
d="M217 539l108 145h69l-124 -145h-53zM221 -12c-52 0 -94.002 13.332 -126.002 39.999s-48 62.334 -48 107.001c0 41.333 16.333 76.333 49 105s74.334 43 125.001 43c62 0 115.667 -24 161 -72v89c0 42.667 -11.167 76.167 -33.5 100.5s-53.166 36.5 -92.499 36.5
c-80 0 -129.667 -41.333 -149 -124l-52 14c11.333 49.333 35 88.333 71 117s79.667 43 131 43c54.667 0 98.667 -16.167 132 -48.5s50 -77.5 50 -135.5v-303h-57v77c-39.333 -59.333 -93 -89 -161 -89zM225.998 35.999c63.333 0 115.333 31.998 156 95.998v20
c-43.333 54.667 -95.333 82 -156 82c-36 0 -64.833 -9.16699 -86.5 -27.5s-32.5 -42.166 -32.5 -71.499s10.833 -53.166 32.5 -71.499s50.5 -27.5 86.5 -27.5z" />
    <glyph glyph-name="acircumflex" unicode="&#xe2;" horiz-adv-x="513" 
d="M118 539l110 145h56l109 -145h-57l-81 101l-81 -101h-56zM221 -12c-52 0 -94.002 13.332 -126.002 39.999s-48 62.334 -48 107.001c0 41.333 16.333 76.333 49 105s74.334 43 125.001 43c62 0 115.667 -24 161 -72v89c0 42.667 -11.167 76.167 -33.5 100.5
s-53.166 36.5 -92.499 36.5c-80 0 -129.667 -41.333 -149 -124l-52 14c11.333 49.333 35 88.333 71 117s79.667 43 131 43c54.667 0 98.667 -16.167 132 -48.5s50 -77.5 50 -135.5v-303h-57v77c-39.333 -59.333 -93 -89 -161 -89zM225.998 35.999
c63.333 0 115.333 31.998 156 95.998v20c-43.333 54.667 -95.333 82 -156 82c-36 0 -64.833 -9.16699 -86.5 -27.5s-32.5 -42.166 -32.5 -71.499s10.833 -53.166 32.5 -71.499s50.5 -27.5 86.5 -27.5z" />
    <glyph glyph-name="atilde" unicode="&#xe3;" horiz-adv-x="513" 
d="M108 555c0.666992 32.667 8.5 58.167 23.5 76.5s35.167 27.5 60.5 27.5c22.667 0 45.667 -9.33301 69 -28s41 -28 53 -28c24 0 37.667 18.667 41 56h46c-1.33301 -32.667 -9.5 -58 -24.5 -76s-35.167 -27 -60.5 -27c-22.667 0 -45.5 9.16699 -68.5 27.5
s-40.167 27.5 -51.5 27.5c-25.333 0 -39.333 -18.667 -42 -56h-46zM221 -12c-52 0 -94.002 13.332 -126.002 39.999s-48 62.334 -48 107.001c0 41.333 16.333 76.333 49 105s74.334 43 125.001 43c62 0 115.667 -24 161 -72v89c0 42.667 -11.167 76.167 -33.5 100.5
s-53.166 36.5 -92.499 36.5c-80 0 -129.667 -41.333 -149 -124l-52 14c11.333 49.333 35 88.333 71 117s79.667 43 131 43c54.667 0 98.667 -16.167 132 -48.5s50 -77.5 50 -135.5v-303h-57v77c-39.333 -59.333 -93 -89 -161 -89zM225.998 35.999
c63.333 0 115.333 31.998 156 95.998v20c-43.333 54.667 -95.333 82 -156 82c-36 0 -64.833 -9.16699 -86.5 -27.5s-32.5 -42.166 -32.5 -71.499s10.833 -53.166 32.5 -71.499s50.5 -27.5 86.5 -27.5z" />
    <glyph glyph-name="adieresis" unicode="&#xe4;" horiz-adv-x="513" 
d="M168 572c-10.667 0 -19.834 3.66699 -27.501 11s-11.5 16.666 -11.5 27.999s3.83301 20.666 11.5 27.999s16.834 11 27.501 11c11.333 0 20.833 -3.66699 28.5 -11s11.5 -16.666 11.5 -27.999s-3.83301 -20.666 -11.5 -27.999s-17.167 -11 -28.5 -11zM346 572
c-11.333 0 -20.833 3.66699 -28.5 11s-11.5 16.666 -11.5 27.999s3.83301 20.666 11.5 27.999s17.167 11 28.5 11s20.666 -3.66699 27.999 -11s11 -16.666 11 -27.999s-3.66699 -20.666 -11 -27.999s-16.666 -11 -27.999 -11zM221 -12c-52 0 -94.002 13.332 -126.002 39.999
s-48 62.334 -48 107.001c0 41.333 16.333 76.333 49 105s74.334 43 125.001 43c62 0 115.667 -24 161 -72v89c0 42.667 -11.167 76.167 -33.5 100.5s-53.166 36.5 -92.499 36.5c-80 0 -129.667 -41.333 -149 -124l-52 14c11.333 49.333 35 88.333 71 117s79.667 43 131 43
c54.667 0 98.667 -16.167 132 -48.5s50 -77.5 50 -135.5v-303h-57v77c-39.333 -59.333 -93 -89 -161 -89zM225.998 35.999c63.333 0 115.333 31.998 156 95.998v20c-43.333 54.667 -95.333 82 -156 82c-36 0 -64.833 -9.16699 -86.5 -27.5s-32.5 -42.166 -32.5 -71.499
s10.833 -53.166 32.5 -71.499s50.5 -27.5 86.5 -27.5z" />
    <glyph glyph-name="aring" unicode="&#xe5;" horiz-adv-x="513" 
d="M318 479c37.333 -10.667 66.8301 -31.167 88.4971 -61.5s32.5 -68.5 32.5 -114.5v-303h-57v77c-39.333 -59.333 -93 -89 -161 -89c-52 0 -94 13.333 -126 40s-48 62.334 -48 107.001c0 41.333 16.333 76.333 49 105s74.334 43 125.001 43c62 0 115.667 -24 161 -72v89
c0 42.667 -11.167 76.167 -33.5 100.5s-53.166 36.5 -92.499 36.5c-80 0 -129.667 -41.333 -149 -124l-52 14c18.667 80 65.334 130.667 140.001 152c-19.333 17.333 -29 39 -29 65c0 24.667 8.66699 45.334 26 62.001s39 25 65 25c25.333 0 46.833 -8.33301 64.5 -25
s26.5 -37.334 26.5 -62.001c0 -26.667 -10 -48.334 -30 -65.001zM256.997 592c-14.667 0 -26.5 -4.5 -35.5 -13.5s-13.5 -20.5 -13.5 -34.5s4.5 -25.667 13.5 -35s20.833 -14 35.5 -14c14 0 25.667 4.66699 35 14s14 21 14 35s-4.66699 25.5 -14 34.5s-21 13.5 -35 13.5z
M381.997 132v19.998c-43.333 54.667 -95.333 82 -156 82c-36 0 -64.833 -9.16699 -86.5 -27.5s-32.5 -42.166 -32.5 -71.499s10.833 -53.166 32.5 -71.499s50.5 -27.5 86.5 -27.5c63.333 0 115.333 32 156 96z" />
    <glyph glyph-name="ae" unicode="&#xe6;" horiz-adv-x="873" 
d="M781 156l44.999 -27.9971c-46 -92.667 -117 -139 -213 -139c-46.667 0 -87.5 11.333 -122.5 34s-61.5 54 -79.5 94c-48.667 -85.333 -112.334 -128 -191.001 -128c-51.333 0 -93 13.167 -125 39.5s-48 61.833 -48 106.5c0 41.333 16.333 76.333 49 105
s74.334 43 125.001 43c32.667 0 63.334 -6.16699 92.001 -18.5s51.667 -26.833 69 -43.5v79c0 42.667 -11.167 76.167 -33.5 100.5s-53.166 36.5 -92.499 36.5c-80 0 -129.667 -41.333 -149 -124l-52 14c11.333 49.333 35 88.166 71 116.499s79.667 42.5 131 42.5
c40 0 74.5 -9.16699 103.5 -27.5s49.5 -44.833 61.5 -79.5c38 71.333 99.667 107 185 107c66 0 118.167 -21.333 156.5 -64s57.5 -99.334 57.5 -170.001c0 -10.667 -0.333008 -18.334 -1 -23.001h-381c1.33301 -57.333 17.666 -103.5 48.999 -138.5s73 -52.5 125 -52.5
c76 0 132 39.333 168 118zM605.999 437.003c-46 0 -83.499 -14.333 -112.499 -43s-46.5 -68 -52.5 -118h321c-2.66699 52 -17.334 91.833 -44.001 119.5s-64 41.5 -112 41.5zM224 37.0029c68 0 121 41.666 159 124.999c-42.667 48 -95 72 -157 72
c-36 0 -64.833 -9.16699 -86.5 -27.5s-32.5 -42.166 -32.5 -71.499s10.5 -53 31.5 -71s49.5 -27 85.5 -27z" />
    <glyph glyph-name="ccedilla" unicode="&#xe7;" horiz-adv-x="524" 
d="M274 38c40.667 0 73.667 10.334 99 31.001s47.666 51.667 66.999 93l44 -29c-44 -88.667 -106.333 -136.334 -187 -143.001l-43 -150h-53l40 151c-60 7.33301 -107.833 33 -143.5 77s-53.5 100.667 -53.5 170c0 72 21 131.333 63 178s96.333 70 163 70
c54 0 100.5 -16 139.5 -48s64.833 -79.667 77.5 -143l-52 -17c-26 106 -81 159 -165 159c-52 0 -92.833 -18.167 -122.5 -54.5s-44.5 -84.5 -44.5 -144.5c0 -60.667 15.333 -109.167 46 -145.5s72.334 -54.5 125.001 -54.5z" />
    <glyph glyph-name="egrave" unicode="&#xe8;" horiz-adv-x="537" 
d="M310 539h-54l-122 145h70zM445 154l44.001 -25.998c-44.667 -92.667 -115.334 -139 -212.001 -139c-68.667 0 -124.667 23.167 -168 69.5s-65 106.166 -65 179.499s21.167 133 63.5 179s96.833 69 163.5 69c66 0 118 -21.333 156 -64s57 -99.334 57 -170.001v-23h-381
c1.33301 -57.333 17.5 -103.5 48.5 -138.5s72.833 -52.5 125.5 -52.5c76 0 132 38.667 168 116zM270.001 437.002c-46.667 0 -84.668 -14.5 -114.001 -43.5s-46.666 -68.167 -51.999 -117.5h322c-2.66699 52 -17.5 91.833 -44.5 119.5s-64.167 41.5 -111.5 41.5z" />
    <glyph glyph-name="eacute" unicode="&#xe9;" horiz-adv-x="537" 
d="M408 684l-124 -145h-53l108 145h69zM445 154l44.001 -25.998c-44.667 -92.667 -115.334 -139 -212.001 -139c-68.667 0 -124.667 23.167 -168 69.5s-65 106.166 -65 179.499s21.167 133 63.5 179s96.833 69 163.5 69c66 0 118 -21.333 156 -64s57 -99.334 57 -170.001
v-23h-381c1.33301 -57.333 17.5 -103.5 48.5 -138.5s72.833 -52.5 125.5 -52.5c76 0 132 38.667 168 116zM270.001 437.002c-46.667 0 -84.668 -14.5 -114.001 -43.5s-46.666 -68.167 -51.999 -117.5h322c-2.66699 52 -17.5 91.833 -44.5 119.5s-64.167 41.5 -111.5 41.5z
" />
    <glyph glyph-name="ecircumflex" unicode="&#xea;" horiz-adv-x="537" 
d="M269 640l-81 -101h-56l110 145h56l109 -145h-57zM445 154l44.001 -25.998c-44.667 -92.667 -115.334 -139 -212.001 -139c-68.667 0 -124.667 23.167 -168 69.5s-65 106.166 -65 179.499s21.167 133 63.5 179s96.833 69 163.5 69c66 0 118 -21.333 156 -64
s57 -99.334 57 -170.001v-23h-381c1.33301 -57.333 17.5 -103.5 48.5 -138.5s72.833 -52.5 125.5 -52.5c76 0 132 38.667 168 116zM270.001 437.002c-46.667 0 -84.668 -14.5 -114.001 -43.5s-46.666 -68.167 -51.999 -117.5h322c-2.66699 52 -17.5 91.833 -44.5 119.5
s-64.167 41.5 -111.5 41.5z" />
    <glyph glyph-name="edieresis" unicode="&#xeb;" horiz-adv-x="537" 
d="M182 572c-10.667 0 -19.834 3.66699 -27.501 11s-11.5 16.666 -11.5 27.999s3.83301 20.666 11.5 27.999s16.834 11 27.501 11c11.333 0 20.833 -3.66699 28.5 -11s11.5 -16.666 11.5 -27.999s-3.83301 -20.666 -11.5 -27.999s-17.167 -11 -28.5 -11zM360 572
c-11.333 0 -20.833 3.66699 -28.5 11s-11.5 16.666 -11.5 27.999s3.83301 20.666 11.5 27.999s17.167 11 28.5 11s20.666 -3.66699 27.999 -11s11 -16.666 11 -27.999s-3.66699 -20.666 -11 -27.999s-16.666 -11 -27.999 -11zM445 154l44.001 -25.998
c-44.667 -92.667 -115.334 -139 -212.001 -139c-68.667 0 -124.667 23.167 -168 69.5s-65 106.166 -65 179.499s21.167 133 63.5 179s96.833 69 163.5 69c66 0 118 -21.333 156 -64s57 -99.334 57 -170.001v-23h-381c1.33301 -57.333 17.5 -103.5 48.5 -138.5
s72.833 -52.5 125.5 -52.5c76 0 132 38.667 168 116zM270.001 437.002c-46.667 0 -84.668 -14.5 -114.001 -43.5s-46.666 -68.167 -51.999 -117.5h322c-2.66699 52 -17.5 91.833 -44.5 119.5s-64.167 41.5 -111.5 41.5z" />
    <glyph glyph-name="igrave" unicode="&#xec;" horiz-adv-x="217" 
d="M94 539l-122 145h70l106 -145h-54zM80 0v475h57v-475h-57z" />
    <glyph glyph-name="iacute" unicode="&#xed;" horiz-adv-x="217" 
d="M69 539l108 145h69l-124 -145h-53zM80 0v475h57v-475h-57z" />
    <glyph glyph-name="icircumflex" unicode="&#xee;" horiz-adv-x="217" 
d="M-30 539l110 145h56l109 -145h-57l-81 101l-81 -101h-56zM80 0v475h57v-475h-57z" />
    <glyph glyph-name="idieresis" unicode="&#xef;" horiz-adv-x="217" 
d="M20 572c-10.667 0 -19.834 3.66699 -27.501 11s-11.5 16.666 -11.5 27.999s3.83301 20.666 11.5 27.999s16.834 11 27.501 11c11.333 0 20.833 -3.66699 28.5 -11s11.5 -16.666 11.5 -27.999s-3.83301 -20.666 -11.5 -27.999s-17.167 -11 -28.5 -11zM198 572
c-11.333 0 -20.833 3.66699 -28.5 11s-11.5 16.666 -11.5 27.999s3.83301 20.666 11.5 27.999s17.167 11 28.5 11s20.666 -3.66699 27.999 -11s11 -16.666 11 -27.999s-3.66699 -20.666 -11 -27.999s-16.666 -11 -27.999 -11zM80 0v475h57v-475h-57z" />
    <glyph glyph-name="eth" unicode="&#xf0;" horiz-adv-x="561" 
d="M352 622c50.667 -38 90.166 -85.833 118.499 -143.5s42.5 -121.5 42.5 -191.5c0 -92 -20.833 -164.667 -62.5 -218s-98.5 -80 -170.5 -80c-70.667 0 -127.667 22.333 -171 67s-65 102.667 -65 174c0 69.333 20.333 126.5 61 171.5s93.667 67.5 159 67.5
c90.667 0 153.667 -35.333 189 -106c-17.333 96 -63.333 170.667 -138 224l-71 -67h-60l96 90c-43.333 24.667 -94.666 43 -153.999 55l23 43c62 -11.333 118.333 -32 169 -62l60 57h60zM279.999 38c52.667 0 94.499 19.3311 125.499 57.998s46.5 88.334 46.5 149.001
c0 51.333 -15.667 93.333 -47 126s-73.666 49 -126.999 49s-95.833 -17.667 -127.5 -53s-47.5 -81 -47.5 -137c0 -57.333 16 -103.666 48 -138.999s75 -53 129 -53z" />
    <glyph glyph-name="ntilde" unicode="&#xf1;" horiz-adv-x="557" 
d="M137 555c0.666992 32.667 8.5 58.167 23.5 76.5s35.167 27.5 60.5 27.5c22.667 0 45.667 -9.33301 69 -28s41 -28 53 -28c24 0 37.667 18.667 41 56h46c-1.33301 -32.667 -9.5 -58 -24.5 -76s-35.167 -27 -60.5 -27c-22.667 0 -45.5 9.16699 -68.5 27.5
s-40.167 27.5 -51.5 27.5c-26 0 -40 -18.667 -42 -56h-46zM80 0l-0.00195312 474.999h57v-77c32 58.667 86 88 162 88c58 0 103 -17 135 -51s48 -81.667 48 -143v-292h-57v285c0 49.333 -11.667 87 -35 113s-57.666 39 -102.999 39
c-43.333 0 -79.166 -13.167 -107.499 -39.5s-42.5 -62.166 -42.5 -107.499v-290h-57z" />
    <glyph glyph-name="ograve" unicode="&#xf2;" horiz-adv-x="558" 
d="M265 539l-122 145h70l106 -145h-54zM279 -11c-68 0 -124.167 23.333 -168.5 70s-66.5 106.334 -66.5 179.001c0 72 22.167 131.333 66.5 178s100.5 70 168.5 70s124.167 -23.333 168.5 -70s66.5 -106 66.5 -178c0 -72.667 -22.167 -132.334 -66.5 -179.001
s-100.5 -70 -168.5 -70zM279 38c53.333 0 96 18.5 128 55.5s48 85.167 48 144.5c0 58.667 -16 106.5 -48 143.5s-74.667 55.5 -128 55.5s-96 -18.167 -128 -54.5s-48 -84.5 -48 -144.5s16 -108.333 48 -145s74.667 -55 128 -55z" />
    <glyph glyph-name="oacute" unicode="&#xf3;" horiz-adv-x="558" 
d="M240 539l108 145h69l-124 -145h-53zM279 -11c-68 0 -124.167 23.333 -168.5 70s-66.5 106.334 -66.5 179.001c0 72 22.167 131.333 66.5 178s100.5 70 168.5 70s124.167 -23.333 168.5 -70s66.5 -106 66.5 -178c0 -72.667 -22.167 -132.334 -66.5 -179.001
s-100.5 -70 -168.5 -70zM279 38c53.333 0 96 18.5 128 55.5s48 85.167 48 144.5c0 58.667 -16 106.5 -48 143.5s-74.667 55.5 -128 55.5s-96 -18.167 -128 -54.5s-48 -84.5 -48 -144.5s16 -108.333 48 -145s74.667 -55 128 -55z" />
    <glyph glyph-name="ocircumflex" unicode="&#xf4;" horiz-adv-x="558" 
d="M141 539l110 145h56l109 -145h-57l-81 101l-81 -101h-56zM279 -11c-68 0 -124.167 23.333 -168.5 70s-66.5 106.334 -66.5 179.001c0 72 22.167 131.333 66.5 178s100.5 70 168.5 70s124.167 -23.333 168.5 -70s66.5 -106 66.5 -178
c0 -72.667 -22.167 -132.334 -66.5 -179.001s-100.5 -70 -168.5 -70zM279 38c53.333 0 96 18.5 128 55.5s48 85.167 48 144.5c0 58.667 -16 106.5 -48 143.5s-74.667 55.5 -128 55.5s-96 -18.167 -128 -54.5s-48 -84.5 -48 -144.5s16 -108.333 48 -145s74.667 -55 128 -55z
" />
    <glyph glyph-name="otilde" unicode="&#xf5;" horiz-adv-x="558" 
d="M131 555c0.666992 32.667 8.5 58.167 23.5 76.5s35.167 27.5 60.5 27.5c22.667 0 45.667 -9.33301 69 -28s41 -28 53 -28c24 0 37.667 18.667 41 56h46c-1.33301 -32.667 -9.5 -58 -24.5 -76s-35.167 -27 -60.5 -27c-22.667 0 -45.5 9.16699 -68.5 27.5
s-40.167 27.5 -51.5 27.5c-26 0 -40 -18.667 -42 -56h-46zM279 -11c-68 0 -124.167 23.333 -168.5 70s-66.5 106.334 -66.5 179.001c0 72 22.167 131.333 66.5 178s100.5 70 168.5 70s124.167 -23.333 168.5 -70s66.5 -106 66.5 -178
c0 -72.667 -22.167 -132.334 -66.5 -179.001s-100.5 -70 -168.5 -70zM279 38c53.333 0 96 18.5 128 55.5s48 85.167 48 144.5c0 58.667 -16 106.5 -48 143.5s-74.667 55.5 -128 55.5s-96 -18.167 -128 -54.5s-48 -84.5 -48 -144.5s16 -108.333 48 -145s74.667 -55 128 -55z
" />
    <glyph glyph-name="odieresis" unicode="&#xf6;" horiz-adv-x="558" 
d="M191 572c-11.333 0 -20.666 3.66699 -27.999 11s-11 16.666 -11 27.999s3.66699 20.666 11 27.999s16.666 11 27.999 11s20.833 -3.66699 28.5 -11s11.5 -16.666 11.5 -27.999s-3.83301 -20.666 -11.5 -27.999s-17.167 -11 -28.5 -11zM369 572
c-11.333 0 -20.833 3.66699 -28.5 11s-11.5 16.666 -11.5 27.999s3.83301 20.666 11.5 27.999s17.167 11 28.5 11s20.666 -3.66699 27.999 -11s11 -16.666 11 -27.999s-3.66699 -20.666 -11 -27.999s-16.666 -11 -27.999 -11zM279 -11c-68 0 -124.167 23.333 -168.5 70
s-66.5 106.334 -66.5 179.001c0 72 22.167 131.333 66.5 178s100.5 70 168.5 70s124.167 -23.333 168.5 -70s66.5 -106 66.5 -178c0 -72.667 -22.167 -132.334 -66.5 -179.001s-100.5 -70 -168.5 -70zM279 38c53.333 0 96 18.5 128 55.5s48 85.167 48 144.5
c0 58.667 -16 106.5 -48 143.5s-74.667 55.5 -128 55.5s-96 -18.167 -128 -54.5s-48 -84.5 -48 -144.5s16 -108.333 48 -145s74.667 -55 128 -55z" />
    <glyph glyph-name="divide" unicode="&#xf7;" horiz-adv-x="483" 
d="M241 414c-10 0 -18.333 3.33301 -25 10s-10 15 -10 25c0 10.667 3.33301 19.334 10 26.001s15 10 25 10c10.667 0 19.334 -3.33301 26.001 -10s10 -15.334 10 -26.001c0 -10 -3.33301 -18.333 -10 -25s-15.334 -10 -26.001 -10zM41 266v50h401v-50h-401zM241 97
c-10 0 -18.333 3.33301 -25 10s-10 15 -10 25c0 10.667 3.33301 19.334 10 26.001s15 10 25 10c10.667 0 19.334 -3.33301 26.001 -10s10 -15.334 10 -26.001c0 -10 -3.33301 -18.333 -10 -25s-15.334 -10 -26.001 -10z" />
    <glyph glyph-name="oslash" unicode="&#xf8;" horiz-adv-x="562" 
d="M514 475l-58 -67c38.667 -44.667 58 -101.334 58 -170.001c0 -73.333 -21.833 -133.166 -65.5 -179.499s-100.167 -69.5 -169.5 -69.5c-56.667 0 -105.667 16.333 -147 49l-33 -38h-55l58 67c-38.667 44.667 -58 101.667 -58 171c0 72.667 22 132.167 66 178.5
s100.333 69.5 169 69.5c56.667 0 105.667 -16.333 147 -49l33 38h55zM103 238c0 -52 11.667 -95.333 35 -130l254 290c-30 26 -67.667 39 -113 39c-54.667 0 -97.667 -18.167 -129 -54.5s-47 -84.5 -47 -144.5zM455 238c0 52 -12 95 -36 129l-253 -290
c30 -26 67.667 -39 113 -39c54 0 96.833 18.333 128.5 55s47.5 85 47.5 145z" />
    <glyph glyph-name="ugrave" unicode="&#xf9;" horiz-adv-x="551" 
d="M260 539l-122 145h70l106 -145h-54zM255 -11c-57.333 0 -101.667 17 -133 51s-47 81.667 -47 143v292h57v-288c0 -48 11.333 -84.833 34 -110.5s56 -38.5 100 -38.5c42 0 77.167 13 105.5 39s42.5 61 42.5 105v293h57v-475h-57v77
c-15.333 -27.333 -36.833 -48.833 -64.5 -64.5s-59.167 -23.5 -94.5 -23.5z" />
    <glyph glyph-name="uacute" unicode="&#xfa;" horiz-adv-x="551" 
d="M235 539l108 145h69l-124 -145h-53zM255 -11c-57.333 0 -101.667 17 -133 51s-47 81.667 -47 143v292h57v-288c0 -48 11.333 -84.833 34 -110.5s56 -38.5 100 -38.5c42 0 77.167 13 105.5 39s42.5 61 42.5 105v293h57v-475h-57v77
c-15.333 -27.333 -36.833 -48.833 -64.5 -64.5s-59.167 -23.5 -94.5 -23.5z" />
    <glyph glyph-name="ucircumflex" unicode="&#xfb;" horiz-adv-x="551" 
d="M136 539l110 145h56l109 -145h-57l-81 101l-81 -101h-56zM255 -11c-57.333 0 -101.667 17 -133 51s-47 81.667 -47 143v292h57v-288c0 -48 11.333 -84.833 34 -110.5s56 -38.5 100 -38.5c42 0 77.167 13 105.5 39s42.5 61 42.5 105v293h57v-475h-57v77
c-15.333 -27.333 -36.833 -48.833 -64.5 -64.5s-59.167 -23.5 -94.5 -23.5z" />
    <glyph glyph-name="udieresis" unicode="&#xfc;" horiz-adv-x="551" 
d="M186 572c-10.667 0 -19.834 3.66699 -27.501 11s-11.5 16.666 -11.5 27.999s3.83301 20.666 11.5 27.999s16.834 11 27.501 11c11.333 0 20.833 -3.66699 28.5 -11s11.5 -16.666 11.5 -27.999s-3.83301 -20.666 -11.5 -27.999s-17.167 -11 -28.5 -11zM364 572
c-11.333 0 -20.833 3.66699 -28.5 11s-11.5 16.666 -11.5 27.999s3.83301 20.666 11.5 27.999s17.167 11 28.5 11s20.666 -3.66699 27.999 -11s11 -16.666 11 -27.999s-3.66699 -20.666 -11 -27.999s-16.666 -11 -27.999 -11zM255 -11c-57.333 0 -101.667 17 -133 51
s-47 81.667 -47 143v292h57v-288c0 -48 11.333 -84.833 34 -110.5s56 -38.5 100 -38.5c42 0 77.167 13 105.5 39s42.5 61 42.5 105v293h57v-475h-57v77c-15.333 -27.333 -36.833 -48.833 -64.5 -64.5s-59.167 -23.5 -94.5 -23.5z" />
    <glyph glyph-name="yacute" unicode="&#xfd;" horiz-adv-x="479" 
d="M200 539l108 145h69l-124 -145h-53zM102 -221c-46.667 0 -80.334 19 -101.001 57l38 37c16.667 -30 38.667 -45 66 -45c20 0 37 8.5 51 25.5s28.667 45.167 44 84.5l25 62h-27l-189 475h61l171 -430l168 430h62l-225 -563c-19.333 -48.667 -40.166 -83 -62.499 -103
s-49.5 -30 -81.5 -30z" />
    <glyph glyph-name="thorn" unicode="&#xfe;" 
d="M80 -210v904.999h57v-324c17.333 36 42.166 64.167 74.499 84.5s70.166 30.5 113.499 30.5c62.667 0 115 -23.667 157 -71s63 -106.333 63 -177c0 -71.333 -20.833 -130.666 -62.5 -177.999s-94.167 -71 -157.5 -71c-43.333 0 -81.166 10.167 -113.499 30.5
s-57.166 48.5 -74.499 84.5v-314h-57zM314 37.999c51.333 0 92.666 18.333 123.999 55s47 85 47 145s-15.667 108.167 -47 144.5s-72.666 54.5 -123.999 54.5c-50 0 -92 -19.167 -126 -57.5s-51 -85.5 -51 -141.5c0 -56.667 17 -104.167 51 -142.5s76 -57.5 126 -57.5z" />
    <glyph glyph-name="ydieresis" unicode="&#xff;" horiz-adv-x="479" 
d="M152 572c-10.667 0 -19.834 3.66699 -27.501 11s-11.5 16.666 -11.5 27.999s3.83301 20.666 11.5 27.999s16.834 11 27.501 11c11.333 0 20.833 -3.66699 28.5 -11s11.5 -16.666 11.5 -27.999s-3.83301 -20.666 -11.5 -27.999s-17.167 -11 -28.5 -11zM330 572
c-11.333 0 -20.833 3.66699 -28.5 11s-11.5 16.666 -11.5 27.999s3.83301 20.666 11.5 27.999s17.167 11 28.5 11s20.666 -3.66699 27.999 -11s11 -16.666 11 -27.999s-3.66699 -20.666 -11 -27.999s-16.666 -11 -27.999 -11zM102 -221c-46.667 0 -80.334 19 -101.001 57
l38 37c16.667 -30 38.667 -45 66 -45c20 0 37 8.5 51 25.5s28.667 45.167 44 84.5l25 62h-27l-189 475h61l171 -430l168 430h62l-225 -563c-19.333 -48.667 -40.166 -83 -62.499 -103s-49.5 -30 -81.5 -30z" />
    <glyph glyph-name="Amacron" unicode="&#x100;" horiz-adv-x="666" 
d="M472 853v-49h-278v49h278zM589 0l-87 217h-338l-86 -217h-61l278 695h76l278 -695h-60zM185 268h297l-149 372z" />
    <glyph glyph-name="amacron" unicode="&#x101;" horiz-adv-x="513" 
d="M117 589v49h278v-49h-278zM221 -12c-52 0 -94.002 13.332 -126.002 39.999s-48 62.334 -48 107.001c0 41.333 16.333 76.333 49 105s74.334 43 125.001 43c62 0 115.667 -24 161 -72v89c0 42.667 -11.167 76.167 -33.5 100.5s-53.166 36.5 -92.499 36.5
c-80 0 -129.667 -41.333 -149 -124l-52 14c11.333 49.333 35 88.333 71 117s79.667 43 131 43c54.667 0 98.667 -16.167 132 -48.5s50 -77.5 50 -135.5v-303h-57v77c-39.333 -59.333 -93 -89 -161 -89zM225.998 35.999c63.333 0 115.333 31.998 156 95.998v20
c-43.333 54.667 -95.333 82 -156 82c-36 0 -64.833 -9.16699 -86.5 -27.5s-32.5 -42.166 -32.5 -71.499s10.833 -53.166 32.5 -71.499s50.5 -27.5 86.5 -27.5z" />
    <glyph glyph-name="Abreve" unicode="&#x102;" horiz-adv-x="666" 
d="M333 755c-39.333 0 -70.501 11.5 -93.501 34.5s-34.5 54.833 -34.5 95.5h47c0 -26 7.33301 -46.333 22 -61s34.334 -22 59.001 -22c24 0 43.5 7.66699 58.5 23s22.5 35.333 22.5 60h47c0 -40.667 -11.5 -72.5 -34.5 -95.5s-54.167 -34.5 -93.5 -34.5zM588.999 0l-87 217
h-338l-86 -217h-61l278 695h76l278 -695h-60zM184.999 268h297l-149 372z" />
    <glyph glyph-name="abreve" unicode="&#x103;" horiz-adv-x="513" 
d="M256 540c-39.333 0 -70.5 11.5 -93.5 34.5s-34.5 54.833 -34.5 95.5h47c0 -25.333 7.5 -45.5 22.5 -60.5s34.5 -22.5 58.5 -22.5s43.5 7.66699 58.5 23s22.5 35.333 22.5 60h47c0 -40.667 -11.5 -72.5 -34.5 -95.5s-54.167 -34.5 -93.5 -34.5zM221 -12
c-52 0 -94.002 13.332 -126.002 39.999s-48 62.334 -48 107.001c0 41.333 16.333 76.333 49 105s74.334 43 125.001 43c62 0 115.667 -24 161 -72v89c0 42.667 -11.167 76.167 -33.5 100.5s-53.166 36.5 -92.499 36.5c-80 0 -129.667 -41.333 -149 -124l-52 14
c11.333 49.333 35 88.333 71 117s79.667 43 131 43c54.667 0 98.667 -16.167 132 -48.5s50 -77.5 50 -135.5v-303h-57v77c-39.333 -59.333 -93 -89 -161 -89zM225.998 35.999c63.333 0 115.333 31.998 156 95.998v20c-43.333 54.667 -95.333 82 -156 82
c-36 0 -64.833 -9.16699 -86.5 -27.5s-32.5 -42.166 -32.5 -71.499s10.833 -53.166 32.5 -71.499s50.5 -27.5 86.5 -27.5z" />
    <glyph glyph-name="Aogonek" unicode="&#x104;" horiz-adv-x="666" 
d="M641 -135l19.001 -42c-20 -14.667 -44.333 -22 -73 -22c-26 0 -47.833 6.33301 -65.5 19s-26.5 32 -26.5 58c0 43.333 31 85 93 125l-86 214h-338l-86 -217h-61l278 695h76l278 -695c-64.667 -42 -97 -78 -97 -108c0 -28.667 15.333 -43 46 -43
c15.333 0 29.666 5.33301 42.999 16zM185.001 268h297l-149 372z" />
    <glyph glyph-name="aogonek" unicode="&#x105;" horiz-adv-x="513" 
d="M431 -135l18.999 -42.001c-20 -14.667 -44.333 -22 -73 -22c-26 0 -47.833 6.33301 -65.5 19s-26.5 32 -26.5 58c0 44 32.333 86.667 97 128v71c-39.333 -59.333 -93 -89 -161 -89c-52 0 -94 13.333 -126 40s-48 62.334 -48 107.001c0 41.333 16.333 76.333 49 105
s74.334 43 125.001 43c62 0 115.667 -24 161 -72v89c0 42.667 -11.167 76.167 -33.5 100.5s-53.166 36.5 -92.499 36.5c-80 0 -129.667 -41.333 -149 -124l-52 14c11.333 49.333 35 88.333 71 117s79.667 43 131 43c54.667 0 98.667 -16.167 132 -48.5s50 -77.5 50 -135.5
v-303c-64.667 -42 -97 -78 -97 -108c0 -28.667 15.333 -43 46 -43c15.333 0 29.666 5.33301 42.999 16zM225.999 35.999c63.333 0 115.333 31.998 156 95.998v20c-43.333 54.667 -95.333 82 -156 82c-36 0 -64.833 -9.16699 -86.5 -27.5s-32.5 -42.166 -32.5 -71.499
s10.833 -53.166 32.5 -71.499s50.5 -27.5 86.5 -27.5z" />
    <glyph glyph-name="Cacute" unicode="&#x106;" horiz-adv-x="745" 
d="M349 754l108 145h69l-124 -145h-53zM387 -13c-96.667 0 -175.999 33.832 -237.999 101.499s-93 153.834 -93 258.501s31.333 191 94 259s142 102 238 102c79.333 0 144.5 -22.5 195.5 -67.5s86.833 -109.833 107.5 -194.5l-56 -17c-40 152 -122.333 228 -247 228
c-79.333 0 -144.333 -29 -195 -87s-76 -132.333 -76 -223c0 -90 25.167 -164 75.5 -222s115.166 -87 194.499 -87c132 0 216.667 69.667 254 209l57 -14c-44 -164 -147.667 -246 -311 -246z" />
    <glyph glyph-name="cacute" unicode="&#x107;" horiz-adv-x="524" 
d="M228 539l108 145h69l-124 -145h-53zM274 -11c-68.667 0 -124.167 22.668 -166.5 68.001s-63.5 105.666 -63.5 180.999c0 72 21 131.333 63 178s96.333 70 163 70c54 0 100.5 -16 139.5 -48s64.833 -79.667 77.5 -143l-52 -17c-26 106 -81 159 -165 159
c-52 0 -92.833 -18.167 -122.5 -54.5s-44.5 -84.5 -44.5 -144.5c0 -60.667 15.333 -109.167 46 -145.5s72.334 -54.5 125.001 -54.5c40.667 0 73.667 10.333 99 31s47.666 51.667 66.999 93l44 -29c-47.333 -96 -117.333 -144 -210 -144z" />
    <glyph glyph-name="Ccircumflex" unicode="&#x108;" horiz-adv-x="745" 
d="M250 754l110 145h56l109 -145h-57l-81 101l-81 -101h-56zM387 -13c-96.667 0 -175.999 33.832 -237.999 101.499s-93 153.834 -93 258.501s31.333 191 94 259s142 102 238 102c79.333 0 144.5 -22.5 195.5 -67.5s86.833 -109.833 107.5 -194.5l-56 -17
c-40 152 -122.333 228 -247 228c-79.333 0 -144.333 -29 -195 -87s-76 -132.333 -76 -223c0 -90 25.167 -164 75.5 -222s115.166 -87 194.499 -87c132 0 216.667 69.667 254 209l57 -14c-44 -164 -147.667 -246 -311 -246z" />
    <glyph glyph-name="ccircumflex" unicode="&#x109;" horiz-adv-x="524" 
d="M130 539l110 145h56l109 -145h-57l-81 101l-81 -101h-56zM274 -11c-68.667 0 -124.167 22.668 -166.5 68.001s-63.5 105.666 -63.5 180.999c0 72 21 131.333 63 178s96.333 70 163 70c54 0 100.5 -16 139.5 -48s64.833 -79.667 77.5 -143l-52 -17
c-26 106 -81 159 -165 159c-52 0 -92.833 -18.167 -122.5 -54.5s-44.5 -84.5 -44.5 -144.5c0 -60.667 15.333 -109.167 46 -145.5s72.334 -54.5 125.001 -54.5c40.667 0 73.667 10.333 99 31s47.666 51.667 66.999 93l44 -29c-47.333 -96 -117.333 -144 -210 -144z" />
    <glyph glyph-name="Cdotaccent" unicode="&#x10a;" horiz-adv-x="745" 
d="M388 785c-11.333 0 -20.666 3.66699 -27.999 11s-11 16.333 -11 27c0 11.333 3.66699 20.666 11 27.999s16.666 11 27.999 11s20.666 -3.66699 27.999 -11s11 -16.666 11 -27.999c0 -10.667 -3.66699 -19.667 -11 -27s-16.666 -11 -27.999 -11zM387 -13
c-96.667 0 -175.999 33.832 -237.999 101.499s-93 153.834 -93 258.501s31.333 191 94 259s142 102 238 102c79.333 0 144.5 -22.5 195.5 -67.5s86.833 -109.833 107.5 -194.5l-56 -17c-40 152 -122.333 228 -247 228c-79.333 0 -144.333 -29 -195 -87
s-76 -132.333 -76 -223c0 -90 25.167 -164 75.5 -222s115.166 -87 194.499 -87c132 0 216.667 69.667 254 209l57 -14c-44 -164 -147.667 -246 -311 -246z" />
    <glyph glyph-name="cdotaccent" unicode="&#x10b;" horiz-adv-x="524" 
d="M268 570c-11.333 0 -20.666 3.66699 -27.999 11s-11 16.333 -11 27c0 11.333 3.66699 20.666 11 27.999s16.666 11 27.999 11s20.666 -3.66699 27.999 -11s11 -16.666 11 -27.999c0 -10.667 -3.66699 -19.667 -11 -27s-16.666 -11 -27.999 -11zM274 -11
c-68.667 0 -124.167 22.668 -166.5 68.001s-63.5 105.666 -63.5 180.999c0 72 21 131.333 63 178s96.333 70 163 70c54 0 100.5 -16 139.5 -48s64.833 -79.667 77.5 -143l-52 -17c-26 106 -81 159 -165 159c-52 0 -92.833 -18.167 -122.5 -54.5s-44.5 -84.5 -44.5 -144.5
c0 -60.667 15.333 -109.167 46 -145.5s72.334 -54.5 125.001 -54.5c40.667 0 73.667 10.333 99 31s47.666 51.667 66.999 93l44 -29c-47.333 -96 -117.333 -144 -210 -144z" />
    <glyph glyph-name="Ccaron" unicode="&#x10c;" horiz-adv-x="745" 
d="M526 900l-111 -146h-55l-110 145h58l81 -101l81 102h56zM387 -13c-96.667 0 -175.999 33.832 -237.999 101.499s-93 153.834 -93 258.501s31.333 191 94 259s142 102 238 102c79.333 0 144.5 -22.5 195.5 -67.5s86.833 -109.833 107.5 -194.5l-56 -17
c-40 152 -122.333 228 -247 228c-79.333 0 -144.333 -29 -195 -87s-76 -132.333 -76 -223c0 -90 25.167 -164 75.5 -222s115.166 -87 194.499 -87c132 0 216.667 69.667 254 209l57 -14c-44 -164 -147.667 -246 -311 -246z" />
    <glyph glyph-name="ccaron" unicode="&#x10d;" horiz-adv-x="524" 
d="M406 685l-111 -146h-55l-110 145h58l81 -101l81 102h56zM274 -11c-68.667 0 -124.167 22.668 -166.5 68.001s-63.5 105.666 -63.5 180.999c0 72 21 131.333 63 178s96.333 70 163 70c54 0 100.5 -16 139.5 -48s64.833 -79.667 77.5 -143l-52 -17
c-26 106 -81 159 -165 159c-52 0 -92.833 -18.167 -122.5 -54.5s-44.5 -84.5 -44.5 -144.5c0 -60.667 15.333 -109.167 46 -145.5s72.334 -54.5 125.001 -54.5c40.667 0 73.667 10.333 99 31s47.666 51.667 66.999 93l44 -29c-47.333 -96 -117.333 -144 -210 -144z" />
    <glyph glyph-name="Dcaron" unicode="&#x10e;" horiz-adv-x="743" 
d="M458 900l-111 -146h-55l-110 145h58l81 -101l81 102h56zM94 0l0.000976562 695h233c100 0 185 -30.333 255 -91s105 -146 105 -256c0 -56 -10 -106.5 -30 -151.5s-46.833 -81.5 -80.5 -109.5s-71.834 -49.5 -114.501 -64.5s-87.667 -22.5 -135 -22.5h-233zM152.001 51
l165.001 -0.000976562c88 0 161.5 24.833 220.5 74.5s88.5 123.834 88.5 222.501c0 99.333 -29.333 173.5 -88 222.5s-132.334 73.5 -221.001 73.5h-165v-593z" />
    <glyph glyph-name="dcaron" unicode="&#x10f;" horiz-adv-x="630" 
d="M561 525l28 171h57l-39 -171h-46zM264 -11c-63.333 0 -115.833 23.668 -157.5 71.001s-62.5 106.666 -62.5 177.999s20.833 130.5 62.5 177.5s94.167 70.5 157.5 70.5c43.333 0 81 -10.167 113 -30.5s56.667 -48.5 74 -84.5v324h57v-695h-57v104
c-17.333 -36 -42 -64.167 -74 -84.5s-69.667 -30.5 -113 -30.5zM274 38.001c50 0 92 19.167 126 57.5s51 85.833 51 142.5s-17 104 -51 142s-76 57 -126 57c-51.333 0 -92.666 -18.167 -123.999 -54.5s-47 -84.5 -47 -144.5s15.667 -108.333 47 -145s72.666 -55 123.999 -55
z" />
    <glyph glyph-name="Dcroat" unicode="&#x110;" horiz-adv-x="743" 
d="M327 695c100 0 185.001 -30.333 255.001 -91s105 -146 105 -256c0 -56 -10 -106.5 -30 -151.5s-46.833 -81.5 -80.5 -109.5s-71.834 -49.5 -114.501 -64.5s-87.667 -22.5 -135 -22.5h-233v331h-68v49h68v315h233zM317.001 51c88 0 161.501 24.832 220.501 74.499
s88.5 123.834 88.5 222.501c0 99.333 -29.333 173.5 -88 222.5s-132.334 73.5 -221.001 73.5h-165v-264h204v-49h-204v-280h165z" />
    <glyph glyph-name="dcroat" unicode="&#x111;" 
d="M589 605v-42.999h-81v-562h-57v104c-17.333 -36 -42 -64.167 -74 -84.5s-69.667 -30.5 -113 -30.5c-63.333 0 -115.833 23.667 -157.5 71s-62.5 106.666 -62.5 177.999s20.833 130.5 62.5 177.5s94.167 70.5 157.5 70.5c43.333 0 81 -10.167 113 -30.5
s56.667 -48.5 74 -84.5v191h-158v43h158v90h57v-90h81zM274 38.001c50 0 92 19.167 126 57.5s51 85.833 51 142.5s-17 104 -51 142s-76 57 -126 57c-51.333 0 -92.666 -18.167 -123.999 -54.5s-47 -84.5 -47 -144.5s15.667 -108.333 47 -145s72.666 -55 123.999 -55z" />
    <glyph glyph-name="Emacron" unicode="&#x112;" horiz-adv-x="607" 
d="M184 804v49h278v-49h-278zM94 0v695h462v-51h-404v-266h334v-51h-334v-276h408v-51h-466z" />
    <glyph glyph-name="emacron" unicode="&#x113;" horiz-adv-x="537" 
d="M409 638v-49h-278v49h278zM445 154l44.001 -25.998c-44.667 -92.667 -115.334 -139 -212.001 -139c-68.667 0 -124.667 23.167 -168 69.5s-65 106.166 -65 179.499s21.167 133 63.5 179s96.833 69 163.5 69c66 0 118 -21.333 156 -64s57 -99.334 57 -170.001v-23h-381
c1.33301 -57.333 17.5 -103.5 48.5 -138.5s72.833 -52.5 125.5 -52.5c76 0 132 38.667 168 116zM270.001 437.002c-46.667 0 -84.668 -14.5 -114.001 -43.5s-46.666 -68.167 -51.999 -117.5h322c-2.66699 52 -17.5 91.833 -44.5 119.5s-64.167 41.5 -111.5 41.5z" />
    <glyph glyph-name="Ebreve" unicode="&#x114;" horiz-adv-x="607" 
d="M323 755c-39.333 0 -70.501 11.5 -93.501 34.5s-34.5 54.833 -34.5 95.5h47c0 -26 7.33301 -46.333 22 -61s34.334 -22 59.001 -22c24 0 43.5 7.66699 58.5 23s22.5 35.333 22.5 60h47c0 -40.667 -11.5 -72.5 -34.5 -95.5s-54.167 -34.5 -93.5 -34.5zM93.999 0v695h462
v-51h-404v-266h334v-51h-334v-276h408v-51h-466z" />
    <glyph glyph-name="ebreve" unicode="&#x115;" horiz-adv-x="537" 
d="M270 540c-39.333 0 -70.5 11.5 -93.5 34.5s-34.5 54.833 -34.5 95.5h47c0 -25.333 7.5 -45.5 22.5 -60.5s34.5 -22.5 58.5 -22.5s43.5 7.66699 58.5 23s22.5 35.333 22.5 60h47c0 -40.667 -11.5 -72.5 -34.5 -95.5s-54.167 -34.5 -93.5 -34.5zM445 154l44.001 -25.998
c-44.667 -92.667 -115.334 -139 -212.001 -139c-68.667 0 -124.667 23.167 -168 69.5s-65 106.166 -65 179.499s21.167 133 63.5 179s96.833 69 163.5 69c66 0 118 -21.333 156 -64s57 -99.334 57 -170.001v-23h-381c1.33301 -57.333 17.5 -103.5 48.5 -138.5
s72.833 -52.5 125.5 -52.5c76 0 132 38.667 168 116zM270.001 437.002c-46.667 0 -84.668 -14.5 -114.001 -43.5s-46.666 -68.167 -51.999 -117.5h322c-2.66699 52 -17.5 91.833 -44.5 119.5s-64.167 41.5 -111.5 41.5z" />
    <glyph glyph-name="Edotaccent" unicode="&#x116;" horiz-adv-x="607" 
d="M323 785c-11.333 0 -20.666 3.66699 -27.999 11s-11 16.333 -11 27c0 11.333 3.66699 20.666 11 27.999s16.666 11 27.999 11s20.666 -3.66699 27.999 -11s11 -16.666 11 -27.999c0 -10.667 -3.66699 -19.667 -11 -27s-16.666 -11 -27.999 -11zM94 0v695h462v-51h-404
v-266h334v-51h-334v-276h408v-51h-466z" />
    <glyph glyph-name="edotaccent" unicode="&#x117;" horiz-adv-x="537" 
d="M270 570c-11.333 0 -20.666 3.66699 -27.999 11s-11 16.333 -11 27c0 11.333 3.66699 20.666 11 27.999s16.666 11 27.999 11s20.666 -3.66699 27.999 -11s11 -16.666 11 -27.999c0 -10.667 -3.66699 -19.667 -11 -27s-16.666 -11 -27.999 -11zM445 154l44.001 -25.998
c-44.667 -92.667 -115.334 -139 -212.001 -139c-68.667 0 -124.667 23.167 -168 69.5s-65 106.166 -65 179.499s21.167 133 63.5 179s96.833 69 163.5 69c66 0 118 -21.333 156 -64s57 -99.334 57 -170.001v-23h-381c1.33301 -57.333 17.5 -103.5 48.5 -138.5
s72.833 -52.5 125.5 -52.5c76 0 132 38.667 168 116zM270.001 437.002c-46.667 0 -84.668 -14.5 -114.001 -43.5s-46.666 -68.167 -51.999 -117.5h322c-2.66699 52 -17.5 91.833 -44.5 119.5s-64.167 41.5 -111.5 41.5z" />
    <glyph glyph-name="Eogonek" unicode="&#x118;" horiz-adv-x="607" 
d="M552 -135l19.001 -42.001c-20 -14.667 -44.333 -22 -73 -22c-26 0 -47.833 6.33301 -65.5 19s-26.5 32 -26.5 58c0 42.667 29.333 83.334 88 122.001h-400v695h462v-51h-404v-266h334v-51h-334v-276h408v-51c-64.667 -42 -97 -78 -97 -108c0 -28.667 15.333 -43 46 -43
c15.333 0 29.666 5.33301 42.999 16z" />
    <glyph glyph-name="eogonek" unicode="&#x119;" horiz-adv-x="537" 
d="M394 18c-36 -25.333 -62.833 -47.4971 -80.5 -66.4971s-26.5 -38.833 -26.5 -59.5c0 -28.667 15.333 -43 46 -43c16 0 30.667 5.33301 44 16l18 -42c-20 -14.667 -44 -22 -72 -22c-26 0 -48 6.33301 -66 19s-27 32 -27 58c0 38.667 23 76 69 112
c-4.66699 -0.666992 -12 -1 -22 -1c-68.667 0 -124.667 23.167 -168 69.5s-65 106.166 -65 179.499s21.167 133 63.5 179s96.833 69 163.5 69c66 0 118 -21.333 156 -64s57 -99.334 57 -170.001v-23h-381c1.33301 -57.333 17.5 -103.5 48.5 -138.5s72.833 -52.5 125.5 -52.5
c76 0 132 38.667 168 116l44 -26c-24 -50.667 -55.667 -87.334 -95 -110.001zM270 437.003c-46.667 0 -84.668 -14.5 -114.001 -43.5s-46.666 -68.167 -51.999 -117.5h322c-2.66699 52 -17.5 91.833 -44.5 119.5s-64.167 41.5 -111.5 41.5z" />
    <glyph glyph-name="Ecaron" unicode="&#x11a;" horiz-adv-x="607" 
d="M461 900l-111 -146h-55l-110 145h58l81 -101l81 102h56zM94 0v695h462v-51h-404v-266h334v-51h-334v-276h408v-51h-466z" />
    <glyph glyph-name="ecaron" unicode="&#x11b;" horiz-adv-x="537" 
d="M297 539h-55l-110 145h58l81 -101l81 102h56zM445 154l44.001 -25.998c-44.667 -92.667 -115.334 -139 -212.001 -139c-68.667 0 -124.667 23.167 -168 69.5s-65 106.166 -65 179.499s21.167 133 63.5 179s96.833 69 163.5 69c66 0 118 -21.333 156 -64
s57 -99.334 57 -170.001v-23h-381c1.33301 -57.333 17.5 -103.5 48.5 -138.5s72.833 -52.5 125.5 -52.5c76 0 132 38.667 168 116zM270.001 437.002c-46.667 0 -84.668 -14.5 -114.001 -43.5s-46.666 -68.167 -51.999 -117.5h322c-2.66699 52 -17.5 91.833 -44.5 119.5
s-64.167 41.5 -111.5 41.5z" />
    <glyph glyph-name="Gcircumflex" unicode="&#x11c;" horiz-adv-x="808" 
d="M247 754l110 145h56l109 -145h-57l-81 101l-81 -101h-56zM393 -13c-98 0 -178.669 33.833 -242.002 101.5s-95 153.834 -95 258.501s31.5 191 94.5 259s143.167 102 240.5 102c78.667 0 143.667 -19.333 195 -58s87 -94.667 107 -168l-56 -17c-38 128 -120 192 -246 192
c-80 0 -145.667 -29 -197 -87s-77 -132.333 -77 -223c0 -92 26.333 -166.5 79 -223.5s119.334 -85.5 200.001 -85.5c71.333 0 133.333 25.167 186 75.5s80 120.166 82 209.499h-268v51h324v-374h-56v165c-22.667 -55.333 -58.167 -98.833 -106.5 -130.5
s-103.166 -47.5 -164.499 -47.5z" />
    <glyph glyph-name="gcircumflex" unicode="&#x11d;" horiz-adv-x="541" 
d="M260 640l-81 -101h-56l110 145h56l109 -145h-57zM448 497c-22.667 0 -41.333 -18.666 -56 -55.999c33.333 -30 50 -70 50 -120c0 -50.667 -16.833 -90.667 -50.5 -120s-77.167 -44 -130.5 -44c-36.667 0 -69 7.33301 -97 22c-35.333 -12 -53 -31.333 -53 -58
c0 -16 5.33301 -29 16 -39s24.667 -15 42 -15h190c108 0 162 -41.667 162 -125c0 -48.667 -23.167 -88 -69.5 -118s-104.166 -45 -173.499 -45c-80 0 -140.5 12.667 -181.5 38s-61.5 60.666 -61.5 105.999c0 44.667 24.333 79.667 73 105c-34 18 -51 46.333 -51 85
c0 40.667 22.667 71.667 68 93c-30 30 -45 68.333 -45 115c0 50.667 16.833 90.834 50.5 120.501s77.167 44.5 130.5 44.5c34 0 64.667 -6.33301 92 -19c25.333 52.667 58.666 79 99.999 79c24 0 44 -7.83301 60 -23.5s24 -38.834 24 -69.501v-12l-47 -8
c-0.666992 42.667 -14.667 64 -42 64zM261.001 203.001c36.667 0 66.667 10.667 90 32s35 50 35 86s-11.833 64.833 -35.5 86.5s-53.5 32.5 -89.5 32.5c-36.667 0 -66.5 -10.667 -89.5 -32s-34.5 -50.333 -34.5 -87s11.5 -65.5 34.5 -86.5s52.833 -31.5 89.5 -31.5z
M355.001 12.001h-165c-28 0 -51.333 -7.83301 -70 -23.5s-28 -35.167 -28 -58.5c0 -68 62.333 -102 187 -102c53.333 0 97.5 9.83301 132.5 29.5s52.5 46.5 52.5 80.5c0 25.333 -8.66699 44 -26 56s-45 18 -83 18z" />
    <glyph glyph-name="Gbreve" unicode="&#x11e;" horiz-adv-x="808" 
d="M385 755c-39.333 0 -70.501 11.5 -93.501 34.5s-34.5 54.833 -34.5 95.5h47c0 -26 7.33301 -46.333 22 -61s34.334 -22 59.001 -22c24 0 43.5 7.66699 58.5 23s22.5 35.333 22.5 60h47c0 -40.667 -11.5 -72.5 -34.5 -95.5s-54.167 -34.5 -93.5 -34.5zM392.999 -13
c-98 0 -178.669 33.833 -242.002 101.5s-95 153.834 -95 258.501s31.5 191 94.5 259s143.167 102 240.5 102c78.667 0 143.667 -19.333 195 -58s87 -94.667 107 -168l-56 -17c-38 128 -120 192 -246 192c-80 0 -145.667 -29 -197 -87s-77 -132.333 -77 -223
c0 -92 26.333 -166.5 79 -223.5s119.334 -85.5 200.001 -85.5c71.333 0 133.333 25.167 186 75.5s80 120.166 82 209.499h-268v51h324v-374h-56v165c-22.667 -55.333 -58.167 -98.833 -106.5 -130.5s-103.166 -47.5 -164.499 -47.5z" />
    <glyph glyph-name="gbreve" unicode="&#x11f;" horiz-adv-x="541" 
d="M261 540c-39.333 0 -70.501 11.5 -93.501 34.5s-34.5 54.833 -34.5 95.5h47c0 -25.333 7.33301 -45.5 22 -60.5s34.334 -22.5 59.001 -22.5c24 0 43.5 7.66699 58.5 23s22.5 35.333 22.5 60h47c0 -40.667 -11.5 -72.5 -34.5 -95.5s-54.167 -34.5 -93.5 -34.5z
M447.999 497c-22.667 0 -41.333 -18.666 -56 -55.999c33.333 -30 50 -70 50 -120c0 -50.667 -16.833 -90.667 -50.5 -120s-77.167 -44 -130.5 -44c-36.667 0 -69 7.33301 -97 22c-35.333 -12 -53 -31.333 -53 -58c0 -16 5.33301 -29 16 -39s24.667 -15 42 -15h190
c108 0 162 -41.667 162 -125c0 -48.667 -23.167 -88 -69.5 -118s-104.166 -45 -173.499 -45c-80 0 -140.5 12.667 -181.5 38s-61.5 60.666 -61.5 105.999c0 44.667 24.333 79.667 73 105c-34 18 -51 46.333 -51 85c0 40.667 22.667 71.667 68 93c-30 30 -45 68.333 -45 115
c0 50.667 16.833 90.834 50.5 120.501s77.167 44.5 130.5 44.5c34 0 64.667 -6.33301 92 -19c25.333 52.667 58.666 79 99.999 79c24 0 44 -7.83301 60 -23.5s24 -38.834 24 -69.501v-12l-47 -8c-0.666992 42.667 -14.667 64 -42 64zM261 203.001
c36.667 0 66.667 10.667 90 32s35 50 35 86s-11.833 64.833 -35.5 86.5s-53.5 32.5 -89.5 32.5c-36.667 0 -66.5 -10.667 -89.5 -32s-34.5 -50.333 -34.5 -87s11.5 -65.5 34.5 -86.5s52.833 -31.5 89.5 -31.5zM355 12.001h-165c-28 0 -51.333 -7.83301 -70 -23.5
s-28 -35.167 -28 -58.5c0 -68 62.333 -102 187 -102c53.333 0 97.5 9.83301 132.5 29.5s52.5 46.5 52.5 80.5c0 25.333 -8.66699 44 -26 56s-45 18 -83 18z" />
    <glyph glyph-name="Gdotaccent" unicode="&#x120;" horiz-adv-x="808" 
d="M385 785c-11.333 0 -20.666 3.66699 -27.999 11s-11 16.333 -11 27c0 11.333 3.66699 20.666 11 27.999s16.666 11 27.999 11s20.666 -3.66699 27.999 -11s11 -16.666 11 -27.999c0 -10.667 -3.66699 -19.667 -11 -27s-16.666 -11 -27.999 -11zM393 -13
c-98 0 -178.669 33.833 -242.002 101.5s-95 153.834 -95 258.501s31.5 191 94.5 259s143.167 102 240.5 102c78.667 0 143.667 -19.333 195 -58s87 -94.667 107 -168l-56 -17c-38 128 -120 192 -246 192c-80 0 -145.667 -29 -197 -87s-77 -132.333 -77 -223
c0 -92 26.333 -166.5 79 -223.5s119.334 -85.5 200.001 -85.5c71.333 0 133.333 25.167 186 75.5s80 120.166 82 209.499h-268v51h324v-374h-56v165c-22.667 -55.333 -58.167 -98.833 -106.5 -130.5s-103.166 -47.5 -164.499 -47.5z" />
    <glyph glyph-name="gdotaccent" unicode="&#x121;" horiz-adv-x="541" 
d="M261 570c-11.333 0 -20.666 3.66699 -27.999 11s-11 16.333 -11 27c0 11.333 3.66699 20.666 11 27.999s16.666 11 27.999 11s20.666 -3.66699 27.999 -11s11 -16.666 11 -27.999c0 -10.667 -3.66699 -19.667 -11 -27s-16.666 -11 -27.999 -11zM448 497
c-22.667 0 -41.333 -18.666 -56 -55.999c33.333 -30 50 -70 50 -120c0 -50.667 -16.833 -90.667 -50.5 -120s-77.167 -44 -130.5 -44c-36.667 0 -69 7.33301 -97 22c-35.333 -12 -53 -31.333 -53 -58c0 -16 5.33301 -29 16 -39s24.667 -15 42 -15h190
c108 0 162 -41.667 162 -125c0 -48.667 -23.167 -88 -69.5 -118s-104.166 -45 -173.499 -45c-80 0 -140.5 12.667 -181.5 38s-61.5 60.666 -61.5 105.999c0 44.667 24.333 79.667 73 105c-34 18 -51 46.333 -51 85c0 40.667 22.667 71.667 68 93c-30 30 -45 68.333 -45 115
c0 50.667 16.833 90.834 50.5 120.501s77.167 44.5 130.5 44.5c34 0 64.667 -6.33301 92 -19c25.333 52.667 58.666 79 99.999 79c24 0 44 -7.83301 60 -23.5s24 -38.834 24 -69.501v-12l-47 -8c-0.666992 42.667 -14.667 64 -42 64zM261.001 203.001
c36.667 0 66.667 10.667 90 32s35 50 35 86s-11.833 64.833 -35.5 86.5s-53.5 32.5 -89.5 32.5c-36.667 0 -66.5 -10.667 -89.5 -32s-34.5 -50.333 -34.5 -87s11.5 -65.5 34.5 -86.5s52.833 -31.5 89.5 -31.5zM355.001 12.001h-165c-28 0 -51.333 -7.83301 -70 -23.5
s-28 -35.167 -28 -58.5c0 -68 62.333 -102 187 -102c53.333 0 97.5 9.83301 132.5 29.5s52.5 46.5 52.5 80.5c0 25.333 -8.66699 44 -26 56s-45 18 -83 18z" />
    <glyph glyph-name="uni0122" unicode="&#x122;" horiz-adv-x="808" 
d="M393 -13c-98 0 -178.669 33.833 -242.002 101.5s-95 153.834 -95 258.501s31.5 191 94.5 259s143.167 102 240.5 102c78.667 0 143.667 -19.333 195 -58s87 -94.667 107 -168l-56 -17c-38 128 -120 192 -246 192c-80 0 -145.667 -29 -197 -87s-77 -132.333 -77 -223
c0 -92 26.333 -166.5 79 -223.5s119.334 -85.5 200.001 -85.5c71.333 0 133.333 25.167 186 75.5s80 120.166 82 209.499h-268v51h324v-374h-56v165c-22.667 -55.333 -58.167 -98.833 -106.5 -130.5s-103.166 -47.5 -164.499 -47.5zM322.998 -230l44 163h56l-50 -163h-50z
" />
    <glyph glyph-name="uni0123" unicode="&#x123;" horiz-adv-x="541" 
d="M330 711l-43 -163h-56l50 163h49zM448 497c-22.667 0 -41.333 -18.666 -56 -55.999c33.333 -30 50 -70 50 -120c0 -50.667 -16.833 -90.667 -50.5 -120s-77.167 -44 -130.5 -44c-36.667 0 -69 7.33301 -97 22c-35.333 -12 -53 -31.333 -53 -58c0 -16 5.33301 -29 16 -39
s24.667 -15 42 -15h190c108 0 162 -41.667 162 -125c0 -48.667 -23.167 -88 -69.5 -118s-104.166 -45 -173.499 -45c-80 0 -140.5 12.667 -181.5 38s-61.5 60.666 -61.5 105.999c0 44.667 24.333 79.667 73 105c-34 18 -51 46.333 -51 85c0 40.667 22.667 71.667 68 93
c-30 30 -45 68.333 -45 115c0 50.667 16.833 90.834 50.5 120.501s77.167 44.5 130.5 44.5c34 0 64.667 -6.33301 92 -19c25.333 52.667 58.666 79 99.999 79c24 0 44 -7.83301 60 -23.5s24 -38.834 24 -69.501v-12l-47 -8c-0.666992 42.667 -14.667 64 -42 64z
M261.001 203.001c36.667 0 66.667 10.667 90 32s35 50 35 86s-11.833 64.833 -35.5 86.5s-53.5 32.5 -89.5 32.5c-36.667 0 -66.5 -10.667 -89.5 -32s-34.5 -50.333 -34.5 -87s11.5 -65.5 34.5 -86.5s52.833 -31.5 89.5 -31.5zM355.001 12.001h-165
c-28 0 -51.333 -7.83301 -70 -23.5s-28 -35.167 -28 -58.5c0 -68 62.333 -102 187 -102c53.333 0 97.5 9.83301 132.5 29.5s52.5 46.5 52.5 80.5c0 25.333 -8.66699 44 -26 56s-45 18 -83 18z" />
    <glyph glyph-name="Hcircumflex" unicode="&#x124;" horiz-adv-x="737" 
d="M231 754l110 145h56l109 -145h-57l-81 101l-81 -101h-56zM94 0v695h58v-315h433v315h58v-695h-58v329h-433v-329h-58z" />
    <glyph glyph-name="hcircumflex" unicode="&#x125;" horiz-adv-x="557" 
d="M-29 740l110 145h56l109 -145h-57l-81 101l-81 -101h-56zM80 0v694.999h57v-297c32 58.667 86 88 162 88c58 0 103 -17 135 -51s48 -81.667 48 -143v-292h-57v285c0 49.333 -11.667 87 -35 113s-57.666 39 -102.999 39c-42.667 0 -78.334 -13.167 -107.001 -39.5
s-43 -62.166 -43 -107.499v-290h-57z" />
    <glyph glyph-name="Hbar" unicode="&#x126;" horiz-adv-x="737" 
d="M711 568v-48h-68v-520h-58v323h-433v-323h-58v520h-68v48h68v127h58v-127h433v127h58v-127h68zM585 374v146h-433v-146h433z" />
    <glyph glyph-name="hbar" unicode="&#x127;" horiz-adv-x="557" 
d="M299 486c58 0 103 -17.001 135 -51.001s48 -81.667 48 -143v-292h-57v285c0 49.333 -11.667 87 -35 113s-57.666 39 -102.999 39c-42.667 0 -78.334 -13.167 -107.001 -39.5s-43 -62.166 -43 -107.499v-290h-57v562h-80v43h80v90h57v-90h159v-43h-159v-164
c32 58.667 86 88 162 88z" />
    <glyph glyph-name="Itilde" unicode="&#x128;" horiz-adv-x="246" 
d="M-25 770c0.666992 32.667 8.5 58.167 23.5 76.5s35.167 27.5 60.5 27.5c22.667 0 45.667 -9.33301 69 -28s41 -28 53 -28c24 0 37.667 18.667 41 56h46c-1.33301 -32.667 -9.5 -58 -24.5 -76s-35.167 -27 -60.5 -27c-22.667 0 -45.5 9.16699 -68.5 27.5
s-40.167 27.5 -51.5 27.5c-26 0 -40 -18.667 -42 -56h-46zM94 0v695h58v-695h-58z" />
    <glyph glyph-name="itilde" unicode="&#x129;" horiz-adv-x="217" 
d="M-40 555c0.666992 32.667 8.5 58.167 23.5 76.5s35.167 27.5 60.5 27.5c22.667 0 45.667 -9.33301 69 -28s41 -28 53 -28c24 0 37.667 18.667 41 56h46c-1.33301 -32.667 -9.5 -58 -24.5 -76s-35.167 -27 -60.5 -27c-22.667 0 -45.5 9.16699 -68.5 27.5
s-40.167 27.5 -51.5 27.5c-25.333 0 -39.333 -18.667 -42 -56h-46zM80 0v475h57v-475h-57z" />
    <glyph glyph-name="Imacron" unicode="&#x12a;" horiz-adv-x="246" 
d="M-16 804v49h278v-49h-278zM94 0v695h58v-695h-58z" />
    <glyph glyph-name="imacron" unicode="&#x12b;" horiz-adv-x="217" 
d="M-31 589v49h278v-49h-278zM80 0v475h57v-475h-57z" />
    <glyph glyph-name="Ibreve" unicode="&#x12c;" horiz-adv-x="246" 
d="M123 755c-39.333 0 -70.501 11.5 -93.501 34.5s-34.5 54.833 -34.5 95.5h47c0 -26 7.33301 -46.333 22 -61s34.334 -22 59.001 -22c24 0 43.5 7.66699 58.5 23s22.5 35.333 22.5 60h47c0 -40.667 -11.5 -72.5 -34.5 -95.5s-54.167 -34.5 -93.5 -34.5zM93.999 0v695h58
v-695h-58z" />
    <glyph glyph-name="ibreve" unicode="&#x12d;" horiz-adv-x="217" 
d="M108 540c-39.333 0 -70.5 11.5 -93.5 34.5s-34.5 54.833 -34.5 95.5h47c0 -25.333 7.5 -45.5 22.5 -60.5s34.5 -22.5 58.5 -22.5s43.5 7.66699 58.5 23s22.5 35.333 22.5 60h47c0 -40.667 -11.5 -72.5 -34.5 -95.5s-54.167 -34.5 -93.5 -34.5zM80 0v475h57v-475h-57z" />
    <glyph glyph-name="Iogonek" unicode="&#x12e;" horiz-adv-x="246" 
d="M163 -135l18 -42c-20 -14.667 -44.333 -22 -73 -22c-25.333 0 -47 6.5 -65 19.5s-27 32.167 -27 57.5c0 40 26 81 78 123v694h58v-695c-28 -24.667 -48.167 -45 -60.5 -61s-18.5 -31.667 -18.5 -47c0 -28.667 15.333 -43 46 -43c15.333 0 30 5.33301 44 16z" />
    <glyph glyph-name="iogonek" unicode="&#x12f;" horiz-adv-x="217" 
d="M108 594c-11.333 0 -21 3.83301 -29 11.5s-12 17.167 -12 28.5s4 20.833 12 28.5s17.667 11.5 29 11.5s21 -3.83301 29 -11.5s12 -17.167 12 -28.5s-4 -20.833 -12 -28.5s-17.667 -11.5 -29 -11.5zM148 -135l18 -42c-20 -14.667 -44.333 -22 -73 -22
c-25.333 0 -47 6.5 -65 19.5s-27 32.167 -27 57.5c0 40 26.333 81.333 79 124v473h57v-475c-28 -24.667 -48.167 -45 -60.5 -61s-18.5 -31.667 -18.5 -47c0 -28.667 15.333 -43 46 -43c15.333 0 30 5.33301 44 16z" />
    <glyph glyph-name="Idotaccent" unicode="&#x130;" horiz-adv-x="246" 
d="M123 785c-11.333 0 -20.666 3.66699 -27.999 11s-11 16.333 -11 27c0 11.333 3.66699 20.666 11 27.999s16.666 11 27.999 11s20.666 -3.66699 27.999 -11s11 -16.666 11 -27.999c0 -10.667 -3.66699 -19.667 -11 -27s-16.666 -11 -27.999 -11zM94 0v695h58v-695h-58z
" />
    <glyph glyph-name="dotlessi" unicode="&#x131;" horiz-adv-x="217" 
d="M80 0v475h57v-475h-57z" />
    <glyph glyph-name="IJ" unicode="&#x132;" horiz-adv-x="698" 
d="M84 318v377h58v-377h-58zM347 -13c-86 0 -150.667 21.332 -194 63.999s-65 96.334 -65 161.001c0 8.66699 0.666992 19 2 31h57c-0.666992 -6 -1 -15.333 -1 -28c0 -52 17.667 -94.5 53 -127.5s84.666 -49.5 147.999 -49.5c69.333 0 121.5 19.167 156.5 57.5
s52.5 93.833 52.5 166.5v433h58v-434c0 -89.333 -23.167 -157.333 -69.5 -204s-112.166 -70 -197.499 -70z" />
    <glyph glyph-name="ij" unicode="&#x133;" horiz-adv-x="434" 
d="M108 594c-11.333 0 -21 3.83301 -29 11.5s-12 17.167 -12 28.5s4 20.833 12 28.5s17.667 11.5 29 11.5s21 -3.83301 29 -11.5s12 -17.167 12 -28.5s-4 -20.833 -12 -28.5s-17.667 -11.5 -29 -11.5zM325 594c-11.333 0 -21 3.83301 -29 11.5s-12 17.167 -12 28.5
s4 20.833 12 28.5s17.667 11.5 29 11.5s21 -3.83301 29 -11.5s12 -17.167 12 -28.5s-4 -20.833 -12 -28.5s-17.667 -11.5 -29 -11.5zM80 0v475h57v-475h-57zM241 -221c-43.333 0 -78.666 17.332 -105.999 51.999l30 42c23.333 -30 47.666 -45 72.999 -45
c39.333 0 59 26.333 59 79v568h57v-567c0 -45.333 -10.5 -78.166 -31.5 -98.499s-48.167 -30.5 -81.5 -30.5z" />
    <glyph glyph-name="Jcircumflex" unicode="&#x134;" horiz-adv-x="585" 
d="M330 754l110 145h56l109 -145h-57l-81 101l-81 -101h-56zM274 -13c-72.667 0 -128.167 19.833 -166.5 59.5s-57.5 90.5 -57.5 152.5c0 19.333 2.66699 41.333 8 66l56 -10c-2.66699 -15.333 -4 -33 -4 -53c0 -49.333 14.167 -89 42.5 -119s68.833 -45 121.5 -45
c112.667 0 169 66.667 169 200v457h58v-464c0 -78.667 -20 -139 -60 -181s-95.667 -63 -167 -63z" />
    <glyph glyph-name="jcircumflex" unicode="&#x135;" horiz-adv-x="217" 
d="M-30 539l110 145h56l109 -145h-57l-81 101l-81 -101h-56zM24 -221c-43.333 0 -78.667 17.332 -106 51.999l30 42c22.667 -30 47 -45 73 -45c39.333 0 59 26.333 59 79v568h57v-567c0 -45.333 -10.5 -78.166 -31.5 -98.499s-48.167 -30.5 -81.5 -30.5z" />
    <glyph glyph-name="uni0136" unicode="&#x136;" horiz-adv-x="669" 
d="M639 52c6 0 11.666 1 16.999 3v-55c-9.33301 -1.33301 -15.666 -2 -18.999 -2c-52.667 0 -95.167 15 -127.5 45s-82.833 94 -151.5 192l-83 117l-123 -119v-233h-58v695h58v-389l395 389h76l-307 -302l94 -132c61.333 -86 105.833 -142.333 133.5 -169s59.5 -40 95.5 -40
zM283.999 -230l44 163h56l-50 -163h-50z" />
    <glyph glyph-name="uni0137" unicode="&#x137;" horiz-adv-x="507" 
d="M483 48c4.66699 0 10.3311 0.666992 16.998 2v-51c-7.33301 -1.33301 -18 -2 -32 -2c-37.333 0 -68.833 11 -94.5 33s-57.167 60.333 -94.5 115l-69 101l-73 -65v-181h-57v695h57v-450l264 230h76l-222 -192l68 -102c36.667 -54 64.834 -89.667 84.501 -107
s44.834 -26 75.501 -26zM178.997 -230l44 163h56l-50 -163h-50z" />
    <glyph glyph-name="kgreenlandic" unicode="&#x138;" horiz-adv-x="507" 
d="M483 48c4.66699 0 10.334 0.666992 17.001 2v-51c-7.33301 -1.33301 -18 -2 -32 -2c-37.333 0 -69 11.167 -95 33.5s-57.333 60.5 -94 114.5l-70 103l-72 -63v-185h-57v475h57v-228l263 228h76l-222 -191l69 -103c35.333 -52.667 63.166 -88 83.499 -106
s45.833 -27 76.5 -27z" />
    <glyph glyph-name="Lacute" unicode="&#x139;" horiz-adv-x="562" 
d="M84 754l108 145h69l-124 -145h-53zM94 0v695h58v-644h396v-51h-454z" />
    <glyph glyph-name="lacute" unicode="&#x13a;" horiz-adv-x="217" 
d="M70 740l108 145h69l-124 -145h-53zM80 0v695h57v-695h-57z" />
    <glyph glyph-name="uni013B" unicode="&#x13b;" horiz-adv-x="562" 
d="M94 0v695h58v-644h396v-51h-454zM245 -230l44 163h56l-50 -163h-50z" />
    <glyph glyph-name="uni013C" unicode="&#x13c;" horiz-adv-x="217" 
d="M80 0v695h57v-695h-57zM36 -230l44 163h56l-50 -163h-50z" />
    <glyph glyph-name="Lcaron" unicode="&#x13d;" horiz-adv-x="562" 
d="M94 0v695h58v-644h396v-51h-454zM249 524l28 171h57l-39 -171h-46z" />
    <glyph glyph-name="lcaron" unicode="&#x13e;" horiz-adv-x="259" 
d="M80 0v695h57v-695h-57zM190 524l28 171h57l-39 -171h-46z" />
    <glyph glyph-name="Ldot" unicode="&#x13f;" horiz-adv-x="562" 
d="M94 0v695h58v-644h396v-51h-454zM403 309c-11.333 0 -21.166 4.16699 -29.499 12.5s-12.5 18.5 -12.5 30.5s4.16699 22.167 12.5 30.5s18.166 12.5 29.499 12.5c12.667 0 23 -4.16699 31 -12.5s12 -18.5 12 -30.5s-4 -22.167 -12 -30.5s-18.333 -12.5 -31 -12.5z" />
    <glyph glyph-name="ldot" unicode="&#x140;" horiz-adv-x="295" 
d="M80 0v695h57v-695h-57zM256 306c-12 0 -22.167 4.16699 -30.5 12.5s-12.5 18.5 -12.5 30.5s4.16699 22.167 12.5 30.5s18.5 12.5 30.5 12.5s22.167 -4.16699 30.5 -12.5s12.5 -18.5 12.5 -30.5s-4.16699 -22.167 -12.5 -30.5s-18.5 -12.5 -30.5 -12.5z" />
    <glyph glyph-name="Lslash" unicode="&#x141;" horiz-adv-x="562" 
d="M152 51h396v-51h-454v331l-75 -31v51l75 31v313h58v-290l184 75v-51l-184 -75v-303z" />
    <glyph glyph-name="lslash" unicode="&#x142;" horiz-adv-x="217" 
d="M223 430v-47l-86 -38v-345h-57v319l-86 -38v48l86 38v328h57v-303z" />
    <glyph glyph-name="Nacute" unicode="&#x143;" horiz-adv-x="725" 
d="M327 754l108 145h69l-124 -145h-53zM94 0v695h64l418 -607v607h56v-695h-64l-419 607v-607h-55z" />
    <glyph glyph-name="nacute" unicode="&#x144;" horiz-adv-x="557" 
d="M245 539l108 145h69l-124 -145h-53zM80 0l-0.00195312 474.999h57v-77c32 58.667 86 88 162 88c58 0 103 -17 135 -51s48 -81.667 48 -143v-292h-57v285c0 49.333 -11.667 87 -35 113s-57.666 39 -102.999 39c-43.333 0 -79.166 -13.167 -107.499 -39.5
s-42.5 -62.166 -42.5 -107.499v-290h-57z" />
    <glyph glyph-name="uni0145" unicode="&#x145;" horiz-adv-x="725" 
d="M94 0v695h64l418 -607v607h56v-695h-64l-419 607v-607h-55zM283 -230l44 163h56l-50 -163h-50z" />
    <glyph glyph-name="uni0146" unicode="&#x146;" horiz-adv-x="557" 
d="M80 0l-0.00195312 474.999h57v-77c32 58.667 86 88 162 88c58 0 103 -17 135 -51s48 -81.667 48 -143v-292h-57v285c0 49.333 -11.667 87 -35 113s-57.666 39 -102.999 39c-43.333 0 -79.166 -13.167 -107.499 -39.5s-42.5 -62.166 -42.5 -107.499v-290h-57z
M205.998 -230.001l44 163h56l-50 -163h-50z" />
    <glyph glyph-name="Ncaron" unicode="&#x147;" horiz-adv-x="725" 
d="M504 900l-111 -146h-55l-110 145h58l81 -101l81 102h56zM94 0v695h64l418 -607v607h56v-695h-64l-419 607v-607h-55z" />
    <glyph glyph-name="ncaron" unicode="&#x148;" horiz-adv-x="557" 
d="M423 685l-111 -146h-55l-110 145h58l81 -101l81 102h56zM80 0l-0.00195312 474.999h57v-77c32 58.667 86 88 162 88c58 0 103 -17 135 -51s48 -81.667 48 -143v-292h-57v285c0 49.333 -11.667 87 -35 113s-57.666 39 -102.999 39
c-43.333 0 -79.166 -13.167 -107.499 -39.5s-42.5 -62.166 -42.5 -107.499v-290h-57z" />
    <glyph glyph-name="napostrophe" unicode="&#x149;" horiz-adv-x="756" 
d="M101 704c14 0 25.667 -5.66895 35 -17.002s14 -26.666 14 -45.999c0 -49.333 -22.333 -93 -67 -131l-29 24c32.667 28.667 49 58.334 49 89.001h-4c-11.333 0 -21 3.83301 -29 11.5s-12 16.834 -12 27.501c0 11.333 4.16699 21.166 12.5 29.499s18.5 12.5 30.5 12.5z
M498 485.998c58 0 102.998 -17.001 134.998 -51.001s48 -81.667 48 -143v-292h-57v285c0 49.333 -11.667 87 -35 113s-57.666 39 -102.999 39c-43.333 0 -79.166 -13.167 -107.499 -39.5s-42.5 -62.166 -42.5 -107.499v-290h-57v475h57v-77c32 58.667 86 88 162 88z" />
    <glyph glyph-name="Eng" unicode="&#x14a;" horiz-adv-x="730" 
d="M517 -215c-50.667 0 -90.334 19 -119.001 57l29 44c24.667 -32.667 53.334 -49 86.001 -49c44.667 0 67 27.333 67 82v83l-428 605v-607h-58v695h66l419 -592v592h57v-777c0 -46.667 -11 -80.5 -33 -101.5s-50.667 -31.5 -86 -31.5z" />
    <glyph glyph-name="eng" unicode="&#x14b;" horiz-adv-x="557" 
d="M367 -222c-45.333 0 -81 17.3311 -107 51.998l29 42c22 -30 47 -45 75 -45c40.667 0 61 26.333 61 79v379c0 49.333 -11.667 87 -35 113s-57.666 39 -102.999 39c-42.667 0 -78.334 -13.167 -107.001 -39.5s-43 -62.166 -43 -107.499v-290h-57v475h57v-77
c32 58.667 86 88 162 88c58 0 103 -17 135 -51s48 -81.667 48 -143v-385c0 -45.333 -10.667 -78.166 -32 -98.499s-49 -30.5 -83 -30.5z" />
    <glyph glyph-name="Omacron" unicode="&#x14c;" horiz-adv-x="794" 
d="M257 804v49h278v-49h-278zM397 -13c-98.667 0 -180.167 33.833 -244.5 101.5s-96.5 153.834 -96.5 258.501s32 191 96 259s145.667 102 245 102c98.667 0 180.167 -34 244.5 -102s96.5 -154.333 96.5 -259s-32.167 -190.834 -96.5 -258.501
s-145.833 -101.5 -244.5 -101.5zM397 38c81.333 0 148.333 29 201 87s79 132 79 222s-26.333 164.167 -79 222.5s-119.667 87.5 -201 87.5s-148.333 -29.167 -201 -87.5s-79 -132.5 -79 -222.5s26.333 -164 79 -222s119.667 -87 201 -87z" />
    <glyph glyph-name="omacron" unicode="&#x14d;" horiz-adv-x="558" 
d="M140 589v49h278v-49h-278zM279 -11c-68 0 -124.167 23.333 -168.5 70s-66.5 106.334 -66.5 179.001c0 72 22.167 131.333 66.5 178s100.5 70 168.5 70s124.167 -23.333 168.5 -70s66.5 -106 66.5 -178c0 -72.667 -22.167 -132.334 -66.5 -179.001s-100.5 -70 -168.5 -70z
M279 38c53.333 0 96 18.5 128 55.5s48 85.167 48 144.5c0 58.667 -16 106.5 -48 143.5s-74.667 55.5 -128 55.5s-96 -18.167 -128 -54.5s-48 -84.5 -48 -144.5s16 -108.333 48 -145s74.667 -55 128 -55z" />
    <glyph glyph-name="Obreve" unicode="&#x14e;" horiz-adv-x="794" 
d="M396 755c-39.333 0 -70.5 11.5 -93.5 34.5s-34.5 54.833 -34.5 95.5h47c0 -26 7.5 -46.333 22.5 -61s34.5 -22 58.5 -22s43.5 7.66699 58.5 23s22.5 35.333 22.5 60h47c0 -40.667 -11.5 -72.5 -34.5 -95.5s-54.167 -34.5 -93.5 -34.5zM397 -13
c-98.667 0 -180.167 33.833 -244.5 101.5s-96.5 153.834 -96.5 258.501s32 191 96 259s145.667 102 245 102c98.667 0 180.167 -34 244.5 -102s96.5 -154.333 96.5 -259s-32.167 -190.834 -96.5 -258.501s-145.833 -101.5 -244.5 -101.5zM397 38c81.333 0 148.333 29 201 87
s79 132 79 222s-26.333 164.167 -79 222.5s-119.667 87.5 -201 87.5s-148.333 -29.167 -201 -87.5s-79 -132.5 -79 -222.5s26.333 -164 79 -222s119.667 -87 201 -87z" />
    <glyph glyph-name="obreve" unicode="&#x14f;" horiz-adv-x="558" 
d="M279 540c-39.333 0 -70.501 11.5 -93.501 34.5s-34.5 54.833 -34.5 95.5h47c0 -25.333 7.33301 -45.5 22 -60.5s34.334 -22.5 59.001 -22.5c24 0 43.5 7.66699 58.5 23s22.5 35.333 22.5 60h47c0 -40.667 -11.5 -72.5 -34.5 -95.5s-54.167 -34.5 -93.5 -34.5z
M278.999 -11c-68 0 -124.167 23.333 -168.5 70s-66.5 106.334 -66.5 179.001c0 72 22.167 131.333 66.5 178s100.5 70 168.5 70s124.167 -23.333 168.5 -70s66.5 -106 66.5 -178c0 -72.667 -22.167 -132.334 -66.5 -179.001s-100.5 -70 -168.5 -70zM278.999 38
c53.333 0 96 18.5 128 55.5s48 85.167 48 144.5c0 58.667 -16 106.5 -48 143.5s-74.667 55.5 -128 55.5s-96 -18.167 -128 -54.5s-48 -84.5 -48 -144.5s16 -108.333 48 -145s74.667 -55 128 -55z" />
    <glyph glyph-name="Ohungarumlaut" unicode="&#x150;" horiz-adv-x="794" 
d="M297 754l99 145h65l-114 -145h-50zM444 754l99 145h65l-114 -145h-50zM397 -13c-98.667 0 -180.167 33.833 -244.5 101.5s-96.5 153.834 -96.5 258.501s32 191 96 259s145.667 102 245 102c98.667 0 180.167 -34 244.5 -102s96.5 -154.333 96.5 -259
s-32.167 -190.834 -96.5 -258.501s-145.833 -101.5 -244.5 -101.5zM397 38c81.333 0 148.333 29 201 87s79 132 79 222s-26.333 164.167 -79 222.5s-119.667 87.5 -201 87.5s-148.333 -29.167 -201 -87.5s-79 -132.5 -79 -222.5s26.333 -164 79 -222s119.667 -87 201 -87z
" />
    <glyph glyph-name="ohungarumlaut" unicode="&#x151;" horiz-adv-x="558" 
d="M180 539l99 145h65l-114 -145h-50zM327 539l99 145h65l-114 -145h-50zM279 -11c-68 0 -124.167 23.333 -168.5 70s-66.5 106.334 -66.5 179.001c0 72 22.167 131.333 66.5 178s100.5 70 168.5 70s124.167 -23.333 168.5 -70s66.5 -106 66.5 -178
c0 -72.667 -22.167 -132.334 -66.5 -179.001s-100.5 -70 -168.5 -70zM279 38c53.333 0 96 18.5 128 55.5s48 85.167 48 144.5c0 58.667 -16 106.5 -48 143.5s-74.667 55.5 -128 55.5s-96 -18.167 -128 -54.5s-48 -84.5 -48 -144.5s16 -108.333 48 -145s74.667 -55 128 -55z
" />
    <glyph glyph-name="OE" unicode="&#x152;" horiz-adv-x="1099" 
d="M644 51l408.001 -0.000976562v-51h-466v45c-54.667 -38.667 -118 -58 -190 -58c-98.667 0 -179.834 33.833 -243.501 101.5s-95.5 153.834 -95.5 258.501c0 105.333 31.833 191.833 95.5 259.5s144.834 101.5 243.501 101.5c71.333 0 134.666 -19.667 189.999 -59v46h462
v-51h-404v-266h334v-51h-334v-276zM396.001 37.999c76 0 139.333 24.333 190 73v473c-50.667 48.667 -114 73 -190 73c-80.667 0 -147.167 -29.167 -199.5 -87.5s-78.5 -132.5 -78.5 -222.5s26.167 -164 78.5 -222s118.833 -87 199.5 -87z" />
    <glyph glyph-name="oe" unicode="&#x153;" horiz-adv-x="945" 
d="M853 156l45 -27.998c-46 -92.667 -117 -139 -213 -139c-46 0 -86.833 11.333 -122.5 34s-62.834 53.667 -81.501 93c-18.667 -39.333 -45.667 -70.333 -81 -93s-75.666 -34 -120.999 -34c-68.667 0 -125 23.167 -169 69.5s-66 105.833 -66 178.5
c0 73.333 22 133.166 66 179.499s100.333 69.5 169 69.5c46 0 86.833 -11.167 122.5 -33.5s62.834 -53.166 81.501 -92.499c18 39.333 44 70.166 78 92.499s73.333 33.5 118 33.5c66 0 118.167 -21.333 156.5 -64s57.5 -99.334 57.5 -170.001
c0 -11.333 -0.333008 -19 -1 -23h-381c1.33301 -57.333 17.666 -103.5 48.999 -138.5s73 -52.5 125 -52.5c76 0 132 39.333 168 118zM279 38.002c54 0 96.833 18.167 128.5 54.5s47.5 84.5 47.5 144.5c0 59.333 -15.833 107.5 -47.5 144.5s-74.5 55.5 -128.5 55.5
c-54.667 0 -97.667 -18.333 -129 -55s-47 -85 -47 -145c0 -60.667 15.667 -109 47 -145s74.333 -54 129 -54zM678 437.002c-46.667 0 -84.8311 -14.5 -114.498 -43.5s-46.834 -68.167 -51.501 -117.5h322c-2.66699 52 -17.334 91.833 -44.001 119.5s-64 41.5 -112 41.5z" />
    <glyph glyph-name="Racute" unicode="&#x154;" horiz-adv-x="663" 
d="M448 899l-124 -145h-53l108 145h69zM629 52c6.66699 0 12.999 1.00098 18.999 3.00098v-55c-9.33301 -1.33301 -16.333 -2 -21 -2c-52 0 -95.5 14.833 -130.5 44.5s-76.833 86.5 -125.5 170.5l-60 100h-159v-313h-58v695h272c71.333 0 126.333 -16.833 165 -50.5
s58 -80.5 58 -140.5c0 -58 -18.667 -104.167 -56 -138.5s-89.333 -51.833 -156 -52.5l46 -75c42.667 -72.667 78.834 -121.834 108.501 -147.501s62.167 -38.5 97.5 -38.5zM151.999 644.001v-280h214c54 0 94.667 12.167 122 36.5s41 58.833 41 103.5
c0 45.333 -13.833 80 -41.5 104s-68.167 36 -121.5 36h-214z" />
    <glyph glyph-name="racute" unicode="&#x155;" horiz-adv-x="430" 
d="M203 539l108 145h69l-124 -145h-53zM80 0l0.000976562 474.999h57v-100c26.667 72.667 74.667 109 144 109c36.667 0 67 -12 91 -36s36 -56.333 36 -97c0 -17.333 -2.33301 -35.666 -7 -54.999l-54 6c2 13.333 3 25.333 3 36c0 63.333 -28 95 -84 95
c-36.667 0 -67.334 -18.167 -92.001 -54.5s-37 -84.5 -37 -144.5v-234h-57z" />
    <glyph glyph-name="uni0156" unicode="&#x156;" horiz-adv-x="663" 
d="M629 52c6.66699 0 12.999 1.00098 18.999 3.00098v-55c-9.33301 -1.33301 -16.333 -2 -21 -2c-52 0 -95.5 14.833 -130.5 44.5s-76.833 86.5 -125.5 170.5l-60 100h-159v-313h-58v695h272c71.333 0 126.333 -16.833 165 -50.5s58 -80.5 58 -140.5
c0 -58 -18.667 -104.167 -56 -138.5s-89.333 -51.833 -156 -52.5l46 -75c42.667 -72.667 78.834 -121.834 108.501 -147.501s62.167 -38.5 97.5 -38.5zM151.999 644.001v-280h214c54 0 94.667 12.167 122 36.5s41 58.833 41 103.5c0 45.333 -13.833 80 -41.5 104
s-68.167 36 -121.5 36h-214zM286.999 -229.999l44 163h56l-50 -163h-50z" />
    <glyph glyph-name="uni0157" unicode="&#x157;" horiz-adv-x="430" 
d="M80 0l0.000976562 474.999h57v-100c26.667 72.667 74.667 109 144 109c36.667 0 67 -12 91 -36s36 -56.333 36 -97c0 -17.333 -2.33301 -35.666 -7 -54.999l-54 6c2 13.333 3 25.333 3 36c0 63.333 -28 95 -84 95c-36.667 0 -67.334 -18.167 -92.001 -54.5
s-37 -84.5 -37 -144.5v-234h-57zM35.001 -230.001l44 163h56l-50 -163h-50z" />
    <glyph glyph-name="Rcaron" unicode="&#x158;" horiz-adv-x="663" 
d="M338 754h-55l-110 145h58l81 -101l81 102h56zM629 52c6.66699 0 12.999 1.00098 18.999 3.00098v-55c-9.33301 -1.33301 -16.333 -2 -21 -2c-52 0 -95.5 14.833 -130.5 44.5s-76.833 86.5 -125.5 170.5l-60 100h-159v-313h-58v695h272
c71.333 0 126.333 -16.833 165 -50.5s58 -80.5 58 -140.5c0 -58 -18.667 -104.167 -56 -138.5s-89.333 -51.833 -156 -52.5l46 -75c42.667 -72.667 78.834 -121.834 108.501 -147.501s62.167 -38.5 97.5 -38.5zM151.999 644.001v-280h214c54 0 94.667 12.167 122 36.5
s41 58.833 41 103.5c0 45.333 -13.833 80 -41.5 104s-68.167 36 -121.5 36h-214z" />
    <glyph glyph-name="rcaron" unicode="&#x159;" horiz-adv-x="430" 
d="M380 685l-111 -146h-55l-110 145h58l81 -101l81 102h56zM80 0l0.000976562 474.999h57v-100c26.667 72.667 74.667 109 144 109c36.667 0 67 -12 91 -36s36 -56.333 36 -97c0 -17.333 -2.33301 -35.666 -7 -54.999l-54 6c2 13.333 3 25.333 3 36c0 63.333 -28 95 -84 95
c-36.667 0 -67.334 -18.167 -92.001 -54.5s-37 -84.5 -37 -144.5v-234h-57z" />
    <glyph glyph-name="Sacute" unicode="&#x15a;" horiz-adv-x="636" 
d="M278 754l108 145h69l-124 -145h-53zM323 -13c-84.667 0 -150.333 18.8359 -197 56.5029s-70 87.167 -70 148.5c0 28 4.33301 57 13 87l54 -16c-6 -20.667 -9 -43.334 -9 -68.001c0 -49.333 19 -87.833 57 -115.5s89.333 -41.5 154 -41.5c60 0 107.5 12.5 142.5 37.5
s52.5 58.833 52.5 101.5c0 37.333 -12.5 66.166 -37.5 86.499s-62.5 36.5 -112.5 48.5l-94 23c-70.667 16 -120.834 39.333 -150.501 70s-44.5 70.667 -44.5 120c0 56.667 21.167 101.334 63.5 134.001s96.5 49 162.5 49c78.667 0 140.834 -20.333 186.501 -61
s71.5 -98.334 77.5 -173.001l-58 -8c-16.667 127.333 -85.667 191 -207 191c-50.667 0 -91.167 -11.333 -121.5 -34s-45.5 -54.667 -45.5 -96c0 -39.333 13.5 -69.333 40.5 -90s65.5 -37 115.5 -49l91 -21c68 -16 117 -38.833 147 -68.5s45 -68.834 45 -117.501
c0 -62.667 -24.5 -110.667 -73.5 -144s-109.5 -50 -181.5 -50z" />
    <glyph glyph-name="sacute" unicode="&#x15b;" horiz-adv-x="479" 
d="M207 539l108 145h69l-124 -145h-53zM250 -11c-58 0 -106.002 14.668 -144.002 44.001s-58.333 73.333 -61 132l53 9c8 -91.333 59 -137 153 -137c37.333 0 67.333 7.83301 90 23.5s34 38.5 34 68.5c0 24 -7.5 42 -22.5 54s-40.833 21.333 -77.5 28l-55 9
c-48 8 -85.167 21.333 -111.5 40s-39.5 50 -39.5 94c0 40.667 15.833 72.834 47.5 96.501s74.834 35.5 129.501 35.5c53.333 0 95 -12.667 125 -38s49.667 -60 59 -104l-52 -13c-18 71.333 -62.667 107 -134 107c-38 0 -67.5 -7.33301 -88.5 -22
s-31.5 -35.334 -31.5 -62.001c0 -24.667 7.83301 -43.167 23.5 -55.5s42.834 -21.5 81.501 -27.5l56 -10c46.667 -8 83.167 -21.167 109.5 -39.5s39.5 -48.833 39.5 -91.5c0 -44.667 -17 -79.334 -51 -104.001s-78.333 -37 -133 -37z" />
    <glyph glyph-name="Scircumflex" unicode="&#x15c;" horiz-adv-x="636" 
d="M179 754l110 145h56l109 -145h-57l-81 101l-81 -101h-56zM323 -13c-84.667 0 -150.333 18.8359 -197 56.5029s-70 87.167 -70 148.5c0 28 4.33301 57 13 87l54 -16c-6 -20.667 -9 -43.334 -9 -68.001c0 -49.333 19 -87.833 57 -115.5s89.333 -41.5 154 -41.5
c60 0 107.5 12.5 142.5 37.5s52.5 58.833 52.5 101.5c0 37.333 -12.5 66.166 -37.5 86.499s-62.5 36.5 -112.5 48.5l-94 23c-70.667 16 -120.834 39.333 -150.501 70s-44.5 70.667 -44.5 120c0 56.667 21.167 101.334 63.5 134.001s96.5 49 162.5 49
c78.667 0 140.834 -20.333 186.501 -61s71.5 -98.334 77.5 -173.001l-58 -8c-16.667 127.333 -85.667 191 -207 191c-50.667 0 -91.167 -11.333 -121.5 -34s-45.5 -54.667 -45.5 -96c0 -39.333 13.5 -69.333 40.5 -90s65.5 -37 115.5 -49l91 -21
c68 -16 117 -38.833 147 -68.5s45 -68.834 45 -117.501c0 -62.667 -24.5 -110.667 -73.5 -144s-109.5 -50 -181.5 -50z" />
    <glyph glyph-name="scircumflex" unicode="&#x15d;" horiz-adv-x="479" 
d="M108 539l110 145h56l109 -145h-57l-81 101l-81 -101h-56zM250 -11c-58 0 -106.002 14.668 -144.002 44.001s-58.333 73.333 -61 132l53 9c8 -91.333 59 -137 153 -137c37.333 0 67.333 7.83301 90 23.5s34 38.5 34 68.5c0 24 -7.5 42 -22.5 54s-40.833 21.333 -77.5 28
l-55 9c-48 8 -85.167 21.333 -111.5 40s-39.5 50 -39.5 94c0 40.667 15.833 72.834 47.5 96.501s74.834 35.5 129.501 35.5c53.333 0 95 -12.667 125 -38s49.667 -60 59 -104l-52 -13c-18 71.333 -62.667 107 -134 107c-38 0 -67.5 -7.33301 -88.5 -22
s-31.5 -35.334 -31.5 -62.001c0 -24.667 7.83301 -43.167 23.5 -55.5s42.834 -21.5 81.501 -27.5l56 -10c46.667 -8 83.167 -21.167 109.5 -39.5s39.5 -48.833 39.5 -91.5c0 -44.667 -17 -79.334 -51 -104.001s-78.333 -37 -133 -37z" />
    <glyph glyph-name="Scedilla" unicode="&#x15e;" horiz-adv-x="636" 
d="M578 181c0 -58.667 -21.333 -104.497 -64 -137.497s-97 -51.5 -163 -55.5l-42 -148h-53l40 148c-76 4 -135 24.5 -177 61.5s-63 84.5 -63 142.5c0 28 4.33301 57 13 87l54 -16c-6 -20.667 -9 -43.334 -9 -68.001c0 -49.333 19 -87.833 57 -115.5s89.333 -41.5 154 -41.5
c60 0 107.5 12.5 142.5 37.5s52.5 58.833 52.5 101.5c0 37.333 -12.5 66.166 -37.5 86.499s-62.5 36.5 -112.5 48.5l-94 23c-70.667 16 -120.834 39.333 -150.501 70s-44.5 70.667 -44.5 120c0 56.667 21.167 101.334 63.5 134.001s96.5 49 162.5 49
c78.667 0 140.834 -20.333 186.501 -61s71.5 -98.334 77.5 -173.001l-58 -8c-16.667 127.333 -85.667 191 -207 191c-50.667 0 -91.167 -11.333 -121.5 -34s-45.5 -54.667 -45.5 -96c0 -39.333 13.5 -69.333 40.5 -90s65.5 -37 115.5 -49l91 -21
c68 -16 117 -38.833 147 -68.5s45 -68.834 45 -117.501z" />
    <glyph glyph-name="scedilla" unicode="&#x15f;" horiz-adv-x="479" 
d="M434 130c0 -40.667 -14.335 -73.166 -43.002 -97.499s-66.667 -38.5 -114 -42.5l-43 -150h-53l40 150c-50.667 4.66699 -92 21.667 -124 51s-49.333 70.666 -52 123.999l53 9c8 -91.333 59 -137 153 -137c37.333 0 67.333 7.83301 90 23.5s34 38.5 34 68.5
c0 24 -7.5 42 -22.5 54s-40.833 21.333 -77.5 28l-55 9c-48 8 -85.167 21.333 -111.5 40s-39.5 50 -39.5 94c0 40.667 15.833 72.834 47.5 96.501s74.834 35.5 129.501 35.5c53.333 0 95 -12.667 125 -38s49.667 -60 59 -104l-52 -13c-18 71.333 -62.667 107 -134 107
c-38 0 -67.5 -7.33301 -88.5 -22s-31.5 -35.334 -31.5 -62.001c0 -24.667 7.83301 -43.167 23.5 -55.5s42.834 -21.5 81.501 -27.5l56 -10c46.667 -8 83.167 -21.167 109.5 -39.5s39.5 -48.833 39.5 -91.5z" />
    <glyph glyph-name="Scaron" unicode="&#x160;" horiz-adv-x="636" 
d="M455 900l-111 -146h-55l-110 145h58l81 -101l81 102h56zM323 -13c-84.667 0 -150.333 18.8359 -197 56.5029s-70 87.167 -70 148.5c0 28 4.33301 57 13 87l54 -16c-6 -20.667 -9 -43.334 -9 -68.001c0 -49.333 19 -87.833 57 -115.5s89.333 -41.5 154 -41.5
c60 0 107.5 12.5 142.5 37.5s52.5 58.833 52.5 101.5c0 37.333 -12.5 66.166 -37.5 86.499s-62.5 36.5 -112.5 48.5l-94 23c-70.667 16 -120.834 39.333 -150.501 70s-44.5 70.667 -44.5 120c0 56.667 21.167 101.334 63.5 134.001s96.5 49 162.5 49
c78.667 0 140.834 -20.333 186.501 -61s71.5 -98.334 77.5 -173.001l-58 -8c-16.667 127.333 -85.667 191 -207 191c-50.667 0 -91.167 -11.333 -121.5 -34s-45.5 -54.667 -45.5 -96c0 -39.333 13.5 -69.333 40.5 -90s65.5 -37 115.5 -49l91 -21
c68 -16 117 -38.833 147 -68.5s45 -68.834 45 -117.501c0 -62.667 -24.5 -110.667 -73.5 -144s-109.5 -50 -181.5 -50z" />
    <glyph glyph-name="scaron" unicode="&#x161;" horiz-adv-x="479" 
d="M384 685l-111 -146h-55l-110 145h58l81 -101l81 102h56zM250 -11c-58 0 -106.002 14.668 -144.002 44.001s-58.333 73.333 -61 132l53 9c8 -91.333 59 -137 153 -137c37.333 0 67.333 7.83301 90 23.5s34 38.5 34 68.5c0 24 -7.5 42 -22.5 54s-40.833 21.333 -77.5 28
l-55 9c-48 8 -85.167 21.333 -111.5 40s-39.5 50 -39.5 94c0 40.667 15.833 72.834 47.5 96.501s74.834 35.5 129.501 35.5c53.333 0 95 -12.667 125 -38s49.667 -60 59 -104l-52 -13c-18 71.333 -62.667 107 -134 107c-38 0 -67.5 -7.33301 -88.5 -22
s-31.5 -35.334 -31.5 -62.001c0 -24.667 7.83301 -43.167 23.5 -55.5s42.834 -21.5 81.501 -27.5l56 -10c46.667 -8 83.167 -21.167 109.5 -39.5s39.5 -48.833 39.5 -91.5c0 -44.667 -17 -79.334 -51 -104.001s-78.333 -37 -133 -37z" />
    <glyph glyph-name="uni0162" unicode="&#x162;" horiz-adv-x="610" 
d="M277 0v644h-252v51h561v-51h-251v-644h-58zM232 -230l44 163h56l-50 -163h-50z" />
    <glyph glyph-name="uni0163" unicode="&#x163;" horiz-adv-x="379" 
d="M217 -11c-82 0 -123 50 -123 150v286h-84v50h84l12 143h45v-143h198v-50h-198v-287c0 -65.333 22.667 -98 68 -98c22 0 40.833 8 56.5 24s30.5 41 44.5 75l47 -21c-33.333 -86 -83.333 -129 -150 -129zM133 -230l44 163h56l-50 -163h-50z" />
    <glyph glyph-name="Tcaron" unicode="&#x164;" horiz-adv-x="610" 
d="M443 900l-111 -146h-55l-110 145h58l81 -101l81 102h56zM277 0v644h-252v51h561v-51h-251v-644h-58z" />
    <glyph glyph-name="tcaron" unicode="&#x165;" horiz-adv-x="379" 
d="M233 536l28 171h57l-39 -171h-46zM217 -11c-82 0 -123 50 -123 150v286h-84v50h84l12 143h45v-143h198v-50h-198v-287c0 -65.333 22.667 -98 68 -98c22 0 40.833 8 56.5 24s30.5 41 44.5 75l47 -21c-33.333 -86 -83.333 -129 -150 -129z" />
    <glyph glyph-name="Tbar" unicode="&#x166;" horiz-adv-x="610" 
d="M586 644h-251v-265h135v-49h-135v-330h-58v330h-137v49h137v265h-252v51h561v-51z" />
    <glyph glyph-name="tbar" unicode="&#x167;" horiz-adv-x="379" 
d="M320 139l47 -20.999c-33.333 -86 -83.333 -129 -150 -129c-42 0 -73 12.167 -93 36.5s-30 62.166 -30 113.499v116h-84v43h84v127h-84v50h84l12 143h45v-143h198v-50h-198v-127h173v-43h-173v-117c0 -65.333 22.667 -98 68 -98c22 0 40.833 8 56.5 24s30.5 41 44.5 75z
" />
    <glyph glyph-name="Utilde" unicode="&#x168;" horiz-adv-x="704" 
d="M204 770c0.666992 32.667 8.5 58.167 23.5 76.5s35.167 27.5 60.5 27.5c22.667 0 45.667 -9.33301 69 -28s41 -28 53 -28c24 0 37.667 18.667 41 56h46c-1.33301 -32.667 -9.5 -58 -24.5 -76s-35.167 -27 -60.5 -27c-22.667 0 -45.5 9.16699 -68.5 27.5
s-40.167 27.5 -51.5 27.5c-25.333 0 -39.333 -18.667 -42 -56h-46zM352 -13c-85.333 0 -151.334 23.998 -198.001 71.998s-70 115.333 -70 202v434h58v-435c0 -71.333 17.833 -126.166 53.5 -164.499s87.834 -57.5 156.501 -57.5c68 0 120 19.333 156 58
s54 93.334 54 164.001v435h58v-434c0 -86.667 -23.167 -154 -69.5 -202s-112.5 -72 -198.5 -72z" />
    <glyph glyph-name="utilde" unicode="&#x169;" horiz-adv-x="551" 
d="M126 555c0.666992 32.667 8.5 58.167 23.5 76.5s35.167 27.5 60.5 27.5c22.667 0 45.667 -9.33301 69 -28s41 -28 53 -28c24 0 37.667 18.667 41 56h46c-1.33301 -32.667 -9.5 -58 -24.5 -76s-35.167 -27 -60.5 -27c-22.667 0 -45.5 9.16699 -68.5 27.5
s-40.167 27.5 -51.5 27.5c-25.333 0 -39.333 -18.667 -42 -56h-46zM255 -11c-57.333 0 -101.667 17 -133 51s-47 81.667 -47 143v292h57v-288c0 -48 11.333 -84.833 34 -110.5s56 -38.5 100 -38.5c42 0 77.167 13 105.5 39s42.5 61 42.5 105v293h57v-475h-57v77
c-15.333 -27.333 -36.833 -48.833 -64.5 -64.5s-59.167 -23.5 -94.5 -23.5z" />
    <glyph glyph-name="Umacron" unicode="&#x16a;" horiz-adv-x="704" 
d="M213 804v49h278v-49h-278zM352 -13c-85.333 0 -151.334 23.998 -198.001 71.998s-70 115.333 -70 202v434h58v-435c0 -71.333 17.833 -126.166 53.5 -164.499s87.834 -57.5 156.501 -57.5c68 0 120 19.333 156 58s54 93.334 54 164.001v435h58v-434
c0 -86.667 -23.167 -154 -69.5 -202s-112.5 -72 -198.5 -72z" />
    <glyph glyph-name="umacron" unicode="&#x16b;" horiz-adv-x="551" 
d="M135 589v49h278v-49h-278zM255 -11c-57.333 0 -101.667 17 -133 51s-47 81.667 -47 143v292h57v-288c0 -48 11.333 -84.833 34 -110.5s56 -38.5 100 -38.5c42 0 77.167 13 105.5 39s42.5 61 42.5 105v293h57v-475h-57v77c-15.333 -27.333 -36.833 -48.833 -64.5 -64.5
s-59.167 -23.5 -94.5 -23.5z" />
    <glyph glyph-name="Ubreve" unicode="&#x16c;" horiz-adv-x="704" 
d="M352 755c-39.333 0 -70.5 11.5 -93.5 34.5s-34.5 54.833 -34.5 95.5h47c0 -26 7.5 -46.333 22.5 -61s34.5 -22 58.5 -22s43.5 7.66699 58.5 23s22.5 35.333 22.5 60h47c0 -40.667 -11.5 -72.5 -34.5 -95.5s-54.167 -34.5 -93.5 -34.5zM352 -13
c-85.333 0 -151.334 23.998 -198.001 71.998s-70 115.333 -70 202v434h58v-435c0 -71.333 17.833 -126.166 53.5 -164.499s87.834 -57.5 156.501 -57.5c68 0 120 19.333 156 58s54 93.334 54 164.001v435h58v-434c0 -86.667 -23.167 -154 -69.5 -202s-112.5 -72 -198.5 -72z
" />
    <glyph glyph-name="ubreve" unicode="&#x16d;" horiz-adv-x="551" 
d="M274 540c-39.333 0 -70.5 11.5 -93.5 34.5s-34.5 54.833 -34.5 95.5h47c0 -25.333 7.5 -45.5 22.5 -60.5s34.5 -22.5 58.5 -22.5s43.5 7.66699 58.5 23s22.5 35.333 22.5 60h47c0 -40.667 -11.5 -72.5 -34.5 -95.5s-54.167 -34.5 -93.5 -34.5zM255 -11
c-57.333 0 -101.667 17 -133 51s-47 81.667 -47 143v292h57v-288c0 -48 11.333 -84.833 34 -110.5s56 -38.5 100 -38.5c42 0 77.167 13 105.5 39s42.5 61 42.5 105v293h57v-475h-57v77c-15.333 -27.333 -36.833 -48.833 -64.5 -64.5s-59.167 -23.5 -94.5 -23.5z" />
    <glyph glyph-name="Uring" unicode="&#x16e;" horiz-adv-x="704" 
d="M352 689c-26 0 -47.667 8.33301 -65 25s-26 37.334 -26 62.001s8.66699 45.334 26 62.001s39 25 65 25c25.333 0 46.833 -8.33301 64.5 -25s26.5 -37.334 26.5 -62.001s-8.83301 -45.334 -26.5 -62.001s-39.167 -25 -64.5 -25zM352 727c14 0 25.667 4.66699 35 14
s14 21 14 35s-4.66699 25.5 -14 34.5s-21 13.5 -35 13.5c-14.667 0 -26.5 -4.5 -35.5 -13.5s-13.5 -20.5 -13.5 -34.5s4.5 -25.667 13.5 -35s20.833 -14 35.5 -14zM352 -13c-85.333 0 -151.334 23.998 -198.001 71.998s-70 115.333 -70 202v434h58v-435
c0 -71.333 17.833 -126.166 53.5 -164.499s87.834 -57.5 156.501 -57.5c68 0 120 19.333 156 58s54 93.334 54 164.001v435h58v-434c0 -86.667 -23.167 -154 -69.5 -202s-112.5 -72 -198.5 -72z" />
    <glyph glyph-name="uring" unicode="&#x16f;" horiz-adv-x="551" 
d="M275 504c-26 0 -47.667 8.33301 -65 25s-26 37.334 -26 62.001s8.66699 45.334 26 62.001s39 25 65 25c25.333 0 46.666 -8.33301 63.999 -25s26 -37.334 26 -62.001s-8.66699 -45.334 -26 -62.001s-38.666 -25 -63.999 -25zM275 542c14 0 25.5 4.66699 34.5 14
s13.5 21 13.5 35s-4.5 25.5 -13.5 34.5s-20.5 13.5 -34.5 13.5c-14.667 0 -26.667 -4.5 -36 -13.5s-14 -20.5 -14 -34.5s4.66699 -25.667 14 -35s21.333 -14 36 -14zM255 -11c-57.333 0 -101.667 17 -133 51s-47 81.667 -47 143v292h57v-288c0 -48 11.333 -84.833 34 -110.5
s56 -38.5 100 -38.5c42 0 77.167 13 105.5 39s42.5 61 42.5 105v293h57v-475h-57v77c-15.333 -27.333 -36.833 -48.833 -64.5 -64.5s-59.167 -23.5 -94.5 -23.5z" />
    <glyph glyph-name="Uhungarumlaut" unicode="&#x170;" horiz-adv-x="704" 
d="M253 754l99 145h65l-114 -145h-50zM400 754l99 145h65l-114 -145h-50zM352 -13c-85.333 0 -151.334 23.998 -198.001 71.998s-70 115.333 -70 202v434h58v-435c0 -71.333 17.833 -126.166 53.5 -164.499s87.834 -57.5 156.501 -57.5c68 0 120 19.333 156 58
s54 93.334 54 164.001v435h58v-434c0 -86.667 -23.167 -154 -69.5 -202s-112.5 -72 -198.5 -72z" />
    <glyph glyph-name="uhungarumlaut" unicode="&#x171;" horiz-adv-x="551" 
d="M175 539l99 145h65l-114 -145h-50zM322 539l99 145h65l-114 -145h-50zM255 -11c-57.333 0 -101.667 17 -133 51s-47 81.667 -47 143v292h57v-288c0 -48 11.333 -84.833 34 -110.5s56 -38.5 100 -38.5c42 0 77.167 13 105.5 39s42.5 61 42.5 105v293h57v-475h-57v77
c-15.333 -27.333 -36.833 -48.833 -64.5 -64.5s-59.167 -23.5 -94.5 -23.5z" />
    <glyph glyph-name="Uogonek" unicode="&#x172;" horiz-adv-x="704" 
d="M562 695l57.999 0.000976562v-434c0 -114 -39 -193.667 -117 -239c-38.667 -26.667 -67.167 -49.834 -85.5 -69.501s-27.5 -39.834 -27.5 -60.501c0 -28.667 15.333 -43 46 -43c16 0 30.667 5.33301 44 16l18 -42c-20 -14.667 -44 -22 -72 -22c-26 0 -48 6.33301 -66 19
s-27 32 -27 58c0 39.333 23.333 76.666 70 111.999c-16 -2 -33 -3 -51 -3c-85.333 0 -151.333 24 -198 72s-70 115.333 -70 202v434h58v-435c0 -71.333 17.833 -126.166 53.5 -164.499s87.834 -57.5 156.501 -57.5c68 0 120 19.333 156 58s54 93.334 54 164.001v435z" />
    <glyph glyph-name="uogonek" unicode="&#x173;" horiz-adv-x="551" 
d="M463 -135l19 -42c-20 -14.667 -44.333 -22 -73 -22c-26 0 -47.833 6.33301 -65.5 19s-26.5 32 -26.5 58c0 44 32.333 86.667 97 128v71c-15.333 -27.333 -36.833 -48.833 -64.5 -64.5s-59.167 -23.5 -94.5 -23.5c-57.333 0 -101.666 17 -132.999 51s-47 81.667 -47 143
v292h57v-288c0 -48 11.333 -84.833 34 -110.5s56 -38.5 100 -38.5c42 0 77.167 13 105.5 39s42.5 61 42.5 105v293h57v-475c-64.667 -42 -97 -78 -97 -108c0 -28.667 15.333 -43 46 -43c15.333 0 29.666 5.33301 42.999 16z" />
    <glyph glyph-name="Wcircumflex" unicode="&#x174;" horiz-adv-x="938" 
d="M330 754l110 145h56l109 -145h-57l-81 101l-81 -101h-56zM220 0l-203 695h60l182 -626l179 626h61l184 -626l177 626h60l-203 -695h-72l-176 607l-177 -607h-72z" />
    <glyph glyph-name="wcircumflex" unicode="&#x175;" horiz-adv-x="709" 
d="M220 539l110 145h56l109 -145h-57l-81 101l-81 -101h-56zM170 0l-151 475h60l126 -415l121 415h58l120 -415l126 415h60l-151 -475h-67l-118 394l-117 -394h-67z" />
    <glyph glyph-name="Ycircumflex" unicode="&#x176;" horiz-adv-x="617" 
d="M173 754l110 145h56l109 -145h-57l-81 101l-81 -101h-56zM278 0v295l-271 400h70l231 -346l233 346h68l-273 -400v-295h-58z" />
    <glyph glyph-name="ycircumflex" unicode="&#x177;" horiz-adv-x="479" 
d="M102 539l110 145h56l109 -145h-57l-81 101l-81 -101h-56zM102 -221c-46.667 0 -80.334 19 -101.001 57l38 37c16.667 -30 38.667 -45 66 -45c20 0 37 8.5 51 25.5s28.667 45.167 44 84.5l25 62h-27l-189 475h61l171 -430l168 430h62l-225 -563
c-19.333 -48.667 -40.166 -83 -62.499 -103s-49.5 -30 -81.5 -30z" />
    <glyph glyph-name="Ydieresis" unicode="&#x178;" horiz-adv-x="617" 
d="M223 787c-11.333 0 -20.666 3.8291 -27.999 11.4961s-11 16.834 -11 27.501s3.66699 19.834 11 27.501s16.666 11.5 27.999 11.5s20.833 -3.66699 28.5 -11s11.5 -16.666 11.5 -27.999s-3.83301 -20.666 -11.5 -27.999s-17.167 -11 -28.5 -11zM401 786.996
c-11.333 0 -20.833 3.66699 -28.5 11s-11.5 16.666 -11.5 27.999s3.83301 20.666 11.5 27.999s17.167 11 28.5 11s20.666 -3.66699 27.999 -11s11 -16.666 11 -27.999s-3.66699 -20.666 -11 -27.999s-16.666 -11 -27.999 -11zM278 -0.00390625v295l-271 400h70l231 -346
l233 346h68l-273 -400v-295h-58z" />
    <glyph glyph-name="Zacute" unicode="&#x179;" horiz-adv-x="587" 
d="M254 754l108 145h69l-124 -145h-53zM32 0v46l442 598h-434v51h507v-46l-444 -598h452v-51h-523z" />
    <glyph glyph-name="zacute" unicode="&#x17a;" horiz-adv-x="442" 
d="M183 539l108 145h69l-124 -145h-53zM27 0v47l307 378h-297v50h369v-47l-308 -378h317v-50h-388z" />
    <glyph glyph-name="Zdotaccent" unicode="&#x17b;" horiz-adv-x="587" 
d="M294 785c-11.333 0 -20.666 3.66699 -27.999 11s-11 16.333 -11 27c0 11.333 3.66699 20.666 11 27.999s16.666 11 27.999 11s20.666 -3.66699 27.999 -11s11 -16.666 11 -27.999c0 -10.667 -3.66699 -19.667 -11 -27s-16.666 -11 -27.999 -11zM32 0v46l442 598h-434v51
h507v-46l-444 -598h452v-51h-523z" />
    <glyph glyph-name="zdotaccent" unicode="&#x17c;" horiz-adv-x="442" 
d="M222 570c-11.333 0 -20.666 3.66699 -27.999 11s-11 16.333 -11 27c0 11.333 3.66699 20.666 11 27.999s16.666 11 27.999 11s20.666 -3.66699 27.999 -11s11 -16.666 11 -27.999c0 -10.667 -3.66699 -19.667 -11 -27s-16.666 -11 -27.999 -11zM27 0v47l307 378h-297v50
h369v-47l-308 -378h317v-50h-388z" />
    <glyph glyph-name="Zcaron" unicode="&#x17d;" horiz-adv-x="587" 
d="M432 900l-111 -146h-55l-110 145h58l81 -101l81 102h56zM32 0v46l442 598h-434v51h507v-46l-444 -598h452v-51h-523z" />
    <glyph glyph-name="zcaron" unicode="&#x17e;" horiz-adv-x="442" 
d="M360 685l-111 -146h-55l-110 145h58l81 -101l81 102h56zM27 0v47l307 378h-297v50h369v-47l-308 -378h317v-50h-388z" />
    <glyph glyph-name="florin" unicode="&#x192;" horiz-adv-x="513" 
d="M399 657c-47.333 0 -75.332 -29.667 -83.999 -89l-23 -165h149l-8 -49h-148l-31 -225c-12.667 -94 -60.667 -141 -144 -141c-33.333 0 -62 10 -86 30l12 54c22 -22 47.667 -33 77 -33c47.333 0 75.333 30 84 90l31 225h-124l8 49h123l23 165
c12.667 93.333 61 140 145 140c33.333 0 61.666 -9.66699 84.999 -29l-11 -55c-22.667 22 -48.667 33 -78 33z" />
    <glyph glyph-name="uni0218" unicode="&#x218;" horiz-adv-x="636" 
d="M323 -13c-84.667 0 -150.333 18.8359 -197 56.5029s-70 87.167 -70 148.5c0 28 4.33301 57 13 87l54 -16c-6 -20.667 -9 -43.334 -9 -68.001c0 -49.333 19 -87.833 57 -115.5s89.333 -41.5 154 -41.5c60 0 107.5 12.5 142.5 37.5s52.5 58.833 52.5 101.5
c0 37.333 -12.5 66.166 -37.5 86.499s-62.5 36.5 -112.5 48.5l-94 23c-70.667 16 -120.834 39.333 -150.501 70s-44.5 70.667 -44.5 120c0 56.667 21.167 101.334 63.5 134.001s96.5 49 162.5 49c78.667 0 140.834 -20.333 186.501 -61s71.5 -98.334 77.5 -173.001l-58 -8
c-16.667 127.333 -85.667 191 -207 191c-50.667 0 -91.167 -11.333 -121.5 -34s-45.5 -54.667 -45.5 -96c0 -39.333 13.5 -69.333 40.5 -90s65.5 -37 115.5 -49l91 -21c68 -16 117 -38.833 147 -68.5s45 -68.834 45 -117.501c0 -62.667 -24.5 -110.667 -73.5 -144
s-109.5 -50 -181.5 -50zM254.001 -229.997l44 163h56l-50 -163h-50z" />
    <glyph glyph-name="uni0219" unicode="&#x219;" horiz-adv-x="479" 
d="M250 -11c-58 0 -106.002 14.668 -144.002 44.001s-58.333 73.333 -61 132l53 9c8 -91.333 59 -137 153 -137c37.333 0 67.333 7.83301 90 23.5s34 38.5 34 68.5c0 24 -7.5 42 -22.5 54s-40.833 21.333 -77.5 28l-55 9c-48 8 -85.167 21.333 -111.5 40s-39.5 50 -39.5 94
c0 40.667 15.833 72.834 47.5 96.501s74.834 35.5 129.501 35.5c53.333 0 95 -12.667 125 -38s49.667 -60 59 -104l-52 -13c-18 71.333 -62.667 107 -134 107c-38 0 -67.5 -7.33301 -88.5 -22s-31.5 -35.334 -31.5 -62.001c0 -24.667 7.83301 -43.167 23.5 -55.5
s42.834 -21.5 81.501 -27.5l56 -10c46.667 -8 83.167 -21.167 109.5 -39.5s39.5 -48.833 39.5 -91.5c0 -44.667 -17 -79.334 -51 -104.001s-78.333 -37 -133 -37zM178.998 -229.999l44 163h56l-50 -163h-50z" />
    <glyph glyph-name="uni021A" unicode="&#x21a;" horiz-adv-x="610" 
d="M277 0v644h-252v51h561v-51h-251v-644h-58zM232 -230l44 163h56l-50 -163h-50z" />
    <glyph glyph-name="uni021B" unicode="&#x21b;" horiz-adv-x="379" 
d="M217 -11c-82 0 -123 50 -123 150v286h-84v50h84l12 143h45v-143h198v-50h-198v-287c0 -65.333 22.667 -98 68 -98c22 0 40.833 8 56.5 24s30.5 41 44.5 75l47 -21c-33.333 -86 -83.333 -129 -150 -129zM133 -230l44 163h56l-50 -163h-50z" />
    <glyph glyph-name="uni0237" unicode="&#x237;" horiz-adv-x="217" 
d="M24 -221c-43.333 0 -78.667 17.332 -106 51.999l30 42c22.667 -30 47 -45 73 -45c39.333 0 59 26.333 59 79v568h57v-567c0 -45.333 -10.5 -78.166 -31.5 -98.499s-48.167 -30.5 -81.5 -30.5z" />
    <glyph glyph-name="circumflex" unicode="&#x2c6;" horiz-adv-x="400" 
d="M62 539l110 145h56l109 -145h-57l-81 101l-81 -101h-56z" />
    <glyph glyph-name="caron" unicode="&#x2c7;" horiz-adv-x="400" 
d="M338 685l-111 -146h-55l-110 145h58l81 -101l81 102h56z" />
    <glyph glyph-name="breve" unicode="&#x2d8;" horiz-adv-x="400" 
d="M200 540c-39.333 0 -70.5 11.5 -93.5 34.5s-34.5 54.833 -34.5 95.5h47c0 -25.333 7.5 -45.5 22.5 -60.5s34.5 -22.5 58.5 -22.5s43.5 7.66699 58.5 23s22.5 35.333 22.5 60h47c0 -40.667 -11.5 -72.5 -34.5 -95.5s-54.167 -34.5 -93.5 -34.5z" />
    <glyph glyph-name="dotaccent" unicode="&#x2d9;" horiz-adv-x="400" 
d="M200 570c-11.333 0 -20.666 3.66699 -27.999 11s-11 16.333 -11 27c0 11.333 3.66699 20.666 11 27.999s16.666 11 27.999 11s20.666 -3.66699 27.999 -11s11 -16.666 11 -27.999c0 -10.667 -3.66699 -19.667 -11 -27s-16.666 -11 -27.999 -11z" />
    <glyph glyph-name="ring" unicode="&#x2da;" horiz-adv-x="400" 
d="M201 504c-26 0 -47.667 8.33301 -65 25s-26 37.334 -26 62.001s8.66699 45.334 26 62.001s39 25 65 25c25.333 0 46.666 -8.33301 63.999 -25s26 -37.334 26 -62.001s-8.66699 -45.334 -26 -62.001s-38.666 -25 -63.999 -25zM201 542c14 0 25.5 4.66699 34.5 14
s13.5 21 13.5 35s-4.5 25.5 -13.5 34.5s-20.5 13.5 -34.5 13.5c-14.667 0 -26.667 -4.5 -36 -13.5s-14 -20.5 -14 -34.5s4.66699 -25.667 14 -35s21.333 -14 36 -14z" />
    <glyph glyph-name="ogonek" unicode="&#x2db;" horiz-adv-x="400" 
d="M189 -199c-26 0 -47.832 6.33301 -65.499 19s-26.5 32 -26.5 58c0 47.333 37.333 93 112 137l42 -15c-64.667 -42 -97 -78 -97 -108c0 -28.667 15.333 -43 46 -43c15.333 0 29.666 5.33301 42.999 16l19 -42c-20 -14.667 -44.333 -22 -73 -22z" />
    <glyph glyph-name="tilde" unicode="&#x2dc;" horiz-adv-x="400" 
d="M52 555c0.666992 32.667 8.5 58.167 23.5 76.5s35.167 27.5 60.5 27.5c22.667 0 45.667 -9.33301 69 -28s41 -28 53 -28c24 0 37.667 18.667 41 56h46c-1.33301 -32.667 -9.5 -58 -24.5 -76s-35.167 -27 -60.5 -27c-22.667 0 -45.5 9.16699 -68.5 27.5
s-40.167 27.5 -51.5 27.5c-25.333 0 -39.333 -18.667 -42 -56h-46z" />
    <glyph glyph-name="hungarumlaut" unicode="&#x2dd;" horiz-adv-x="400" 
d="M101 539l99 145h65l-114 -145h-50zM248 539l99 145h65l-114 -145h-50z" />
    <glyph glyph-name="gravecomb" unicode="&#x300;" horiz-adv-x="0" 
d="M-214 539l-122 145h70l106 -145h-54z" />
    <glyph glyph-name="acutecomb" unicode="&#x301;" horiz-adv-x="0" 
d="M-240 539l108 145h69l-124 -145h-53z" />
    <glyph glyph-name="uni0302" unicode="&#x302;" horiz-adv-x="0" 
d="M-338 539l110 145h56l109 -145h-57l-81 101l-81 -101h-56z" />
    <glyph glyph-name="tildecomb" unicode="&#x303;" horiz-adv-x="0" 
d="M-348 555c0.666992 32.667 8.5 58.167 23.5 76.5s35.167 27.5 60.5 27.5c22.667 0 45.667 -9.33301 69 -28s41 -28 53 -28c24 0 37.667 18.667 41 56h46c-1.33301 -32.667 -9.5 -58 -24.5 -76s-35.167 -27 -60.5 -27c-22.667 0 -45.5 9.16699 -68.5 27.5
s-40.167 27.5 -51.5 27.5c-25.333 0 -39.333 -18.667 -42 -56h-46z" />
    <glyph glyph-name="uni0304" unicode="&#x304;" horiz-adv-x="0" 
d="M-339 589v49h278v-49h-278z" />
    <glyph glyph-name="uni0306" unicode="&#x306;" horiz-adv-x="0" 
d="M-200 540c-39.333 0 -70.5 11.5 -93.5 34.5s-34.5 54.833 -34.5 95.5h47c0 -25.333 7.5 -45.5 22.5 -60.5s34.5 -22.5 58.5 -22.5s43.5 7.66699 58.5 23s22.5 35.333 22.5 60h47c0 -40.667 -11.5 -72.5 -34.5 -95.5s-54.167 -34.5 -93.5 -34.5z" />
    <glyph glyph-name="uni0307" unicode="&#x307;" horiz-adv-x="0" 
d="M-200 570c-11.333 0 -20.666 3.66699 -27.999 11s-11 16.333 -11 27c0 11.333 3.66699 20.666 11 27.999s16.666 11 27.999 11s20.666 -3.66699 27.999 -11s11 -16.666 11 -27.999c0 -10.667 -3.66699 -19.667 -11 -27s-16.666 -11 -27.999 -11z" />
    <glyph glyph-name="uni0308" unicode="&#x308;" horiz-adv-x="0" 
d="M-288 572c-10.667 0 -19.834 3.66699 -27.501 11s-11.5 16.666 -11.5 27.999s3.83301 20.666 11.5 27.999s16.834 11 27.501 11c11.333 0 20.833 -3.66699 28.5 -11s11.5 -16.666 11.5 -27.999s-3.83301 -20.666 -11.5 -27.999s-17.167 -11 -28.5 -11zM-110 572
c-11.333 0 -20.833 3.66699 -28.5 11s-11.5 16.666 -11.5 27.999s3.83301 20.666 11.5 27.999s17.167 11 28.5 11s20.666 -3.66699 27.999 -11s11 -16.666 11 -27.999s-3.66699 -20.666 -11 -27.999s-16.666 -11 -27.999 -11z" />
    <glyph glyph-name="uni030A" unicode="&#x30a;" horiz-adv-x="0" 
d="M-199 504c-26 0 -47.667 8.33301 -65 25s-26 37.334 -26 62.001s8.66699 45.334 26 62.001s39 25 65 25c25.333 0 46.666 -8.33301 63.999 -25s26 -37.334 26 -62.001s-8.66699 -45.334 -26 -62.001s-38.666 -25 -63.999 -25zM-199 542c14 0 25.5 4.66699 34.5 14
s13.5 21 13.5 35s-4.5 25.5 -13.5 34.5s-20.5 13.5 -34.5 13.5c-14.667 0 -26.667 -4.5 -36 -13.5s-14 -20.5 -14 -34.5s4.66699 -25.667 14 -35s21.333 -14 36 -14z" />
    <glyph glyph-name="uni030B" unicode="&#x30b;" horiz-adv-x="0" 
d="M-299 539l99 145h65l-114 -145h-50zM-152 539l99 145h65l-114 -145h-50z" />
    <glyph glyph-name="uni030C" unicode="&#x30c;" horiz-adv-x="0" 
d="M-62 685l-111 -146h-55l-110 145h58l81 -101l81 102h56z" />
    <glyph glyph-name="uni0312" unicode="&#x312;" horiz-adv-x="0" 
d="M-131 711l-43 -163h-56l50 163h49z" />
    <glyph glyph-name="uni0326" unicode="&#x326;" horiz-adv-x="0" 
d="M-273 -230l44 163h56l-50 -163h-50z" />
    <glyph glyph-name="uni0327" unicode="&#x327;" horiz-adv-x="0" 
d="M-271 -160l44 164h56l-47 -164h-53z" />
    <glyph glyph-name="uni0328" unicode="&#x328;" horiz-adv-x="0" 
d="M-211 -199c-26 0 -47.832 6.33301 -65.499 19s-26.5 32 -26.5 58c0 47.333 37.333 93 112 137l42 -15c-64.667 -42 -97 -78 -97 -108c0 -28.667 15.333 -43 46 -43c15.333 0 29.666 5.33301 42.999 16l19 -42c-20 -14.667 -44.333 -22 -73 -22z" />
    <glyph glyph-name="uni0394" unicode="&#x394;" horiz-adv-x="696" 
d="M30 0v47l286 648h63l287 -648v-47h-636zM96 53h502l-251 581z" />
    <glyph glyph-name="uni03A9" unicode="&#x3a9;" horiz-adv-x="800" 
d="M61 0l-0.000976562 52.001h206v56c-56.667 33.333 -103.334 75.666 -140.001 126.999s-55 108.333 -55 171c0 87.333 30.833 159.5 92.5 216.5s140.167 85.5 235.5 85.5s173.833 -28.5 235.5 -85.5s92.5 -129.167 92.5 -216.5c0 -62 -18.333 -118 -55 -168
s-83.334 -93 -140.001 -129v-57h206v-52h-264v124c128 80 192 174 192 282c0 73.333 -25.167 133.5 -75.5 180.5s-114.166 70.5 -191.499 70.5s-141.166 -23.5 -191.499 -70.5s-75.5 -107.167 -75.5 -180.5c0 -56.667 17.833 -109 53.5 -157s81.834 -89.667 138.501 -125
v-124h-264z" />
    <glyph glyph-name="uni03BC" unicode="&#x3bc;" horiz-adv-x="554" 
d="M80 -210v685h57v-288c0 -48 11.333 -84.833 34 -110.5s55.667 -38.5 99 -38.5c42 0 77 13 105 39s42 61 42 105v293h57v-475h-57v77c-14.667 -27.333 -35.5 -48.833 -62.5 -64.5s-57.5 -23.5 -91.5 -23.5c-60 0 -103 19.667 -129 59l3 -258h-57z" />
    <glyph glyph-name="pi" unicode="&#x3c0;" horiz-adv-x="582" 
d="M567 425h-116v-324c0 -36.667 13.667 -55 41 -55c18 0 32.667 9.66699 44 29l20 -43c-15.333 -25.333 -40 -38 -74 -38c-58.667 0 -88 34.667 -88 104v327h-232v-425h-57v425h-105v50h567v-50z" />
    <glyph glyph-name="Wgrave" unicode="&#x1e80;" horiz-adv-x="938" 
d="M454 754l-122 145h70l106 -145h-54zM220 0l-203 695h60l182 -626l179 626h61l184 -626l177 626h60l-203 -695h-72l-176 607l-177 -607h-72z" />
    <glyph glyph-name="wgrave" unicode="&#x1e81;" horiz-adv-x="709" 
d="M344 539l-122 145h70l106 -145h-54zM170 0l-151 475h60l126 -415l121 415h58l120 -415l126 415h60l-151 -475h-67l-118 394l-117 -394h-67z" />
    <glyph glyph-name="Wacute" unicode="&#x1e82;" horiz-adv-x="938" 
d="M429 754l108 145h69l-124 -145h-53zM220 0l-203 695h60l182 -626l179 626h61l184 -626l177 626h60l-203 -695h-72l-176 607l-177 -607h-72z" />
    <glyph glyph-name="wacute" unicode="&#x1e83;" horiz-adv-x="709" 
d="M319 539l108 145h69l-124 -145h-53zM170 0l-151 475h60l126 -415l121 415h58l120 -415l126 415h60l-151 -475h-67l-118 394l-117 -394h-67z" />
    <glyph glyph-name="Wdieresis" unicode="&#x1e84;" horiz-adv-x="938" 
d="M380 787c-10.667 0 -19.834 3.8291 -27.501 11.4961s-11.5 16.834 -11.5 27.501s3.83301 19.834 11.5 27.501s16.834 11.5 27.501 11.5c11.333 0 20.833 -3.66699 28.5 -11s11.5 -16.666 11.5 -27.999s-3.83301 -20.666 -11.5 -27.999s-17.167 -11 -28.5 -11z
M558 786.996c-11.333 0 -20.833 3.66699 -28.5 11s-11.5 16.666 -11.5 27.999s3.83301 20.666 11.5 27.999s17.167 11 28.5 11s20.666 -3.66699 27.999 -11s11 -16.666 11 -27.999s-3.66699 -20.666 -11 -27.999s-16.666 -11 -27.999 -11zM220 -0.00390625l-203 695h60
l182 -626l179 626h61l184 -626l177 626h60l-203 -695h-72l-176 607l-177 -607h-72z" />
    <glyph glyph-name="wdieresis" unicode="&#x1e85;" horiz-adv-x="709" 
d="M270 572c-10.667 0 -19.834 3.66699 -27.501 11s-11.5 16.666 -11.5 27.999s3.83301 20.666 11.5 27.999s16.834 11 27.501 11c11.333 0 20.833 -3.66699 28.5 -11s11.5 -16.666 11.5 -27.999s-3.83301 -20.666 -11.5 -27.999s-17.167 -11 -28.5 -11zM448 572
c-11.333 0 -20.833 3.66699 -28.5 11s-11.5 16.666 -11.5 27.999s3.83301 20.666 11.5 27.999s17.167 11 28.5 11s20.666 -3.66699 27.999 -11s11 -16.666 11 -27.999s-3.66699 -20.666 -11 -27.999s-16.666 -11 -27.999 -11zM170 0l-151 475h60l126 -415l121 415h58
l120 -415l126 415h60l-151 -475h-67l-118 394l-117 -394h-67z" />
    <glyph glyph-name="uni1E9E" unicode="&#x1e9e;" horiz-adv-x="752" 
d="M484 -13c-59.333 0 -109.333 11.6689 -150 35.002s-70.334 55.333 -89.001 96l45 34c14.667 -36 38.834 -64 72.501 -84s74.5 -30 122.5 -30c49.333 0 88.333 13 117 39s43 60.667 43 104c0 47.333 -24.5 85.166 -73.5 113.499s-115.5 43.833 -199.5 46.5l-13 41l241 262
h-448v-644h-58v695h569v-59l-229 -249c88.667 -8 156.167 -30.667 202.5 -68s69.5 -83 69.5 -137c0 -62.667 -21 -110.834 -63 -144.501s-95 -50.5 -159 -50.5z" />
    <glyph glyph-name="Ygrave" unicode="&#x1ef2;" horiz-adv-x="617" 
d="M297 754l-122 145h70l106 -145h-54zM278 0v295l-271 400h70l231 -346l233 346h68l-273 -400v-295h-58z" />
    <glyph glyph-name="ygrave" unicode="&#x1ef3;" horiz-adv-x="479" 
d="M226 539l-122 145h70l106 -145h-54zM102 -221c-46.667 0 -80.334 19 -101.001 57l38 37c16.667 -30 38.667 -45 66 -45c20 0 37 8.5 51 25.5s28.667 45.167 44 84.5l25 62h-27l-189 475h61l171 -430l168 430h62l-225 -563c-19.333 -48.667 -40.166 -83 -62.499 -103
s-49.5 -30 -81.5 -30z" />
    <glyph glyph-name="endash" unicode="&#x2013;" horiz-adv-x="604" 
d="M67 276v49h470v-49h-470z" />
    <glyph glyph-name="emdash" unicode="&#x2014;" horiz-adv-x="1000" 
d="M35 276v49h930v-49h-930z" />
    <glyph glyph-name="quoteleft" unicode="&#x2018;" horiz-adv-x="199" 
d="M100 592c11.333 0 21 -3.83203 29 -11.499s12 -16.834 12 -27.501c0 -11.333 -4.16699 -21.166 -12.5 -29.499s-18.5 -12.5 -30.5 -12.5c-14 0 -25.667 5.66699 -35 17s-14 26.666 -14 45.999c0 48 22.333 91.667 67 131l29 -24c-33.333 -29.333 -49.333 -59 -48 -89h3z
" />
    <glyph glyph-name="quoteright" unicode="&#x2019;" horiz-adv-x="199" 
d="M101 704c14 0 25.667 -5.66895 35 -17.002s14 -26.666 14 -45.999c0 -49.333 -22.333 -93 -67 -131l-29 24c32.667 28.667 49 58.334 49 89.001h-4c-11.333 0 -21 3.83301 -29 11.5s-12 16.834 -12 27.501c0 11.333 4.16699 21.166 12.5 29.499s18.5 12.5 30.5 12.5z" />
    <glyph glyph-name="quotesinglbase" unicode="&#x201a;" horiz-adv-x="199" 
d="M101 73c14 0 25.667 -5.66797 35 -17.001s14 -26.333 14 -45c0 -50 -22.333 -93.667 -67 -131l-29 23c32.667 30 49 60 49 90h-4c-11.333 0 -21 3.83301 -29 11.5s-12 16.834 -12 27.501c0 11.333 4.16699 21 12.5 29s18.5 12 30.5 12z" />
    <glyph glyph-name="quotedblleft" unicode="&#x201c;" horiz-adv-x="338" 
d="M145 681c-33.333 -29.333 -49.333 -58.999 -48 -88.999h3c11.333 0 21 -3.83301 29 -11.5s12 -16.834 12 -27.501c0 -11.333 -4.16699 -21.166 -12.5 -29.499s-18.5 -12.5 -30.5 -12.5c-14 0 -25.667 5.66699 -35 17s-14 26.666 -14 45.999c0 48 22.333 91.667 67 131z
M239 592.001c10.667 0 19.998 -3.83203 27.998 -11.499s12 -16.834 12 -27.501c0 -11.333 -4.16699 -21.166 -12.5 -29.499s-18.5 -12.5 -30.5 -12.5c-13.333 0 -24.666 5.66699 -33.999 17s-14 26.666 -14 45.999c0 49.333 22.333 93 67 131l29 -24
c-33.333 -29.333 -49.666 -59 -48.999 -89h4z" />
    <glyph glyph-name="quotedblright" unicode="&#x201d;" horiz-adv-x="338" 
d="M101 704c14 0 25.667 -5.66895 35 -17.002s14 -26.666 14 -45.999c0 -49.333 -22.333 -93 -67 -131l-29 24c32.667 28.667 49 58.334 49 89.001h-4c-11.333 0 -21 3.83301 -29 11.5s-12 16.834 -12 27.501c0 11.333 4.16699 21.166 12.5 29.499s18.5 12.5 30.5 12.5z
M240 703.998c14 0 25.667 -5.66797 35 -17.001s14 -26.666 14 -45.999c0 -48 -22.333 -91.667 -67 -131l-29 24c33.333 29.333 49.333 59 48 89h-4c-10.667 0 -20 3.83301 -28 11.5s-12 16.834 -12 27.501c0 11.333 4.16699 21.166 12.5 29.499s18.5 12.5 30.5 12.5z" />
    <glyph glyph-name="quotedblbase" unicode="&#x201e;" horiz-adv-x="340" 
d="M101 73c14 0 25.667 -5.66797 35 -17.001s14 -26.333 14 -45c0 -50 -22.333 -93.667 -67 -131l-29 23c32.667 30 49 60 49 90h-4c-11.333 0 -21 3.83301 -29 11.5s-12 16.834 -12 27.501c0 11.333 4.16699 21 12.5 29s18.5 12 30.5 12zM242 72.999
c14 0 25.667 -5.66797 35 -17.001s14 -26.333 14 -45c0 -50 -22.333 -93.667 -67 -131l-29 23c32.667 30 49 60 49 90h-4c-11.333 0 -21 3.83301 -29 11.5s-12 16.834 -12 27.501c0 11.333 4.16699 21 12.5 29s18.5 12 30.5 12z" />
    <glyph glyph-name="dagger" unicode="&#x2020;" horiz-adv-x="432" 
d="M393 543v-49h-151v-226h-51v226h-151v49h151v152h51v-152h151z" />
    <glyph glyph-name="daggerdbl" unicode="&#x2021;" horiz-adv-x="432" 
d="M393 502h-151v-118h151v-49h-151v-144h-51v144h-151v49h151v118h-151v49h151v144h51v-144h151v-49z" />
    <glyph glyph-name="bullet" unicode="&#x2022;" horiz-adv-x="300" 
d="M150 246c-20.667 0 -38.167 7.16699 -52.5 21.5s-21.5 31.833 -21.5 52.5s7.16699 38.167 21.5 52.5s31.833 21.5 52.5 21.5c21.333 0 39 -7 53 -21s21 -31.667 21 -53c0 -20.667 -7.16699 -38.167 -21.5 -52.5s-31.833 -21.5 -52.5 -21.5z" />
    <glyph glyph-name="ellipsis" unicode="&#x2026;" horiz-adv-x="572" 
d="M99 -9c-12 0 -22.167 4.16699 -30.5 12.5s-12.5 18.5 -12.5 30.5s4.16699 22 12.5 30s18.5 12 30.5 12s22.167 -4 30.5 -12s12.5 -18 12.5 -30s-4.16699 -22.167 -12.5 -30.5s-18.5 -12.5 -30.5 -12.5zM285 -9c-11.333 0 -21.166 4.16699 -29.499 12.5
s-12.5 18.5 -12.5 30.5s4.16699 22 12.5 30s18.166 12 29.499 12c12.667 0 23 -4 31 -12s12 -18 12 -30s-4 -22.167 -12 -30.5s-18.333 -12.5 -31 -12.5zM473 -9c-12 0 -22.167 4.16699 -30.5 12.5s-12.5 18.5 -12.5 30.5s4.16699 22 12.5 30s18.5 12 30.5 12
s22.167 -4 30.5 -12s12.5 -18 12.5 -30s-4.16699 -22.167 -12.5 -30.5s-18.5 -12.5 -30.5 -12.5z" />
    <glyph glyph-name="perthousand" unicode="&#x2030;" horiz-adv-x="1321" 
d="M212 324c-50.667 0 -91.334 17.5 -122.001 52.5s-46 81.167 -46 138.5s15.333 103.5 46 138.5s71.334 52.5 122.001 52.5s91.334 -17.5 122.001 -52.5s46 -81.167 46 -138.5s-15.333 -103.5 -46 -138.5s-71.334 -52.5 -122.001 -52.5zM213 0l437 695h54l-436 -695h-55z
M212 370c34.667 0 62.667 13.167 84 39.5s32 61.5 32 105.5c0 43.333 -10.667 78.333 -32 105s-49.333 40 -84 40s-62.667 -13.333 -84 -40s-32 -61.667 -32 -105c0 -44 10.667 -79.167 32 -105.5s49.333 -39.5 84 -39.5zM705 -11c-50.667 0 -91.334 17.5 -122.001 52.5
s-46 81.167 -46 138.5s15.333 103.5 46 138.5s71.334 52.5 122.001 52.5s91.5 -17.5 122.5 -52.5s46.5 -81.167 46.5 -138.5s-15.5 -103.5 -46.5 -138.5s-71.833 -52.5 -122.5 -52.5zM1109 -11c-50.667 0 -91.5 17.5 -122.5 52.5s-46.5 81.167 -46.5 138.5
s15.5 103.5 46.5 138.5s71.833 52.5 122.5 52.5s91.334 -17.5 122.001 -52.5s46 -81.167 46 -138.5s-15.333 -103.5 -46 -138.5s-71.334 -52.5 -122.001 -52.5zM705 35c34.667 0 62.667 13.167 84 39.5s32 61.5 32 105.5c0 43.333 -10.667 78.333 -32 105s-49.333 40 -84 40
c-34 0 -61.667 -13.333 -83 -40s-32 -61.667 -32 -105c0 -44 10.667 -79.167 32 -105.5s49 -39.5 83 -39.5zM1109 35c34 0 61.667 13.167 83 39.5s32 61.5 32 105.5c0 43.333 -10.667 78.333 -32 105s-49 40 -83 40c-34.667 0 -62.667 -13.333 -84 -40s-32 -61.667 -32 -105
c0 -44 10.667 -79.167 32 -105.5s49.333 -39.5 84 -39.5z" />
    <glyph glyph-name="guilsinglleft" unicode="&#x2039;" horiz-adv-x="299" 
d="M246 123l-202 134v52l202 134v-57l-153 -103l153 -103v-57z" />
    <glyph glyph-name="guilsinglright" unicode="&#x203a;" horiz-adv-x="299" 
d="M54 123v57l153 103l-153 102v58l202 -134v-52z" />
    <glyph glyph-name="fraction" unicode="&#x2044;" horiz-adv-x="281" 
d="M-124 0l477 695h52l-477 -695h-52z" />
    <glyph glyph-name="uni2074" unicode="&#x2074;" horiz-adv-x="355" 
d="M231 282l0.000976562 103h-211v49c90 92.667 140.667 179.667 152 261h51c-14.667 -93.333 -66.334 -182.333 -155.001 -267h163v105h47v-105h63v-43h-63v-103h-47z" />
    <glyph glyph-name="Euro" unicode="&#x20ac;" horiz-adv-x="733" 
d="M620 223l56.002 -11.999c-35.333 -149.333 -130 -224 -284 -224c-70.667 0 -131.167 22 -181.5 66s-84.166 104 -101.499 180h-98v48h90c-2.66699 18.667 -4 40.667 -4 66c0 10 0.666992 25 2 45h-88v48h95c15.333 81.333 49.166 146.333 101.499 195
s114.166 73 185.499 73c73.333 0 133.333 -20.333 180 -61s78.334 -100 95.001 -178l-54 -13c-31.333 134 -105 201 -221 201c-56.667 0 -105.334 -19.5 -146.001 -58.5s-67.667 -91.833 -81 -158.5h247v-48h-254c-1.33301 -20 -2 -35 -2 -45
c0 -25.333 1.33301 -47.333 4 -66h252v-48h-242c16 -60.667 43.667 -108.334 83 -143.001s85.666 -52 138.999 -52c121.333 0 197 61.667 227 185z" />
    <glyph glyph-name="trademark" unicode="&#x2122;" horiz-adv-x="628" 
d="M114 441v222h-89v32h212v-32h-89v-222h-34zM277 441v254h42l97 -161l97 161h41v-254h-33v205l-94 -154h-24l-93 154v-205h-33z" />
    <glyph glyph-name="uni2126" unicode="&#x2126;" horiz-adv-x="800" 
d="M61 0l-0.000976562 52.001h206v56c-56.667 33.333 -103.334 75.666 -140.001 126.999s-55 108.333 -55 171c0 87.333 30.833 159.5 92.5 216.5s140.167 85.5 235.5 85.5s173.833 -28.5 235.5 -85.5s92.5 -129.167 92.5 -216.5c0 -62 -18.333 -118 -55 -168
s-83.334 -93 -140.001 -129v-57h206v-52h-264v124c128 80 192 174 192 282c0 73.333 -25.167 133.5 -75.5 180.5s-114.166 70.5 -191.499 70.5s-141.166 -23.5 -191.499 -70.5s-75.5 -107.167 -75.5 -180.5c0 -56.667 17.833 -109 53.5 -157s81.834 -89.667 138.501 -125
v-124h-264z" />
    <glyph glyph-name="arrowleft" unicode="&#x2190;" horiz-adv-x="721" 
d="M581 318c32.667 -12.667 54.334 -32.6699 65.001 -60.0029s16 -69.666 16 -126.999l-61 -4c1.33301 108.667 -29 163 -91 163h-309c20.667 -16.667 35.834 -37 45.501 -61s15.167 -60.333 16.5 -109l-56 -5c-8 49.333 -23.167 87 -45.5 113s-58.166 50 -107.499 72v38
c49.333 21.333 85.166 45 107.499 71s37.5 64 45.5 114l56 -5c-1.33301 -48.667 -6.83301 -85 -16.5 -109s-24.834 -44.667 -45.501 -62h309c35.333 0 59.5 14.667 72.5 44s19.167 69.333 18.5 120l61 -5c0 -57.333 -5.33301 -99.666 -16 -126.999
s-32.334 -47.666 -65.001 -60.999z" />
    <glyph glyph-name="arrowup" unicode="&#x2191;" horiz-adv-x="720" 
d="M559 461c-48.667 2 -85 7.83203 -109 17.499s-44.667 24.834 -62 45.501v-336c0 -36 14.667 -60.5 44 -73.5s69.333 -19.167 120 -18.5l-5 -61c-56.667 0 -98.834 5.5 -126.501 16.5s-48.167 32.833 -61.5 65.5c-12.667 -32.667 -32.667 -54.5 -60 -65.5
s-69.666 -16.5 -126.999 -16.5l-4 61c108.667 -1.33301 163 29.334 163 92.001v336c-16.667 -20.667 -37 -35.834 -61 -45.501s-60.333 -15.5 -109 -17.5l-5 57c49.333 7.33301 87 22.333 113 45s50 58.667 72 108h38c21.333 -49.333 45 -85.333 71 -108s64 -37.667 114 -45
z" />
    <glyph glyph-name="arrowright" unicode="&#x2192;" horiz-adv-x="721" 
d="M514 523c7.33301 -50 22.333 -88.0039 45 -114.004s58.667 -49.667 108 -71v-38c-49.333 -22 -85.333 -46 -108 -72s-37.667 -63.667 -45 -113l-57 5c2 48.667 7.83301 85 17.5 109s24.5 44.333 44.5 61h-308c-35.333 0 -59.5 -14.5 -72.5 -43.5
s-19.5 -68.833 -19.5 -119.5l-61 5c0 56.667 5.5 98.834 16.5 126.501s32.833 47.834 65.5 60.501c-32.667 12.667 -54.5 32.834 -65.5 60.501s-16.5 69.834 -16.5 126.501l61 5c0 -51.333 6.5 -91.5 19.5 -120.5s37.167 -43.5 72.5 -43.5h308
c-20.667 17.333 -35.667 38 -45 62s-15 60.333 -17 109z" />
    <glyph glyph-name="arrowdown" unicode="&#x2193;" horiz-adv-x="720" 
d="M559 236l4.99609 -56.9971c-50 -7.33301 -88 -22.333 -114 -45s-49.667 -58.667 -71 -108h-38c-22 49.333 -46 85.333 -72 108s-63.667 37.667 -113 45l5 57c48.667 -2 85 -7.83301 109 -17.5s44.333 -24.5 61 -44.5v335c0 24.667 -8 44.167 -24 58.5
s-35 23.666 -57 27.999s-49.333 6.16602 -82 5.49902l5 61c56.667 0 98.834 -5.5 126.501 -16.5s47.834 -32.833 60.501 -65.5c12.667 32.667 32.834 54.5 60.501 65.5s69.834 16.5 126.501 16.5l5 -61c-109.333 1.33301 -164 -29.334 -164 -92.001v-335
c17.333 20.667 38 35.667 62 45s60.333 15 109 17z" />
    <glyph glyph-name="arrowboth" unicode="&#x2194;" horiz-adv-x="848" 
d="M641 519c8 -48 23.335 -84.834 46.002 -110.501s58.667 -49.5 108 -71.5v-38c-49.333 -21.333 -85.333 -45 -108 -71s-38 -63 -46 -111l-56 5c2 47.333 7.83301 82.833 17.5 106.5s24.5 44.167 44.5 61.5h-446c20.667 -17.333 35.834 -37.833 45.501 -61.5
s15.167 -59.167 16.5 -106.5l-56 -5c-8 48.667 -23.333 85.834 -46 111.501s-58.334 49.167 -107.001 70.5v38c49.333 22 85.166 45.833 107.499 71.5s37.5 62.5 45.5 110.5l56 -5c-1.33301 -47.333 -6.83301 -82.833 -16.5 -106.5s-24.834 -43.834 -45.501 -60.501h446
c-20 16.667 -34.833 36.834 -44.5 60.501s-15.5 59.167 -17.5 106.5z" />
    <glyph glyph-name="arrowupdn" unicode="&#x2195;" horiz-adv-x="714" 
d="M385 98c17.333 20.667 37.833 35.834 61.5 45.501s59.167 15.5 106.5 17.5l5 -57c-48.667 -7.33301 -85.834 -22.333 -111.501 -45s-49.167 -59 -70.5 -109h-38c-22 50 -45.833 86.333 -71.5 109s-62.5 37.667 -110.5 45l5 57c47.333 -2 82.833 -7.83301 106.5 -17.5
s43.834 -24.834 60.501 -45.501v482c-16.667 -20.667 -36.834 -35.834 -60.501 -45.501s-59.167 -15.167 -106.5 -16.5l-5 56c48 8 84.833 23.167 110.5 45.5s49.5 58.166 71.5 107.499h38c21.333 -49.333 44.833 -85.166 70.5 -107.499s62.834 -37.5 111.501 -45.5l-5 -56
c-47.333 1.33301 -82.833 6.83301 -106.5 16.5s-44.167 24.834 -61.5 45.501v-482z" />
    <glyph glyph-name="uni2196" unicode="&#x2196;" horiz-adv-x="719" 
d="M684 283c-40.667 -40.667 -73.6709 -66.499 -99.0039 -77.499s-55.666 -10.167 -90.999 2.5c10.667 -20.667 14 -41.5 10 -62.5s-12.333 -40.833 -25 -59.5s-32.667 -41.334 -60 -68.001l-46 40c78 76.667 94.667 136.667 50 180l-237 238
c2.66699 -26.667 -1.16602 -51.834 -11.499 -75.501s-32.166 -53.5 -65.499 -89.5l-43 37c30 40 46.167 78.167 48.5 114.5s-6.5 77.833 -26.5 124.5l27 26c46.667 -19.333 88 -27.833 124 -25.5s74.333 18.5 115 48.5l37 -44c-36 -32.667 -65.833 -54.167 -89.5 -64.5
s-48.834 -14.166 -75.501 -11.499l238 -238c12.667 -12.667 26.5 -20.5 41.5 -23.5s30.333 -1.16699 46 5.5s30.834 15.667 45.501 27s30.334 25.333 47.001 42z" />
    <glyph glyph-name="uni2197" unicode="&#x2197;" horiz-adv-x="720" 
d="M632 586c-20 -46 -28.8359 -87.168 -26.5029 -123.501s18.5 -74.5 48.5 -114.5l-43 -37c-33.333 36 -55.166 65.833 -65.499 89.5s-14.166 48.834 -11.499 75.501l-237 -238c-13.333 -13.333 -21.5 -27.5 -24.5 -42.5s-1 -30.333 6 -46s16 -30.667 27 -45
s25.167 -29.833 42.5 -46.5l-47 -40c-26.667 26.667 -46.5 49.334 -59.5 68.001s-21.5 38.667 -25.5 60s-0.666992 42 10 62c-35.333 -12.667 -65.666 -13.5 -90.999 -2.5s-58.333 36.833 -99 77.5l40 46c72 -73.333 129.333 -93 172 -59l246 246
c-26 -2.66699 -51 1.16602 -75 11.499s-53.667 31.833 -89 64.5l36 44c40.667 -30 79 -46.167 115 -48.5s77.333 6.16699 124 25.5z" />
    <glyph glyph-name="uni2198" unicode="&#x2198;" horiz-adv-x="719" 
d="M653 312c-30 -40 -46.166 -78.3301 -48.499 -114.997s6.5 -78 26.5 -124l-27 -27c-46 20 -87.333 28.833 -124 26.5s-75 -18.5 -115 -48.5l-36 43c35.333 32.667 64.833 54.167 88.5 64.5s48.834 14.5 75.501 12.5l-237 237c-13.333 13.333 -27.5 21.5 -42.5 24.5
s-30.333 1 -46 -6s-30.834 -16 -45.501 -27s-30.334 -25.167 -47.001 -42.5l-39 47c27.333 27.333 50 47.166 68 59.499s37.667 20.666 59 24.999s42.333 1.16602 63 -9.50098c-12.667 35.333 -13.5 65.666 -2.5 90.999s36.833 58.333 77.5 99l46 -40
c-77.333 -76 -94.333 -136.333 -51 -181l237 -237c-2 26.667 2.16699 51.834 12.5 75.501s31.833 53.167 64.5 88.5z" />
    <glyph glyph-name="uni2199" unicode="&#x2199;" horiz-adv-x="720" 
d="M494 452c35.333 12.667 65.6689 13.5 91.002 2.5s58.333 -36.833 99 -77.5l-40 -46c-72 73.333 -129.333 93 -172 59l-246 -246c26 2.66699 51 -1.16602 75 -11.499s53.667 -31.833 89 -64.5l-36 -44c-40.667 30 -79 46.167 -115 48.5s-77.333 -6.16699 -124 -25.5
l-27 27c20 46 28.833 87.333 26.5 124s-18.5 75 -48.5 115l43 36c33.333 -36 55.166 -65.833 65.499 -89.5s14.166 -48.5 11.499 -74.5l237 237c13.333 13.333 21.5 27.5 24.5 42.5s1 30.333 -6 46s-16 30.667 -27 45s-25.167 29.833 -42.5 46.5l47 40
c26.667 -26.667 46.5 -49.334 59.5 -68.001s21.5 -38.667 25.5 -60s0.666992 -42 -10 -62z" />
    <glyph glyph-name="partialdiff" unicode="&#x2202;" horiz-adv-x="559" 
d="M278 -12c-70.667 0 -127.667 22.499 -171 67.499s-65 103.167 -65 174.5c0 69.333 20.333 126.5 61 171.5s93.667 67.5 159 67.5c92 0 155 -35 189 -105c-30 162 -147 262 -351 300l24 44c116.667 -19.333 210.5 -66.166 281.5 -140.499s106.5 -167.833 106.5 -280.5
c0 -92 -21 -164.833 -63 -218.5s-99 -80.5 -171 -80.5zM278 37.999c52.667 0 94.498 19.3311 125.498 57.998s46.5 88.334 46.5 149.001c0 51.333 -15.667 93.333 -47 126s-73.666 49 -126.999 49s-95.666 -17.667 -126.999 -53s-47 -81 -47 -137
c0 -57.333 15.833 -103.666 47.5 -138.999s74.5 -53 128.5 -53z" />
    <glyph glyph-name="uni2206" unicode="&#x2206;" horiz-adv-x="696" 
d="M30 0v47l286 648h63l287 -648v-47h-636zM96 53h502l-251 581z" />
    <glyph glyph-name="product" unicode="&#x220f;" horiz-adv-x="773" 
d="M738 695v-51h-104v-734h-58v734h-379v-734h-58v734h-104v51h703z" />
    <glyph glyph-name="summation" unicode="&#x2211;" horiz-adv-x="618" 
d="M40 -90v47l265 364l-282 327v47h556v-51h-478l262 -303v-35l-251 -345h491v-51h-563z" />
    <glyph glyph-name="minus" unicode="&#x2212;" horiz-adv-x="483" 
d="M41 266v50h401v-50h-401z" />
    <glyph glyph-name="radical" unicode="&#x221a;" horiz-adv-x="687" 
d="M318 -82l-177 438h-88v48h126l167 -414l242 706h53l-269 -778h-54z" />
    <glyph glyph-name="infinity" unicode="&#x221e;" horiz-adv-x="719" 
d="M539 446c42.667 0 77.5 -14.999 104.5 -44.999s40.5 -67 40.5 -111c0 -44.667 -13.833 -81.834 -41.5 -111.501s-62.5 -44.5 -104.5 -44.5c-30.667 0 -60 9.66699 -88 29s-58.333 48.666 -91 87.999c-30 -40 -58.833 -69.5 -86.5 -88.5s-58.5 -28.5 -92.5 -28.5
c-42.667 0 -77.5 14.833 -104.5 44.5s-40.5 66.5 -40.5 110.5c0 44.667 14 82 42 112s62.667 45 104 45c31.333 0 61 -9.66699 89 -29s58.333 -48.666 91 -87.999c30 40 58.667 69.5 86 88.5s58 28.5 92 28.5zM536 184.001c27.333 0 49.834 9.83301 67.501 29.5
s26.5 45.167 26.5 76.5c0 30 -9 55.333 -27 76s-41 31 -69 31c-43.333 0 -91 -35.667 -143 -107c29.333 -36.667 55.166 -63.5 77.499 -80.5s44.833 -25.5 67.5 -25.5zM185.001 183.001c42 0 89.666 35.667 142.999 107c-29.333 36.667 -55.166 63.5 -77.499 80.5
s-44.833 25.5 -67.5 25.5c-27.333 0 -49.833 -9.83301 -67.5 -29.5s-26.5 -45.167 -26.5 -76.5c0 -30.667 9 -56.167 27 -76.5s41 -30.5 69 -30.5z" />
    <glyph glyph-name="integral" unicode="&#x222b;" horiz-adv-x="410" 
d="M101 -100c-35.333 0 -65.665 8.66699 -90.998 26l23 48c20 -16 41.667 -24 65 -24c49.333 0 74 29.333 74 88v535c0 43.333 11.5 76.333 34.5 99s54.5 34 94.5 34c35.333 0 65.666 -8.66699 90.999 -26l-23 -48c-20.667 16.667 -42.334 25 -65.001 25
c-49.333 0 -74 -29.333 -74 -88v-536c0 -43.333 -11.5 -76.333 -34.5 -99s-54.5 -34 -94.5 -34z" />
    <glyph glyph-name="approxequal" unicode="&#x2248;" horiz-adv-x="483" 
d="M316 323c-24 0 -52 11.167 -84 33.5s-55.333 33.5 -70 33.5c-35.333 0 -55.333 -20.333 -60 -61l-47 4c3.33301 33.333 13.833 59.166 31.5 77.499s41.834 27.5 72.501 27.5c24.667 0 53 -11.167 85 -33.5s55 -33.5 69 -33.5c37.333 0 57.666 20.333 60.999 61l47 -4
c-3.33301 -33.333 -13.833 -59.166 -31.5 -77.499s-42.167 -27.5 -73.5 -27.5zM316 146c-24 0 -52 11.167 -84 33.5s-55.333 33.5 -70 33.5c-35.333 0 -55.333 -20.333 -60 -61l-47 3c3.33301 33.333 13.833 59.166 31.5 77.499s41.834 27.5 72.501 27.5
c24.667 0 53 -11.167 85 -33.5s55 -33.5 69 -33.5c37.333 0 57.666 20.667 60.999 62l47 -4c-3.33301 -33.333 -13.833 -59.166 -31.5 -77.499s-42.167 -27.5 -73.5 -27.5z" />
    <glyph glyph-name="notequal" unicode="&#x2260;" horiz-adv-x="483" 
d="M423 362h-118l-82 -142h200v-49h-229l-53 -92h-46l54 92h-89v49h118l83 142h-201v50h230l54 92h43l-53 -92h89v-50z" />
    <glyph glyph-name="lessequal" unicode="&#x2264;" horiz-adv-x="483" 
d="M427 113l-369 155v53l369 156v-55l-305 -127l305 -127v-55zM58 0v50h369v-50h-369z" />
    <glyph glyph-name="greaterequal" unicode="&#x2265;" horiz-adv-x="483" 
d="M58 113v55l304 127l-304 127v55l369 -156v-53zM58 0v50h369v-50h-369z" />
    <glyph glyph-name="filledbox" unicode="&#x25a0;" horiz-adv-x="892" 
d="M94 699h704v-699h-704v699z" />
    <glyph glyph-name="uni25A1" unicode="&#x25a1;" horiz-adv-x="880" 
d="M94 695h692v-695h-692v695zM151 644v-592h578v592h-578z" />
    <glyph glyph-name="uni25AF" unicode="&#x25af;" horiz-adv-x="638" 
d="M94 695h451v-695h-451v695zM151 644v-593h337v593h-337z" />
    <glyph glyph-name="triagup" unicode="&#x25b2;" horiz-adv-x="848" 
d="M425 711l408 -711h-818z" />
    <glyph glyph-name="uni25B3" unicode="&#x25b3;" horiz-adv-x="844" 
d="M15 0l408 709l407 -709h-815zM108 52h628l-313 553z" />
    <glyph glyph-name="uni25B6" unicode="&#x25b6;" horiz-adv-x="543" 
d="M80 506l446 -256l-446 -256v512z" />
    <glyph glyph-name="uni25B7" unicode="&#x25b7;" horiz-adv-x="546" 
d="M80 512l450 -258l-450 -259v517zM132 85l294 169l-294 168v-337z" />
    <glyph glyph-name="uni25C0" unicode="&#x25c0;" horiz-adv-x="543" 
d="M463 506v-512l-446 256z" />
    <glyph glyph-name="uni25C1" unicode="&#x25c1;" horiz-adv-x="546" 
d="M466 512v-517l-449 259zM414 85v337l-294 -168z" />
    <glyph glyph-name="lozenge" unicode="&#x25ca;" horiz-adv-x="577" 
d="M272 0l-218 302l215 304h35l218 -302l-214 -304h-36zM291 57l172 246l-176 245l-173 -245z" />
    <glyph glyph-name="circle" unicode="&#x25cb;" horiz-adv-x="835" 
d="M418 -14c-105.333 0 -192 33.833 -260 101.5s-102 154.167 -102 259.5s34 192 102 260s154.667 102 260 102c104.667 0 191 -34 259 -102s102 -154.667 102 -260c0 -104.667 -33.833 -191 -101.5 -259s-154.167 -102 -259.5 -102zM418 38
c88.667 0 161.336 28.833 218.003 86.5s85 131.834 85 222.501s-28.333 165.167 -85 223.5s-129.334 87.5 -218.001 87.5s-161.334 -29 -218.001 -87s-85 -132.667 -85 -224c0 -90.667 28.167 -164.834 84.5 -222.501s129.166 -86.5 218.499 -86.5z" />
    <glyph glyph-name="uni25CF" unicode="&#x25cf;" horiz-adv-x="835" 
d="M418 709c-105.333 0 -192 -34 -260 -102s-102 -154.667 -102 -260s34 -191.833 102 -259.5s154.667 -101.5 260 -101.5s191.833 34 259.5 102s101.5 154.333 101.5 259c0 105.333 -34 192 -102 260s-154.333 102 -259 102z" />
    <glyph glyph-name="uni25FD" unicode="&#x25fd;" horiz-adv-x="671" 
d="M80 509h511v-509h-511v509zM137 458v-407h397v407h-397z" />
    <glyph glyph-name="uni25FE" unicode="&#x25fe;" horiz-adv-x="671" 
d="M80 509h511v-509h-511v509z" />
    <glyph glyph-name="glyph2" horiz-adv-x="333" 
 />
    <glyph glyph-name="Q.ss03" horiz-adv-x="794" 
d="M397 -13c-98.667 0 -180.168 33.832 -244.501 101.499s-96.5 153.834 -96.5 258.501s32 191 96 259s145.667 102 245 102c98.667 0 180.167 -34 244.5 -102s96.5 -154.333 96.5 -259c0 -92 -26 -171 -78 -237c18 -22 37.167 -37.167 57.5 -45.5s46.5 -12.5 78.5 -12.5
v-54c-73.333 0 -131 24.333 -173 73c-61.333 -56 -136.666 -84 -225.999 -84zM396.999 37.999c76 0 140.332 25.666 192.999 76.999c-26.667 40.667 -51.667 68.334 -75 83.001s-55.666 22 -96.999 22v54c50 0 89.667 -9.16699 119 -27.5s58 -46.833 86 -85.5
c36 52.667 54 114.667 54 186c0 90 -26.333 164.167 -79 222.5s-119.667 87.5 -201 87.5s-148.333 -29.167 -201 -87.5s-79 -132.5 -79 -222.5s26.333 -164 79 -222s119.667 -87 201 -87z" />
    <glyph glyph-name="i.loclTRK" horiz-adv-x="217" 
d="M108 594c-11.333 0 -21 3.83301 -29 11.5s-12 17.167 -12 28.5s4 20.833 12 28.5s17.667 11.5 29 11.5s21 -3.83301 29 -11.5s12 -17.167 12 -28.5s-4 -20.833 -12 -28.5s-17.667 -11.5 -29 -11.5zM80 0v475h57v-475h-57z" />
    <glyph glyph-name="f.short" horiz-adv-x="287" 
d="M96 0v425h-81v50h78c-15.333 37.333 -23 70.333 -23 99c0 43.333 13 76.166 39 98.499s58.333 33.5 97 33.5c43.333 0 76.333 -13.667 99 -41l-31 -39c-18 21.333 -41 32 -69 32c-22.667 0 -41.5 -7.16699 -56.5 -21.5s-22.5 -36.166 -22.5 -65.499
c0 -22 8.33301 -54 25 -96h150v-50h-148v-425h-57z" />
    <glyph glyph-name="a.ss01" 
d="M264 -11c-63.333 0 -115.833 23.668 -157.5 71.001s-62.5 106.666 -62.5 177.999s20.833 130.5 62.5 177.5s94.167 70.5 157.5 70.5c43.333 0 81 -10.167 113 -30.5s56.667 -48.5 74 -84.5v105h57v-476h-57v104c-17.333 -36 -42 -64.167 -74 -84.5
s-69.667 -30.5 -113 -30.5zM274 38.001c50 0 92 19.167 126 57.5s51 85.833 51 142.5s-17 104 -51 142s-76 57 -126 57c-51.333 0 -92.666 -18.167 -123.999 -54.5s-47 -84.5 -47 -144.5s15.667 -108.333 47 -145s72.666 -55 123.999 -55z" />
    <glyph glyph-name="aacute.ss01" 
d="M239 539l108 145h69l-124 -145h-53zM264 -11c-63.333 0 -115.833 23.668 -157.5 71.001s-62.5 106.666 -62.5 177.999s20.833 130.5 62.5 177.5s94.167 70.5 157.5 70.5c43.333 0 81 -10.167 113 -30.5s56.667 -48.5 74 -84.5v105h57v-476h-57v104
c-17.333 -36 -42 -64.167 -74 -84.5s-69.667 -30.5 -113 -30.5zM274 38.001c50 0 92 19.167 126 57.5s51 85.833 51 142.5s-17 104 -51 142s-76 57 -126 57c-51.333 0 -92.666 -18.167 -123.999 -54.5s-47 -84.5 -47 -144.5s15.667 -108.333 47 -145s72.666 -55 123.999 -55
z" />
    <glyph glyph-name="abreve.ss01" 
d="M278 540c-39.333 0 -70.5 11.5 -93.5 34.5s-34.5 54.833 -34.5 95.5h47c0 -25.333 7.5 -45.5 22.5 -60.5s34.5 -22.5 58.5 -22.5s43.5 7.66699 58.5 23s22.5 35.333 22.5 60h47c0 -40.667 -11.5 -72.5 -34.5 -95.5s-54.167 -34.5 -93.5 -34.5zM264 -11
c-63.333 0 -115.833 23.668 -157.5 71.001s-62.5 106.666 -62.5 177.999s20.833 130.5 62.5 177.5s94.167 70.5 157.5 70.5c43.333 0 81 -10.167 113 -30.5s56.667 -48.5 74 -84.5v105h57v-476h-57v104c-17.333 -36 -42 -64.167 -74 -84.5s-69.667 -30.5 -113 -30.5z
M274 38.001c50 0 92 19.167 126 57.5s51 85.833 51 142.5s-17 104 -51 142s-76 57 -126 57c-51.333 0 -92.666 -18.167 -123.999 -54.5s-47 -84.5 -47 -144.5s15.667 -108.333 47 -145s72.666 -55 123.999 -55z" />
    <glyph glyph-name="acircumflex.ss01" 
d="M140 539l110 145h56l109 -145h-57l-81 101l-81 -101h-56zM264 -11c-63.333 0 -115.833 23.668 -157.5 71.001s-62.5 106.666 -62.5 177.999s20.833 130.5 62.5 177.5s94.167 70.5 157.5 70.5c43.333 0 81 -10.167 113 -30.5s56.667 -48.5 74 -84.5v105h57v-476h-57v104
c-17.333 -36 -42 -64.167 -74 -84.5s-69.667 -30.5 -113 -30.5zM274 38.001c50 0 92 19.167 126 57.5s51 85.833 51 142.5s-17 104 -51 142s-76 57 -126 57c-51.333 0 -92.666 -18.167 -123.999 -54.5s-47 -84.5 -47 -144.5s15.667 -108.333 47 -145s72.666 -55 123.999 -55
z" />
    <glyph glyph-name="adieresis.ss01" 
d="M190 572c-10.667 0 -19.834 3.66699 -27.501 11s-11.5 16.666 -11.5 27.999s3.83301 20.666 11.5 27.999s16.834 11 27.501 11c11.333 0 20.833 -3.66699 28.5 -11s11.5 -16.666 11.5 -27.999s-3.83301 -20.666 -11.5 -27.999s-17.167 -11 -28.5 -11zM368 572
c-11.333 0 -20.833 3.66699 -28.5 11s-11.5 16.666 -11.5 27.999s3.83301 20.666 11.5 27.999s17.167 11 28.5 11s20.666 -3.66699 27.999 -11s11 -16.666 11 -27.999s-3.66699 -20.666 -11 -27.999s-16.666 -11 -27.999 -11zM264 -11
c-63.333 0 -115.833 23.668 -157.5 71.001s-62.5 106.666 -62.5 177.999s20.833 130.5 62.5 177.5s94.167 70.5 157.5 70.5c43.333 0 81 -10.167 113 -30.5s56.667 -48.5 74 -84.5v105h57v-476h-57v104c-17.333 -36 -42 -64.167 -74 -84.5s-69.667 -30.5 -113 -30.5z
M274 38.001c50 0 92 19.167 126 57.5s51 85.833 51 142.5s-17 104 -51 142s-76 57 -126 57c-51.333 0 -92.666 -18.167 -123.999 -54.5s-47 -84.5 -47 -144.5s15.667 -108.333 47 -145s72.666 -55 123.999 -55z" />
    <glyph glyph-name="agrave.ss01" 
d="M264 539l-122 145h70l106 -145h-54zM264 -11c-63.333 0 -115.833 23.668 -157.5 71.001s-62.5 106.666 -62.5 177.999s20.833 130.5 62.5 177.5s94.167 70.5 157.5 70.5c43.333 0 81 -10.167 113 -30.5s56.667 -48.5 74 -84.5v105h57v-476h-57v104
c-17.333 -36 -42 -64.167 -74 -84.5s-69.667 -30.5 -113 -30.5zM274 38.001c50 0 92 19.167 126 57.5s51 85.833 51 142.5s-17 104 -51 142s-76 57 -126 57c-51.333 0 -92.666 -18.167 -123.999 -54.5s-47 -84.5 -47 -144.5s15.667 -108.333 47 -145s72.666 -55 123.999 -55
z" />
    <glyph glyph-name="amacron.ss01" 
d="M139 589v49h278v-49h-278zM264 -11c-63.333 0 -115.833 23.668 -157.5 71.001s-62.5 106.666 -62.5 177.999s20.833 130.5 62.5 177.5s94.167 70.5 157.5 70.5c43.333 0 81 -10.167 113 -30.5s56.667 -48.5 74 -84.5v105h57v-476h-57v104
c-17.333 -36 -42 -64.167 -74 -84.5s-69.667 -30.5 -113 -30.5zM274 38.001c50 0 92 19.167 126 57.5s51 85.833 51 142.5s-17 104 -51 142s-76 57 -126 57c-51.333 0 -92.666 -18.167 -123.999 -54.5s-47 -84.5 -47 -144.5s15.667 -108.333 47 -145s72.666 -55 123.999 -55
z" />
    <glyph glyph-name="aogonek.ss01" 
d="M500 -135l19.001 -41.999c-20 -14.667 -44.333 -22 -73 -22c-26 0 -47.833 6.33301 -65.5 19s-26.5 32 -26.5 58c0 44 32.333 86.667 97 128v98c-17.333 -36 -42 -64.167 -74 -84.5s-69.667 -30.5 -113 -30.5c-63.333 0 -115.833 23.667 -157.5 71
s-62.5 106.666 -62.5 177.999s20.833 130.5 62.5 177.5s94.167 70.5 157.5 70.5c43.333 0 81 -10.167 113 -30.5s56.667 -48.5 74 -84.5v105h57v-476c-64.667 -42 -97 -78 -97 -108c0 -28.667 15.333 -43 46 -43c15.333 0 29.666 5.33301 42.999 16zM274.001 38.001
c50 0 92 19.167 126 57.5s51 85.833 51 142.5s-17 104 -51 142s-76 57 -126 57c-51.333 0 -92.666 -18.167 -123.999 -54.5s-47 -84.5 -47 -144.5s15.667 -108.333 47 -145s72.666 -55 123.999 -55z" />
    <glyph glyph-name="aring.ss01" 
d="M451 476l57.001 0.00292969v-476h-57v104c-17.333 -36 -42 -64.167 -74 -84.5s-69.667 -30.5 -113 -30.5c-63.333 0 -115.833 23.667 -157.5 71s-62.5 106.666 -62.5 177.999c0 61.333 15.833 114.166 47.5 158.499s72.834 72.166 123.501 83.499
c-18 16.667 -27 37.667 -27 63c0 24.667 8.66699 45.334 26 62.001s39 25 65 25c25.333 0 46.666 -8.33301 63.999 -25s26 -37.334 26 -62.001c0 -28 -11 -50.667 -33 -68c51.333 -18 89.666 -52.667 114.999 -104v105zM279.001 591.003c-14.667 0 -26.667 -4.5 -36 -13.5
s-14 -20.5 -14 -34.5s4.66699 -25.667 14 -35s21.333 -14 36 -14c14 0 25.5 4.66699 34.5 14s13.5 21 13.5 35s-4.5 25.5 -13.5 34.5s-20.5 13.5 -34.5 13.5zM274.001 38.0029c50 0 92 19.167 126 57.5s51 85.833 51 142.5s-17 104 -51 142s-76 57 -126 57
c-51.333 0 -92.666 -18.167 -123.999 -54.5s-47 -84.5 -47 -144.5s15.667 -108.333 47 -145s72.666 -55 123.999 -55z" />
    <glyph glyph-name="atilde.ss01" 
d="M130 555c0.666992 32.667 8.5 58.167 23.5 76.5s35.167 27.5 60.5 27.5c22.667 0 45.667 -9.33301 69 -28s41 -28 53 -28c24 0 37.667 18.667 41 56h46c-1.33301 -32.667 -9.5 -58 -24.5 -76s-35.167 -27 -60.5 -27c-22.667 0 -45.5 9.16699 -68.5 27.5
s-40.167 27.5 -51.5 27.5c-25.333 0 -39.333 -18.667 -42 -56h-46zM264 -11c-63.333 0 -115.833 23.668 -157.5 71.001s-62.5 106.666 -62.5 177.999s20.833 130.5 62.5 177.5s94.167 70.5 157.5 70.5c43.333 0 81 -10.167 113 -30.5s56.667 -48.5 74 -84.5v105h57v-476h-57
v104c-17.333 -36 -42 -64.167 -74 -84.5s-69.667 -30.5 -113 -30.5zM274 38.001c50 0 92 19.167 126 57.5s51 85.833 51 142.5s-17 104 -51 142s-76 57 -126 57c-51.333 0 -92.666 -18.167 -123.999 -54.5s-47 -84.5 -47 -144.5s15.667 -108.333 47 -145
s72.666 -55 123.999 -55z" />
    <glyph glyph-name="g.ss01" 
d="M268 -221c-58.667 0 -108.169 14.332 -148.502 42.999s-64.5 69.334 -72.5 122.001l54 15c6.66699 -42.667 24.834 -75.167 54.501 -97.5s67.167 -33.5 112.5 -33.5c122 0 183 58 183 174v106c-17.333 -36 -42.166 -64.333 -74.499 -85s-69.833 -31 -112.5 -31
c-63.333 0 -115.833 23.5 -157.5 70.5s-62.5 105.833 -62.5 176.5s20.833 129.5 62.5 176.5s94.167 70.5 157.5 70.5c43.333 0 81 -10.167 113 -30.5s56.667 -48.5 74 -84.5v105h57v-471c0 -73.333 -20.5 -129.333 -61.5 -168s-100.5 -58 -178.5 -58zM273.998 40.999
c50 0 92 18.8301 126 56.4971s51 84.834 51 141.501s-17 103.834 -51 141.501s-76 56.5 -126 56.5c-51.333 0 -92.666 -18 -123.999 -54s-47 -84 -47 -144c0 -59.333 15.667 -107.166 47 -143.499s72.666 -54.5 123.999 -54.5z" />
    <glyph glyph-name="gbreve.ss01" 
d="M278 540c-39.333 0 -70.5 11.5 -93.5 34.5s-34.5 54.833 -34.5 95.5h47c0 -25.333 7.5 -45.5 22.5 -60.5s34.5 -22.5 58.5 -22.5s43.5 7.66699 58.5 23s22.5 35.333 22.5 60h47c0 -40.667 -11.5 -72.5 -34.5 -95.5s-54.167 -34.5 -93.5 -34.5zM268 -221
c-58.667 0 -108.169 14.332 -148.502 42.999s-64.5 69.334 -72.5 122.001l54 15c6.66699 -42.667 24.834 -75.167 54.501 -97.5s67.167 -33.5 112.5 -33.5c122 0 183 58 183 174v106c-17.333 -36 -42.166 -64.333 -74.499 -85s-69.833 -31 -112.5 -31
c-63.333 0 -115.833 23.5 -157.5 70.5s-62.5 105.833 -62.5 176.5s20.833 129.5 62.5 176.5s94.167 70.5 157.5 70.5c43.333 0 81 -10.167 113 -30.5s56.667 -48.5 74 -84.5v105h57v-471c0 -73.333 -20.5 -129.333 -61.5 -168s-100.5 -58 -178.5 -58zM273.998 40.999
c50 0 92 18.8301 126 56.4971s51 84.834 51 141.501s-17 103.834 -51 141.501s-76 56.5 -126 56.5c-51.333 0 -92.666 -18 -123.999 -54s-47 -84 -47 -144c0 -59.333 15.667 -107.166 47 -143.499s72.666 -54.5 123.999 -54.5z" />
    <glyph glyph-name="gcircumflex.ss01" 
d="M140 539l110 145h56l109 -145h-57l-81 101l-81 -101h-56zM268 -221c-58.667 0 -108.169 14.332 -148.502 42.999s-64.5 69.334 -72.5 122.001l54 15c6.66699 -42.667 24.834 -75.167 54.501 -97.5s67.167 -33.5 112.5 -33.5c122 0 183 58 183 174v106
c-17.333 -36 -42.166 -64.333 -74.499 -85s-69.833 -31 -112.5 -31c-63.333 0 -115.833 23.5 -157.5 70.5s-62.5 105.833 -62.5 176.5s20.833 129.5 62.5 176.5s94.167 70.5 157.5 70.5c43.333 0 81 -10.167 113 -30.5s56.667 -48.5 74 -84.5v105h57v-471
c0 -73.333 -20.5 -129.333 -61.5 -168s-100.5 -58 -178.5 -58zM273.998 40.999c50 0 92 18.8301 126 56.4971s51 84.834 51 141.501s-17 103.834 -51 141.501s-76 56.5 -126 56.5c-51.333 0 -92.666 -18 -123.999 -54s-47 -84 -47 -144
c0 -59.333 15.667 -107.166 47 -143.499s72.666 -54.5 123.999 -54.5z" />
    <glyph glyph-name="uni0123.ss01" 
d="M347 711l-43 -163h-56l50 163h49zM268 -221c-58.667 0 -108.169 14.332 -148.502 42.999s-64.5 69.334 -72.5 122.001l54 15c6.66699 -42.667 24.834 -75.167 54.501 -97.5s67.167 -33.5 112.5 -33.5c122 0 183 58 183 174v106c-17.333 -36 -42.166 -64.333 -74.499 -85
s-69.833 -31 -112.5 -31c-63.333 0 -115.833 23.5 -157.5 70.5s-62.5 105.833 -62.5 176.5s20.833 129.5 62.5 176.5s94.167 70.5 157.5 70.5c43.333 0 81 -10.167 113 -30.5s56.667 -48.5 74 -84.5v105h57v-471c0 -73.333 -20.5 -129.333 -61.5 -168s-100.5 -58 -178.5 -58
zM273.998 40.999c50 0 92 18.8301 126 56.4971s51 84.834 51 141.501s-17 103.834 -51 141.501s-76 56.5 -126 56.5c-51.333 0 -92.666 -18 -123.999 -54s-47 -84 -47 -144c0 -59.333 15.667 -107.166 47 -143.499s72.666 -54.5 123.999 -54.5z" />
    <glyph glyph-name="gdotaccent.ss01" 
d="M278 570c-11.333 0 -20.666 3.66699 -27.999 11s-11 16.333 -11 27c0 11.333 3.66699 20.666 11 27.999s16.666 11 27.999 11s20.666 -3.66699 27.999 -11s11 -16.666 11 -27.999c0 -10.667 -3.66699 -19.667 -11 -27s-16.666 -11 -27.999 -11zM268 -221
c-58.667 0 -108.169 14.332 -148.502 42.999s-64.5 69.334 -72.5 122.001l54 15c6.66699 -42.667 24.834 -75.167 54.501 -97.5s67.167 -33.5 112.5 -33.5c122 0 183 58 183 174v106c-17.333 -36 -42.166 -64.333 -74.499 -85s-69.833 -31 -112.5 -31
c-63.333 0 -115.833 23.5 -157.5 70.5s-62.5 105.833 -62.5 176.5s20.833 129.5 62.5 176.5s94.167 70.5 157.5 70.5c43.333 0 81 -10.167 113 -30.5s56.667 -48.5 74 -84.5v105h57v-471c0 -73.333 -20.5 -129.333 -61.5 -168s-100.5 -58 -178.5 -58zM273.998 40.999
c50 0 92 18.8301 126 56.4971s51 84.834 51 141.501s-17 103.834 -51 141.501s-76 56.5 -126 56.5c-51.333 0 -92.666 -18 -123.999 -54s-47 -84 -47 -144c0 -59.333 15.667 -107.166 47 -143.499s72.666 -54.5 123.999 -54.5z" />
    <glyph glyph-name="y.ss01" horiz-adv-x="551" 
d="M261 -221c-55.333 0 -101.331 14 -137.998 42s-59.334 67.667 -68.001 119l53 15c8 -41.333 25.167 -72.833 51.5 -94.5s60.166 -32.5 101.499 -32.5c102 0 153 58 153 174v75c-15.333 -27.333 -36.833 -48.833 -64.5 -64.5s-59.167 -23.5 -94.5 -23.5
c-57.333 0 -101.666 17 -132.999 51s-47 81.667 -47 143v291h57v-287c0 -48 11.333 -84.833 34 -110.5s56 -38.5 100 -38.5c42 0 77.167 13 105.5 39s42.5 61 42.5 105v292h57v-474c0 -72 -18.333 -126.833 -55 -164.5s-88.334 -56.5 -155.001 -56.5z" />
    <glyph glyph-name="yacute.ss01" horiz-adv-x="551" 
d="M235 539l108 145h69l-124 -145h-53zM261 -221c-55.333 0 -101.331 14 -137.998 42s-59.334 67.667 -68.001 119l53 15c8 -41.333 25.167 -72.833 51.5 -94.5s60.166 -32.5 101.499 -32.5c102 0 153 58 153 174v75c-15.333 -27.333 -36.833 -48.833 -64.5 -64.5
s-59.167 -23.5 -94.5 -23.5c-57.333 0 -101.666 17 -132.999 51s-47 81.667 -47 143v291h57v-287c0 -48 11.333 -84.833 34 -110.5s56 -38.5 100 -38.5c42 0 77.167 13 105.5 39s42.5 61 42.5 105v292h57v-474c0 -72 -18.333 -126.833 -55 -164.5
s-88.334 -56.5 -155.001 -56.5z" />
    <glyph glyph-name="ycircumflex.ss01" horiz-adv-x="551" 
d="M136 539l110 145h56l109 -145h-57l-81 101l-81 -101h-56zM261 -221c-55.333 0 -101.331 14 -137.998 42s-59.334 67.667 -68.001 119l53 15c8 -41.333 25.167 -72.833 51.5 -94.5s60.166 -32.5 101.499 -32.5c102 0 153 58 153 174v75
c-15.333 -27.333 -36.833 -48.833 -64.5 -64.5s-59.167 -23.5 -94.5 -23.5c-57.333 0 -101.666 17 -132.999 51s-47 81.667 -47 143v291h57v-287c0 -48 11.333 -84.833 34 -110.5s56 -38.5 100 -38.5c42 0 77.167 13 105.5 39s42.5 61 42.5 105v292h57v-474
c0 -72 -18.333 -126.833 -55 -164.5s-88.334 -56.5 -155.001 -56.5z" />
    <glyph glyph-name="ydieresis.ss01" horiz-adv-x="551" 
d="M186 572c-10.667 0 -19.834 3.66699 -27.501 11s-11.5 16.666 -11.5 27.999s3.83301 20.666 11.5 27.999s16.834 11 27.501 11c11.333 0 20.833 -3.66699 28.5 -11s11.5 -16.666 11.5 -27.999s-3.83301 -20.666 -11.5 -27.999s-17.167 -11 -28.5 -11zM364 572
c-11.333 0 -20.833 3.66699 -28.5 11s-11.5 16.666 -11.5 27.999s3.83301 20.666 11.5 27.999s17.167 11 28.5 11s20.666 -3.66699 27.999 -11s11 -16.666 11 -27.999s-3.66699 -20.666 -11 -27.999s-16.666 -11 -27.999 -11zM261 -221c-55.333 0 -101.331 14 -137.998 42
s-59.334 67.667 -68.001 119l53 15c8 -41.333 25.167 -72.833 51.5 -94.5s60.166 -32.5 101.499 -32.5c102 0 153 58 153 174v75c-15.333 -27.333 -36.833 -48.833 -64.5 -64.5s-59.167 -23.5 -94.5 -23.5c-57.333 0 -101.666 17 -132.999 51s-47 81.667 -47 143v291h57
v-287c0 -48 11.333 -84.833 34 -110.5s56 -38.5 100 -38.5c42 0 77.167 13 105.5 39s42.5 61 42.5 105v292h57v-474c0 -72 -18.333 -126.833 -55 -164.5s-88.334 -56.5 -155.001 -56.5z" />
    <glyph glyph-name="ygrave.ss01" horiz-adv-x="551" 
d="M260 539l-122 145h70l106 -145h-54zM261 -221c-55.333 0 -101.331 14 -137.998 42s-59.334 67.667 -68.001 119l53 15c8 -41.333 25.167 -72.833 51.5 -94.5s60.166 -32.5 101.499 -32.5c102 0 153 58 153 174v75c-15.333 -27.333 -36.833 -48.833 -64.5 -64.5
s-59.167 -23.5 -94.5 -23.5c-57.333 0 -101.666 17 -132.999 51s-47 81.667 -47 143v291h57v-287c0 -48 11.333 -84.833 34 -110.5s56 -38.5 100 -38.5c42 0 77.167 13 105.5 39s42.5 61 42.5 105v292h57v-474c0 -72 -18.333 -126.833 -55 -164.5
s-88.334 -56.5 -155.001 -56.5z" />
    <glyph glyph-name="f.ss02" horiz-adv-x="306" 
d="M96 0v425h-81v50h79v100c0 43.333 11.5 76 34.5 98s54.167 33 93.5 33c47.333 0 87.333 -17 120 -51l-37 -41c-24 28.667 -51 43 -81 43c-48 0 -72 -27 -72 -81v-101h147v-50h-146v-425h-57z" />
    <glyph glyph-name="r.ss02" horiz-adv-x="360" 
d="M80 0v475h57v-98c24.667 71.333 77 107 157 107c18.667 0 36.667 -3 54 -9v-57c-20 7.33301 -41 11 -63 11c-43.333 0 -78.833 -14.833 -106.5 -44.5s-41.5 -74.5 -41.5 -134.5v-250h-57z" />
    <glyph glyph-name="racute.ss02" horiz-adv-x="360" 
d="M171 539l108 145h69l-124 -145h-53zM80 0v475h57v-98c24.667 71.333 77 107 157 107c18.667 0 36.667 -3 54 -9v-57c-20 7.33301 -41 11 -63 11c-43.333 0 -78.833 -14.833 -106.5 -44.5s-41.5 -74.5 -41.5 -134.5v-250h-57z" />
    <glyph glyph-name="rcaron.ss02" horiz-adv-x="360" 
d="M348 685l-111 -146h-55l-110 145h58l81 -101l81 102h56zM80 0v475h57v-98c24.667 71.333 77 107 157 107c18.667 0 36.667 -3 54 -9v-57c-20 7.33301 -41 11 -63 11c-43.333 0 -78.833 -14.833 -106.5 -44.5s-41.5 -74.5 -41.5 -134.5v-250h-57z" />
    <glyph glyph-name="uni0157.ss02" horiz-adv-x="360" 
d="M80 0v475h57v-98c24.667 71.333 77 107 157 107c18.667 0 36.667 -3 54 -9v-57c-20 7.33301 -41 11 -63 11c-43.333 0 -78.833 -14.833 -106.5 -44.5s-41.5 -74.5 -41.5 -134.5v-250h-57zM35 -230l44 163h56l-50 -163h-50z" />
    <glyph glyph-name="f.short.ss02" horiz-adv-x="296" 
d="M96 0v425h-81v50h79v98c0 43.333 12 76.333 36 99s56 34 96 34c36.667 0 69 -9 97 -27l-22 -48c-25.333 17.333 -49.333 26 -72 26c-24 0 -42.833 -7.66699 -56.5 -23s-20.5 -37 -20.5 -65v-94h157v-50h-156v-425h-57z" />
    <glyph glyph-name="f_f.ss02" horiz-adv-x="586" 
d="M504 657c-48 0 -72 -27 -72 -81v-101h147v-50h-146v-425h-57v425h-223v-425h-57v425h-81v50h79v98c0 43.333 12 76.333 36 99s56 34 96 34c36.667 0 69 -9 97 -27l-22 -48c-25.333 17.333 -49.333 26 -72 26c-24 0 -42.833 -7.66699 -56.5 -23s-20.5 -37 -20.5 -65v-94
h222v100c0 43.333 11.5 76 34.5 98s54.167 33 93.5 33c47.333 0 87.333 -17 120 -51l-37 -41c-24 28.667 -51 43 -81 43z" />
    <glyph glyph-name="f_f_i.ss02" horiz-adv-x="792" 
d="M509 657c-24 0 -42.833 -7.66699 -56.5 -23s-20.5 -37 -20.5 -65v-94h157v-50h-156v-425h-57v425h-223v-425h-57v425h-81v50h79v98c0 43.333 12 76.333 36 99s56 34 96 34c36.667 0 69 -9 97 -27l-22 -48c-25.333 17.333 -49.333 26 -72 26
c-24 0 -42.833 -7.66699 -56.5 -23s-20.5 -37 -20.5 -65v-94h222v98c0 43.333 12 76.333 36 99s56 34 96 34c36.667 0 69 -9 97 -27l-22 -48c-25.333 17.333 -49.333 26 -72 26zM684 674c11.333 0 21 -3.83301 29 -11.5s12 -17.167 12 -28.5s-4 -20.833 -12 -28.5
s-17.667 -11.5 -29 -11.5s-21 3.83301 -29 11.5s-12 17.167 -12 28.5s4 20.833 12 28.5s17.667 11.5 29 11.5zM656 0v475h57v-475h-57z" />
    </font>
</defs>
</svg>
