<svg width="22" height="21" viewBox="0 0 22 21" fill="none" xmlns="http://www.w3.org/2000/svg">
<path d="M20.5254 1L12.501 6.9375L13.9932 3.43834L20.5254 1Z" fill="#E17726" stroke="#E17726" stroke-width="0.25" stroke-linecap="round" stroke-linejoin="round"/>
<path d="M2.01562 1L9.9686 6.99291L8.54787 3.43833L2.01562 1Z" fill="#E27625" stroke="#E27625" stroke-width="0.25" stroke-linecap="round" stroke-linejoin="round"/>
<path d="M17.636 14.7676L15.501 18.0293L20.0727 19.288L21.3824 14.8389L17.636 14.7676Z" fill="#E27625" stroke="#E27625" stroke-width="0.25" stroke-linecap="round" stroke-linejoin="round"/>
<path d="M1.16699 14.8389L2.46867 19.288L7.03251 18.0293L4.90536 14.7676L1.16699 14.8389Z" fill="#E27625" stroke="#E27625" stroke-width="0.25" stroke-linecap="round" stroke-linejoin="round"/>
<path d="M6.78554 9.25683L5.51562 11.1727L10.0398 11.3785L9.88897 6.50977L6.78554 9.25683Z" fill="#E27625" stroke="#E27625" stroke-width="0.25" stroke-linecap="round" stroke-linejoin="round"/>
<path d="M15.7551 9.25757L12.6042 6.45508L12.501 11.3792L17.0251 11.1734L15.7551 9.25757Z" fill="#E27625" stroke="#E27625" stroke-width="0.25" stroke-linecap="round" stroke-linejoin="round"/>
<path d="M7.03516 18.0298L9.77342 16.7078L7.41615 14.8711L7.03516 18.0298Z" fill="#E27625" stroke="#E27625" stroke-width="0.25" stroke-linecap="round" stroke-linejoin="round"/>
<path d="M12.7695 16.7078L15.4999 18.0298L15.1268 14.8711L12.7695 16.7078Z" fill="#E27625" stroke="#E27625" stroke-width="0.25" stroke-linecap="round" stroke-linejoin="round"/>
<path d="M15.4999 18.0291L12.7695 16.707L12.9917 18.4803L12.9679 19.2324L15.4999 18.0291Z" fill="#D5BFB2" stroke="#D5BFB2" stroke-width="0.25" stroke-linecap="round" stroke-linejoin="round"/>
<path d="M7.03516 18.0291L9.57504 19.2324L9.55916 18.4803L9.77342 16.707L7.03516 18.0291Z" fill="#D5BFB2" stroke="#D5BFB2" stroke-width="0.25" stroke-linecap="round" stroke-linejoin="round"/>
<path d="M9.62061 13.6981L7.35059 13.0331L8.95387 12.2969L9.62061 13.6981Z" fill="#233447" stroke="#233447" stroke-width="0.25" stroke-linecap="round" stroke-linejoin="round"/>
<path d="M12.9209 13.6981L13.5876 12.2969L15.1989 13.0331L12.9209 13.6981Z" fill="#233447" stroke="#233447" stroke-width="0.25" stroke-linecap="round" stroke-linejoin="round"/>
<path d="M7.03337 18.0293L7.43025 14.7676L4.90625 14.8389L7.03337 18.0293Z" fill="#CC6228" stroke="#CC6228" stroke-width="0.25" stroke-linecap="round" stroke-linejoin="round"/>
<path d="M15.1133 14.7676L15.5022 18.0293L17.6373 14.8389L15.1133 14.7676Z" fill="#CC6228" stroke="#CC6228" stroke-width="0.25" stroke-linecap="round" stroke-linejoin="round"/>
<path d="M17.0251 11.1738L12.501 11.3797L12.9216 13.6993L13.5884 12.298L15.1996 13.0343L17.0251 11.1738Z" fill="#CC6228" stroke="#CC6228" stroke-width="0.25" stroke-linecap="round" stroke-linejoin="round"/>
<path d="M7.34909 13.0343L8.95237 12.298L9.61911 13.6993L10.0398 11.3797L5.51562 11.1738L7.34909 13.0343Z" fill="#CC6228" stroke="#CC6228" stroke-width="0.25" stroke-linecap="round" stroke-linejoin="round"/>
<path d="M5.51562 11.1738L7.4126 14.8709L7.34906 13.0343L5.51562 11.1738Z" fill="#E27525" stroke="#E27525" stroke-width="0.25" stroke-linecap="round" stroke-linejoin="round"/>
<path d="M15.1998 13.0343L15.1284 14.8709L17.0254 11.1738L15.1998 13.0343Z" fill="#E27525" stroke="#E27525" stroke-width="0.25" stroke-linecap="round" stroke-linejoin="round"/>
<path d="M10.0408 11.3789L9.62012 13.6985L10.1519 16.4377L10.271 12.8277L10.0408 11.3789Z" fill="#E27525" stroke="#E27525" stroke-width="0.25" stroke-linecap="round" stroke-linejoin="round"/>
<path d="M12.4996 11.3789L12.2773 12.8198L12.3885 16.4377L12.9203 13.6985L12.4996 11.3789Z" fill="#E27525" stroke="#E27525" stroke-width="0.25" stroke-linecap="round" stroke-linejoin="round"/>
<path d="M12.9224 13.6982L12.3906 16.4374L12.7716 16.7065L15.129 14.8699L15.2004 13.0332L12.9224 13.6982Z" fill="#F5841F" stroke="#F5841F" stroke-width="0.25" stroke-linecap="round" stroke-linejoin="round"/>
<path d="M7.35059 13.0332L7.41413 14.8699L9.77139 16.7065L10.1524 16.4374L9.62061 13.6982L7.35059 13.0332Z" fill="#F5841F" stroke="#F5841F" stroke-width="0.25" stroke-linecap="round" stroke-linejoin="round"/>
<path d="M12.9721 19.2326L12.9959 18.4806L12.7896 18.3064H9.7576L9.55916 18.4806L9.57504 19.2326L7.03516 18.0293L7.9241 18.7576L9.72583 20.0006H12.8133L14.623 18.7576L15.504 18.0293L12.9721 19.2326Z" fill="#C0AC9D" stroke="#C0AC9D" stroke-width="0.25" stroke-linecap="round" stroke-linejoin="round"/>
<path d="M12.7692 16.7066L12.3882 16.4375H10.1499L9.76901 16.7066L9.55469 18.48L9.75313 18.3058H12.7851L12.9915 18.48L12.7692 16.7066Z" fill="#161616" stroke="#161616" stroke-width="0.25" stroke-linecap="round" stroke-linejoin="round"/>
<path d="M20.8653 7.3254L21.54 4.04792L20.524 1L12.7695 6.73961L15.7538 9.25707L19.9684 10.4842L20.8971 9.39961L20.4923 9.10665L21.1352 8.52086L20.6431 8.14085L21.286 7.65L20.8653 7.3254Z" fill="#763E1A" stroke="#763E1A" stroke-width="0.25" stroke-linecap="round" stroke-linejoin="round"/>
<path d="M1 4.04792L1.68259 7.3254L1.24605 7.65L1.89689 8.14085L1.40479 8.52086L2.04769 9.10665L1.6429 9.39961L2.57154 10.4842L6.78616 9.25707L9.77046 6.73961L2.01595 1L1 4.04792Z" fill="#763E1A" stroke="#763E1A" stroke-width="0.25" stroke-linecap="round" stroke-linejoin="round"/>
<path d="M19.97 10.4849L15.7554 9.25781L17.0254 11.1737L15.1284 14.8707L17.6365 14.8391H21.3828L19.97 10.4849Z" fill="#F5841F" stroke="#F5841F" stroke-width="0.25" stroke-linecap="round" stroke-linejoin="round"/>
<path d="M6.78642 9.25781L2.57185 10.4849L1.16699 14.8391H4.90536L7.41345 14.8707L5.51651 11.1737L6.78642 9.25781Z" fill="#F5841F" stroke="#F5841F" stroke-width="0.25" stroke-linecap="round" stroke-linejoin="round"/>
<path d="M12.4995 11.3779L12.7694 6.73872L13.9917 3.4375H8.54688L9.76916 6.73872L10.039 11.3779L10.1422 12.8346L10.1502 16.4367H12.3884L12.3964 12.8346L12.4995 11.3779Z" fill="#F5841F" stroke="#F5841F" stroke-width="0.25" stroke-linecap="round" stroke-linejoin="round"/>
</svg>
