<svg width="26" height="15" viewBox="0 0 26 15" fill="none" xmlns="http://www.w3.org/2000/svg">
<path d="M5.73772 2.93946C9.70349 -0.943362 16.1333 -0.943362 20.0991 2.93946L20.5763 3.40677C20.7746 3.60091 20.7746 3.91567 20.5763 4.10981L18.9436 5.70837C18.8445 5.80544 18.6838 5.80544 18.5846 5.70837L17.9278 5.0653C15.1612 2.35655 10.6756 2.35655 7.90897 5.0653L7.20559 5.75397C7.10644 5.85104 6.9457 5.85104 6.84656 5.75397L5.21385 4.15542C5.01556 3.96128 5.01556 3.64651 5.21385 3.45237L5.73772 2.93946ZM23.4756 6.24544L24.9288 7.66816C25.127 7.8623 25.127 8.17707 24.9288 8.37121L18.3766 14.7864C18.1783 14.9806 17.8568 14.9806 17.6585 14.7864C17.6585 14.7864 17.6585 14.7864 17.6585 14.7864L13.0082 10.2334C12.9586 10.1848 12.8782 10.1848 12.8287 10.2334H12.8287L8.17842 14.7864C7.98014 14.9806 7.65865 14.9806 7.46036 14.7864C7.46035 14.7864 7.46035 14.7864 7.46035 14.7864L0.907994 8.37113C0.709705 8.17698 0.709705 7.86222 0.907994 7.66808L2.36111 6.24536C2.5594 6.05122 2.88089 6.05122 3.07917 6.24536L7.72958 10.7985C7.77915 10.847 7.85952 10.847 7.90909 10.7985C7.9091 10.7985 7.9091 10.7985 7.9091 10.7985L12.5593 6.24536C12.7576 6.05121 13.079 6.05121 13.2773 6.24534C13.2773 6.24535 13.2773 6.24535 13.2773 6.24535L17.9277 10.7985C17.9773 10.847 18.0577 10.847 18.1073 10.7985L22.7576 6.24544C22.9559 6.0513 23.2774 6.0513 23.4756 6.24544Z" fill="#3B99FC"/>
</svg>
